<svg width="25" height="19" viewBox="0 0 25 19" fill="none" xmlns="http://www.w3.org/2000/svg">
<path d="M21.2882 2.44241C19.7582 1.75241 18.1182 1.24241 16.4032 0.952413C16.3879 0.949481 16.3721 0.951371 16.3579 0.95782C16.3438 0.96427 16.332 0.974961 16.3242 0.988413C16.1142 1.35741 15.8802 1.83841 15.7162 2.21841C13.8973 1.94665 12.0481 1.94665 10.2292 2.21841C10.0465 1.79727 9.84053 1.38664 9.61218 0.988413C9.60444 0.974796 9.59273 0.963863 9.57862 0.957073C9.5645 0.950284 9.54865 0.94796 9.53318 0.950413C7.81918 1.24041 6.17918 1.75041 4.64818 2.44141C4.63501 2.44694 4.62385 2.45636 4.61618 2.46841C1.50418 7.04341 0.651184 11.5054 1.07018 15.9114C1.07135 15.9222 1.0747 15.9326 1.08003 15.9421C1.08536 15.9516 1.09256 15.9598 1.10118 15.9664C2.91758 17.2888 4.94352 18.2962 7.09418 18.9464C7.10918 18.951 7.12521 18.951 7.1402 18.9464C7.15518 18.9417 7.16842 18.9327 7.17818 18.9204C7.64018 18.3004 8.05218 17.6454 8.40418 16.9574C8.42518 16.9174 8.40518 16.8694 8.36318 16.8534C7.71719 16.6101 7.09127 16.3166 6.49118 15.9754C6.4804 15.9693 6.47131 15.9605 6.46474 15.95C6.45817 15.9395 6.45431 15.9275 6.45352 15.9151C6.45272 15.9027 6.45502 15.8903 6.4602 15.879C6.46538 15.8677 6.47327 15.8579 6.48318 15.8504C6.60918 15.7574 6.73518 15.6604 6.85518 15.5634C6.86599 15.5547 6.879 15.5491 6.89277 15.5474C6.90654 15.5456 6.92053 15.5477 6.93318 15.5534C10.8602 17.3174 15.1132 17.3174 18.9942 15.5534C19.0069 15.5474 19.021 15.545 19.035 15.5466C19.0489 15.5482 19.0622 15.5537 19.0732 15.5624C19.1932 15.6604 19.3182 15.7574 19.4452 15.8504C19.4552 15.8577 19.4632 15.8674 19.4686 15.8786C19.4739 15.8898 19.4764 15.9021 19.4758 15.9145C19.4752 15.9269 19.4715 15.939 19.4652 15.9496C19.4588 15.9602 19.4498 15.9691 19.4392 15.9754C18.8412 16.3194 18.2192 16.6104 17.5662 16.8524C17.5562 16.8561 17.547 16.8618 17.5394 16.8692C17.5318 16.8767 17.5258 16.8857 17.5219 16.8956C17.518 16.9056 17.5163 16.9162 17.5169 16.9269C17.5174 16.9375 17.5203 16.9479 17.5252 16.9574C17.8852 17.6444 18.2972 18.2984 18.7502 18.9194C18.7596 18.9322 18.7727 18.9417 18.7878 18.9467C18.8028 18.9517 18.819 18.952 18.8342 18.9474C20.9885 18.2991 23.0178 17.2912 24.8362 15.9664C24.8451 15.9602 24.8525 15.9522 24.858 15.9429C24.8635 15.9336 24.867 15.9232 24.8682 15.9124C25.3682 10.8184 24.0302 6.39241 21.3192 2.47041C21.3125 2.45767 21.3015 2.44773 21.2882 2.44241ZM8.99118 13.2284C7.80918 13.2284 6.83418 12.1594 6.83418 10.8484C6.83418 9.53641 7.79018 8.46841 8.99118 8.46841C10.2012 8.46841 11.1672 9.54541 11.1482 10.8484C11.1482 12.1604 10.1922 13.2284 8.99118 13.2284ZM16.9662 13.2284C15.7832 13.2284 14.8092 12.1594 14.8092 10.8484C14.8092 9.53641 15.7642 8.46841 16.9662 8.46841C18.1762 8.46841 19.1422 9.54541 19.1232 10.8484C19.1232 12.1604 18.1772 13.2284 16.9662 13.2284Z" fill="#FB385B"/>
</svg>
