<svg width="19" height="19" viewBox="0 0 19 19" fill="none" xmlns="http://www.w3.org/2000/svg">
<path d="M9.97171 0.949464C4.99863 0.947398 0.970703 5.08281 0.970703 10.187C0.970703 14.2233 3.49042 17.6543 6.99953 18.9143C7.4721 19.0362 7.39971 18.6913 7.39971 18.4558V16.8549C4.67085 17.1833 4.56025 15.3284 4.37725 15.0185C4.00724 14.3699 3.13247 14.2047 3.3939 13.8948C4.01528 13.5664 4.64873 13.9775 5.38272 15.0908C5.91361 15.8985 6.94925 15.7622 7.47411 15.6279C7.58873 15.1425 7.83407 14.7087 8.17191 14.372C5.34452 13.8515 4.1661 12.0791 4.1661 9.97219C4.1661 8.94969 4.49389 8.00983 5.13739 7.25174C4.72716 6.00202 5.1756 4.93202 5.23593 4.77297C6.40429 4.66555 7.6189 5.63227 7.71341 5.7087C8.37703 5.52486 9.13515 5.42777 9.98378 5.42777C10.8364 5.42777 11.5966 5.52899 12.2662 5.7149C12.4934 5.53725 13.6196 4.70687 14.7055 4.80808C14.7638 4.96714 15.2022 6.01235 14.8161 7.24554C15.4676 8.00569 15.7994 8.95382 15.7994 9.97838C15.7994 12.0895 14.613 13.8639 11.7775 14.3761C12.0204 14.6215 12.2132 14.9141 12.3448 15.2368C12.4763 15.5595 12.544 15.906 12.5437 16.2559V18.5797C12.5598 18.7656 12.5437 18.9495 12.8454 18.9495C16.4067 17.7163 18.9707 14.2605 18.9707 10.1891C18.9707 5.08281 14.9408 0.949464 9.97171 0.949464Z" fill="#FB385B"/>
</svg>
