<svg width="19" height="19" viewBox="0 0 19 19" fill="none" xmlns="http://www.w3.org/2000/svg">
<path fill-rule="evenodd" clip-rule="evenodd" d="M5.51708 1.00346C6.47681 0.959281 6.78281 0.949463 9.22754 0.949463C11.6723 0.949463 11.9783 0.960099 12.9372 1.00346C13.8961 1.04683 14.5506 1.19983 15.1234 1.42155C15.7231 1.64819 16.2672 2.00246 16.7172 2.46064C17.1754 2.90983 17.5288 3.4531 17.7546 4.05364C17.9772 4.62637 18.1294 5.28092 18.1735 6.23819C18.2177 7.19955 18.2275 7.50555 18.2275 9.94946C18.2275 12.3942 18.2169 12.7002 18.1735 13.6599C18.1302 14.6172 17.9772 15.2717 17.7546 15.8445C17.5288 16.4451 17.1748 16.9893 16.7172 17.4391C16.2672 17.8973 15.7231 18.2507 15.1234 18.4766C14.5506 18.6991 13.8961 18.8513 12.9388 18.8955C11.9783 18.9396 11.6723 18.9495 9.22754 18.9495C6.78281 18.9495 6.47681 18.9388 5.51708 18.8955C4.55981 18.8521 3.90527 18.6991 3.33254 18.4766C2.73193 18.2507 2.18776 17.8967 1.7379 17.4391C1.28003 16.9896 0.925706 16.4457 0.69963 15.8453C0.477903 15.2726 0.325721 14.618 0.281539 13.6607C0.237357 12.6994 0.227539 12.3934 0.227539 9.94946C0.227539 7.50474 0.238175 7.19874 0.281539 6.23983C0.324903 5.28092 0.477903 4.62637 0.69963 4.05364C0.92604 3.45317 1.28064 2.90926 1.73872 2.45983C2.18794 2.00205 2.73156 1.64773 3.33172 1.42155C3.90445 1.19983 4.55899 1.04764 5.51627 1.00346H5.51708ZM12.8644 2.62346C11.9153 2.5801 11.6305 2.5711 9.22754 2.5711C6.82454 2.5711 6.53981 2.5801 5.59072 2.62346C4.71281 2.66355 4.23663 2.81001 3.91918 2.93355C3.49945 3.09719 3.19918 3.2911 2.88418 3.6061C2.58558 3.8966 2.35578 4.25024 2.21163 4.6411C2.08808 4.95855 1.94163 5.43474 1.90154 6.31264C1.85818 7.26174 1.84918 7.54646 1.84918 9.94946C1.84918 12.3525 1.85818 12.6372 1.90154 13.5863C1.94163 14.4642 2.08808 14.9404 2.21163 15.2578C2.35563 15.6481 2.58554 16.0024 2.88418 16.2928C3.17463 16.5915 3.5289 16.8214 3.91918 16.9654C4.23663 17.0889 4.71281 17.2354 5.59072 17.2755C6.53981 17.3188 6.82372 17.3278 9.22754 17.3278C11.6314 17.3278 11.9153 17.3188 12.8644 17.2755C13.7423 17.2354 14.2184 17.0889 14.5359 16.9654C14.9556 16.8017 15.2559 16.6078 15.5709 16.2928C15.8695 16.0024 16.0994 15.6481 16.2434 15.2578C16.367 14.9404 16.5134 14.4642 16.5535 13.5863C16.5969 12.6372 16.6059 12.3525 16.6059 9.94946C16.6059 7.54646 16.5969 7.26174 16.5535 6.31264C16.5134 5.43474 16.367 4.95855 16.2434 4.6411C16.0798 4.22137 15.8859 3.9211 15.5709 3.6061C15.2804 3.30752 14.9268 3.07773 14.5359 2.93355C14.2184 2.81001 13.7423 2.66355 12.8644 2.62346ZM8.07799 12.7239C8.71999 12.9912 9.43485 13.0272 10.1005 12.826C10.7661 12.6247 11.3412 12.1986 11.7276 11.6204C12.1139 11.0422 12.2876 10.3478 12.2189 9.65582C12.1501 8.96383 11.8433 8.31717 11.3507 7.82628C11.0367 7.51249 10.6571 7.27222 10.2391 7.12277C9.82109 6.97331 9.37516 6.91839 8.9334 6.96197C8.49164 7.00554 8.06503 7.14652 7.68429 7.37475C7.30355 7.60299 6.97815 7.9128 6.73151 8.28189C6.48488 8.65097 6.32315 9.07015 6.25796 9.50925C6.19277 9.94834 6.22575 10.3964 6.35453 10.8212C6.4833 11.2461 6.70466 11.6371 7.00267 11.9661C7.30069 12.2951 7.66794 12.5539 8.07799 12.7239ZM5.95645 6.67837C6.38601 6.24881 6.89598 5.90806 7.45724 5.67558C8.01849 5.4431 8.62004 5.32344 9.22754 5.32344C9.83504 5.32344 10.4366 5.4431 10.9978 5.67558C11.5591 5.90806 12.0691 6.24881 12.4986 6.67837C12.9282 7.10794 13.2689 7.61791 13.5014 8.17916C13.7339 8.74042 13.8536 9.34196 13.8536 9.94946C13.8536 10.557 13.7339 11.1585 13.5014 11.7198C13.2689 12.281 12.9282 12.791 12.4986 13.2206C11.6311 14.0881 10.4544 14.5755 9.22754 14.5755C8.00064 14.5755 6.824 14.0881 5.95645 13.2206C5.0889 12.353 4.60152 11.1764 4.60152 9.94946C4.60152 8.72257 5.0889 7.54592 5.95645 6.67837ZM14.8795 6.01237C14.986 5.91196 15.0712 5.7912 15.1302 5.65726C15.1891 5.52332 15.2206 5.37891 15.2227 5.23259C15.2248 5.08626 15.1976 4.941 15.1426 4.8054C15.0876 4.6698 15.0059 4.54661 14.9024 4.44313C14.7989 4.33965 14.6758 4.25799 14.5401 4.20298C14.4045 4.14796 14.2593 4.12072 14.113 4.12285C13.9666 4.12498 13.8222 4.15645 13.6883 4.2154C13.5543 4.27434 13.4336 4.35956 13.3332 4.46601C13.1379 4.67303 13.031 4.94802 13.0351 5.23259C13.0393 5.51716 13.1542 5.78891 13.3554 5.99015C13.5566 6.1914 13.8284 6.30629 14.113 6.31043C14.3975 6.31458 14.6725 6.20766 14.8795 6.01237Z" fill="#FB385B"/>
</svg>
