<svg width="21" height="19" viewBox="0 0 21 19" fill="none" xmlns="http://www.w3.org/2000/svg">
<path d="M20.5996 10.0762C20.5996 8.80862 19.6012 7.79453 18.3531 7.92129C17.8539 7.92129 17.2299 8.17481 16.8555 8.5551C15.1082 7.41425 13.1113 6.65369 10.9896 6.65369L11.9881 1.83679L15.233 2.59735C15.233 3.48467 15.9818 4.11848 16.8555 4.11848C17.7291 4.11848 18.3531 3.35791 18.3531 2.47059C18.3531 1.58327 17.6043 0.949463 16.7307 0.949463C16.1066 0.949463 15.6074 1.32974 15.3578 1.83679L11.8633 0.949463H11.6137C11.4888 0.949463 11.4888 1.07622 11.4888 1.20298L10.2408 6.65369C8.11911 6.65369 6.12223 7.28749 4.37496 8.5551C3.50133 7.66777 2.12847 7.66777 1.25484 8.5551C0.381201 9.44242 0.381201 10.8368 1.25484 11.7241C1.37964 11.8509 1.62925 12.1044 1.87886 12.1044V12.7382C1.87886 16.1607 5.74782 18.9495 10.6152 18.9495C15.4826 18.9495 19.3516 16.1607 19.3516 12.7382V12.1044C20.1004 11.7241 20.5996 10.9635 20.5996 10.0762ZM5.62301 11.7241C5.62301 10.8368 6.37184 10.203 7.12067 10.203C7.99431 10.203 8.61833 10.9635 8.61833 11.7241C8.61833 12.4847 7.8695 13.2452 7.12067 13.2452C6.24704 13.2452 5.62301 12.6114 5.62301 11.7241ZM14.3594 15.9072C13.2361 16.6678 11.9881 17.1748 10.6152 17.0481C9.24236 17.0481 7.99431 16.6678 6.87106 15.9072C6.74626 15.7804 6.74626 15.5269 6.87106 15.2734C6.99587 15.1466 7.24548 15.1466 7.37028 15.2734C8.24392 15.9072 9.36716 16.2875 10.4904 16.1607C11.6137 16.2875 12.7369 15.9072 13.6105 15.2734C13.7353 15.1466 13.9849 15.1466 14.2346 15.2734C14.4842 15.4002 14.4842 15.6537 14.3594 15.9072ZM13.9849 13.2452C13.1113 13.2452 12.4873 12.4847 12.4873 11.7241C12.4873 10.9635 13.2361 10.203 13.9849 10.203C14.8586 10.203 15.4826 10.9635 15.4826 11.7241C15.6074 12.6114 14.8586 13.2452 13.9849 13.2452Z" fill="#FB385B"/>
</svg>
