<svg width="23" height="19" viewBox="0 0 23 19" fill="none" xmlns="http://www.w3.org/2000/svg">
<path d="M22.8568 3.08459C22.0425 3.4454 21.1678 3.68919 20.2483 3.79938C21.1971 3.23164 21.9069 2.33807 22.2454 1.28542C21.3539 1.81492 20.3783 2.18764 19.3609 2.38735C18.6767 1.65683 17.7704 1.17262 16.7829 1.00992C15.7953 0.847208 14.7816 1.0151 13.8992 1.48753C13.0168 1.95995 12.3151 2.71048 11.903 3.62259C11.4909 4.5347 11.3914 5.55735 11.62 6.53178C9.81375 6.44109 8.0467 5.9716 6.43359 5.15379C4.82048 4.33597 3.39735 3.18812 2.25657 1.7847C1.86651 2.45756 1.64222 3.23769 1.64222 4.06853C1.64178 4.81647 1.82597 5.55296 2.17844 6.21264C2.53091 6.87233 3.04076 7.43481 3.66275 7.85019C2.9414 7.82724 2.23597 7.63233 1.60516 7.28168V7.34019C1.60509 8.3892 1.96796 9.40594 2.63218 10.2179C3.29641 11.0298 4.2211 11.5869 5.24933 11.7947C4.58016 11.9758 3.87859 12.0025 3.1976 11.8727C3.48771 12.7753 4.05281 13.5647 4.8138 14.1301C5.57478 14.6956 6.49356 15.009 7.44149 15.0264C5.83232 16.2896 3.84499 16.9748 1.79922 16.9718C1.43683 16.9719 1.07475 16.9508 0.714844 16.9084C2.79142 18.2436 5.20871 18.9522 7.67748 18.9495C16.0346 18.9495 20.6032 12.0278 20.6032 6.0247C20.6032 5.82966 20.5983 5.63268 20.5896 5.43765C21.4782 4.795 22.2453 3.99919 22.8549 3.08752L22.8568 3.08459Z" fill="#FB385B"/>
</svg>
