<svg width="109" height="73" viewBox="0 0 109 73" fill="none" xmlns="http://www.w3.org/2000/svg">
<g clip-path="url(#clip0_225:1584)">
<path d="M85.2013 7.6321C84.6691 7.6321 84.1473 7.6321 83.5836 7.6321C84.1263 5.08127 84.6586 2.56241 85.2013 0.00801905C85.3378 0.00801905 85.4534 0.00801905 85.5654 0.00801905C86.1957 0.00801905 86.826 0.0257825 87.4562 0.000913652C87.7609 -0.00974444 88.0025 0.0719676 88.1985 0.292235C88.2861 0.39171 88.3631 0.452106 88.5137 0.359736C88.4366 0.253155 88.3666 0.157232 88.2756 0.0293352C89.333 0.0293352 90.3624 0.0293352 91.4409 0.0293352C91.686 1.12712 91.9346 2.23201 92.1797 3.3369C91.5879 2.79333 90.9717 2.33859 90.2399 1.92292C90.2784 2.04371 90.2819 2.13964 90.3274 2.17161C90.541 2.32082 90.7756 2.44162 90.9892 2.59083C91.1047 2.67254 91.1923 2.79333 91.3008 2.89281C91.616 3.18413 91.9416 3.46835 92.2497 3.77032C92.3268 3.84493 92.3793 3.96572 92.4073 4.07586C92.894 6.09379 93.3772 8.10817 93.8534 10.1297C94.2911 11.9842 94.7218 13.8422 95.1594 15.7003C95.198 15.8708 95.254 16.0342 95.324 16.2794C95.5306 15.3628 95.7197 14.5243 95.9052 13.6859C96.1994 12.3501 96.4935 11.0178 96.7876 9.68201C97.1973 7.80619 97.6 5.93036 98.0131 4.05454C98.2897 2.80044 98.5699 1.54634 98.85 0.295787C98.913 0.0186771 98.913 0.0151244 99.1931 0.0151244C101.795 0.0151244 104.396 0.0151244 106.994 0.0151244C107.064 0.0151244 107.131 0.0257825 107.243 0.0364406C105.695 6.52722 104.155 12.9931 102.611 19.4768C102.267 19.4022 101.935 19.3311 101.602 19.2565C101.882 19.4732 102.194 19.5834 102.59 19.5585C102.145 21.3597 101.77 23.1467 101.255 24.9337C101.42 25.0119 101.441 25.1718 101.441 25.3778C101.427 26.2411 101.438 27.1044 101.445 27.9642C101.445 28.0672 101.469 28.1738 101.494 28.2768C101.662 28.9767 101.858 29.6695 101.994 30.3729C102.113 30.9875 102.302 31.5844 102.435 32.1954C102.569 32.8172 102.723 33.4353 102.87 34.0571C103.017 34.6752 103.167 35.2934 103.314 35.9116C103.896 38.331 104.473 40.7468 105.058 43.1662C105.531 45.1237 106.003 47.0812 106.473 49.0423C106.732 50.1295 106.984 51.2201 107.239 52.3108C106.973 52.3819 100.047 52.4138 99.2106 52.3428C97.9291 46.9711 96.6476 41.5888 95.366 36.2029C94.9669 37.5174 94.7112 38.8567 94.4031 40.1855C94.0915 41.539 93.8044 42.8997 93.5067 44.2568C93.2126 45.6033 92.922 46.9498 92.6279 48.2963C92.3338 49.6427 92.0361 50.9892 91.735 52.3463C88.9548 52.3463 86.1957 52.3463 83.3945 52.3463C83.4716 52.0301 83.5451 51.7282 83.6186 51.4262C83.9408 50.0726 84.2594 48.7226 84.5815 47.369C85.1242 45.0988 85.6705 42.8322 86.2132 40.562C86.7384 38.3736 87.2707 36.1887 87.7924 34.0002C88.2581 32.0533 88.7203 30.1029 89.1824 28.1525C89.2105 28.0281 89.2175 27.8931 89.2175 27.7652C89.221 26.6994 89.242 25.6336 89.207 24.5714C89.1929 24.1308 89.0634 23.6903 88.9583 23.2569C88.6047 21.7647 88.2371 20.2797 87.8799 18.7911C87.5508 17.4162 87.2286 16.0413 86.903 14.6664C86.4128 12.6165 85.9226 10.5666 85.4324 8.51673C85.3553 8.2183 85.2783 7.93764 85.2013 7.6321ZM99.0145 29.0087C98.857 29.0549 98.843 29.1899 98.857 29.3391C98.906 29.2254 98.955 29.1117 99.004 29.0016C99.2001 29.0264 99.1196 28.895 99.1371 28.8204C99.1161 28.8097 99.0916 28.7991 99.0706 28.792C99.0496 28.8595 99.0321 28.9341 99.0145 29.0087ZM98.0902 18.038C97.9431 17.8639 97.8661 17.5903 97.5544 17.7253C97.5369 17.7324 97.5019 17.7218 97.4879 17.7076C97.3303 17.5299 97.1343 17.6152 96.9697 17.6614C96.6476 17.7502 96.3919 17.5761 96.1223 17.4731C95.9578 17.4091 95.8247 17.267 95.6671 17.1782C95.373 17.0112 95.331 16.9792 95.1489 17.0254C94.8373 17.1 94.5397 17.0006 94.2351 17.0006C94.144 17.0006 94.0565 16.9615 93.9654 16.9366C93.7483 16.8691 93.5278 16.8016 93.3107 16.7306C93.2897 16.7235 93.2721 16.7057 93.2406 16.6844C93.2126 16.6027 93.1811 16.5067 93.1531 16.4286C92.9045 16.4002 92.6699 16.4144 92.4668 16.3398C92.2637 16.2616 92.1132 16.2936 91.9311 16.3895C92.2427 16.5352 92.5298 16.695 92.8345 16.8123C93.3177 16.997 93.8009 17.1924 94.3051 17.3025C94.5677 17.3594 94.8583 17.2706 95.0369 17.5583C95.0474 17.5725 95.0824 17.5797 95.1034 17.5761C95.401 17.5441 95.6742 17.7573 95.9858 17.6507C96.0628 17.6258 96.1959 17.6862 96.2659 17.7537C96.3955 17.8816 96.518 17.8781 96.6756 17.8283C96.8927 17.7573 97.1062 17.8994 97.1483 18.1019C97.4529 18.077 97.7575 18.0593 98.0902 18.038ZM99.6028 34.0926C99.3262 34.0855 99.2316 34.3057 99.1441 34.5296C99.0846 34.6823 99.0321 34.8387 98.962 34.9879C98.9305 35.0554 98.871 35.1584 98.815 35.1619C98.6644 35.1797 98.6364 35.2898 98.5769 35.3893C98.4438 35.6096 98.3072 35.8299 98.1707 36.0466C98.1357 36.107 98.0551 36.1745 98.0692 36.2206C98.1182 36.4089 97.9816 36.4978 97.9011 36.6186C97.8346 36.7216 97.7645 36.8211 97.698 36.9241C98.7589 36.0004 99.3192 34.7143 100.079 33.5774C100.086 33.5632 100.075 33.5384 100.072 33.517C99.9739 33.517 99.8724 33.517 99.7569 33.517C99.7078 33.7018 99.6588 33.8794 99.6028 34.0926ZM98.1882 18.3541C98.2687 18.4003 98.3493 18.4572 98.4403 18.4927C98.7309 18.6135 99.0741 18.5709 99.3367 18.7911C99.3787 18.8267 99.4802 18.8302 99.5293 18.8053C99.6833 18.7201 99.8304 18.7805 99.9179 18.8657C100.047 18.9972 100.174 18.9794 100.293 18.9119C100.485 18.8053 100.611 18.8231 100.709 19.0327C100.723 19.0647 100.814 19.0611 100.909 19.0824C100.825 18.9297 100.765 18.8231 100.702 18.7094C100.548 18.7094 100.394 18.6952 100.244 18.713C99.9459 18.7449 99.6903 18.5922 99.4487 18.4749C99.2421 18.3755 99.032 18.2902 98.8255 18.2014C98.7239 18.1587 98.6154 18.1339 98.5068 18.1019C98.4193 18.1694 98.3248 18.244 98.1882 18.3541ZM101.028 18.5922C101.185 18.7947 101.301 18.9403 101.483 19.1784C101.466 18.7663 101.816 18.9013 101.973 18.7059C101.907 18.6988 101.868 18.681 101.84 18.6916C101.623 18.7734 101.42 18.8089 101.255 18.5815C101.238 18.5566 101.136 18.5851 101.028 18.5922ZM101.777 19.7113C101.392 19.5869 101.077 19.4875 100.765 19.388C100.758 19.4128 100.748 19.4342 100.741 19.459C101.021 19.5798 101.297 19.7006 101.578 19.8143C101.606 19.825 101.655 19.7752 101.777 19.7113ZM101.164 25.8965C101.129 25.8645 101.098 25.8326 101.063 25.8006C100.937 26.1203 100.566 26.2305 100.454 26.5644C100.471 26.5822 100.492 26.5964 100.51 26.6142C100.73 26.3761 100.947 26.1381 101.164 25.8965ZM91.9101 16.219C91.7315 16.0236 91.4549 15.9561 91.0697 16.0165C91.3393 16.0662 91.5879 16.2261 91.9101 16.219ZM98.941 28.5824C98.9095 28.5575 98.878 28.5362 98.8465 28.5113C98.7449 28.7316 98.6434 28.9554 98.5418 29.1757C98.5699 29.1899 98.5979 29.2041 98.6259 29.2183C98.7309 29.0051 98.836 28.792 98.941 28.5824ZM99.0601 29.5736C99.032 29.5771 99.004 29.5807 98.976 29.5842C99.011 29.7796 99.0461 29.975 99.0951 30.2486C99.2561 29.9501 99.1756 29.7583 99.0601 29.5736ZM98.1532 31.1652C98.0271 31.3677 97.9186 31.5453 97.8065 31.7229C98.0096 31.6199 98.0586 31.3215 98.3773 31.4103C98.3843 31.3854 98.3878 31.3606 98.3948 31.3321C98.3283 31.2895 98.2617 31.2433 98.1532 31.1652ZM88.9023 15.4267C88.8953 15.4587 88.8883 15.4907 88.8813 15.5191C89.0739 15.5546 89.2665 15.5901 89.4591 15.6221C89.4661 15.5937 89.4696 15.5653 89.4766 15.5369C89.2875 15.5013 89.0949 15.4658 88.9023 15.4267ZM100.723 26.8131C100.972 26.7278 100.972 26.7278 100.846 26.4863C100.8 26.6106 100.762 26.7136 100.723 26.8131ZM100.286 26.7918C100.181 26.909 100.096 27.0085 99.9809 27.1364C100.216 27.1151 100.342 27.0511 100.286 26.7918ZM99.6133 27.7972C99.5958 27.783 99.5783 27.7652 99.5573 27.751C99.4592 27.8683 99.3612 27.9855 99.2631 28.0992C99.5047 28.1063 99.5328 27.9322 99.6133 27.7972ZM88.7378 0.526713C88.6887 0.715006 88.6887 0.715006 88.9724 0.789612C88.8848 0.690137 88.8148 0.61553 88.7378 0.526713ZM89.7637 1.44686C89.7777 1.42554 89.7917 1.40068 89.8057 1.37936C89.7252 1.33317 89.6446 1.28699 89.5641 1.2408C89.5536 1.26212 89.5431 1.27988 89.5291 1.3012C89.6096 1.34739 89.6867 1.39712 89.7637 1.44686ZM100.216 19.2849C100.174 19.1073 100.065 19.1215 99.9389 19.2032C100.033 19.2317 100.125 19.2565 100.216 19.2849ZM97.9396 30.039C97.9221 30.0247 97.9046 30.0105 97.8871 29.9963C97.8556 30.0638 97.8205 30.1349 97.789 30.2024C97.8065 30.213 97.8275 30.2201 97.8451 30.2308C97.8766 30.1669 97.9081 30.1029 97.9396 30.039ZM90.6776 15.8637C90.6706 15.885 90.6671 15.9028 90.6601 15.9241C90.7266 15.9419 90.7931 15.9632 90.8596 15.9809C90.8631 15.9632 90.8702 15.9419 90.8737 15.9241C90.8106 15.9028 90.7441 15.8815 90.6776 15.8637ZM101.434 31.6554C101.602 31.6128 101.627 31.5382 101.508 31.3996C101.476 31.5098 101.455 31.5844 101.434 31.6554Z" fill="white"/>
<path d="M23.474 52.332C21.135 52.332 18.8065 52.332 16.436 52.332C16.2189 49.8167 16.0018 47.3014 15.7848 44.7719C13.6944 44.7719 11.632 44.7719 9.52065 44.7719C9.30356 47.3156 9.08297 49.8558 8.86588 52.4244C8.70481 52.4244 8.57876 52.4244 8.4527 52.4244C6.59693 52.4244 4.74466 52.4208 2.88889 52.4208C2.74183 52.4208 2.61227 52.4208 2.48972 52.5558C2.41269 52.6411 2.23762 52.7939 2.08355 52.602C1.92949 52.6624 1.77542 52.7228 1.60035 52.7939C1.58985 52.7228 1.57584 52.6162 1.56183 52.5096C1.53732 52.4919 1.51281 52.4706 1.4883 52.4528C1.42528 52.5452 1.36575 52.6411 1.31323 52.7157C1.17667 52.6979 1.04362 52.7121 0.942076 52.6624C0.795015 52.5878 0.658458 52.4812 0.546411 52.3604C0.511396 52.3213 0.54291 52.1828 0.581426 52.1117C0.623443 52.0336 0.717982 51.9874 0.774006 51.9128C0.819525 51.8524 0.840533 51.7707 0.889554 51.657C0.889554 51.657 0.970087 51.6321 0.994598 51.6605C1.15216 51.8346 1.35175 51.863 1.56884 51.8879C1.66338 51.8986 1.74041 51.9163 1.76842 51.8311C1.78943 51.7742 1.74391 51.6925 1.7264 51.625C1.7194 51.5966 1.69839 51.5717 1.68088 51.5362C1.74041 51.5362 1.78593 51.5362 1.82794 51.5362C1.83145 51.4403 1.83845 51.3372 1.84545 51.2165C1.73691 51.2769 1.62486 51.3444 1.4848 51.4225C1.46029 51.1845 1.37976 50.9642 1.2327 50.7404C1.44979 50.9393 1.65287 50.7475 1.88397 50.7972C1.77192 50.5059 1.75091 50.2572 2.01352 50.1187C1.87697 50.0441 1.73341 49.9908 1.61436 49.8984C1.44979 49.7705 1.65987 49.6426 1.64587 49.5076C1.59335 49.4614 1.54083 49.4117 1.44629 49.3264C1.61786 49.3371 1.7264 49.3513 1.83495 49.3477C1.92599 49.3477 2.01702 49.33 2.10106 49.3193C2.12207 49.1985 2.13957 49.0884 2.16058 48.9712C2.01002 48.829 1.85245 48.6763 1.67738 48.5058C1.93649 48.2073 2.10456 48.6265 2.34266 48.5448C2.34266 48.4382 2.38818 48.2855 2.33215 48.2002C2.1956 47.9942 2.26563 47.7881 2.28313 47.5856C2.36367 46.7294 2.45821 45.8768 2.54574 45.0206C2.55275 44.9424 2.54574 44.8642 2.54574 44.7541C2.02052 44.7541 1.52332 44.7541 0.998099 44.7541C1.53732 42.1393 2.06955 39.5601 2.61227 36.9417C2.84687 36.9417 3.08497 36.9417 3.35108 36.9417C3.68372 33.9503 4.00935 30.9909 4.33849 28.0138C4.49956 28.0813 4.69914 28.0955 4.77967 28.3158C4.79368 28.3513 4.8497 28.3833 4.88822 28.3868C5.0738 28.401 5.16483 28.5431 5.28038 28.6604C5.34691 28.7314 5.43795 28.7847 5.52899 28.8274C5.71456 28.9091 5.84762 29.037 5.98067 29.1968C6.14524 29.3922 6.36233 29.545 6.57242 29.6978C6.83853 29.8967 7.15366 30.0424 7.28322 30.4083C7.2482 30.458 7.20268 30.522 7.14666 30.5966C7.19218 30.6073 7.2342 30.6286 7.2517 30.6179C7.33574 30.5575 7.41277 30.4865 7.51431 30.4048C7.82944 30.7281 8.29514 30.7281 8.63128 31.0442C8.96392 31.3569 9.3981 31.5594 9.80777 31.8223C9.81477 31.9075 9.82177 32.0106 9.83228 32.1314C9.91982 32.1314 10.0039 32.1314 10.1054 32.1314C10.1264 32.2451 10.1474 32.3445 10.1754 32.4866C10.0704 32.444 9.98984 32.4156 9.91982 32.3872C9.81127 32.5293 9.6397 32.6749 9.57667 32.8597C9.51365 33.048 9.56267 33.2753 9.56267 33.4707C9.67471 33.556 9.78676 33.6342 9.8953 33.7159C10.0914 33.8615 10.1019 33.8615 10.277 33.6732C10.312 33.6342 10.368 33.6128 10.4555 33.5596C10.424 33.794 10.4976 33.9823 10.3645 34.1706C10.3225 34.231 10.361 34.3696 10.3855 34.4655C10.459 34.771 10.41 34.9451 10.1229 35.0979C10.0109 35.1583 9.98984 35.3856 9.77626 35.2755C9.77976 35.208 9.78326 35.1334 9.79026 35.041C9.59068 35.0837 9.3981 35.1227 9.18801 35.1689C9.153 35.3217 9.11448 35.478 9.06896 35.6734C8.93941 35.7231 8.77484 35.7835 8.57526 35.8546C8.56125 35.5846 8.54724 35.3714 8.53674 35.1441C8.42119 35.2897 8.30914 35.4247 8.2006 35.5597C8.51923 35.6876 8.56475 35.9789 8.57175 36.2916C8.70481 36.455 8.86938 36.3307 9.01294 36.3413C9.11098 36.1566 9.20202 35.9683 9.30356 35.7906C9.4121 35.6059 9.53465 35.7054 9.6537 35.7835C9.6432 35.8581 9.6327 35.9292 9.62219 36.0003C9.6432 36.0109 9.66421 36.0216 9.68522 36.0322C9.79726 35.8368 9.91281 35.645 10.0354 35.4354C10.2419 35.5206 10.3365 35.6379 10.312 35.8653C10.2665 36.2632 10.2419 36.6611 10.2069 37.1016C10.6131 37.1584 11.0158 37.1194 11.4149 37.1265C11.8351 37.1336 12.2553 37.1265 12.6755 37.1265C13.0851 37.1265 13.4913 37.1265 13.901 37.1265C14.3071 37.1265 14.7133 37.1265 15.1545 37.1265C15.1195 36.6291 15.095 36.1743 15.0565 35.7196C15.0179 35.2506 14.9689 34.7817 14.9269 34.3127C14.8674 33.691 14.8044 33.0693 14.7518 32.4511C14.7133 32.0035 14.6923 31.5558 14.6503 31.1117C14.5698 30.1845 14.4752 29.2608 14.3947 28.3335C14.3562 27.8894 14.3422 27.4383 14.3036 26.9942C14.2161 25.9603 14.1216 24.93 14.0305 23.8962C13.9815 23.3349 13.943 22.77 13.8905 22.2087C13.88 22.0808 13.9115 21.9955 13.992 21.8925C14.0971 21.761 14.1601 21.5905 14.2196 21.4271C14.2371 21.3845 14.1741 21.3134 14.0795 21.2459C14.02 21.4235 13.964 21.6012 13.9045 21.7788C13.6979 20.6739 13.6489 19.5584 13.5473 18.4464C13.4458 17.3202 13.3512 16.194 13.2532 15.0678C13.1552 13.9522 13.0571 12.8367 12.9661 11.7247C12.8715 10.6056 12.7805 9.48647 12.6334 8.36737C12.5879 8.84698 12.5424 9.32305 12.4969 9.80266C12.4023 10.8365 12.3078 11.8668 12.2203 12.9006C12.1607 13.604 12.1117 14.311 12.0522 15.0145C11.9367 16.4355 11.8176 17.8531 11.6986 19.2742C11.6075 20.3897 11.513 21.5052 11.4184 22.6172C11.3519 23.4024 11.2854 24.1911 11.2013 24.9762C11.1838 25.1326 11.0963 25.2782 11.0473 25.4097C11.0753 25.502 11.1348 25.5873 11.1278 25.669C11.0683 26.4542 11.0053 27.2429 10.9247 28.028C10.8617 28.6462 10.7812 29.2643 10.6901 29.879C10.6586 30.0886 10.5466 30.2626 10.3295 30.22C10.2525 30.3621 10.2034 30.5042 10.1124 30.5966C9.99685 30.7138 10.0284 30.7956 10.1194 30.927C10.1964 30.8844 10.27 30.8417 10.354 30.792C10.5501 30.8773 10.4415 31.1046 10.5641 31.3071C10.4065 31.2752 10.312 31.2574 10.2455 31.2432C10.0914 31.3817 9.94783 31.5061 9.82528 31.6162C9.26504 31.197 8.73632 30.8062 8.2111 30.4119C8.08155 30.3159 7.966 30.2129 7.93449 30.0282C7.90998 29.8967 7.82244 29.7795 7.75591 29.6409C7.58784 29.8328 7.40577 29.8399 7.20268 29.7013C7.03111 29.5841 6.84553 29.4917 6.67396 29.3709C6.07872 28.9553 5.564 28.4188 4.90573 28.0813C4.70264 27.9783 4.54158 27.7971 4.3525 27.6479C4.41202 27.0652 4.46804 26.4932 4.52757 25.9213C4.58359 25.3812 4.63962 24.8448 4.69564 24.3083C4.77617 23.5232 4.8532 22.738 4.93724 21.9529C4.99326 21.4164 5.05629 20.8764 5.11581 20.34C5.21385 19.402 5.30489 18.4641 5.40293 17.5298C5.51498 16.464 5.63403 15.3982 5.74258 14.3323C5.85112 13.2914 5.94216 12.2469 6.0507 11.2024C6.17676 9.98385 6.31331 8.76882 6.44287 7.55025C6.5199 6.8255 6.58293 6.0972 6.65646 5.37245C6.79301 4.07216 6.93307 2.77187 7.06963 1.47514C7.11865 0.995521 7.16767 0.51946 7.21669 0.0256348C10.8442 0.0256348 14.4437 0.0256348 18.0642 0.0256348C18.1097 0.42709 18.1552 0.810781 18.2008 1.19447C18.2918 1.99028 18.3863 2.78608 18.4739 3.57833C18.5544 4.31729 18.6244 5.05626 18.7085 5.79166C18.8625 7.15945 19.0236 8.52724 19.1777 9.89503C19.2337 10.3853 19.2827 10.8791 19.3247 11.3694C19.3352 11.4689 19.3072 11.5755 19.2897 11.6785C19.2512 11.8988 19.2092 12.1155 19.1567 12.3819C19.1146 12.3997 19.0201 12.4388 18.9186 12.4778C18.9186 12.5063 18.9151 12.5382 18.9151 12.5702C18.9116 12.6342 18.9326 12.7301 18.8976 12.755C18.7085 12.8935 18.6595 13.1138 18.5579 13.3021C18.4249 13.5437 18.2813 13.7746 18.1412 14.0126C18.1622 14.0304 18.1798 14.0481 18.2008 14.0659C18.2778 13.9842 18.3653 13.9096 18.4249 13.8137C18.649 13.4584 18.8625 13.0996 19.0796 12.7407C19.1567 12.6164 19.2267 12.4885 19.3212 12.3251C19.3668 12.6555 19.4228 12.9681 19.4543 13.2843C19.5383 14.0908 19.6119 14.9008 19.6959 15.7108C19.7869 16.567 19.892 17.4196 19.9865 18.2723C20.0495 18.8443 20.1021 19.4198 20.1651 19.9918C20.1826 20.1552 20.2141 20.3186 20.2351 20.4821C20.2456 20.5673 20.2386 20.6562 20.2456 20.7414C20.2666 20.9937 20.2316 21.2566 20.3927 21.4839C20.4242 21.5266 20.4487 21.6083 20.4312 21.6509C20.3051 21.9493 20.3892 22.2584 20.4067 22.5568C20.4172 22.7736 20.3507 22.8908 20.1406 22.9761C20.0355 22.8872 19.92 22.8304 20.0215 22.6243C20.0881 22.4893 19.9585 22.397 19.8114 22.3757C19.6924 22.3579 19.5733 22.3295 19.4368 22.3011C19.2652 22.4147 19.2617 22.6279 19.2162 22.8162C19.1952 22.9121 19.2687 22.9761 19.3668 22.9512C19.4543 22.9299 19.5313 22.8766 19.6189 22.834C19.6469 22.9228 19.6714 23.0045 19.6994 23.1004C19.8114 23.0755 19.913 23.0507 20.011 23.0294C20.06 23.3562 20.06 23.3562 19.9165 23.7079C20.0285 23.7506 20.1371 23.7896 20.2736 23.8394C20.1616 23.9815 20.0705 24.0454 19.9095 23.9637C19.7799 23.8962 19.6399 23.8394 19.4998 23.8074C19.4368 23.7896 19.3562 23.8358 19.2617 23.8607C19.3808 24.1378 19.4823 24.3794 19.5908 24.6352C19.6679 24.6423 19.7624 24.6352 19.8465 24.6707C19.899 24.692 19.927 24.7702 19.9655 24.8235C19.906 24.8661 19.85 24.93 19.7869 24.9443C19.7274 24.9585 19.6574 24.9194 19.5768 24.9016C19.5243 25.0118 19.4753 25.1077 19.4508 25.1574C19.4963 25.3173 19.5523 25.4274 19.5558 25.5411C19.5628 25.7934 19.4823 26.0527 19.6924 26.2765C19.7869 26.376 19.7589 26.4151 19.5873 26.5963C19.5593 26.5607 19.5348 26.5252 19.5068 26.4897C19.4788 26.4542 19.4508 26.4186 19.4018 26.3547C19.3247 26.479 19.2582 26.5892 19.1812 26.7135C19.2547 26.7668 19.3142 26.8236 19.3843 26.8556C19.6539 26.9906 19.6819 27.0368 19.6609 27.3388C19.6574 27.4063 19.6399 27.4986 19.6749 27.5377C19.8465 27.7189 19.8675 27.9498 19.92 28.2021C19.8394 28.195 19.7624 28.195 19.6924 28.1843C19.6154 28.1701 19.5418 28.1488 19.3948 28.1133C19.4893 28.2696 19.5488 28.3691 19.6154 28.4827C19.7169 28.4579 19.8009 28.4401 19.8885 28.4188C19.9655 28.5609 20.0355 28.6888 20.1301 28.8629C20.0005 29.1116 20.1056 29.3674 20.2456 29.6587C20.3647 29.9038 20.3787 30.2129 20.3927 30.4971C20.3997 30.6463 20.4347 30.7032 20.5432 30.7991C20.7253 30.9625 20.8899 31.165 20.8899 31.4564C20.8899 31.6766 20.8689 31.9502 20.9844 32.1029C21.1245 32.2841 21.1175 32.5257 21.3136 32.6749C21.2365 32.7389 21.177 32.7851 21.1245 32.8277C21.107 33.0906 21.2926 33.1297 21.4956 33.1794C21.5482 33.6555 21.6042 34.1315 21.6532 34.6076C21.7617 35.6485 21.8738 36.6895 21.9788 37.734C22.0839 38.7642 22.1819 39.7981 22.287 40.8284C22.3815 41.7414 22.483 42.6545 22.5811 43.5675C22.6406 44.1182 22.6931 44.6688 22.7527 45.2195C22.8437 46.0615 22.9382 46.9035 23.0258 47.7455C23.0818 48.2855 23.1238 48.8255 23.1763 49.3619C23.2674 50.2857 23.3654 51.2129 23.46 52.1366C23.481 52.197 23.474 52.2538 23.474 52.332ZM1.20469 52.197C1.08564 52.2041 0.966586 52.2112 0.844035 52.2148C0.851038 52.2467 0.854539 52.2787 0.861542 52.3071C0.973589 52.2681 1.08564 52.2254 1.19768 52.1863C1.27471 52.1721 1.35175 52.1579 1.42878 52.1437C1.41127 52.1011 1.39376 52.0549 1.36575 51.9732C1.29572 52.0762 1.2502 52.1366 1.20469 52.197ZM7.68588 35.4283C7.51081 35.4141 7.51081 35.4141 7.43378 35.8262C7.15716 35.9931 7.09764 36.0535 7.18518 36.2418C7.25871 36.3946 7.41977 36.5012 7.53182 36.622C7.78743 36.5403 7.86096 36.3697 7.90648 36.1388C7.56684 35.9931 7.60885 35.7125 7.68588 35.4283ZM19.5803 28.6959C19.4963 28.8416 19.3843 28.973 19.5313 29.1151C19.5978 29.1791 19.7694 29.0832 19.7904 28.9624C19.8254 28.7954 19.7379 28.7137 19.5803 28.6959ZM14.6258 20.2298C14.6503 20.244 14.6748 20.2547 14.6993 20.2689C14.7728 20.1197 14.8499 19.974 14.9549 19.7644C14.7903 19.8532 14.6993 19.9065 14.6118 19.9527C14.6188 20.0522 14.6223 20.141 14.6258 20.2298ZM17.4374 15.6007C17.1538 15.6682 17.1538 15.6682 17.1643 15.924C17.3394 15.8387 17.3394 15.8387 17.4374 15.6007ZM18.0922 14.2151C17.9872 14.4283 17.9031 14.5917 17.8051 14.7906C18.1027 14.5313 18.1272 14.4851 18.0922 14.2151ZM10.9457 25.6619C10.9247 25.6406 10.9037 25.6228 10.8827 25.6015C10.7637 25.772 10.6446 25.9426 10.5256 26.1131C10.5466 26.1273 10.5641 26.1415 10.5851 26.1557C10.7076 25.9923 10.8267 25.8253 10.9457 25.6619ZM15.207 19.4411C15.0319 19.4696 15.0319 19.4696 15.0635 19.6401C15.1195 19.5584 15.1615 19.5015 15.207 19.4411ZM19.4683 21.8854C19.3422 21.9529 19.3387 22.0239 19.4403 22.0914C19.4788 22.1128 19.5383 22.095 19.6119 22.095C19.5558 22.0097 19.5103 21.9458 19.4683 21.8854ZM17.6755 15.1743C17.553 15.2099 17.553 15.2099 17.567 15.3342C17.602 15.2845 17.6335 15.2383 17.6755 15.1743ZM15.4311 19.1285C15.4101 19.1072 15.3891 19.0859 15.3681 19.0645C15.1615 19.1782 15.1405 19.2067 15.2665 19.2919C15.3156 19.2422 15.3751 19.1853 15.4311 19.1285Z" fill="white"/>
<path d="M39.8716 36.8316C39.9907 36.6326 39.8576 36.558 39.7106 36.4905C39.4585 36.3768 39.2169 36.2205 38.9542 36.1566C38.4185 36.0251 37.9843 35.6734 37.4696 35.4993C37.1685 35.3963 37.1335 35.2861 37.214 34.97C37.4206 34.1457 37.6272 33.3215 37.8128 32.4902C37.8583 32.277 37.9318 32.0816 37.9983 31.8791C38.1279 31.4741 38.1699 31.0371 38.2505 30.6143C38.2294 30.6072 38.2049 30.6001 38.1839 30.5966C38.0894 30.9092 37.9913 31.2219 37.8968 31.5345C37.8443 31.7086 37.8093 31.8933 37.7427 32.0603C37.6762 32.2237 37.6622 32.3907 37.6167 32.5541C37.5572 32.7673 37.4171 32.9591 37.3576 33.1723C37.284 33.4387 37.263 33.723 37.207 33.9965C37.1545 34.2665 37.088 34.533 37.0249 34.803C37.0074 34.8811 36.9759 34.9557 36.9549 35.0303C36.8639 35.3892 36.6538 35.5135 36.3211 35.3821C36.0971 35.2932 35.8695 35.1973 35.6594 35.0765C35.4423 34.9522 35.2007 34.8811 35.0116 34.6928C34.9136 34.5934 34.7105 34.6111 34.5634 34.5543C34.2868 34.4442 34.0207 34.2878 33.7371 34.199C33.1838 34.0285 32.6551 33.8047 32.1194 33.5915C32.0354 33.556 31.9408 33.5489 31.8498 33.5276L31.8603 33.5382C31.8393 33.3215 31.6222 33.3997 31.5101 33.318C31.3036 33.1687 31.0269 33.1154 30.7503 33.0124C30.7503 24.5819 30.7503 16.1371 30.7503 7.65328C30.2041 7.65328 29.6859 7.65328 29.1187 7.65328C29.6649 5.09534 30.2006 2.59068 30.7468 0.0434019C30.8974 0.0434019 31.0339 0.0434019 31.167 0.0434019C35.4703 0.0434019 39.7736 0.0824815 44.0769 0.0291911C46.3703 0.000769508 48.6183 1.5604 49.5707 3.34386C50.0153 4.17519 50.306 5.04915 50.3655 5.99417C50.3865 6.32457 50.411 6.65142 50.411 6.98182C50.4145 14.8475 50.418 22.7132 50.4075 30.5824C50.404 32.2628 49.8613 33.7514 48.7443 35.009C47.6098 36.2845 46.2023 37.0305 44.5146 37.162C43.5972 37.233 42.6763 37.2046 41.7554 37.2082C41.4438 37.2082 41.1322 37.1513 40.8205 37.1371C40.6875 37.13 40.5544 37.1691 40.4214 37.1726C39.8506 37.1762 39.2799 37.1762 38.6671 37.1762C38.6601 37.3041 38.6531 37.4178 38.6531 37.5279C38.6531 38.2846 38.6531 39.0413 38.6531 39.7981C38.6531 40.0077 38.6741 40.2102 38.4921 40.3843C38.387 40.4837 38.3625 40.672 38.345 40.8603C38.408 40.8212 38.4675 40.7786 38.5831 40.704C38.5831 40.8816 38.5831 41.0166 38.5831 41.1516C38.5831 44.5125 38.5831 47.8698 38.5866 51.2306C38.5866 51.4012 38.6461 51.5717 38.6846 51.7635C38.5621 51.8453 38.5341 51.6356 38.4045 51.6001C38.3695 51.7564 38.338 51.9128 38.2925 52.0655C38.2399 52.2467 38.0404 52.4066 37.8513 52.403C36.3737 52.3888 34.8996 52.3711 33.4219 52.3533C33.4114 52.3533 33.4009 52.3462 33.3764 52.3355C33.4324 52.0797 33.4955 51.8204 33.548 51.561C33.6425 51.117 33.7266 50.6693 33.8211 50.2252C33.8946 49.8735 33.9752 49.5218 34.0557 49.1736C34.1713 48.6585 34.2868 48.1433 34.4059 47.6282C34.4584 47.4008 34.4409 47.1024 34.5809 46.9674C34.805 46.7436 34.8015 46.47 34.9031 46.2213C34.9241 46.168 34.9626 46.1112 34.9591 46.0579C34.9346 45.6529 35.1937 45.358 35.3302 45.017C35.4598 44.6972 35.6314 44.4201 35.915 44.2141C35.9675 44.175 35.9745 44.0791 36.0025 44.008C35.985 43.9938 35.964 43.9796 35.9465 43.9654C35.7959 44.1181 35.6454 44.2745 35.4633 44.4592C35.4633 44.3455 35.4353 44.2496 35.4668 44.1785C35.6174 43.841 35.5893 43.4716 35.6524 43.1198C35.7539 42.5372 35.7959 41.9439 35.887 41.3577C35.929 41.0841 36.0305 40.8177 36.1041 40.5477C36.1916 40.2244 36.2826 39.9011 36.3667 39.5778C36.4087 39.4179 36.4542 39.2581 36.4787 39.0982C36.5277 38.7998 36.5557 38.5013 36.6153 38.2065C36.6748 37.908 36.7658 37.6167 36.8324 37.3218C36.9199 36.9452 36.9899 36.5651 37.0775 36.1885C37.144 35.9008 37.2105 35.8581 37.4941 35.9612C38.1384 36.1921 38.7757 36.4337 39.4164 36.6752C39.5705 36.7143 39.7211 36.7747 39.8716 36.8316C39.9627 36.8778 40.0502 36.9346 40.1447 36.9666C40.2288 36.995 40.3233 37.0021 40.4109 37.0199C40.2568 36.8387 40.0642 36.8351 39.8716 36.8316ZM38.7477 7.64617C38.7477 7.8167 38.7477 7.95525 38.7477 8.09381C38.7477 12.659 38.7477 17.2242 38.7477 21.7895C38.7477 22.2904 38.5131 22.5426 38.0334 22.6314C37.8303 22.6705 37.6237 22.7771 37.4591 22.905C37.3156 23.0187 37.2245 23.207 37.109 23.3633C37.2175 23.4912 37.3471 23.644 37.4871 23.8145C37.3576 23.8713 37.263 23.9104 37.1615 23.9566C37.13 23.8926 37.102 23.8394 37.0705 23.7825C36.9969 23.8287 36.9409 23.8678 36.8989 23.8926C36.7763 23.8038 36.6713 23.7221 36.5627 23.644C36.4507 23.7399 36.3632 23.8145 36.2406 23.9175C36.4892 24.1804 36.7273 24.4327 37.0214 24.7453C36.8079 24.7098 36.6853 24.6849 36.5312 24.66C36.7343 24.93 36.9584 24.8696 37.1685 24.7879C37.3576 24.8945 37.5327 24.994 37.7708 25.129C37.7357 25.0153 37.7322 24.9549 37.7007 24.9229C37.6167 24.827 37.5186 24.7417 37.4311 24.6494C37.4136 24.6281 37.4171 24.5854 37.4101 24.5499C37.5046 24.5286 37.5887 24.5108 37.7287 24.4824C37.6097 24.4007 37.5362 24.3509 37.4416 24.287C37.5572 24.2017 37.6482 24.1342 37.7427 24.0632C37.7287 24.0383 37.6972 24.0063 37.6972 23.9815C37.7007 23.9459 37.7322 23.914 37.7497 23.882C37.8093 23.7648 37.7708 23.6511 37.6587 23.6617C37.5292 23.6759 37.4451 23.6297 37.4206 23.5161C37.3961 23.3953 37.3856 23.2532 37.5292 23.1857C37.7357 23.0897 37.8758 22.8801 38.1384 22.8695C38.2014 22.8659 38.4115 22.8837 38.415 22.6918C38.415 22.6883 38.5026 22.6705 38.5271 22.6918C38.5586 22.7132 38.5831 22.7735 38.5761 22.8055C38.5621 22.8588 38.5201 22.9014 38.4851 22.9512C38.5551 22.9689 38.5971 22.9796 38.6741 22.9974C38.4921 23.1857 38.4991 23.4059 38.4991 23.6262C38.4991 23.8642 38.4991 24.0987 38.4991 24.3367C38.4991 24.4078 38.5166 24.5037 38.4816 24.5428C38.2294 24.8235 38.2224 25.1858 38.1209 25.5837C38.2575 25.47 38.3485 25.3919 38.457 25.3031C38.4991 25.4523 38.5726 25.5802 38.5691 25.7081C38.5656 26.0349 38.5236 26.3582 38.5026 26.6851C38.4886 26.9338 38.4185 27.1434 38.2189 27.3103C38.1594 27.3601 38.1454 27.4702 38.1104 27.5519C38.352 27.6194 38.1384 27.7864 38.1839 27.8965C38.254 28.0706 38.0369 28.0955 38.0124 28.2234C37.9913 28.33 37.9668 28.4365 37.9563 28.4898C37.8303 28.6675 37.7287 28.8096 37.6307 28.9481C37.7007 29.0334 37.7427 29.0796 37.8268 29.1826C37.8268 29.0618 37.8268 29.0085 37.8268 28.9446C37.8793 28.9339 37.9493 28.9162 38.0229 28.9019C37.9808 28.8167 37.9493 28.7527 37.9178 28.6852C37.9318 28.6746 37.9493 28.6604 37.9633 28.6497C38.0859 28.7456 38.2049 28.8451 38.3415 28.9517C38.4255 28.8806 38.5166 28.8025 38.6426 28.6994C38.6426 28.9766 38.6426 29.2252 38.6426 29.4739C39.8646 29.4739 41.0586 29.4739 42.2806 29.4739C42.2806 29.2999 42.2806 29.1471 42.2806 28.9943C42.2806 22.7842 42.2806 16.5741 42.2806 10.364C42.2806 9.45805 42.2491 8.55211 42.4767 7.64617C41.2477 7.64617 40.0257 7.64617 38.7477 7.64617ZM38.45 29.6835C38.3835 29.7191 38.3205 29.7333 38.317 29.7581C38.282 29.9535 38.2575 30.1489 38.2329 30.3443C38.2645 30.3479 38.2925 30.355 38.324 30.3586C38.359 30.1454 38.401 29.9358 38.45 29.6835ZM38.352 23.5907C38.4185 23.3704 38.4185 23.3704 38.303 23.1963C38.2259 23.3242 38.1559 23.4379 38.0649 23.5907C38.2014 23.5907 38.2785 23.5907 38.352 23.5907Z" fill="white"/>
<path d="M58.993 31.4103C58.993 27.0582 58.993 22.7346 58.993 18.379C59.0455 18.4039 59.0946 18.4287 59.1576 18.4607C59.3467 18.212 59.0455 18.1303 58.9895 17.9527C59.5848 17.4908 60.187 17.029 60.7858 16.5636C62.6275 15.1389 64.4588 13.6965 66.3181 12.2932C66.6997 12.0055 66.8538 11.7212 66.8223 11.2416C66.7768 10.5595 66.8118 9.87029 66.8118 9.18462C66.8118 9.07093 66.8118 8.9537 66.8118 8.8329C66.3636 8.79382 65.9644 8.72988 65.6073 8.49895C65.5793 8.48119 65.5337 8.45987 65.5092 8.47053C65.2746 8.55935 65.1346 8.42079 65.0085 8.25381C64.879 8.08329 64.6724 8.15079 64.5358 8.16855C64.2102 8.20763 63.9931 8.09394 63.8005 7.8346C63.5169 8.02289 63.2403 7.84525 62.9952 7.74933C62.7081 7.63564 62.4419 7.58591 62.1338 7.58946C60.5827 7.61788 59.0315 7.61788 57.4839 7.62499C57.4489 7.62499 57.4174 7.60722 57.3613 7.59301C57.4629 7.14537 57.5609 6.69773 57.6625 6.25009C57.9496 6.09022 58.1527 6.34957 58.4398 6.42062C58.3768 6.22167 58.4643 6.09377 58.6008 5.98364C58.3347 5.82377 58.1422 5.98364 57.9356 6.08667C57.869 5.99785 57.8095 5.91969 57.736 5.82377C58.1422 3.90531 58.5518 1.97265 58.965 0.0222168C64.9245 0.0222168 70.8525 0.0222168 76.8014 0.0222168C76.8014 1.10934 76.8014 2.18226 76.8014 3.25872C76.7489 3.24807 76.6999 3.23741 76.6054 3.21609C76.7104 3.48965 76.5808 3.78807 76.8049 4.01545C76.8364 4.04742 76.8189 4.12913 76.8189 4.18953C76.8189 5.12034 76.8259 6.0547 76.8119 6.9855C76.8119 7.10274 76.7979 7.22353 76.7209 7.35498C76.6124 7.53972 76.5248 7.53972 76.3778 7.48288C76.3147 7.45801 76.2587 7.41183 76.2027 7.37275C76.2167 7.30524 76.2272 7.2413 76.2377 7.18445C75.8665 7.13827 75.5129 7.09564 75.1627 7.053C75.1873 6.918 75.2153 6.75458 75.2538 6.53431C75.0192 6.57339 74.8441 6.60181 74.6866 6.63023C74.634 6.74037 74.606 6.83629 74.55 6.91445C74.452 7.0459 74.4485 7.05656 74.599 7.13472C74.641 7.15603 74.6795 7.19866 74.7111 7.23774C74.7181 7.2484 74.7006 7.28038 74.6866 7.32301C74.4905 7.22353 74.2874 7.13827 74.1053 7.01748C73.9688 6.92866 73.9162 6.93576 73.8707 7.09564C73.8567 7.14537 73.7797 7.19866 73.7237 7.21287C73.5941 7.25195 73.461 7.28748 73.328 7.28748C72.8658 7.29103 72.5227 7.55038 72.183 7.81328C70.5513 9.06738 68.9196 10.3286 67.2915 11.5898C67.1619 11.6893 67.0359 11.7959 66.8853 11.9202C66.8853 12.0303 66.8853 12.1582 66.8853 12.2861C66.8853 14.5918 66.8853 16.9011 66.8853 19.2068C66.8853 19.3666 66.9343 19.5478 66.7137 19.6438C66.8958 19.8782 66.8923 20.1447 66.8888 20.4147C66.8818 21.04 66.8853 21.6688 66.8853 22.3403C67.3475 22.3829 67.7992 22.3545 68.2474 22.3616C68.7026 22.3687 69.1577 22.3616 69.6129 22.3616C70.0786 22.3616 70.5443 22.3616 71.0135 22.3616C71.4687 22.3616 71.9239 22.3616 72.3791 22.3616C72.8343 22.3616 73.286 22.3616 73.7307 22.3616C73.8077 22.6387 73.8252 24.3475 73.7657 24.8733C73.5101 24.8946 73.314 25.1433 73.0234 25.0687C72.9953 25.0616 72.9533 25.0865 72.9288 25.1043C72.4036 25.4986 71.8048 25.7508 71.2236 26.0386C70.6319 26.3335 70.0156 26.568 69.4134 26.8415C69.2243 26.9268 69.0632 27.0724 68.8706 27.1506C68.3384 27.3744 67.7957 27.5734 67.2565 27.7865C67.1409 27.8327 67.0394 27.9073 66.9308 27.9606C66.6227 28.1169 66.3111 28.2697 65.9994 28.4225C65.9574 28.4438 65.9014 28.4616 65.8629 28.4509C65.5057 28.323 65.2466 28.5575 64.956 28.6925C64.2102 29.0442 63.4609 29.3888 62.7151 29.7334C62.2634 29.943 61.8222 30.1811 61.3565 30.3516C60.6912 30.5932 60.1415 31.087 59.4272 31.2149C59.2801 31.2469 59.1506 31.3392 58.993 31.4103ZM75.4078 4.78638C75.5514 4.77217 75.695 4.76151 75.8805 4.74375C75.9506 5.08481 75.9926 5.44718 75.9891 5.82022C76.1607 5.77758 76.2622 5.69232 76.2692 5.50758C76.2727 5.41876 76.2972 5.31573 76.3427 5.24113C76.4653 5.04928 76.3638 4.87165 76.3147 4.69757C76.2762 4.56612 76.1747 4.45243 76.0836 4.30322C75.8315 4.24282 75.8841 4.53769 75.7475 4.60875C75.6355 4.66914 75.5269 4.72954 75.4149 4.78994C75.0962 4.79704 75.0962 4.79704 75.1067 5.08836C75.2188 4.98178 75.4499 5.04573 75.4078 4.78638ZM66.4686 6.82208C66.6192 6.82208 67.393 6.1968 67.2915 7.01748C68.6775 6.27852 70.0742 7.09208 71.4467 7.1134C71.8774 7.1205 72.1482 7.14537 72.5509 7.01748C71.7736 7.02458 70.996 7.39761 70.2187 7.41538C68.8671 7.4438 67.5191 7.46512 66.1675 7.48998C65.5968 7.50064 65.026 7.51485 64.4588 7.53262C64.4168 7.53262 64.3748 7.55038 64.2942 7.56814C64.5008 7.7742 64.6549 7.98736 64.963 7.85236C65.0015 7.8346 65.0715 7.8346 65.0926 7.85946C65.2396 8.01934 65.4637 7.99091 65.6248 8.09039C65.8314 8.21829 66.0169 8.33197 66.2725 8.26092C66.3286 8.24316 66.4056 8.28579 66.4686 8.31421C66.6822 8.40658 66.7943 8.34974 66.8048 8.12592C66.8188 7.94828 66.4686 7.03169 66.4686 6.82208ZM62.1233 7.07432C61.9587 7.09564 61.8397 7.14182 61.7347 7.1134C61.3495 7.01748 60.9713 6.88603 60.5827 6.7901C60.4776 6.76168 60.3516 6.80787 60.236 6.81853C60.2325 6.8505 60.229 6.87892 60.2255 6.9109C60.3971 6.97484 60.5617 7.07787 60.7367 7.09564C61.0239 7.12406 61.276 7.24485 61.5456 7.32301C61.8012 7.40117 62.0708 7.58235 62.3614 7.34077C62.2809 7.2484 62.1968 7.15603 62.1233 7.07432ZM60.7788 18.5033C60.7087 18.4856 60.6422 18.4607 60.5722 18.4501C60.4461 18.4358 60.3096 18.4572 60.1905 18.4145C60.061 18.3683 59.9419 18.2866 59.8369 18.1943C59.6828 18.0593 59.5462 18.0841 59.3992 18.1872C59.5182 18.4891 59.6058 18.5424 59.8649 18.5069C59.9279 18.4962 59.9979 18.5176 60.061 18.5282C60.2991 18.5637 60.5336 18.6419 60.7788 18.5033ZM62.7151 18.6561C62.6976 18.7556 62.6765 18.8053 62.6905 18.8195C62.8411 18.9687 62.9882 19.1251 63.1527 19.2565C63.1983 19.292 63.2963 19.2636 63.4013 19.2636C63.2718 18.9261 62.9847 18.8444 62.7151 18.6561ZM61.9202 18.6668C62.1163 19.0469 62.1583 19.0647 62.4665 18.8835C62.2599 18.5566 62.1758 18.5247 61.9202 18.6668ZM59.4762 6.44904C59.4237 6.53076 59.3712 6.61247 59.2906 6.74037C59.4762 6.77234 59.6198 6.79721 59.7633 6.82208C59.8159 6.54497 59.6303 6.51299 59.4762 6.44904ZM58.8249 6.58405C58.916 6.49168 58.993 6.43128 59.042 6.35667C59.0735 6.31049 59.063 6.23588 59.0735 6.17193C59.0035 6.17904 58.8985 6.15417 58.867 6.19325C58.7899 6.28562 58.7479 6.40641 58.6849 6.53786C58.7374 6.55563 58.7899 6.57339 58.8249 6.58405ZM61.5211 18.2689C61.4055 18.3364 61.3075 18.3968 61.1534 18.4891C61.381 18.5779 61.5316 18.6277 61.7276 18.5318C61.6506 18.4358 61.5911 18.3577 61.5211 18.2689ZM75.5059 6.0618C75.5794 5.89482 75.6565 5.72429 75.7265 5.55376C75.7335 5.53955 75.716 5.50758 75.6985 5.49337C75.674 5.47205 75.6425 5.4614 75.6074 5.44363C75.4884 5.62482 75.4394 5.82022 75.5059 6.0618ZM75.9576 3.86268C75.9471 3.97637 75.9401 4.04387 75.9261 4.17532C76.0661 4.06163 76.1467 4.00479 75.9576 3.86268ZM64.6058 19.4732C64.7354 19.3276 64.6654 19.2636 64.5953 19.2032C64.5883 19.1961 64.5568 19.2174 64.5148 19.2352C64.5393 19.3027 64.5673 19.3702 64.6058 19.4732ZM64.1577 19.1073C64.2172 19.2068 64.2522 19.2707 64.2907 19.3347C64.3187 19.3169 64.3607 19.3027 64.3677 19.2778C64.3888 19.1677 64.3257 19.1215 64.1577 19.1073ZM63.5694 18.9687C63.5449 18.9972 63.5204 19.0256 63.4924 19.054C63.5449 19.0966 63.5974 19.1393 63.6499 19.1748C63.6535 19.1784 63.7095 19.1109 63.706 19.1073C63.664 19.0576 63.6149 19.0149 63.5694 18.9687Z" fill="white"/>
<path d="M59.2767 44.5231C59.3257 44.3099 59.3782 44.0932 59.4307 43.8587C59.5568 43.8587 59.6688 43.8587 59.7844 43.8587C59.7879 43.8303 59.7914 43.8055 59.7949 43.777C59.7004 43.7557 59.6058 43.738 59.5358 43.7237C59.5498 43.4999 59.5708 43.269 59.5848 43.0345C59.5988 42.7965 59.4272 42.6118 59.4027 42.3915C59.3747 42.1428 59.0141 42.0575 59.1296 41.7378C59.2066 41.7733 59.2732 41.8017 59.3607 41.8408C59.3747 41.7449 59.3852 41.6667 59.3992 41.5815C59.2872 41.5424 59.1926 41.5069 59.0736 41.4607C59.0736 38.2668 59.0736 35.0658 59.0736 31.8613C59.8684 31.4669 60.6668 31.0726 61.4861 30.6676C61.7872 30.9376 62.0778 30.7884 62.3825 30.6107C62.5645 30.5042 62.7746 30.4225 62.9812 30.3834C63.3279 30.3159 63.58 30.0849 63.8671 29.9144C63.9441 29.8682 64.0317 29.8043 64.1087 29.8114C64.4658 29.8434 64.6969 29.584 64.9806 29.4419C65.0366 29.4135 65.0821 29.3602 65.1416 29.3389C65.3762 29.2536 65.6248 29.1932 65.8524 29.0902C66.2551 28.9055 66.6507 28.7065 67.0394 28.4933C67.2915 28.3548 67.5296 28.1878 67.7677 28.0279C67.8377 27.9818 67.8868 27.9178 67.9778 27.9924C68.0058 28.0137 68.0723 28.0102 68.1074 27.9889C68.3174 27.8787 68.5205 27.7579 68.7271 27.6407C68.7481 27.63 68.7621 27.6016 68.7831 27.5981C69.2138 27.5341 69.5359 27.2215 69.9351 27.0758C70.2467 26.9621 70.5409 26.7987 70.842 26.6637C70.947 26.6175 71.0626 26.5926 71.1711 26.5536C71.3077 26.5003 71.4442 26.4363 71.5808 26.3866C71.7734 26.3155 71.9765 26.2658 72.1585 26.1805C72.6593 25.9425 73.153 25.6867 73.6502 25.438C73.7097 25.4096 73.7692 25.3847 73.8322 25.3599C73.9093 25.6583 73.9373 29.0014 73.8743 29.989C73.4191 30.0068 72.9569 29.9961 72.4982 29.9961C72.0325 29.9997 71.5668 29.9961 71.0976 29.9961C70.6424 29.9961 70.1872 29.9961 69.732 29.9961C69.2663 29.9961 68.8006 29.9961 68.3315 29.9961C67.8658 29.9961 67.4036 29.9961 66.9134 29.9961C66.9134 34.9024 66.9134 39.7838 66.9134 44.7114C67.3756 44.7469 67.8482 44.7256 68.3209 44.7292C68.7866 44.7327 69.2523 44.7292 69.7215 44.7292C70.2012 44.7292 70.6774 44.7292 71.1571 44.7292C71.6228 44.7292 72.0885 44.7292 72.5577 44.7292C73.0374 44.7292 73.5136 44.7292 73.9933 44.7292C74.459 44.7292 74.9247 44.7292 75.3939 44.7292C75.8701 44.7292 76.3463 44.7292 76.8155 44.7292C76.8995 45.0134 76.931 51.5326 76.861 52.3604C76.7805 52.371 76.6929 52.3923 76.6019 52.3923C73.3 52.3959 70.0016 52.3923 66.6998 52.3959C66.5387 52.3959 66.4232 52.3461 66.2971 52.236C66.059 52.0335 65.7859 51.8736 65.5093 51.6889C65.4077 51.9411 65.2011 51.8132 65.0016 51.8168C65.2222 51.934 65.3587 52.1152 65.4497 52.3284C65.0646 52.4563 64.935 52.3888 64.6829 52.0761C64.4553 51.7884 64.1892 51.5255 63.7936 51.3336C63.8146 51.4544 63.8041 51.561 63.8496 51.6107C63.9861 51.7493 64.1507 51.8594 64.2978 51.9909C64.4063 52.0903 64.5044 52.204 64.6619 52.3675C63.6605 52.4563 62.7291 52.3319 61.7977 52.3532C60.8663 52.3746 59.935 52.3568 58.9826 52.3568C58.9826 51.0849 58.9826 49.8415 58.9826 48.5305C59.4483 48.8219 59.7179 49.2731 60.159 49.4933C60.1696 49.4933 60.1906 49.4933 60.1941 49.4898C60.2081 49.3974 60.2186 49.3086 60.2291 49.2091C59.8369 48.8823 59.4553 48.5625 59.0526 48.225C58.9861 48.2996 58.93 48.3671 58.839 48.4701C58.769 48.3849 58.7059 48.3103 58.6289 48.2144C58.7234 48.1859 58.776 48.1717 58.8285 48.154C58.762 47.884 58.9791 47.6743 59.3467 47.6495C59.0806 47.4789 59.0596 47.4754 58.8145 47.4932C58.804 47.4328 58.776 47.312 58.783 47.312C58.9966 47.2516 58.916 47.0455 58.9861 46.9212C59.0911 46.7329 59.1891 46.5055 59.5288 46.5233C59.3047 46.3137 59.3747 45.9833 59.0701 45.9335C59.0981 45.7275 59.1506 45.5356 59.1401 45.3438C59.1296 45.1661 59.0596 44.9885 59.0036 44.7753C59.0526 44.7221 59.2627 44.7007 59.1471 44.5089C59.1926 44.5124 59.2382 44.5124 59.2837 44.516C59.3047 44.5835 59.3222 44.6546 59.3467 44.7221C59.3782 44.8144 59.4798 44.8784 59.5288 44.8002C59.6793 44.5693 59.7844 44.7576 59.9385 44.8606C59.9665 44.683 59.9875 44.5444 60.0225 44.3384C59.7389 44.4876 59.4798 44.3561 59.2767 44.5231ZM63.4854 48.8005C63.4609 48.8148 63.4329 48.8325 63.4084 48.8467C63.4084 49.0883 63.6535 49.1132 63.8076 49.2375C63.692 49.4685 63.8461 49.6177 63.9511 49.7811C64.0036 49.8593 64.0947 49.9196 64.1192 50.0014C64.2102 50.3069 64.4063 50.4987 64.6794 50.6373C64.76 50.6764 64.83 50.7439 64.907 50.8007C64.9876 50.7403 65.0576 50.687 65.1206 50.6408C65.2852 50.719 65.4287 50.7865 65.5898 50.8611C65.6598 50.7226 65.7124 50.6195 65.7684 50.5058C65.6528 50.346 65.5443 50.1968 65.4497 50.0689C65.5303 49.9587 65.6318 49.8699 65.6668 49.7598C65.7509 49.504 65.8069 49.234 65.8664 48.9995C65.7614 48.8965 65.6738 48.8112 65.5688 48.7082C65.5373 48.9107 65.4357 49.1345 65.4988 49.2979C65.5618 49.4613 65.5443 49.5573 65.4497 49.6568C65.3902 49.7207 65.3622 49.7669 65.3727 49.8628C65.3797 49.9161 65.2887 49.9765 65.2432 50.0298C64.921 49.8415 64.6374 49.6496 64.3538 49.4649C64.0527 49.2624 63.7761 49.0244 63.4854 48.8005ZM66.7873 51.3656C66.6718 51.2093 66.5947 51.0991 66.5072 50.9784C66.4232 51.0245 66.3566 51.0601 66.2866 51.0956C66.3181 51.2093 66.3461 51.3016 66.3706 51.394C66.5002 51.3869 66.5982 51.3798 66.7873 51.3656ZM62.33 51.2057C62.344 51.1844 62.3545 51.1595 62.3685 51.1382C62.2354 51.0707 62.1024 50.9997 61.9553 50.9251C61.9553 51.2448 62.2179 51.0991 62.33 51.2057ZM61.9343 45.6244C61.7942 45.5818 61.7207 45.5605 61.6472 45.5356C61.5771 45.5143 61.5071 45.4894 61.4406 45.4646C61.4336 45.4894 61.4301 45.5108 61.4231 45.5356C61.5666 45.5854 61.6577 45.8092 61.9343 45.6244ZM62.372 49.337C62.519 49.401 62.6031 49.4365 62.7641 49.5075C62.6906 49.3441 62.6556 49.2588 62.6066 49.1523C62.5295 49.2091 62.4805 49.2517 62.372 49.337ZM61.1219 45.4823C61.1675 45.2336 61.0589 45.2407 60.9154 45.2798C60.9784 45.3402 61.0344 45.3971 61.1219 45.4823ZM60.6738 50.0014C60.6913 49.9765 60.7088 49.9481 60.7263 49.9232C60.6563 49.8806 60.5862 49.8379 60.5197 49.7953C60.5092 49.8131 60.4952 49.8308 60.4847 49.8486C60.5477 49.8983 60.6107 49.9516 60.6738 50.0014ZM62.1724 48.9142C62.2074 48.9924 62.2424 49.0706 62.2879 49.1736C62.4595 48.9711 62.3229 48.9391 62.1724 48.9142Z" fill="white"/>
<path d="M31.8499 33.5205C32.3366 33.8083 32.8443 34.0427 33.3695 34.2523C33.7757 34.4158 34.1748 34.6005 34.5775 34.771C35.0222 34.9593 35.4739 35.1405 35.9151 35.3359C36.1496 35.4389 36.3737 35.5633 36.6013 35.6805C36.7589 35.7622 36.7869 35.9043 36.7729 36.0713C36.7589 36.2419 36.7659 36.4159 36.7624 36.5865C36.7624 36.6326 36.7694 36.6824 36.7554 36.725C36.6504 37.0554 36.5418 37.3823 36.4298 37.7127C36.3317 38.0075 36.2197 38.3024 36.1321 38.6008C36.0796 38.7749 36.0446 38.9597 36.0341 39.1444C35.9816 39.8869 35.803 40.6046 35.6209 41.3258C35.5124 41.7521 35.4213 42.1855 35.3338 42.6189C35.3128 42.7184 35.3338 42.8214 35.3338 42.9245C35.3338 42.9707 35.3443 43.0275 35.3198 43.0595C35.0922 43.3757 35.0992 43.7451 35.0607 44.1075C35.0502 44.1963 34.9451 44.2745 34.8961 44.3633C34.8261 44.4912 34.707 44.6298 34.7211 44.7506C34.7526 44.9921 34.672 45.1911 34.5985 45.4007C34.546 45.5499 34.4164 45.6778 34.5285 45.859C34.5495 45.8945 34.476 45.9976 34.4304 46.0615C34.3779 46.1361 34.2694 46.1965 34.2624 46.2676C34.2238 46.6548 33.9402 46.8822 33.7336 47.1557C33.4955 47.4684 33.2259 47.7597 32.9983 48.0901C33.3835 48.0226 33.478 47.6389 33.7056 47.408C33.9367 47.1735 34.1258 46.8964 34.3814 46.6584C34.2484 47.1735 34.0908 47.6815 33.9892 48.2038C33.9507 48.3956 33.7757 48.6159 33.9927 48.8291C34.0243 48.8575 33.9542 49.0245 33.8982 49.1026C33.7792 49.266 33.7687 49.4366 33.8212 49.632C33.6461 49.7599 33.5481 49.8878 33.5691 50.1507C33.5866 50.3745 33.4395 50.6125 33.359 50.8399C33.345 50.8825 33.2855 50.918 33.2855 50.9571C33.2995 51.2804 33.2049 51.5788 33.1104 51.8808C33.0789 51.9839 33.1174 52.1082 33.1279 52.2574C32.3121 52.3036 31.5277 52.2716 30.6944 52.2752C30.6944 51.9164 30.6699 51.5753 30.7049 51.2413C30.7224 51.0957 30.8659 50.9642 30.957 50.8221C30.9395 50.7013 30.9045 50.5663 30.9045 50.4349C30.908 44.8323 30.908 39.2261 30.908 33.6164C30.908 33.5347 30.915 33.453 30.922 33.3215C31.069 33.3464 31.2021 33.3642 31.3316 33.3926C31.5102 33.4317 31.6853 33.4814 31.8639 33.5276C31.8604 33.5311 31.8499 33.5205 31.8499 33.5205ZM32.6377 48.5981C32.6552 48.6194 32.6727 48.6443 32.6902 48.6656C32.7427 48.6159 32.7953 48.5626 32.8478 48.5129C32.8338 48.4987 32.8233 48.4844 32.8093 48.4702C32.7497 48.5093 32.6937 48.5555 32.6377 48.5981Z" fill="white"/>
<path d="M64.9103 71.9359C64.4061 71.9359 63.9439 71.9359 63.4432 71.9359C62.7639 69.7048 62.0811 67.4701 61.4018 65.2319C61.3808 65.2355 61.3633 65.239 61.3423 65.2426C61.3423 67.4559 61.3423 69.6728 61.3423 71.9181C60.7505 71.9181 60.1868 71.9181 59.6021 71.9181C59.6021 67.5696 59.6021 63.2247 59.6021 58.83C59.8507 58.8264 60.1028 58.8193 60.3549 58.8158C60.6 58.8122 60.8416 58.8158 61.1252 58.8158C61.801 61.1996 62.4733 63.5728 63.1455 65.946C63.1665 65.9425 63.1876 65.9389 63.2086 65.9354C63.2086 63.5799 63.2086 61.2245 63.2086 58.8229C63.5097 58.8193 63.7828 58.8158 64.0594 58.8158C64.3255 58.8158 64.5951 58.8158 64.8402 58.8158C64.8718 58.8442 64.8788 58.8513 64.8893 58.8584C64.8963 58.8655 64.9068 58.8762 64.9068 58.8868C64.9138 63.1323 64.9208 67.3813 64.9243 71.6268C64.9243 71.7191 64.9138 71.8115 64.9103 71.9359Z" fill="white"/>
<path d="M68.8112 58.8157C69.375 58.8157 69.9212 58.8157 70.471 58.8157C71.0662 58.8157 71.6615 58.8157 72.2567 58.8157C72.5404 58.8157 72.8135 58.8725 73.0516 59.043C73.3457 59.2527 73.5138 59.5369 73.5348 59.9028C73.5383 59.9632 73.5348 60.02 73.5348 60.0804C73.5348 63.6402 73.5313 67.2001 73.5383 70.7599C73.5383 71.2928 73.3142 71.6623 72.838 71.8754C72.7434 71.9181 72.6384 71.9429 72.5369 71.9465C71.3253 71.95 70.1103 71.9465 68.8988 71.9465C68.8778 71.9465 68.8533 71.9358 68.8323 71.9323C68.7622 71.68 68.7412 59.3344 68.8112 58.8157ZM70.513 60.5991C70.513 63.8108 70.513 66.9869 70.513 70.1879C70.9507 70.1879 71.3744 70.1879 71.7945 70.1879C71.8646 69.6656 71.8401 60.8514 71.77 60.5991C71.3674 60.5991 70.9612 60.5991 70.513 60.5991Z" fill="white"/>
<path d="M47.6133 61.8746C47.032 62.0061 46.4718 62.134 45.8695 62.269C45.8695 61.697 45.8695 61.1712 45.8695 60.617C45.4144 60.617 44.9942 60.617 44.553 60.617C44.553 63.8179 44.553 67.0047 44.553 70.2199C44.9767 70.2199 45.4003 70.2199 45.845 70.2199C45.845 68.9622 45.845 67.7152 45.845 66.4398C45.5684 66.4398 45.2953 66.4398 44.9697 66.4398C45.0957 65.8501 45.2148 65.2923 45.3408 64.699C46.0691 64.6528 46.7974 64.6812 47.5432 64.6777C47.5537 64.7985 47.5677 64.8908 47.5677 64.9797C47.5677 66.9088 47.5677 68.8343 47.5712 70.7634C47.5712 71.2786 47.3472 71.6445 46.8955 71.8612C46.7834 71.9145 46.6504 71.9394 46.5278 71.9394C45.6314 71.9465 44.7316 71.9465 43.8352 71.9429C43.2785 71.9394 42.7988 71.4491 42.7918 70.8771C42.7848 70.497 42.7918 70.1204 42.7918 69.7403C42.7918 66.5251 42.8058 63.3063 42.7813 60.0912C42.7778 59.3806 43.3135 58.8264 43.9963 58.8157C44.8016 58.8015 45.6069 58.798 46.4088 58.8157C47.0915 58.8299 47.5327 59.2918 47.6168 60.0379C47.6273 60.1444 47.6203 60.251 47.6203 60.3576C47.6133 60.855 47.6133 61.3488 47.6133 61.8746Z" fill="white"/>
<path d="M77.3827 68.8237C77.9534 68.6994 78.5066 68.5821 79.1089 68.4507C79.1089 69.0546 79.1089 69.6159 79.1089 70.195C79.5641 70.195 79.9772 70.195 80.4149 70.195C80.4149 68.9409 80.4149 67.7046 80.4149 66.4398C80.3274 66.4292 80.2398 66.4114 80.1523 66.4114C79.6026 66.4079 79.0528 66.383 78.5066 66.4185C77.9884 66.4505 77.3651 65.8998 77.3722 65.271C77.3932 63.5089 77.3932 61.7467 77.3722 59.9846C77.3651 59.3984 77.8168 58.8406 78.4506 58.8229C79.312 58.798 80.1768 58.798 81.0382 58.8229C81.6999 58.8406 82.1586 59.3309 82.1796 60.0201C82.2006 60.6205 82.1831 61.2245 82.1831 61.8782C81.6089 62.0061 81.0417 62.134 80.4324 62.2725C80.4324 61.6899 80.4324 61.1605 80.4324 60.6134C79.9877 60.6134 79.5711 60.6134 79.1334 60.6134C79.1334 61.9563 79.1334 63.2957 79.1334 64.6777C79.3014 64.6777 79.4625 64.6777 79.6236 64.6777C80.0543 64.6777 80.4884 64.6812 80.9191 64.6777C81.6264 64.6706 82.1761 65.1289 82.1831 65.9354C82.2006 67.5305 82.1936 69.1292 82.1831 70.7279C82.1796 71.1898 82.0081 71.5877 81.5844 71.8151C81.4478 71.8897 81.2798 71.943 81.1257 71.9465C80.2293 71.9572 79.3295 71.9572 78.4331 71.9501C77.9289 71.9465 77.4107 71.4882 77.3932 70.9837C77.3652 70.2696 77.3827 69.5627 77.3827 68.8237Z" fill="white"/>
<path d="M55.7368 60.5887C54.8684 60.5887 54.0316 60.5887 53.2018 60.5887C53.1282 60.8587 53.1107 64.1876 53.1772 64.6707C53.797 64.6707 54.4203 64.6707 55.089 64.6707C55.0925 64.9869 55.0995 65.2676 55.103 65.5447C55.1065 65.8147 55.103 66.0847 55.103 66.4009C54.4483 66.4009 53.8145 66.4009 53.1632 66.4009C53.1632 67.6834 53.1632 68.9197 53.1632 70.2023C54.0106 70.2271 54.8579 70.1987 55.6948 70.22C55.7718 70.4936 55.7858 71.5239 55.7158 71.9324C54.2907 71.9324 52.8621 71.9324 51.416 71.9324C51.416 67.5697 51.416 63.2248 51.416 58.8798C51.6576 58.8052 55.3201 58.7875 55.7403 58.8621C55.7368 59.4163 55.7368 59.9812 55.7368 60.5887Z" fill="white"/>
<path d="M34.6191 58.8301C36.0652 58.8301 37.4833 58.8301 38.9294 58.8301C38.9294 59.4163 38.9294 59.9847 38.9294 60.5887C38.0751 60.5887 37.2277 60.5887 36.3629 60.5887C36.3629 61.9529 36.3629 63.2852 36.3629 64.653C36.9721 64.7098 37.5884 64.6458 38.1941 64.6885C38.2677 64.9336 38.2852 65.9248 38.2186 66.4009C37.6129 66.4009 37.0001 66.4009 36.3664 66.4009C36.3664 67.6799 36.3664 68.9233 36.3664 70.2129C37.2242 70.2129 38.0716 70.2129 38.9364 70.2129C38.9364 70.8027 38.9364 71.3533 38.9364 71.9253C37.5008 71.9253 36.0722 71.9253 34.6191 71.9253C34.6191 67.5697 34.6191 63.2141 34.6191 58.8301Z" fill="white"/>
<path d="M2.16061 66.3902C2.04506 65.8324 1.93301 65.2817 1.81396 64.7026C7.92752 64.7026 14.0306 64.7026 20.1546 64.7026C20.1546 65.2675 20.1546 65.8182 20.1546 66.3902C14.1531 66.3902 8.16562 66.3902 2.16061 66.3902Z" fill="white"/>
<path d="M107.24 64.7026C107.121 65.2746 107.005 65.8253 106.886 66.3902C100.902 66.3902 94.9253 66.3902 88.9272 66.3902C88.9272 65.8253 88.9272 65.2782 88.9272 64.7026C95.0303 64.7026 101.123 64.7026 107.24 64.7026Z" fill="white"/>
<path d="M26.9231 58.8264C27.4798 58.8264 28.012 58.8264 28.5863 58.8264C28.5863 62.6136 28.5863 66.3866 28.5863 70.2093C29.4826 70.2093 30.337 70.2093 31.2124 70.2093C31.2124 70.8061 31.2124 71.3568 31.2124 71.9252C29.7803 71.9252 28.3622 71.9252 26.9476 71.9252C26.8811 71.673 26.8566 59.4268 26.9231 58.8264Z" fill="white"/>
<path d="M85.569 60.5707C85.4745 60.5707 85.4079 60.5707 85.3169 60.5707C85.3169 59.9987 85.3169 59.4267 85.3169 58.844C85.492 58.7765 85.5935 58.8227 85.6355 59.0217C85.6705 59.1816 85.7266 59.3343 85.8001 59.5688C85.8806 59.3201 85.9367 59.146 85.9962 58.9755C86.0487 58.8263 86.0557 58.8298 86.3008 58.844C86.3008 59.4054 86.3008 59.9702 86.3008 60.56C86.2203 60.5671 86.1467 60.5707 86.0522 60.5813C86.0417 60.4108 86.0347 60.2616 86.0242 60.0768C85.8841 60.2012 85.7441 60.361 85.5655 60.1195C85.569 60.2651 85.569 60.4108 85.569 60.5707Z" fill="white"/>
<path d="M51.4053 42.587C51.4333 42.3596 51.5278 42.2211 51.6959 42.2211C51.955 42.2246 52.2141 42.2566 52.4907 42.2814C52.6098 42.1109 52.7603 41.9191 52.9879 41.8622C53.1735 41.8125 53.3766 41.8409 53.5307 41.9759C53.4501 42.1855 53.3731 42.3809 53.2961 42.5763C53.0825 42.4591 53.0825 42.4591 53.114 42.2637C52.8269 42.1642 52.8059 42.1784 52.7989 42.5372C52.6588 42.5728 52.5047 42.6083 52.3612 42.658C52.3156 42.6722 52.2841 42.7326 52.2561 42.7788C52.1686 42.9209 52.0706 42.8818 51.9445 42.7895C52.018 42.7184 52.0881 42.6509 52.1581 42.587C51.9515 42.3951 51.9025 42.3738 51.7694 42.5337C51.6399 42.6829 51.5348 42.6509 51.4053 42.587Z" fill="white"/>
<path d="M105.776 21.3206C105.685 21.1714 105.594 21.0292 105.503 20.8836C105.724 20.5532 105.965 20.237 105.78 19.8249C105.955 19.7325 106.109 19.6508 106.326 19.5371C106.21 19.7609 106.284 19.9101 106.354 20.0736C106.392 20.1659 106.382 20.3365 106.322 20.4111C106.091 20.6775 106.081 21.0683 105.776 21.3206Z" fill="white"/>
<path d="M84.7217 60.5744C84.6062 60.5744 84.5502 60.5744 84.4591 60.5744C84.4591 60.0913 84.4591 59.6152 84.4591 59.1178C84.3261 59.1036 84.228 59.093 84.102 59.0788C84.0985 59.0006 84.0915 58.926 84.0845 58.8301C84.4101 58.8301 84.7182 58.8301 85.0579 58.8301C85.0614 58.9047 85.0684 58.9793 85.0754 59.0752C84.9633 59.0894 84.8618 59.1001 84.7217 59.1143C84.7217 59.5868 84.7217 60.0628 84.7217 60.5744Z" fill="white"/>
<path d="M103.01 28.7527C102.968 28.6959 102.93 28.6391 102.874 28.5609C102.958 28.4934 103.035 28.433 103.105 28.3762C103.098 28.3477 103.101 28.3122 103.091 28.3087C102.881 28.2127 102.842 28.1452 102.968 27.9996C103.094 27.8539 103.255 27.7367 103.406 27.6052C103.476 27.6585 103.532 27.694 103.581 27.7402C103.742 27.8894 103.752 28.0458 103.605 28.1914C103.413 28.3726 103.217 28.5573 103.01 28.7527Z" fill="white"/>
<path d="M2.82952 52.8186C2.75599 52.943 2.67896 53.0709 2.60543 53.1952C2.46537 53.1277 2.45487 53.0993 2.48288 52.9501C2.35682 52.8968 2.2938 52.9501 2.26579 53.078C2.25528 53.1277 2.24478 53.2023 2.21326 53.2165C2.03119 53.2947 1.84211 53.3551 1.59351 53.4439C1.66704 53.348 1.70555 53.2983 1.75457 53.2343C1.66354 53.1455 1.5725 53.0957 1.46395 53.2059C1.38342 53.284 1.29938 53.3196 1.23986 53.1988C1.17683 53.0673 1.26787 52.9963 1.38342 52.9785C1.52698 52.9572 1.67404 52.9501 1.8211 52.9501C1.98567 52.9536 2.13973 52.9181 2.27279 52.8186C2.43736 52.6979 2.60543 52.673 2.82952 52.8186Z" fill="white"/>
<path d="M105.002 22.3935C104.971 22.3686 104.939 22.3509 104.918 22.3295C104.904 22.3153 104.901 22.2869 104.897 22.2656C104.887 22.0347 104.827 21.7895 104.883 21.5764C104.953 21.3064 105.303 21.5302 105.408 21.3135C105.552 21.3881 105.58 21.4591 105.524 21.5657C105.471 21.6581 105.429 21.754 105.377 21.8464C105.321 21.9352 105.198 21.9778 105.261 22.1377C105.279 22.1768 105.097 22.3011 105.002 22.3935Z" fill="white"/>
<path d="M58.0475 40.6367C58.1666 40.8712 58.2856 41.0773 58.3802 41.2975C58.4292 41.4183 58.3136 41.5959 58.1911 41.6315C58.0755 41.667 57.8514 41.5746 57.7954 41.4716C57.6449 41.1874 57.7184 40.9032 58.0475 40.6367Z" fill="white"/>
<path d="M21.8111 28.593C21.8916 28.5539 21.9687 28.4971 22.0527 28.4793C22.1017 28.4687 22.1963 28.5149 22.2103 28.5575C22.2278 28.6072 22.1928 28.7138 22.1507 28.7316C22.0072 28.7884 21.8496 28.8524 21.6991 28.8524C21.531 28.8524 21.4434 28.9412 21.3419 29.0442C21.1248 29.2645 21.1143 29.268 20.7642 29.2396C20.7852 29.0975 20.8062 28.9554 20.8307 28.7991C20.9007 28.8204 20.9637 28.8204 20.9813 28.8488C21.1073 29.0513 21.1423 29.0655 21.2229 28.8772C21.3104 28.6676 21.51 28.6641 21.657 28.5717C21.6885 28.6179 21.7201 28.6641 21.7516 28.7103C21.7691 28.6712 21.7901 28.6321 21.8111 28.593Z" fill="white"/>
<path d="M20.8025 26.7242C20.75 26.5217 20.6939 26.3476 20.6659 26.17C20.6449 26.0385 20.6834 25.9106 20.841 25.8751C20.9705 25.8467 21.1631 25.9568 21.1981 26.0812C21.2892 26.3903 21.1771 26.5857 20.8025 26.7242Z" fill="white"/>
<path d="M21.7725 30.1099C22.2627 30.3514 22.2347 30.7707 22.2697 31.1579C22.2802 31.2538 22.2206 31.3604 22.1856 31.4741C22.0281 31.3888 22.0071 31.3142 22.0526 31.1934C22.0806 31.1117 22.1016 30.9625 22.0596 30.9305C21.7935 30.7245 21.8915 30.4083 21.7725 30.1099Z" fill="white"/>
<path d="M104.162 29.3249C103.847 29.2183 103.752 28.9874 103.707 28.7316C103.696 28.6641 103.756 28.5611 103.815 28.5078C103.836 28.4865 103.959 28.5433 104.008 28.593C104.208 28.7991 104.183 29.0513 104.162 29.3249Z" fill="white"/>
<path d="M57.3964 44.1467C57.575 44.1467 57.722 44.2533 57.722 44.3848C57.722 44.5482 57.6065 44.74 57.5084 44.7436C57.3894 44.7507 57.1443 44.5055 57.1373 44.3741C57.1268 44.2711 57.2668 44.1503 57.3964 44.1467Z" fill="white"/>
<path d="M52.1059 39.8302C52.0254 39.7378 51.9518 39.6667 51.8993 39.585C51.8118 39.4536 51.8223 39.315 51.9378 39.2049C52.0394 39.1054 52.1549 39.148 52.2565 39.212C52.365 39.283 52.4105 39.5104 52.33 39.6241C52.281 39.6987 52.2005 39.7449 52.1059 39.8302Z" fill="white"/>
<path d="M56.2584 45.2728C56.1884 45.1059 55.9433 45.049 56.0728 44.8216C56.1674 44.6547 56.2759 44.6334 56.5455 44.7009C56.6156 45.0099 56.591 45.0597 56.2584 45.2728Z" fill="white"/>
<path d="M52.4561 41.1233C52.1619 41.3756 51.9974 41.3329 51.8853 41.0274C51.8468 40.9208 51.7453 40.8391 51.6577 40.729C51.6752 40.7148 51.7207 40.6544 51.7348 40.6615C51.9553 40.7752 52.1689 40.896 52.386 41.0203C52.4105 41.0345 52.4245 41.0736 52.4561 41.1233Z" fill="white"/>
<path d="M105.149 23.2639C105.261 23.3456 105.359 23.3847 105.394 23.4593C105.419 23.5091 105.373 23.6192 105.328 23.6689C105.258 23.74 105.163 23.7968 105.069 23.8359C104.936 23.8892 104.761 23.7364 104.827 23.6156C104.897 23.4842 105.03 23.3883 105.149 23.2639Z" fill="white"/>
<path d="M76.0068 9.82053C75.7232 9.75658 75.7232 9.75658 75.5586 9.50789C75.7232 9.20947 75.7792 9.17039 75.9192 9.26631C76.1223 9.39776 76.1538 9.59671 76.0068 9.82053Z" fill="white"/>
<path d="M58.7831 41.9902C58.9266 41.9902 59.0282 42.0897 59.0212 42.2283C59.0177 42.3491 58.8846 42.445 58.713 42.4521C58.594 42.4556 58.5065 42.4059 58.4889 42.2816C58.4714 42.1608 58.657 41.9902 58.7831 41.9902Z" fill="white"/>
<path d="M23.4288 23.4593C23.4428 23.6334 23.2888 23.7826 23.1557 23.7932C23.0472 23.8039 22.9071 23.6973 22.9001 23.6014C22.8931 23.4842 23.0682 23.2639 23.1767 23.2923C23.2818 23.3172 23.3693 23.4166 23.4288 23.4593Z" fill="white"/>
<path d="M104.193 23.239C104.442 23.3953 104.277 23.612 104.351 23.7861C104.27 23.8252 104.207 23.8749 104.151 23.8749C104.102 23.8714 104.008 23.7932 104.011 23.7684C104.05 23.5943 104.022 23.3918 104.193 23.239Z" fill="white"/>
<path d="M57.4561 46.9675C57.5682 46.9746 57.6767 47.1096 57.6662 47.2127C57.6522 47.3441 57.5262 47.4542 57.4036 47.4365C57.2566 47.4152 57.2636 47.305 57.2706 47.1984C57.2741 47.067 57.3196 46.9675 57.4561 46.9675Z" fill="white"/>
<path d="M21.8389 23.8005C21.8984 23.6797 21.9404 23.5908 21.9929 23.4807C22.147 23.5305 22.3081 23.5411 22.3466 23.7259C22.3571 23.7791 22.3151 23.8715 22.273 23.8999C22.1085 23.9923 21.9964 23.8538 21.8389 23.8005Z" fill="white"/>
<path d="M56.6121 48.3353C56.4615 48.0511 56.493 47.9019 56.7732 47.6567C56.8047 47.7313 56.8712 47.8131 56.8537 47.8592C56.7907 48.0227 56.6996 48.1719 56.6121 48.3353Z" fill="white"/>
<path d="M102.698 25.2463C102.789 25.1255 102.866 25.0261 102.957 24.9053C103.038 24.9692 103.111 25.0296 103.202 25.1042C103.153 25.1859 103.122 25.2641 103.069 25.3174C102.947 25.4453 102.838 25.36 102.698 25.2463Z" fill="white"/>
<path d="M103.237 24.2552C103.465 24.1202 103.423 23.8111 103.693 23.7507C103.787 23.9035 103.763 24.0421 103.636 24.0989C103.521 24.1451 103.486 24.3725 103.237 24.2552Z" fill="white"/>
<path d="M22.9312 21.1962C22.9417 21.3419 22.7877 21.5337 22.6861 21.5089C22.6231 21.4947 22.5741 21.4165 22.5181 21.3668C22.6126 21.2744 22.7001 21.1785 22.8017 21.1003C22.8157 21.0897 22.8997 21.1714 22.9312 21.1962Z" fill="white"/>
<path d="M103.906 25.1894C103.878 25.2142 103.833 25.2853 103.773 25.2959C103.658 25.3173 103.525 25.1751 103.553 25.0508C103.567 24.9797 103.644 24.8909 103.71 24.8732C103.822 24.8447 103.906 24.9691 103.906 25.1894Z" fill="white"/>
<path d="M20.7221 25.1078C20.7011 25.3849 20.6485 25.4489 20.491 25.424C20.3894 25.4063 20.3089 25.3565 20.3404 25.2393C20.3964 25.0261 20.554 25.0901 20.7221 25.1078Z" fill="white"/>
<path d="M104.964 26.3584C105.125 26.6284 105.125 26.6355 104.901 26.8487C104.705 26.6035 104.705 26.6035 104.964 26.3584Z" fill="white"/>
<path d="M40.0152 53.5044C39.9522 53.4191 39.8962 53.3765 39.8927 53.3268C39.8822 53.2451 39.8962 53.1563 39.9207 53.0781C39.9277 53.0568 40.0573 53.0461 40.0643 53.0639C40.1063 53.1492 40.1378 53.2451 40.1448 53.341C40.1448 53.3765 40.0783 53.4227 40.0152 53.5044Z" fill="white"/>
<path d="M105.279 26.6816C105.394 26.5288 105.38 26.241 105.678 26.2943C105.678 26.5004 105.678 26.5004 105.279 26.6816Z" fill="white"/>
<path d="M54.4799 38.1284C54.4029 38.3416 54.2663 38.3878 54.0877 38.3487C54.0667 38.0325 54.1262 37.997 54.4799 38.1284Z" fill="white"/>
<path d="M76.7631 9.99097C76.8051 10.0549 76.8436 10.1153 76.9031 10.2112C76.7141 10.2539 76.5635 10.2894 76.3989 10.3285C76.3989 10.2787 76.3989 10.2112 76.3989 10.1402C76.5145 10.094 76.63 10.0478 76.7631 9.99097Z" fill="white"/>
<path d="M0.984236 49.6357C0.893198 49.6925 0.816165 49.7422 0.718125 49.8026C0.676107 49.7493 0.602576 49.696 0.606078 49.6499C0.609579 49.5859 0.662101 49.5007 0.718125 49.4722C0.858183 49.4012 0.931714 49.4936 0.984236 49.6357Z" fill="white"/>
<path d="M21.5762 29.6695C21.8458 29.4386 21.8458 29.4386 22.1924 29.8329C21.9683 29.7726 21.8003 29.7299 21.5762 29.6695Z" fill="white"/>
<path d="M107.009 19.7645C107.019 19.5122 107.177 19.4128 107.366 19.3311C107.324 19.6686 107.275 19.7325 107.009 19.7645Z" fill="white"/>
<path d="M103.178 24.8092C103.077 24.7097 103.014 24.6458 102.916 24.5534C103.059 24.5179 103.084 24.2976 103.231 24.4078C103.385 24.5179 103.245 24.6458 103.178 24.8092Z" fill="white"/>
<path d="M52.2141 37.9792C52.193 37.9615 52.172 37.9508 52.158 37.933C52.074 37.8158 52.0495 37.6914 52.1825 37.6026C52.2141 37.5813 52.3296 37.6239 52.3436 37.663C52.4032 37.8016 52.4172 37.9437 52.2141 37.9792Z" fill="white"/>
<path d="M58.7618 42.8855C58.6638 43.0418 58.4292 43.0844 58.3557 42.9708C58.3417 42.9459 58.3347 42.8926 58.3522 42.8784C58.3872 42.8393 58.4432 42.7896 58.4852 42.7931C58.5798 42.8074 58.6673 42.8535 58.7618 42.8855Z" fill="white"/>
<path d="M102.968 25.7402C103.052 25.9925 103.052 25.9925 102.888 26.1595C102.695 25.9925 102.835 25.8894 102.968 25.7402Z" fill="white"/>
<path d="M23.6562 20.5603C23.6492 20.944 23.5897 21.0257 23.3096 21.0222C23.3971 20.944 23.4671 20.9014 23.5162 20.8374C23.5687 20.7664 23.6002 20.6811 23.6562 20.5603Z" fill="white"/>
<path d="M23.2466 29.6659C23.3656 29.5131 23.4742 29.4847 23.6107 29.5735C23.5022 29.8222 23.5022 29.8222 23.2466 29.6659Z" fill="white"/>
<path d="M0.0145555 47.7739C0.0215584 47.9267 0.0180569 48.0653 -0.157016 48.0937C-0.181527 48.0972 -0.230547 48.0617 -0.234048 48.0368C-0.265562 47.8521 -0.114999 47.8201 0.0145555 47.7739Z" fill="white"/>
<path d="M51.7626 38.1925C51.6611 38.2742 51.5876 38.363 51.5526 38.3488C51.493 38.3275 51.437 38.2458 51.4195 38.1818C51.409 38.1392 51.479 38.0788 51.5106 38.0291C51.5806 38.0717 51.6471 38.1143 51.7626 38.1925Z" fill="white"/>
<path d="M39.9274 52.5169C39.8434 52.3286 39.7769 52.1794 39.7139 52.0337C39.9379 52.119 39.9835 52.2078 39.9274 52.5169Z" fill="white"/>
<path d="M108.99 19.0361C109.025 19.1853 108.987 19.2883 108.85 19.3132C108.815 19.3203 108.724 19.2315 108.728 19.1924C108.742 19.0432 108.857 19.029 108.99 19.0361Z" fill="white"/>
<path d="M56.8467 46.8539C56.8782 46.7438 56.9097 46.6372 56.9412 46.5448C57.0708 46.5022 57.1478 46.5342 57.1513 46.6549C57.1513 46.7722 57.0147 46.8645 56.8467 46.8539Z" fill="white"/>
<path d="M20.6938 24.5925C20.7149 24.5854 20.7394 24.5712 20.7569 24.5748C20.8514 24.6032 20.981 24.5961 20.967 24.7453C20.9635 24.7808 20.8899 24.827 20.8479 24.8306C20.7639 24.8412 20.7184 24.7631 20.6938 24.5925Z" fill="white"/>
<path d="M38.849 52.7087C38.6459 52.5986 38.6459 52.5986 38.6529 52.3357C38.835 52.3819 38.8035 52.5275 38.849 52.7087Z" fill="white"/>
<path d="M53.3521 40.6011C53.4746 40.697 53.5937 40.7894 53.7757 40.9315C53.4501 40.8782 53.4501 40.8782 53.3521 40.6011Z" fill="white"/>
<path d="M51.8151 40.1675C51.766 40.2563 51.7555 40.306 51.7275 40.3238C51.668 40.3629 51.598 40.3913 51.528 40.4126C51.5209 40.4162 51.4649 40.3167 51.4754 40.306C51.5315 40.2563 51.5945 40.2137 51.6575 40.1781C51.6785 40.1675 51.7135 40.1746 51.8151 40.1675Z" fill="white"/>
<path d="M106.508 25.1574C106.417 25.2427 106.35 25.2995 106.266 25.3777C106.221 25.2853 106.186 25.2178 106.13 25.1077C106.263 25.1219 106.364 25.1361 106.508 25.1574Z" fill="white"/>
<path d="M50.5998 37.2507C50.4948 37.1157 50.3863 37.0269 50.5123 36.8528C50.6278 36.9665 50.7399 37.0482 50.5998 37.2507Z" fill="white"/>
<path d="M23.2045 21.8571C23.1274 21.9246 23.0504 21.9921 22.9524 22.0774C22.9033 21.7825 22.9033 21.779 23.2045 21.8571Z" fill="white"/>
<path d="M105.566 25.5412C105.528 25.6833 105.5 25.8006 105.338 25.7544C105.314 25.7473 105.279 25.7011 105.282 25.6798C105.314 25.5412 105.401 25.4951 105.566 25.5412Z" fill="white"/>
<path d="M53.9092 43.4823C53.8041 43.4788 53.7026 43.4717 53.5205 43.4646C53.7621 43.3225 53.7621 43.3225 53.9092 43.4823Z" fill="white"/>
<path d="M74.4623 8.56628C74.6094 8.52365 74.6899 8.56628 74.7004 8.69418C74.7039 8.7226 74.6514 8.77944 74.6199 8.78299C74.4868 8.7901 74.4553 8.70128 74.4623 8.56628Z" fill="white"/>
<path d="M37.4663 53.5863C37.4768 53.469 37.4803 53.4157 37.4908 53.3198C37.5924 53.3731 37.6729 53.4122 37.82 53.4868C37.6694 53.5294 37.5924 53.5507 37.4663 53.5863Z" fill="white"/>
<path d="M0.742676 50.8363C0.795198 50.7262 0.844218 50.6302 0.893239 50.5308C1.00879 50.7511 0.987779 50.7972 0.742676 50.8363Z" fill="white"/>
<path d="M106.77 21.4023C106.812 21.6013 106.672 21.6652 106.588 21.7612C106.588 21.6191 106.609 21.4912 106.77 21.4023Z" fill="white"/>
<path d="M76.511 8.97497C76.434 9.10287 76.3675 9.15971 76.2834 9.05668C76.2624 9.03181 76.2975 8.95721 76.308 8.90747C76.371 8.92879 76.4375 8.9501 76.511 8.97497Z" fill="white"/>
<path d="M106.161 22.3119C106.238 22.223 106.315 22.1342 106.392 22.0454C106.392 22.2053 106.319 22.2941 106.224 22.3687C106.203 22.3474 106.182 22.3296 106.161 22.3119Z" fill="white"/>
<path d="M22.6479 31.4279C22.5184 31.5416 22.4379 31.5167 22.3923 31.4208C22.3818 31.3959 22.4414 31.3355 22.4659 31.2893C22.5219 31.3355 22.5814 31.3781 22.6479 31.4279Z" fill="white"/>
<path d="M54.4028 41.816C54.5464 41.6952 54.6304 41.7094 54.7179 41.8551C54.5919 41.9475 54.5044 41.951 54.4028 41.816Z" fill="white"/>
<path d="M1.10693 50.3105C1.19797 50.1471 1.22598 49.9766 1.43257 50.1933C1.32402 50.2324 1.24349 50.2608 1.10693 50.3105Z" fill="white"/>
<path d="M22.0878 31.5061C22.1368 31.6056 22.1823 31.6553 22.1823 31.7086C22.1823 31.7406 22.1123 31.7726 22.0738 31.801C22.0457 31.7583 22.0037 31.7157 22.0002 31.6695C21.9932 31.6304 22.0387 31.5878 22.0878 31.5061Z" fill="white"/>
<path d="M58.6602 40.1072C58.7303 40.093 58.8003 40.0788 58.8984 40.061C58.8914 40.1427 58.8879 40.196 58.8809 40.2742C58.7968 40.2422 58.7268 40.2138 58.6567 40.1854C58.6567 40.1569 58.6602 40.1321 58.6602 40.1072Z" fill="white"/>
<path d="M55.8838 40.2102C55.9713 39.9971 55.9713 39.9971 56.1534 40.1854C56.0484 40.196 55.9748 40.2031 55.8838 40.2102Z" fill="white"/>
<path d="M76.917 8.15059C76.945 8.07954 76.9765 8.00849 77.0255 7.8877C77.0816 7.98717 77.1481 8.06533 77.1341 8.08665C77.0991 8.13994 77.022 8.1648 76.9625 8.20388C76.9485 8.18967 76.9345 8.17191 76.917 8.15059Z" fill="white"/>
<path d="M107.275 24.3794C107.247 24.2906 107.226 24.2195 107.201 24.1343C107.257 24.1378 107.282 24.1343 107.296 24.1449C107.38 24.2089 107.418 24.2764 107.275 24.3794Z" fill="white"/>
<path d="M38.2817 53.4866C38.5724 53.5399 38.5724 53.5399 38.4428 53.7246C38.3973 53.6571 38.3588 53.5967 38.2817 53.4866Z" fill="white"/>
<path d="M55.7929 41.1838C55.7369 41.1092 55.6914 41.0666 55.6739 41.0133C55.6669 40.9955 55.7299 40.9209 55.7369 40.9244C55.7929 40.9458 55.8489 40.9777 55.8875 41.0239C55.898 41.0381 55.8419 41.1092 55.7929 41.1838Z" fill="white"/>
<path d="M0.567449 51.3906C0.518428 51.483 0.469408 51.5754 0.385373 51.7317C0.350358 51.5185 0.392376 51.419 0.567449 51.3906Z" fill="white"/>
<path d="M1.26805 51.0601C1.19452 51.1951 1.1525 51.2697 1.11049 51.3443C1.06847 51.323 1.03696 51.3159 1.03345 51.3017C0.987934 51.1595 1.05096 51.092 1.26805 51.0601Z" fill="white"/>
<path d="M76.0591 7.83458C76.0976 7.55391 76.0976 7.55391 76.2517 7.58944C76.2026 7.64984 76.1571 7.70668 76.0591 7.83458Z" fill="white"/>
<path d="M50.9818 38.9206C50.9783 38.8567 50.9713 38.7927 50.9678 38.7288C50.9678 38.7217 51.0203 38.7075 51.0238 38.711C51.0518 38.7679 51.0763 38.8247 51.1008 38.8816C51.0588 38.8958 51.0203 38.91 50.9818 38.9206Z" fill="white"/>
<path d="M57.75 47.3617C57.827 47.3369 57.869 47.312 57.911 47.312C57.9461 47.3156 57.9811 47.3475 58.0161 47.3688C57.9846 47.4115 57.9566 47.4541 57.925 47.4967C57.8935 47.4719 57.862 47.447 57.75 47.3617Z" fill="white"/>
<path d="M0.144043 49.3657C0.182559 49.3159 0.217574 49.2591 0.263093 49.2235C0.2806 49.2129 0.361133 49.2449 0.368136 49.2697C0.39965 49.4047 0.291104 49.4047 0.214072 49.4296C0.193063 49.4083 0.168553 49.387 0.144043 49.3657Z" fill="white"/>
<path d="M52.9321 41.5852C52.9776 41.5426 53.0197 41.4964 53.0687 41.4573C53.0757 41.4502 53.1177 41.4929 53.1422 41.5106C53.1002 41.5639 53.0617 41.6172 53.0197 41.6705C52.9917 41.6456 52.9601 41.6136 52.9321 41.5852Z" fill="white"/>
<path d="M105.314 22.9798C105.37 22.9442 105.423 22.9052 105.479 22.8696C105.5 22.9052 105.521 22.9442 105.538 22.9798C105.479 23.0046 105.416 23.0331 105.356 23.0579C105.342 23.0331 105.328 23.0046 105.314 22.9798Z" fill="white"/>
<path d="M75.124 7.87017C75.1835 7.82043 75.2221 7.78846 75.2571 7.75293C75.2816 7.78846 75.3236 7.82398 75.3201 7.85596C75.3166 7.88793 75.2711 7.93412 75.2396 7.94122C75.2151 7.94833 75.1765 7.9057 75.124 7.87017Z" fill="white"/>
<path d="M75.6391 10.1899C75.6986 10.2042 75.7616 10.2148 75.8211 10.2361C75.8282 10.2397 75.8176 10.2965 75.8141 10.3285C75.7511 10.3214 75.6846 10.3143 75.6216 10.3072C75.6286 10.2681 75.6356 10.229 75.6391 10.1899Z" fill="white"/>
<path d="M106.935 21.0648C107.002 21.0222 107.033 20.9902 107.072 20.9831C107.107 20.976 107.149 20.9937 107.212 21.0044C107.142 21.1678 107.072 21.1785 106.935 21.0648Z" fill="white"/>
<path d="M58.7061 41.6348C58.7411 41.6987 58.7831 41.7449 58.7726 41.7662C58.7586 41.8017 58.7096 41.8231 58.6746 41.8479C58.6501 41.816 58.608 41.784 58.6115 41.752C58.615 41.7236 58.6571 41.6952 58.7061 41.6348Z" fill="white"/>
<path d="M106.949 24.6353C106.935 24.5926 106.9 24.5465 106.911 24.5074C106.918 24.4647 106.963 24.4292 106.995 24.3901C107.023 24.4186 107.068 24.447 107.072 24.479C107.079 24.5109 107.044 24.55 107.026 24.5855C107.002 24.6068 106.977 24.6211 106.949 24.6353Z" fill="white"/>
<path d="M106.651 23.5375C106.595 23.5837 106.564 23.6121 106.529 23.6299C106.522 23.6335 106.473 23.5802 106.476 23.5695C106.49 23.5411 106.518 23.5127 106.546 23.4985C106.564 23.4914 106.592 23.5127 106.651 23.5375Z" fill="white"/>
<path d="M55.4144 39.5743C55.3513 39.5779 55.2918 39.585 55.2287 39.585C55.2252 39.585 55.2112 39.5317 55.2182 39.5281C55.2708 39.4997 55.3268 39.4748 55.3793 39.45C55.3898 39.489 55.4003 39.5317 55.4144 39.5743Z" fill="white"/>
<path d="M52.981 41.1836C53.0335 41.1481 53.086 41.1126 53.142 41.0842C53.1455 41.0806 53.177 41.1339 53.1981 41.1623C53.142 41.1943 53.086 41.2298 53.0265 41.2617C53.009 41.2333 52.995 41.2085 52.981 41.1836Z" fill="white"/>
<path d="M52.6625 44.1467C52.624 44.0223 52.5995 43.9513 52.5645 43.8269C52.7465 43.9051 52.75 43.9832 52.6625 44.1467Z" fill="white"/>
<path d="M20.1546 27.012C20.1021 27.0333 20.0671 27.0582 20.0321 27.0617C20.0181 27.0617 19.9831 27.0049 19.9866 26.9978C20.0111 26.9694 20.0426 26.941 20.0776 26.9268C20.0881 26.9196 20.1161 26.9658 20.1546 27.012Z" fill="white"/>
<path d="M22.7668 27.0475C22.7248 26.9906 22.7003 26.9586 22.6758 26.9267C22.7108 26.9089 22.7423 26.8805 22.7773 26.8769C22.7983 26.8734 22.8438 26.916 22.8403 26.9302C22.8333 26.9622 22.8053 26.9942 22.7668 27.0475Z" fill="white"/>
<path d="M22.315 27.5803C22.3675 27.5981 22.4165 27.6158 22.469 27.6372C22.4585 27.6585 22.4445 27.694 22.4375 27.694C22.3885 27.6833 22.3395 27.662 22.2939 27.6478C22.3009 27.623 22.308 27.6016 22.315 27.5803Z" fill="white"/>
<path d="M24.0729 26.6C24.0098 26.5857 23.9468 26.568 23.8838 26.5538C23.8943 26.5254 23.9083 26.4685 23.9153 26.4685C23.9783 26.4792 24.0379 26.4969 24.0974 26.5111C24.0869 26.5396 24.0799 26.5715 24.0729 26.6Z" fill="white"/>
<path d="M21.6851 20.0664C21.5731 20.077 21.5205 20.0806 21.4575 20.0877C21.524 19.9456 21.524 19.9456 21.6851 20.0664Z" fill="white"/>
<path d="M23.3378 31.8613C23.3728 31.9715 23.3938 32.007 23.3938 32.0425C23.3938 32.0603 23.3553 32.078 23.3343 32.0994C23.3133 32.0674 23.2783 32.0354 23.2713 31.9999C23.2678 31.975 23.2993 31.943 23.3378 31.8613Z" fill="white"/>
<path d="M104.27 24.2729C104.221 24.3156 104.19 24.3653 104.155 24.3653C104.127 24.3653 104.074 24.3085 104.074 24.28C104.074 24.2481 104.127 24.1983 104.162 24.1948C104.19 24.1912 104.225 24.2374 104.27 24.2729Z" fill="white"/>
<path d="M58.9438 46.328C58.9579 46.2534 58.9684 46.1788 58.9824 46.1042C59.0069 46.1078 59.0349 46.1114 59.0594 46.1149C59.0454 46.1931 59.0314 46.2712 59.0174 46.3494C58.9929 46.3422 58.9684 46.3351 58.9438 46.328Z" fill="white"/>
<path d="M20.5541 28.2766C20.4386 28.3228 20.3895 28.3406 20.3405 28.3583C20.33 28.3441 20.323 28.3299 20.3125 28.3157C20.337 28.2908 20.358 28.2588 20.3895 28.2482C20.414 28.2411 20.4491 28.2588 20.5541 28.2766Z" fill="white"/>
<path d="M0.581574 48.2003C0.536055 48.2323 0.504541 48.2713 0.469527 48.2749C0.448518 48.2784 0.420506 48.2251 0.395996 48.2003C0.427509 48.1754 0.459022 48.1435 0.494037 48.1328C0.515046 48.1292 0.543058 48.1683 0.581574 48.2003Z" fill="white"/>
<path d="M51.2373 36.9559C51.2267 36.899 51.2126 36.8671 51.2197 36.8422C51.2267 36.8244 51.262 36.8138 51.2832 36.7996C51.2902 36.8209 51.3114 36.8422 51.3044 36.86C51.2973 36.8848 51.2726 36.9097 51.2373 36.9559Z" fill="white"/>
<path d="M3.07482 53.8242C3.0118 53.8242 2.94877 53.8242 2.88574 53.8242C2.88574 53.8029 2.88574 53.7816 2.88924 53.7603C2.95227 53.7638 3.0153 53.7674 3.07832 53.7709C3.07832 53.7887 3.07832 53.8065 3.07482 53.8242Z" fill="white"/>
<path d="M99.0042 28.998C98.9552 29.1117 98.9062 29.2254 98.8572 29.3356C98.8432 29.1863 98.8572 29.0513 99.0147 29.0052L99.0042 28.998Z" fill="white"/>
</g>
<defs>
<clipPath id="clip0_225:1584">
<rect width="109" height="73" fill="white"/>
</clipPath>
</defs>
</svg>
