<svg width="165" height="78" viewBox="0 0 165 78" fill="none" xmlns="http://www.w3.org/2000/svg">
<path d="M88.5039 35.4012C88.5039 27.0307 88.5039 18.8202 88.5039 10.2365C90.9698 10.2365 93.2212 10.1298 95.5263 10.2898C96.2232 10.3431 97.0273 11.0895 97.5097 11.7293C100.404 15.8879 103.192 20.0465 106.516 24.9514C106.516 19.6733 106.516 15.1948 106.516 10.4497C109.732 10.4497 112.627 10.4497 115.146 10.4497C115.146 18.7136 115.146 26.9774 115.146 35.5612C112.359 35.5612 110.054 35.7211 107.749 35.5078C106.998 35.4545 106.087 34.6015 105.604 33.9084C102.71 29.7498 99.922 25.5379 96.8129 20.8995C96.8129 26.0711 96.8129 30.7095 96.8129 35.4012C94.2398 35.4012 91.4522 35.4012 88.5039 35.4012Z" fill="white"/>
<path d="M146.72 44.4648C146.72 51.609 146.72 58.38 146.72 65.3643C144.201 65.3643 141.306 65.3643 138.304 65.3643C137.607 56.8872 138.947 48.4634 137.446 39.9863C145.702 39.9863 154.279 39.9863 162.856 39.9863C164.518 46.9173 163.07 50.7027 157.066 54.648C159.693 59.0731 162.373 63.4983 164.946 67.8168C160.068 69.5762 156.048 68.2966 153.367 63.2317C151.277 59.2864 149.454 55.1278 147.632 51.2891C150.205 50.596 152.778 50.4361 154.761 49.2632C155.726 48.6767 155.512 46.2775 155.887 44.4648C152.563 44.4648 149.669 44.4648 146.72 44.4648Z" fill="white"/>
<path d="M0 35.9344C5.73587 23.7252 11.1501 12.1025 16.8324 0C22.5146 12.0492 27.9825 23.7252 33.6111 35.7211C30.1267 35.7211 26.9103 35.7211 23.9084 35.7211C21.3889 30.123 18.8694 24.4716 16.0283 18.2338C14.8489 20.5796 13.9912 22.3923 12.8119 24.7382C16.7788 23.9385 17.9581 26.0178 18.655 29.2167C17.2076 29.2167 15.8674 29.2167 14.5809 29.2167C10.5068 29.2167 9.54191 29.9098 8.577 33.9084C8.41618 34.4949 8.46979 35.1347 8.41618 35.9344C7.12963 35.9344 5.78947 35.9344 4.44932 35.9344C3.16277 35.9344 1.82261 35.9344 0 35.9344Z" fill="white"/>
<path d="M61.4864 36.894C59.5565 36.894 57.3051 37.1073 55.1608 36.7874C53.9815 36.6274 52.4269 35.881 51.8372 34.9213C49.2105 30.5495 46.9055 26.0177 44.3324 21.326C52.9094 19.9398 53.1238 19.7799 52.3197 14.8215C49.4786 14.8215 46.5838 14.8215 43.7963 14.8215C43.7963 21.8058 43.7963 28.5235 43.7963 35.4545C41.3304 35.4545 38.4357 35.4545 35.3265 35.4545C34.7368 27.1373 35.809 18.8202 34.6832 10.4497C42.6706 10.4497 51.1403 10.4497 59.6101 10.4497C61.1111 17.9671 59.9318 21.1127 53.9279 24.8448C56.4474 28.7901 58.9669 32.7887 61.4864 36.894Z" fill="white"/>
<path d="M107.427 52.5688C107.588 44.8915 113.699 38.9202 121.311 38.9735C129.137 39.0801 135.195 45.4246 134.981 53.3153C134.766 60.6727 128.494 66.5907 120.936 66.4841C113.324 66.3775 107.266 60.1396 107.427 52.5688ZM114.074 52.6755C114.074 57.1539 117.183 60.886 121.043 60.9393C124.956 61.046 128.333 57.2606 128.333 52.6755C128.333 48.2503 125.117 44.5716 121.204 44.5716C117.29 44.5716 114.128 48.197 114.074 52.6755Z" fill="white"/>
<path d="M73.7086 38.0137C78.0507 47.1306 82.3392 56.1408 86.7885 65.5243C84.7515 65.5243 82.6072 65.6842 80.463 65.4176C79.7661 65.311 79.0692 64.1914 78.694 63.445C76.2281 58.3267 73.8694 53.2085 71.1891 47.5038C69.9025 50.2228 68.8304 52.4621 67.5439 55.1278C70.9747 55.0745 74.4591 54.5947 74.4591 59.4463C72.6365 59.4463 70.7066 59.4463 68.7768 59.4463C65.1852 59.4463 64.5955 59.9262 63.7914 63.445C63.6306 64.0314 63.6842 64.6712 63.6306 65.4176C61.1111 65.4176 58.5916 65.4176 55.6969 65.4176C57.7339 60.9925 59.7174 56.8339 61.6472 52.6753C63.2018 49.3165 64.8636 45.9576 66.3645 42.5455C67.0614 40.8927 67.8655 39.7198 69.9025 39.5065C71.0819 39.2932 72.2076 38.6001 73.7086 38.0137Z" fill="white"/>
<path d="M133.587 8.31689C137.982 17.5404 142.271 26.5507 146.613 35.6142C144.951 35.6142 142.807 35.7742 140.77 35.5076C139.966 35.401 139.108 34.388 138.679 33.5883C136.213 28.5233 133.855 23.3518 131.174 17.7004C129.942 20.4194 128.869 22.712 127.636 25.3777C131.174 25.0578 134.23 25.0578 134.498 29.5363C132.943 29.5363 131.335 29.5363 129.781 29.5363C125.01 29.5363 123.991 30.496 123.67 35.401C121.204 35.401 118.791 35.401 115.897 35.401C116.486 34.0681 116.969 32.9485 117.505 31.8822C120.453 25.591 123.455 19.3531 126.296 13.0619C127.1 11.2492 128.012 9.91635 130.21 9.70309C131.335 9.70309 132.354 8.85005 133.587 8.31689Z" fill="white"/>
<path d="M63.6842 10.4497C70.9747 10.4497 78.1043 10.4497 85.3411 10.4497C85.3411 12.1558 85.3411 13.7019 85.3411 14.9282C80.8918 14.9282 76.3889 14.9282 71.7788 14.9282C71.7788 16.7409 71.7788 18.6602 71.7788 20.9528C75.2632 20.9528 78.7476 20.9528 82.3928 20.9528C81.8031 23.9384 80.8382 25.7511 77.6218 25.3246C75.7992 25.058 73.8694 25.2713 71.8324 25.2713C71.8324 27.244 71.8324 29.0567 71.8324 31.0293C76.2817 31.0293 80.7846 31.0293 85.4483 31.0293C85.4483 32.2023 85.4483 33.6951 85.4483 35.4012C78.2115 35.4012 71.0283 35.4012 63.6842 35.4012C63.6842 27.1373 63.6842 18.9268 63.6842 10.4497Z" fill="white"/>
<path d="M43.9571 78C37.846 64.9378 31.9493 52.4088 26.0526 39.7731C28.5185 39.7731 31.5205 39.7198 34.4688 39.8264C35.0585 39.8264 35.8626 40.5728 36.1306 41.1593C40.1511 49.5831 44.1179 58.0069 47.9776 66.484C48.2992 67.1771 48.2992 68.2434 47.9776 68.9365C46.8519 71.8688 45.5117 74.6412 43.9571 78Z" fill="white"/>
<path d="M88.6111 39.9331C91.345 39.9331 94.2934 39.9331 97.5634 39.9331C97.5634 46.9707 97.5634 53.9017 97.5634 60.9393C100.726 60.9393 103.514 60.9393 106.462 60.9393C107.32 62.1655 108.392 63.6583 109.625 65.3111C102.87 65.3111 96.2768 65.3111 89.3616 65.3111C89.3616 62.8053 89.3616 60.2462 89.3616 57.687C89.3616 53.6884 89.4688 49.6898 89.308 45.6911C89.308 43.8251 88.8791 41.9591 88.6111 39.9331Z" fill="white"/>
<path d="M53.4454 39.8799C55.9649 39.8799 58.538 39.8799 61.6472 39.8799C57.6267 48.4636 53.6598 56.7808 49.5322 65.5245C48.2456 62.912 47.0663 60.7794 46.155 58.4869C45.8869 57.7938 46.1014 56.7808 46.423 56.0344C48.192 52.1424 50.0682 48.357 51.8372 44.5183C52.5341 43.1321 52.9093 41.586 53.4454 39.8799Z" fill="white"/>
<path d="M151.33 32.9486C148.918 32.9486 146.881 30.9226 146.988 28.5234C147.042 26.2309 149.025 24.3115 151.33 24.3115C153.743 24.3115 155.78 26.3908 155.726 28.79C155.619 31.0825 153.689 32.9486 151.33 32.9486ZM154.6 28.5234C153.099 27.4038 152.188 26.1776 151.223 26.2309C150.473 26.2309 149.133 27.8836 149.186 28.63C149.293 29.5897 150.526 30.8693 151.491 31.0825C152.134 31.1892 153.153 29.7497 154.6 28.5234Z" fill="white"/>
<path d="M163.231 25.0049C159.907 26.4444 159.211 26.8709 159.264 27.9372C160.175 27.9905 161.087 28.0972 161.998 28.1505C162.052 28.3637 162.052 28.577 162.105 28.7903C161.14 29.0568 160.175 29.3234 159.157 29.6433C158.353 30.9762 160.015 33.3754 157.12 33.9618C157.12 30.9229 157.12 27.9905 157.12 25.0049C159.211 25.0049 161.194 25.0049 163.231 25.0049Z" fill="white"/>
</svg>
