<svg width="114" height="37" viewBox="0 0 114 37" fill="none" xmlns="http://www.w3.org/2000/svg">
<g clip-path="url(#clip0_225:1771)">
<g clip-path="url(#clip1_225:1771)">
<path d="M17.6804 9.12769C19.4775 9.12769 21.1876 9.12769 22.9412 9.12769C22.9412 10.7943 23.1151 12.4465 22.9122 14.0551C22.0426 21.0695 21.0572 28.0838 20.1296 35.0836C20.0862 35.3735 20.0282 35.6488 19.9847 35.9532C17.55 35.9532 15.1732 35.9532 12.695 35.9532C12.3037 30.5185 11.9124 25.0983 11.5211 19.6782C11.4052 19.6782 11.2893 19.6782 11.1733 19.6782C10.782 25.0839 10.4052 30.504 10.0139 35.9387C7.5647 35.9387 5.18794 35.9387 2.72423 35.9387C2.55032 34.7213 2.37641 33.5185 2.21699 32.3011C1.39092 26.2722 0.535868 20.2289 -0.188754 14.1711C-0.391648 12.5334 -0.217738 10.8523 -0.217738 9.15667C1.49237 9.15667 3.20248 9.15667 5.02852 9.15667C5.41982 14.4464 5.81112 19.7506 6.18792 25.0404C6.30386 25.0404 6.4198 25.0404 6.53574 25.0404C6.91254 19.7651 7.28934 14.4754 7.66615 9.15667C10.1154 9.15667 12.5211 9.15667 15.0138 9.15667C15.4051 14.4464 15.7964 19.7361 16.1732 25.0259C16.2891 25.0259 16.4051 25.0259 16.521 25.0259C16.9123 19.7361 17.2891 14.4609 17.6804 9.12769Z" fill="white"/>
<path d="M90.6644 24.3449C90.6644 28.2143 90.6644 32.0693 90.6644 35.9823C88.8673 35.9823 87.1572 35.9823 85.4326 35.9823C85.4326 27.0694 85.4326 18.2001 85.4326 9.20026C86.4036 9.20026 87.3601 9.18577 88.3166 9.20026C89.0847 9.21475 90.0267 8.99737 90.5629 9.35968C91.0557 9.70749 91.1137 10.693 91.3455 11.4031C92.302 14.3596 93.244 17.3305 94.1861 20.3015C94.2585 20.5189 94.36 20.7217 94.4469 20.9246C94.5194 20.9101 94.5918 20.8957 94.6643 20.8957C94.6643 17.0407 94.6643 13.1857 94.6643 9.27272C96.4759 9.27272 98.1715 9.27272 99.9251 9.27272C99.9251 18.1711 99.9251 27.0694 99.9251 36.0402C98.2729 36.0402 96.6643 36.0547 95.0556 36.0113C94.8672 36.0113 94.6208 35.62 94.5484 35.3736C93.5339 32.2287 92.5339 29.0839 91.5339 25.9245C91.36 25.3738 91.1571 24.8376 90.9687 24.3014C90.8383 24.3014 90.7513 24.3304 90.6644 24.3449Z" fill="white"/>
<path d="M49.5925 23.649C50.5055 26.1128 51.3751 28.5185 52.3026 30.8953C52.6504 31.7938 52.8388 32.6778 52.7953 33.6343C52.7519 34.3734 52.7808 35.127 52.7808 35.9821C51.607 35.9821 50.4766 35.9966 49.3606 35.9821C47.5636 35.9676 47.5491 35.9676 46.9984 34.2575C46.1143 31.5474 45.2303 28.8518 44.3462 26.1417C44.2158 25.7649 44.1144 25.3591 43.5202 25.649C43.5202 29.0547 43.5202 32.4749 43.5202 35.9531C41.5202 35.9531 39.5782 35.9531 37.5928 35.9531C37.5928 27.0258 37.5928 18.1129 37.5928 9.1566C37.7667 9.14211 37.9406 9.11313 38.129 9.11313C41.3898 9.11313 44.6506 9.09863 47.9114 9.09863C50.3896 9.09863 51.9693 10.5769 52.0562 13.0696C52.1287 15.2869 52.0997 17.5187 52.0707 19.7361C52.0272 21.4752 51.3316 22.8664 49.5925 23.649ZM43.5492 20.6781C44.2303 20.6781 44.8825 20.7361 45.5056 20.6491C45.7375 20.6201 46.0853 20.2433 46.0853 20.0114C46.1288 18.2289 46.1288 16.4463 46.0853 14.6637C46.0853 14.4318 45.7375 14.0406 45.5201 14.0116C44.8825 13.9246 44.2303 13.9826 43.5492 13.9826C43.5492 16.2434 43.5492 18.4173 43.5492 20.6781Z" fill="white"/>
<path d="M84.302 22.6201C84.302 25.4896 84.3164 28.3736 84.2875 31.2431C84.273 31.9822 84.2005 32.7503 84.0266 33.4605C83.6643 34.9677 82.2295 36.0256 80.6644 36.0256C78.2296 36.0256 75.7804 36.0256 73.3457 36.0256C71.8095 36.0256 70.7805 35.2286 70.1863 33.9097C69.8965 33.2431 69.7515 32.4605 69.7515 31.7359C69.7226 25.6925 69.7226 19.6637 69.7371 13.6203C69.7371 11.8667 70.2153 10.3016 71.9689 9.48999C72.3312 9.31608 72.7515 9.21463 73.1428 9.21463C75.534 9.18565 77.9253 9.30159 80.3165 9.17116C82.6353 9.04072 84.157 10.9392 84.2295 12.7653C84.2875 14.3739 84.2875 15.9971 84.2875 17.6202C84.302 19.2869 84.302 20.9535 84.302 22.6201ZM75.7079 22.5767C75.7079 22.5767 75.6935 22.5767 75.7079 22.5767C75.6935 25.1273 75.7079 27.6925 75.6934 30.2432C75.6934 30.9098 75.9398 31.2431 76.6355 31.1852C76.8239 31.1707 77.0268 31.1852 77.2152 31.1852C78.2586 31.1852 78.3311 31.1127 78.3311 30.0837C78.3311 25.2578 78.3311 20.4318 78.3311 15.6058C78.3311 13.9826 78.3311 13.9826 76.7224 13.9826C75.8239 13.9826 75.7079 14.0986 75.7079 14.9826C75.7079 17.5188 75.7079 20.0405 75.7079 22.5767Z" fill="white"/>
<path d="M25.1006 9.12769C27.7962 9.12769 30.4483 9.12769 33.1874 9.12769C33.3323 10.0407 33.4917 10.9537 33.6366 11.8668C34.5931 18.2144 35.6076 24.5476 36.4916 30.9098C36.7235 32.533 36.5206 34.2286 36.5206 35.9387C34.7381 35.9387 32.941 35.9387 31.028 35.9387C30.8686 34.2576 30.7092 32.533 30.5497 30.7939C29.6222 30.7939 28.7382 30.7939 27.7527 30.7939C27.5933 32.4895 27.4484 34.1851 27.2889 35.9387C25.4339 35.9387 23.6224 35.9387 21.6079 35.9387C21.7238 33.8228 21.7094 31.7214 21.9992 29.6635C22.9267 23.0694 23.9702 16.4898 24.9702 9.91028C24.9846 9.66391 25.0426 9.40304 25.1006 9.12769ZM29.3179 16.7362C29.2019 16.7362 29.086 16.7362 28.9556 16.7507C28.7092 19.5333 28.4628 22.3303 28.2165 25.1418C28.8976 25.1418 29.4338 25.1418 30.057 25.1418C29.8106 22.2868 29.5643 19.5188 29.3179 16.7362Z" fill="white"/>
<path d="M107.157 30.4317C109.2 30.4317 111.214 30.4317 113.272 30.4317C113.272 32.3158 113.272 34.1273 113.272 35.9968C109.258 35.9968 105.258 35.9968 101.2 35.9968C101.2 27.0985 101.2 18.2146 101.2 9.2583C105.2 9.2583 109.215 9.2583 113.272 9.2583C113.272 11.0699 113.272 12.8669 113.272 14.7509C111.258 14.7509 109.243 14.7509 107.171 14.7509C107.171 15.8524 107.171 16.8668 107.171 17.9827C109.186 17.9827 111.214 17.9827 113.287 17.9827C113.287 19.8813 113.287 21.6783 113.287 23.5768C111.258 23.5768 109.215 23.5768 107.142 23.5768C107.157 25.8956 107.157 28.1275 107.157 30.4317Z" fill="white"/>
<path d="M60.8534 30.4606C63.5345 30.4606 66.0852 30.4606 68.6503 30.4606C68.6503 32.3301 68.6503 34.1272 68.6503 35.9822C63.8243 35.9822 59.0418 35.9822 54.1289 35.9822C54.3318 33.8228 53.7811 31.6779 54.868 29.5476C57.2303 24.91 59.3897 20.1565 61.636 15.4609C61.7229 15.2725 61.8099 15.0696 61.9258 14.7798C59.3027 14.7798 56.7665 14.7798 54.1724 14.7798C54.1724 12.8957 54.1724 11.0987 54.1724 9.24365C58.9694 9.24365 63.7664 9.24365 68.6648 9.24365C68.6648 10.4175 68.6358 11.5914 68.6793 12.7508C68.7083 13.5914 68.5344 14.345 68.1576 15.1131C65.7808 20.0405 63.433 24.9969 61.0853 29.9389C61.0563 30.0693 60.9838 30.1997 60.8534 30.4606Z" fill="white"/>
<path d="M55.9839 7.77981C55.9839 5.18567 55.9839 2.60601 55.9839 -0.133057C57.3607 -0.046102 58.7085 -0.0316096 60.0273 0.127807C60.8244 0.229254 61.2446 0.779967 61.2591 1.60604C61.3026 3.2002 61.3026 4.79437 61.2591 6.38854C61.2446 7.24359 60.8678 7.72184 60.0563 7.76532C58.7375 7.83778 57.3897 7.77981 55.9839 7.77981ZM58.2882 6.41752C58.3751 6.461 58.4476 6.51897 58.5346 6.56245C58.6795 6.33057 58.9548 6.09869 58.9548 5.86681C58.9983 4.548 58.9838 3.22919 58.9838 1.91038C58.9838 1.44662 58.7519 1.2872 58.2882 1.35966C58.2882 3.06977 58.2882 4.7364 58.2882 6.41752Z" fill="white"/>
<path d="M62.1576 -0.0170898C62.9257 -0.0170898 63.6068 -0.0170898 64.4039 -0.0170898C64.4039 1.02637 64.4039 2.02634 64.4039 3.02632C64.4039 3.92485 64.3749 4.80889 64.4184 5.70742C64.4329 5.91032 64.6503 6.09872 64.7662 6.28712C64.8532 6.24364 64.9401 6.21466 65.0271 6.17118C65.0271 4.12775 65.0271 2.09881 65.0271 0.011895C65.8097 0.011895 66.5198 0.011895 67.3314 0.011895C67.3459 0.229282 67.3604 0.461161 67.3604 0.678547C67.3604 2.31619 67.3604 3.95384 67.3604 5.60598C67.3459 6.8958 66.9546 7.51898 65.9691 7.88129C64.8097 8.30157 63.1286 7.98273 62.5344 7.20014C62.3605 6.96826 62.1866 6.63494 62.1866 6.34509C62.1431 4.22919 62.1576 2.14228 62.1576 -0.0170898Z" fill="white"/>
<path d="M44.9407 7.8379C44.1146 7.8379 43.39 7.8379 42.6074 7.8379C42.5495 7.38863 42.506 6.96835 42.448 6.4901C42.1871 6.4901 41.9408 6.4901 41.6509 6.4901C41.593 6.92487 41.535 7.34515 41.4625 7.80891C40.6799 7.80891 39.9263 7.80891 39.1147 7.80891C39.506 5.17129 39.8828 2.59164 40.2741 -0.0314941C41.3901 -0.0314941 42.4625 -0.0314941 43.6074 -0.0314941C44.0567 2.56265 44.4914 5.17129 44.9407 7.8379ZM42.1002 2.30179C42.0567 2.30179 41.9987 2.30179 41.9553 2.30179C41.8538 3.17133 41.7379 4.05537 41.6219 4.98289C41.8828 4.98289 42.1002 4.98289 42.3611 4.98289C42.2741 4.04088 42.1871 3.17133 42.1002 2.30179Z" fill="white"/>
<path d="M36.7525 4.73645C37.5496 4.73645 38.2307 4.73645 38.9119 4.73645C39.2597 6.11323 38.9264 7.1277 37.9699 7.66392C36.8394 8.28709 34.8685 8.17115 34.1728 7.3161C33.8685 6.95379 33.6801 6.40308 33.6511 5.93932C33.5786 4.56254 33.6076 3.18575 33.6221 1.80897C33.6366 0.939427 34.1149 0.35973 34.9119 0.0553887C35.854 -0.306922 36.8105 -0.29243 37.738 0.0553887C38.4771 0.330745 38.9263 0.866965 38.9698 1.67854C38.9988 2.22925 38.9698 2.77997 38.9698 3.35966C38.2452 3.35966 37.5496 3.35966 36.738 3.35966C36.738 2.85243 36.7815 2.31621 36.7235 1.80897C36.6945 1.57709 36.4771 1.35971 36.3467 1.12783C36.2018 1.35971 35.9264 1.59159 35.9119 1.82347C35.8684 3.22923 35.8684 4.62051 35.9119 6.02627C35.9119 6.24366 36.1728 6.46105 36.3032 6.67843C36.4481 6.46105 36.6655 6.25815 36.709 6.02627C36.8105 5.63498 36.7525 5.2147 36.7525 4.73645Z" fill="white"/>
<path d="M76.7225 7.88123C76.1718 7.88123 75.5341 7.88123 74.7226 7.88123C75.2153 5.08419 73.911 2.62048 73.1719 -0.0606249C73.824 -0.0606249 74.4182 -0.0896097 74.9979 -0.03164C75.1428 -0.0171476 75.3168 0.272701 75.3747 0.461103C75.5486 1.18572 75.6646 1.91035 75.882 2.63497C76.0414 1.92484 76.2008 1.21471 76.3312 0.490088C76.4037 0.0842995 76.5631 -0.0896097 76.9979 -0.0606249C77.4761 -0.0171476 77.9544 -0.0461324 78.5631 -0.0461324C78.1283 1.30166 77.6211 2.56251 77.3167 3.88132C77.0124 5.17114 76.9109 6.51894 76.7225 7.88123Z" fill="white"/>
<path d="M69.1723 1.56274C68.6651 1.53376 68.2883 1.51926 67.8535 1.50477C67.8535 0.997537 67.8535 0.519286 67.8535 -0.00244141C69.4767 -0.00244141 71.0998 -0.00244141 72.7954 -0.00244141C72.7954 0.461317 72.7954 0.954059 72.7954 1.50477C72.3896 1.50477 71.9983 1.50477 71.4911 1.50477C71.4911 3.64965 71.4911 5.72207 71.4911 7.83797C70.6795 7.83797 69.9694 7.83797 69.1723 7.83797C69.1723 5.75106 69.1723 3.69313 69.1723 1.56274Z" fill="white"/>
<path d="M51.8681 6.2438C52.3463 6.27278 52.7521 6.28728 53.2014 6.30177C53.2014 6.79451 53.2014 7.27276 53.2014 7.80898C52.013 7.80898 50.8246 7.80898 49.5928 7.80898C49.5928 5.21483 49.5928 2.63518 49.5928 -0.00244141C50.3174 -0.00244141 51.042 -0.00244141 51.8681 -0.00244141C51.8681 2.06998 51.8681 4.1279 51.8681 6.2438Z" fill="white"/>
<path d="M47.6215 6.27263C48.1432 6.27263 48.52 6.27263 48.9693 6.27263C48.9693 6.80885 48.9693 7.2871 48.9693 7.82332C47.7809 7.82332 46.607 7.82332 45.3896 7.82332C45.3896 5.21468 45.3896 2.62053 45.3896 -0.0170898C46.1143 -0.0170898 46.8244 -0.0170898 47.6215 -0.0170898C47.6215 2.06982 47.6215 4.12775 47.6215 6.27263Z" fill="white"/>
<path d="M54.0706 3.20033C54.0706 3.41771 54.0706 3.6351 54.0706 3.85249C54.0851 4.31625 53.8533 4.57711 53.3895 4.60609C52.8968 4.63508 52.6214 4.35972 52.5924 3.88147C52.5779 3.43221 52.5779 2.96845 52.5924 2.51918C52.6214 2.04093 52.8968 1.76558 53.3895 1.79456C53.8533 1.82355 54.0706 2.1134 54.0561 2.56266C54.0561 2.78005 54.0706 2.99743 54.0706 3.20033ZM53.4185 2.33078C53.375 2.33078 53.346 2.34527 53.3025 2.34527C53.3025 2.91048 53.3025 3.47568 53.3025 4.04089C53.4475 3.60612 53.462 3.18584 53.4475 2.75106C53.462 2.60614 53.433 2.46121 53.4185 2.33078Z" fill="white"/>
<path d="M79.3167 7.86701C78.4326 7.85252 77.708 7.06993 77.708 6.14241C77.708 5.18591 78.5051 4.40332 79.4036 4.4468C80.2877 4.49027 80.9978 5.28736 80.9688 6.20038C80.9543 7.14239 80.2007 7.896 79.3167 7.86701ZM80.6645 6.1714C80.679 5.38881 80.0848 4.73665 79.3601 4.72215C78.65 4.70766 78.0268 5.35982 78.0123 6.12792C77.9979 6.88153 78.621 7.56267 79.3167 7.57716C80.0413 7.60615 80.65 6.95399 80.6645 6.1714Z" fill="white"/>
<path d="M54.3175 1.85258C54.5928 1.83809 54.7812 1.8091 54.9696 1.83809C55.1001 1.85258 55.216 1.92504 55.3319 1.98301C55.274 2.11344 55.216 2.24387 55.1435 2.37431C55.0856 2.47575 54.9986 2.5772 54.9262 2.67865C55.6943 3.21487 54.5928 3.73659 54.8972 4.28731C54.9117 4.31629 54.7088 4.47571 54.5928 4.57716C54.4914 4.44672 54.3175 4.31629 54.3175 4.18586C54.303 3.43225 54.3175 2.69314 54.3175 1.85258Z" fill="white"/>
<path d="M53.4188 2.33057C53.4333 2.461 53.4478 2.60592 53.4623 2.73635C53.4623 3.17113 53.4623 3.59141 53.3174 4.02618C53.3174 3.46098 53.3174 2.89577 53.3174 2.33057C53.3464 2.34506 53.3898 2.33057 53.4188 2.33057Z" fill="white"/>
<path d="M79.8963 7.18582C79.6934 6.86698 79.4905 6.56264 79.3021 6.27279C79.2441 6.30178 79.1717 6.31627 79.1137 6.34526C79.0557 6.60612 78.9978 6.86698 78.9543 7.12785C78.8818 7.12785 78.8239 7.12785 78.7514 7.12785C78.7514 6.54815 78.7224 5.96845 78.7804 5.40325C78.7949 5.31629 79.2441 5.18586 79.447 5.22934C79.6499 5.27282 79.9543 5.51919 79.9832 5.6931C80.0267 6.17135 79.9398 6.6496 79.8963 7.18582Z" fill="white"/>
</g>
</g>
<defs>
<clipPath id="clip0_225:1771">
<rect width="114" height="37" fill="white"/>
</clipPath>
<clipPath id="clip1_225:1771">
<rect width="127" height="37" fill="white" transform="translate(-7 -0.498535)"/>
</clipPath>
</defs>
</svg>
