<svg width="92" height="94" viewBox="0 0 92 94" fill="none" xmlns="http://www.w3.org/2000/svg">
<g clip-path="url(#clip0_284_388)">
<path d="M1 48.3769C1.35904 21.8664 21.2291 1.74232 46.977 1.99901C72.7352 2.2557 91.0152 22.5646 91.959 45.5225C92.4821 58.3671 88.2968 69.5996 79.4235 78.9122C70.9708 87.8037 60.4665 92.5165 48.2285 92.9682C35.4058 93.4303 24.2347 89.118 14.9819 80.2469C5.70849 71.3553 1.36929 60.2357 1 48.3769ZM46.4949 88.1836C68.7038 88.2966 86.8607 70.2773 87.2197 48.1715C87.5787 25.2034 69.2269 7.22512 47.5617 6.71175C24.2962 6.16758 5.99572 24.8953 5.79055 47.0216C5.58539 70.0001 24.2757 88.3171 46.4949 88.1836Z" fill="white"/>
<path d="M30.3896 41.2418C30.0921 41.1802 29.8459 41.1289 29.5587 41.0673C29.7946 40.02 30.0306 38.983 30.2562 37.9563C31.0358 34.5475 31.7847 31.1387 32.1642 27.6478C32.2668 26.734 32.2668 25.8099 32.3591 24.8859C32.3899 24.5778 32.4515 24.2082 32.6361 23.9823C34.3492 21.8365 36.0931 19.7111 37.8473 17.596C38.0934 17.2983 38.1242 17.3188 38.8526 17.5036C38.8218 17.1751 38.791 16.867 38.7705 16.5487C38.6474 14.6493 38.8936 12.8319 40.1348 11.3226C41.7146 9.39236 43.8175 8.61204 46.2692 8.88926C47.295 9.0022 48.0028 9.75172 48.6286 10.5012C49.5928 11.6512 50.2596 12.9757 50.8238 14.3618C50.9777 14.7314 50.9469 15.0497 50.7725 15.3885C50.4237 16.0354 50.1263 16.713 49.7262 17.3291C49.3979 17.8219 49.5928 18.2839 49.6646 18.7562C49.6749 18.7973 49.7057 18.8486 49.7467 18.8794C49.9621 19.054 51.347 18.9718 51.5726 18.7768C51.6034 18.7562 51.6239 18.7357 51.6445 18.7049C52.383 17.5241 53.5012 17.3393 54.7527 17.5036C55.0707 17.5447 55.2758 17.4523 55.4502 17.1545C55.6964 16.7233 57.03 16.4461 57.3685 16.7644C57.5634 16.9492 57.6455 17.2983 57.707 17.5857C57.7788 17.9143 57.9122 18.0478 58.2712 18.0786C59.7689 18.1813 61.2563 18.3558 62.7438 18.4482C63.7285 18.5098 64.7544 18.5098 65.0006 17.1853C65.1647 17.2367 65.257 17.2675 65.3493 17.288C65.8315 17.3907 66.1084 17.5755 66.0161 18.1813C65.9135 18.8794 65.9956 18.9308 66.7239 18.9513C67.4523 18.9718 68.1908 18.9513 68.9089 18.9513C69.1859 18.017 69.4936 17.904 70.3656 18.4277C70.2527 18.6536 70.1399 18.8897 69.945 19.2799C71.0016 19.3004 71.9556 19.3415 72.9198 19.3209C73.0122 19.3209 73.166 18.9616 73.1558 18.7768C73.1147 17.9964 73.1865 17.904 74.0175 18.017C74.0175 18.325 74.038 18.6536 74.0072 18.9616C73.9662 19.362 74.038 19.6598 74.4996 19.7522C74.5919 19.7727 74.674 19.8548 74.8279 19.9472C74.6637 20.1013 74.5201 20.2347 74.3868 20.3682C74.038 20.707 74.1098 21.1075 74.5817 21.2204C75.1253 21.3539 75.6793 21.4155 76.2537 21.5182C76.2537 21.6824 76.2537 21.8673 76.2537 22.0726C75.6998 22.0726 75.1253 22.0623 74.5611 22.0829C74.2944 22.0931 73.9457 22.0623 73.7815 22.2163C73.3712 22.6065 72.8891 22.6065 72.3967 22.6476C71.576 22.6989 70.7554 22.7502 69.945 22.74C69.5449 22.74 69.309 22.8837 69.1141 23.202C68.9192 23.5203 68.7345 23.8489 68.5088 24.1569C68.2114 24.5676 67.9344 24.9577 67.3702 25.122C67.083 25.2042 66.8675 25.6046 66.6419 25.8818C66.2828 26.3438 66.211 26.3644 65.7494 25.9947C65.5135 25.7997 65.2878 25.5841 65.0416 25.3992C64.7338 25.1631 64.58 25.2658 64.5697 25.6354C64.5287 26.7032 64.898 27.6991 65.2878 28.654C65.7391 29.7424 66.3136 30.7691 66.8265 31.8369C66.9496 32.0936 67.0624 32.3605 67.165 32.6378C67.3497 33.0998 67.165 33.4181 66.7547 33.6542C66.1597 33.9931 65.8622 33.9623 65.5442 33.3565C64.98 32.2784 64.4158 31.2003 63.9542 30.0914C63.5336 29.075 63.2362 27.9969 62.8771 26.9393C62.7745 26.6519 62.6412 26.3746 62.5181 26.0872C62.4463 26.0974 62.3847 26.1077 62.3129 26.1282C62.3129 26.5903 62.3027 27.0523 62.3129 27.5143C62.3232 27.8429 62.3745 28.1612 62.4155 28.4795C62.5078 29.1879 62.2206 29.537 61.4923 29.4241C60.7845 29.3214 60.0869 29.1366 59.3894 28.9518C58.2712 28.6643 57.7993 28.8491 57.1428 29.8245C56.753 30.3995 56.3222 30.9642 55.8298 31.4365C55.5733 31.6829 55.1322 31.7445 54.7629 31.8574C54.3423 31.9806 53.9115 32.0422 53.4909 32.1449C51.9214 32.5454 50.3827 33.0279 48.7414 33.0793C48.608 33.0793 48.4644 33.0793 48.3311 33.0895C47.4591 33.1409 47.1411 33.5002 47.1206 34.3935C47.1001 35.3278 47.0591 36.2724 46.9975 37.2067C46.9667 37.6072 46.8847 38.0076 46.8231 38.408C46.4538 38.4594 46.1256 38.4902 45.7871 38.5415C45.346 38.6134 45.1305 38.9009 45.1408 39.3321C45.1716 40.2356 45.2023 41.1392 45.2742 42.0427C45.3049 42.5047 45.5716 42.6074 46.0435 42.4021C46.8026 42.0735 46.7821 42.0838 47.295 42.7409C48.8235 44.7122 50.3827 46.663 51.8804 48.6549C52.383 49.3223 52.7729 50.0718 53.1729 50.8008C53.4191 51.2526 53.3165 51.4682 52.8447 51.6735C52.1163 51.9918 51.8804 52.69 52.342 53.3266C53.1627 54.456 54.0756 55.5238 54.8758 56.6737C55.8708 58.0804 56.8146 59.5281 57.7378 60.9758C57.8814 61.1914 57.9224 61.5405 57.8814 61.8074C57.5942 63.8404 58.0045 65.7604 58.579 67.7009C58.897 68.7585 58.8354 69.929 58.938 71.0481C59.0611 72.4239 59.1534 73.7998 59.297 75.1756C59.3278 75.4836 59.4612 75.8019 59.615 76.0791C60.251 77.2086 60.9076 78.3277 61.5743 79.4468C62.1078 80.3401 62.4668 81.2642 62.1898 82.3115C62.1488 82.4552 61.9641 82.6503 61.8205 82.6708C60.8563 82.794 59.892 82.9172 58.9175 82.9583C58.5584 82.9788 58.1686 82.8556 57.8404 82.6913C56.5171 82.0445 55.2143 81.3566 54.168 80.299C53.6448 79.7651 53.1729 79.1594 52.7934 78.5228C52.619 78.225 52.6292 77.7527 52.6805 77.3831C52.9267 75.7403 52.6292 74.1694 52.2189 72.5985C51.4803 69.7441 50.7417 66.8898 50.1057 64.0047C49.8288 62.7726 49.3261 61.7766 48.3106 61.0271C46.6898 59.8258 45.6024 58.1625 44.4227 56.5711C43.4585 55.2671 42.4429 54.0145 41.3966 52.7721C41.0888 52.4025 40.6272 52.1458 40.2066 51.8994C39.5501 51.5298 39.427 51.5708 39.1398 52.2588C38.6987 53.3163 38.2678 54.3738 37.837 55.4314C36.9343 57.68 36.011 59.9285 35.1494 62.1873C34.9032 62.8239 34.9134 63.5632 34.7288 64.2306C34.5441 64.8774 34.3082 65.5243 34.021 66.1403C33.0157 68.3273 31.9693 70.4937 30.9743 72.6909C30.7589 73.1529 30.4614 73.3172 29.9998 73.3377C28.6867 73.3993 27.3737 73.4609 26.0606 73.5226C25.9273 73.5328 25.7939 73.5328 25.558 73.5431C25.6811 73.9333 25.7734 74.2926 25.8965 74.6314C26.2966 75.6787 26.3171 76.726 26.0401 77.8041C25.9581 78.1121 25.8555 78.2661 25.4965 78.338C24.6143 78.5125 23.7423 78.7795 22.8704 78.9951C22.7268 79.0259 22.5216 79.0464 22.419 78.9745C21.7009 78.492 20.9829 78.0094 20.3058 77.4652C20.0494 77.2599 19.8032 76.9416 19.7006 76.6233C19.2698 75.2783 18.9312 73.9024 18.5004 72.5471C18.3568 72.0954 18.3876 71.736 18.5517 71.2843C19.4441 68.8817 21.1265 67.0644 22.9524 65.3702C23.4346 64.9185 24.0911 64.6104 24.7168 64.3538C25.3323 64.0971 25.6298 63.7377 25.7939 63.0703C26.3992 60.5651 27.0762 58.0804 27.7738 55.5957C28.4918 53.0288 29.2714 50.4825 30.0203 47.9362C30.1844 47.392 30.3896 46.8684 30.5332 46.3242C30.5947 46.1086 30.5947 45.8416 30.5229 45.626C30.328 45.0305 30.0921 44.4453 29.8767 43.86C29.6305 43.1926 29.7844 42.5458 30.0305 41.9195C30.1947 41.7141 30.287 41.4985 30.3896 41.2418ZM55.3066 23.0172C54.1269 22.8529 53.1114 22.6681 52.0753 22.5962C51.6752 22.5757 51.2239 22.7811 50.8443 22.9659C50.4545 23.1609 50.1057 23.4587 49.757 23.7257C49.3877 24.0234 49.0184 24.3314 48.6901 24.6703C48.5978 24.7627 48.5773 25.0912 48.6593 25.1734C49.4082 25.9126 50.0237 25.9742 50.711 25.1836C51.5419 24.2288 52.5882 23.9515 53.7576 23.8694C54.3423 23.8386 54.7732 23.51 55.3066 23.0172Z" fill="white"/>
</g>
<defs>
<clipPath id="clip0_284_388">
<rect width="91" height="91" fill="white" transform="translate(1 2)"/>
</clipPath>
</defs>
</svg>
