<svg width="128" height="31" viewBox="0 0 128 31" fill="none" xmlns="http://www.w3.org/2000/svg">
<g clip-path="url(#clip0_225:1794)">
<g clip-path="url(#clip1_225:1794)">
<path d="M16.587 0.751738C17.8419 0.751738 19.0969 0.759102 20.3519 0.751738C21.5136 0.744375 22.6646 0.88428 23.8192 0.954232C24.7371 1.00946 25.6514 1.08309 26.5694 1.14936C27.4012 1.21195 28.2367 1.27454 29.0686 1.34449C29.3662 1.37027 29.3805 1.38867 29.3698 1.7053C29.3518 2.19497 29.298 2.68464 29.3088 3.17431C29.3303 4.54758 29.3769 5.92086 29.4056 7.29414C29.4128 7.72122 29.3841 8.15198 29.3841 8.58274C29.359 15.2687 29.3375 21.9584 29.3518 28.6444C29.3518 29.2592 29.3518 29.2592 28.7817 29.1377C28.0789 28.9905 27.3797 28.8432 26.6769 28.6959C26.408 28.637 26.1355 28.637 25.8594 28.6554C24.8698 28.7217 23.8801 28.7585 22.8905 28.8285C21.7252 28.9132 20.5598 29.0163 19.3945 29.1157C18.3941 29.2003 17.3973 29.2813 16.3969 29.3697C16.2893 29.3807 16.1854 29.3734 16.0778 29.355C14.077 29.0199 12.0726 28.6959 10.0718 28.3535C9.69177 28.2873 9.3332 28.383 8.97105 28.4161C7.78421 28.5339 6.60095 28.7107 5.41052 28.8064C4.50693 28.88 3.59618 28.8543 2.68901 28.8211C2.47746 28.8138 2.26591 28.7438 2.05436 28.7107C1.86432 28.6812 1.80336 28.5671 1.81053 28.3793C1.82846 27.8896 1.82488 27.4 1.8428 26.9066C1.88225 25.8794 1.93603 24.8486 1.97547 23.8214C2.05436 21.7485 2.144 19.6794 2.09738 17.6029C2.05794 15.9462 2.00774 14.2931 1.95037 12.64C1.9181 11.6975 1.86073 10.755 1.81053 9.81243C1.75316 8.75946 1.68504 7.71018 1.62767 6.65721C1.59181 5.99818 1.5703 5.33547 1.53802 4.67276C1.49141 3.71552 1.44121 2.76195 1.39818 1.80471C1.38384 1.45126 1.38743 1.43654 1.74241 1.41076C2.46671 1.35554 3.19459 1.31872 3.92247 1.27086C5.25633 1.1825 6.59019 1.09046 7.92405 1.00578C8.9854 0.939506 10.0467 0.887962 11.1081 0.825373C12.779 0.725966 14.4499 0.696513 16.1244 0.725966C16.2786 0.729648 16.4364 0.725966 16.5905 0.725966C16.587 0.73333 16.587 0.744375 16.587 0.751738ZM22.7758 24.7823C23.2311 24.7823 23.6829 24.7786 24.1347 24.786C24.271 24.786 24.357 24.7344 24.4144 24.6056C24.4969 24.4141 24.5865 24.23 24.6762 24.0423C25.0204 23.3133 25.3682 22.588 25.6084 21.8148C25.8379 21.0785 25.9491 20.3127 26.1212 19.5616C26.2001 19.2229 26.2001 19.2229 25.924 19.0351C24.1921 17.857 22.4602 16.6788 20.7284 15.497C19.0073 14.3225 17.2897 13.1444 15.565 11.9736C13.2846 10.4199 11.0005 8.8736 8.72006 7.3236C7.80214 6.70139 6.8878 6.0755 5.97705 5.44592C5.80494 5.32811 5.67944 5.30234 5.50733 5.45697C5.22765 5.70732 4.92287 5.92455 4.63243 6.15649C4.28104 6.4363 4.20574 6.35899 4.57865 6.77134C5.39976 7.67704 6.23163 8.57906 7.05991 9.4774C8.27903 10.8065 9.50173 12.1356 10.7208 13.4684C12.2017 15.0846 13.6826 16.7009 15.167 18.3172C16.232 19.4769 17.2933 20.6404 18.3583 21.8001C19.2009 22.7205 20.0471 23.6373 20.8861 24.5614C21.026 24.716 21.173 24.7896 21.381 24.8044C21.8435 24.8375 22.3096 24.8081 22.7758 24.7823ZM6.50413 18.2951C6.41091 18.3466 6.40732 18.4129 6.38581 18.4681C6.038 19.326 5.68302 20.1838 5.34239 21.049C5.10932 21.6381 4.83323 22.2124 4.6647 22.8273C4.57148 23.1697 4.60016 23.2728 4.87625 23.4458C5.50374 23.8324 6.07744 24.2963 6.61529 24.797C7.01688 25.1725 7.47226 25.2499 7.97783 25.1689C8.46548 25.0915 8.92444 24.9222 9.37982 24.7307C10.122 24.4178 10.8786 24.1601 11.6567 23.9613C11.7499 23.9392 11.8432 23.9134 11.9328 23.8839C12.0224 23.8582 12.0404 23.7919 11.9937 23.7146C11.9579 23.652 11.9077 23.6005 11.8611 23.5415C11.334 22.9046 10.7567 22.3192 10.1902 21.7228C9.25432 20.7434 8.23958 19.8451 7.24995 18.9247C7.01688 18.7075 6.79816 18.4571 6.50413 18.2951ZM17.9387 7.00697C18.032 7.18001 18.179 7.26469 18.3045 7.37146C19.814 8.64901 21.4025 9.82716 22.9837 11.0053C23.0411 11.0495 23.1021 11.0937 23.1666 11.1158C23.4176 11.2004 23.5431 11.1268 23.5861 10.8507C23.6327 10.5598 23.6614 10.269 23.6973 9.97811C23.8013 9.15341 23.873 8.32134 24.02 7.504C24.0953 7.09165 23.977 6.84866 23.6686 6.63512C23.2204 6.32953 22.7435 6.07181 22.2845 5.792C22.1483 5.71101 22.0407 5.74046 21.9188 5.80305C21.4563 6.03868 20.9794 6.23013 20.481 6.35531C19.7638 6.53203 19.0431 6.70139 18.3224 6.87075C18.1933 6.90388 18.0642 6.91861 17.9387 7.00697Z" fill="white"/>
<path d="M41.6946 7.54417C42.9855 7.54417 44.2763 7.51471 45.5636 7.55153C46.9691 7.59203 48.2707 7.98597 49.393 8.89535C50.4472 9.74951 51.1607 10.854 51.5265 12.1721C52.2974 14.9518 51.8456 17.5142 50.103 19.7969C49.2245 20.9456 48.0663 21.704 46.7074 22.1385C45.3341 22.5803 43.9321 22.6429 42.5301 22.3999C41.1568 22.1606 39.7763 22.1237 38.3923 22.1164C38.2739 22.1164 38.152 22.1237 38.0337 22.1127C37.8831 22.0943 37.7576 22.028 37.7182 21.8623C37.6787 21.7004 37.7253 21.5568 37.8616 21.4794C38.2811 21.2365 38.3707 20.8609 38.3707 20.3933C38.3743 17.2933 38.3958 14.197 38.4102 11.097C38.4138 10.4748 38.4209 9.8526 38.4209 9.23039C38.4245 8.61555 38.2345 8.36151 37.6644 8.20687C37.5496 8.17374 37.4349 8.14429 37.3237 8.09642C37.166 8.03015 37.1337 7.88657 37.1445 7.73193C37.1552 7.57362 37.2735 7.5368 37.3955 7.51839C37.5496 7.4963 37.7038 7.48158 37.858 7.4779C39.1417 7.44844 40.4182 7.48526 41.6946 7.54417ZM41.0205 8.81804C41.017 8.89167 41.0098 8.95058 41.0098 9.01317C41.017 10.6074 41.0205 12.2015 41.0313 13.792C41.0456 15.8538 41.0636 17.9119 41.0707 19.9736C41.0707 20.1614 41.1245 20.3013 41.2393 20.4338C41.6552 20.9198 42.2038 21.1555 42.8098 21.2328C44.4269 21.4353 45.9114 21.034 47.2667 20.1246C47.8978 19.7012 48.3998 19.1526 48.6795 18.4126C49.1851 17.0761 49.3823 15.6881 49.2173 14.267C48.9233 11.6971 47.5643 10.0036 45.162 9.20462C44.2799 8.91376 43.3727 8.78859 42.4512 8.7665C41.9743 8.75177 41.4974 8.71863 41.0205 8.81804Z" fill="#FBFBFB"/>
<path d="M72.7464 14.5688C72.7572 16.3913 72.2839 18.0591 71.158 19.4913C69.9711 21.0008 68.4221 21.9249 66.5719 22.2783C64.062 22.7569 61.7456 22.2525 59.7198 20.6252C58.1026 19.3256 57.3138 17.5694 57.1775 15.4782C57.0986 14.2743 57.2241 13.1035 57.6401 11.9732C58.4038 9.8967 59.8524 8.5087 61.8604 7.75394C64.1839 6.88138 66.511 6.95133 68.7556 8.02271C70.9859 9.09041 72.3377 10.8908 72.6819 13.4312C72.7034 13.6005 72.7321 13.7699 72.7428 13.9429C72.7536 14.1528 72.7464 14.3626 72.7464 14.5688ZM69.8349 15.1468C69.8349 14.9996 69.8349 14.8523 69.8349 14.705C69.8169 12.5328 68.9922 10.7582 67.3321 9.4144C66.5361 8.7701 65.6253 8.39456 64.5926 8.38352C63.8181 8.37247 63.0687 8.49029 62.3767 8.86582C61.4875 9.34445 60.8994 10.1066 60.566 11.0564C59.9672 12.7758 59.7986 14.532 60.2397 16.325C60.4978 17.3816 60.8672 18.3867 61.5197 19.2556C62.4771 20.5258 63.7715 21.1333 65.3098 21.2769C66.3245 21.3726 67.2209 21.1075 68.0134 20.4596C68.6265 19.9552 69.0138 19.2851 69.2899 18.5414C69.6879 17.4442 69.799 16.3029 69.8349 15.1468Z" fill="#FBFBFB"/>
<path d="M105.896 18.9429C105.942 19.1785 106.068 19.3589 106.158 19.5578C106.358 20.0143 106.581 20.4635 106.832 20.8942C106.979 21.1482 107.151 21.3839 107.43 21.5054C107.534 21.5496 107.61 21.6269 107.635 21.7447C107.689 21.9877 107.552 22.157 107.269 22.157C106.541 22.157 105.813 22.146 105.082 22.1386C104.842 22.135 104.605 22.1276 104.365 22.1202C104.01 22.1092 103.888 21.9509 103.995 21.6121C104.028 21.5054 104.017 21.4207 103.981 21.3323C103.676 20.5849 103.364 19.8449 103.07 19.0939C102.995 18.9061 102.866 18.9208 102.722 18.9208C101.335 18.9208 99.9508 18.9208 98.5631 18.9208C98.348 18.9208 98.1329 18.9282 97.9177 18.9171C97.7528 18.9098 97.6631 18.9539 97.6058 19.1344C97.4157 19.7529 97.197 20.364 96.9998 20.9789C96.8994 21.2882 96.9137 21.3434 97.1827 21.5238C97.3476 21.6342 97.3584 21.7778 97.3261 21.9361C97.2902 22.1092 97.1576 22.157 96.9998 22.157C96.2217 22.157 95.4472 22.1607 94.6691 22.1534C94.4396 22.1534 94.3141 22.0576 94.289 21.8956C94.2604 21.7042 94.3285 21.5716 94.5078 21.4796C94.956 21.2477 95.2249 20.8684 95.4149 20.3898C96.8241 16.8001 98.2476 13.2142 99.6675 9.62817C99.958 8.89183 100.248 8.1518 100.539 7.41546C100.575 7.32342 100.607 7.22769 100.661 7.15038C100.811 6.92947 101.091 6.94052 101.217 7.17983C101.31 7.36391 101.374 7.56273 101.45 7.75418C102.705 10.9462 103.96 14.1383 105.215 17.3303C105.344 17.6543 105.344 17.658 105.666 17.658C106.444 17.658 107.219 17.658 107.997 17.658C108.094 17.658 108.191 17.6543 108.284 17.6764C108.42 17.7095 108.52 17.7942 108.528 17.9525C108.535 18.1145 108.481 18.2434 108.323 18.3023C108.255 18.3281 108.187 18.3501 108.115 18.3575C107.724 18.4127 107.341 18.5085 106.975 18.6631C106.634 18.8104 106.272 18.8877 105.896 18.9429ZM98.1257 17.6764C99.6173 17.6617 101.059 17.6727 102.529 17.6101C101.826 15.6073 101.145 13.6449 100.377 11.7047C99.6388 13.6707 98.893 15.6404 98.1257 17.6764Z" fill="#FBFBFB"/>
<path d="M121.299 20.2756C121.665 20.2756 122.017 20.283 122.368 20.2756C123.419 20.2425 124.469 20.1836 125.516 20.1762C126.23 20.1725 126.721 19.8596 127.054 19.2374C127.112 19.1306 127.158 19.0165 127.212 18.9097C127.33 18.6704 127.467 18.5894 127.657 18.6483C127.836 18.7035 127.897 18.8177 127.854 19.0938C127.75 19.7455 127.639 20.3971 127.531 21.0488C127.524 21.0856 127.51 21.1187 127.51 21.1556C127.481 21.8035 127.083 22.1128 126.395 22.1165C125.366 22.1165 124.34 22.1165 123.311 22.1202C121.913 22.1202 120.514 22.1239 119.116 22.1239C118.911 22.1239 118.728 22.1349 118.549 22.2859C118.366 22.4405 118.158 22.3484 118.065 22.1165C117.925 21.7704 117.958 21.6342 118.237 21.3765C119.245 20.4524 120.256 19.5393 121.181 18.5268C122.354 17.2419 123.404 15.8686 124.085 14.2339C124.415 13.4497 124.613 12.6324 124.648 11.7782C124.684 10.9683 124.537 10.1914 124.1 9.49556C123.164 8.01183 121.35 7.91979 120.263 9.29675C120.044 9.57288 119.865 9.87478 119.736 10.2098C119.715 10.2687 119.697 10.324 119.671 10.3792C119.578 10.5817 119.46 10.659 119.284 10.6332C119.094 10.6074 119.037 10.4675 119.012 10.2982C118.944 9.83796 118.879 9.37775 118.847 8.91385C118.847 8.88808 118.847 8.86599 118.847 8.84022C118.764 8.03392 118.868 8.09651 119.442 7.82775C120.554 7.31231 121.73 7.15031 122.934 7.22026C123.763 7.26813 124.569 7.43748 125.322 7.81302C126.402 8.35055 127.148 9.17894 127.409 10.4049C127.578 11.1892 127.492 11.966 127.273 12.7281C126.94 13.8989 126.337 14.9224 125.624 15.8833C124.444 17.4738 123.01 18.8029 121.489 20.0363C121.425 20.0952 121.321 20.1247 121.299 20.2756Z" fill="#FBFBFB"/>
<path d="M85.0485 14.9849C85.0485 16.8736 85.0521 18.7623 85.0449 20.651C85.0449 21.0118 85.1274 21.299 85.4537 21.4794C85.6007 21.5604 85.6832 21.6819 85.6402 21.8734C85.5935 22.0869 85.4394 22.1311 85.2637 22.1384C85.0844 22.1458 84.9051 22.1458 84.7258 22.1458C83.876 22.1495 83.0298 22.1532 82.18 22.1569C82.0115 22.1569 81.8394 22.1642 81.7677 21.9544C81.7031 21.7703 81.7354 21.6414 81.9362 21.4831C82.1944 21.2769 82.284 21.0082 82.284 20.6805C82.284 19.1452 82.2876 17.6136 82.2948 16.0783C82.3019 13.8214 82.3163 11.5646 82.3234 9.31134C82.3234 8.86953 82.3808 8.90267 81.9147 8.90635C80.8749 8.91371 79.8386 8.92844 78.7988 8.93949C78.451 8.94317 78.1892 9.12357 77.9561 9.36656C77.8808 9.44388 77.8199 9.53592 77.741 9.60956C77.6298 9.71633 77.4936 9.71265 77.3717 9.65006C77.2605 9.59115 77.1996 9.4807 77.2211 9.34447C77.239 9.22298 77.2498 9.10148 77.2713 8.97998C77.3609 8.5345 77.4541 8.09269 77.551 7.65088C77.6334 7.26799 77.7553 7.19067 78.139 7.28271C78.1964 7.29744 78.2609 7.30112 78.3111 7.33426C78.6231 7.54043 78.9745 7.5073 79.3187 7.5073C82.0545 7.5073 84.7904 7.5073 87.5262 7.5073C88.0461 7.5073 88.5696 7.55148 89.0895 7.47048C89.2437 7.44839 89.3872 7.38948 89.5413 7.36371C89.8748 7.3048 90.0935 7.48521 90.0039 7.8092C89.8676 8.30623 89.8927 8.80326 89.8748 9.30398C89.8712 9.43652 89.8461 9.57274 89.8246 9.70528C89.8031 9.85623 89.7206 9.95196 89.5664 9.96668C89.423 9.98141 89.3083 9.93355 89.2366 9.80101C89.1899 9.71633 89.1541 9.62428 89.1039 9.53961C88.8995 9.20089 88.6055 9.02048 88.2182 9.00944C87.2286 8.97998 86.239 8.95789 85.2457 8.9358C84.9445 8.92844 84.9302 8.88426 84.9338 9.24875C84.9553 11.1596 84.9768 13.0741 84.9947 14.9849C85.0163 14.9849 85.0306 14.9849 85.0485 14.9849Z" fill="#FBFBFB"/>
</g>
</g>
<defs>
<clipPath id="clip0_225:1794">
<rect width="127" height="30" fill="white" transform="translate(0.867188 0.00146484)"/>
</clipPath>
<clipPath id="clip1_225:1794">
<rect width="127" height="74" fill="white" transform="translate(0.867188 0.54248)"/>
</clipPath>
</defs>
</svg>
