<svg width="127" height="39" viewBox="0 0 127 39" fill="none" xmlns="http://www.w3.org/2000/svg">
<g clip-path="url(#clip0_225:1724)">
<g clip-path="url(#clip1_225:1724)">
<path d="M80.3488 32.386C78.6858 28.3412 77.0393 24.3468 75.4038 20.3692C75.3212 20.3748 75.3047 20.3748 75.2882 20.3804C75.2717 20.386 75.2552 20.4027 75.2552 20.4139C75.2441 20.4699 75.2276 20.5202 75.2276 20.5762C75.2441 21.5048 75.2496 22.4391 75.2827 23.3678C75.3763 25.9748 75.4754 28.5762 75.5745 31.1832C75.5745 31.1999 75.5635 31.2167 75.5635 31.2335C75.1836 31.3566 69.1372 31.3902 68.4819 31.2615C68.4819 21.9636 68.4819 12.6601 68.4819 3.29505C70.5249 2.86428 72.5679 2.38317 74.699 2.08666C76.4226 6.40554 78.1352 10.6909 79.8477 14.9762C79.8863 14.9706 79.9248 14.9594 79.9689 14.9538C79.6715 10.5622 79.3246 6.17617 78.9887 1.75659C81.4061 1.75659 83.763 1.75659 86.1969 1.75659C86.2685 11.793 86.3346 21.8013 86.4062 31.8769C84.3852 32.1118 82.4028 32.2797 80.3488 32.386Z" fill="white"/>
<path d="M48.2723 20.4195C49.5498 24.4251 50.7943 28.3133 52.0333 32.2014C51.4882 32.4307 45.7392 32.9398 44.3515 32.8839C43.3658 29.7902 42.5674 26.607 41.5046 23.4965C41.2788 26.2769 41.2843 29.0573 41.1081 31.8713C38.6632 31.8713 36.2512 31.8713 33.8008 31.8713C33.8008 22.0084 33.8008 12.1454 33.8008 2.22095C34.01 2.22095 34.2028 2.22095 34.401 2.22095C36.8955 2.23214 39.39 2.23773 41.8846 2.26011C42.6555 2.2657 43.4264 2.30486 44.1918 2.34962C45.0123 2.39997 45.7612 2.71885 46.4771 3.09927C47.8593 3.83773 48.9221 4.92864 49.7426 6.26011C50.7337 7.8657 51.323 9.59997 51.4606 11.5021C51.6203 13.6559 51.4001 15.737 50.4199 17.6951C49.9298 18.6685 49.3406 19.558 48.5146 20.2629C48.4375 20.33 48.3494 20.3692 48.2723 20.4195ZM41.2623 9.04053C41.2623 11.737 41.2623 14.4056 41.2623 17.1077C41.8405 17.0181 42.237 16.7105 42.5674 16.2965C42.9804 15.7762 43.2282 15.172 43.3218 14.523C43.465 13.5272 43.498 12.5202 43.3493 11.5133C43.2557 10.8755 43.0244 10.2937 42.6445 9.77899C42.3086 9.32584 41.857 9.07969 41.2623 9.04053Z" fill="white"/>
<path d="M13.9767 17.1635C14.0428 15.7314 14.0593 14.2936 14.1805 12.867C14.3402 10.9873 14.7422 9.15234 15.4746 7.40688C15.6563 6.98171 15.8545 6.55653 16.0803 6.15933C17.4239 3.78171 19.4724 2.51178 22.1376 2.26003C23.3271 2.14814 24.522 2.17611 25.6949 2.43905C27.7544 2.89779 29.3293 4.05583 30.4637 5.84604C31.3998 7.32856 31.923 8.97331 32.2148 10.6908C32.8095 14.1761 32.9142 17.6894 32.5838 21.2083C32.391 23.295 32.0331 25.337 31.2401 27.2838C30.9097 28.1006 30.4802 28.8502 29.935 29.5383C28.4758 31.3901 26.5705 32.3635 24.2522 32.5146C23.0737 32.5929 21.9118 32.5146 20.761 32.2125C18.9382 31.737 17.5175 30.6964 16.4658 29.1188C15.5186 27.6922 14.979 26.0978 14.61 24.4307C14.0869 22.0418 13.9657 19.6083 13.9767 17.1635ZM24.4669 17.4209C24.4119 15.6083 24.3788 13.7845 24.2852 11.9607C24.2412 11.1272 24.0925 10.2992 23.9548 9.47681C23.9108 9.20828 23.7841 8.94534 23.6354 8.71597C23.4207 8.38031 23.1453 8.36912 22.9526 8.72716C22.7654 9.07961 22.6057 9.47681 22.5506 9.87401C22.4074 10.9034 22.2478 11.9439 22.2312 12.9789C22.1872 15.9216 22.1982 18.8642 22.2257 21.8069C22.2367 22.9985 22.3414 24.1901 22.6277 25.3481C22.6883 25.5999 22.7654 25.8516 22.8865 26.081C23.1233 26.523 23.4867 26.523 23.707 26.081C23.8227 25.8516 23.9163 25.5999 23.9493 25.3425C24.076 24.481 24.2246 23.6139 24.2687 22.7411C24.3788 20.9677 24.4119 19.1999 24.4669 17.4209Z" fill="white"/>
<path d="M126.968 35.116C122.502 34.7859 118.157 34.4671 113.791 34.1426C113.791 23.2726 113.791 12.4699 113.791 1.61111C118.174 1.24188 122.552 0.872649 126.968 0.503418C126.968 3.43489 126.968 6.29363 126.968 9.2195C125.118 9.29782 123.273 9.37615 121.412 9.45447C121.412 11.0321 121.412 12.5314 121.412 14.0699C121.94 14.1929 122.469 14.1146 122.992 14.1258C123.504 14.137 124.022 14.1314 124.534 14.1314C125.063 14.1314 125.591 14.1314 126.109 14.1314C126.236 14.5678 126.274 20.1901 126.164 21.13C124.661 21.13 123.152 21.13 121.66 21.13C121.533 21.6223 121.516 26.4335 121.638 27.0209C123.394 27.0209 125.167 27.0209 127.006 27.0209C126.99 29.7286 127.023 32.3803 126.968 35.116Z" fill="white"/>
<path d="M7.92505 13.6556C9.62661 13.6556 11.2676 13.6556 12.9692 13.6556C12.9251 16.2067 12.8866 18.7186 12.8425 21.2976C11.2125 21.3535 9.58806 21.292 7.90853 21.3312C7.90853 25.734 7.90853 30.0976 7.90853 34.5172C5.28737 35.0095 2.72126 35.4962 0.0725631 35.9997C-0.0430767 23.9997 0.0285098 12.0556 0.000976562 0.117168C0.419482 -0.0115036 13.674 -0.0506645 14.4615 0.0724125C14.2247 2.63465 13.9879 5.20248 13.7456 7.83745C11.7907 7.83745 9.87441 7.83745 7.92505 7.83745C7.92505 9.7899 7.92505 11.6808 7.92505 13.6556Z" fill="white"/>
<path d="M100.806 12.2631C99.4348 12.2631 98.1242 12.2631 96.8246 12.2631C96.676 11.698 96.6925 5.19732 96.8522 4.58753C102.166 4.29662 107.502 4.00012 112.893 3.70361C112.893 6.26026 112.893 8.76655 112.893 11.3008C112.442 11.4351 111.962 11.3456 111.494 11.3624C111.037 11.3791 110.575 11.3679 110.118 11.3679C109.644 11.3679 109.165 11.3679 108.609 11.3679C108.603 15.1106 108.609 18.8085 108.609 22.5064C108.609 26.2099 108.609 29.919 108.609 33.6113C108.163 33.7456 101.368 33.7624 100.8 33.6225C100.806 26.5288 100.806 19.4239 100.806 12.2631Z" fill="white"/>
<path d="M51.7086 2.29932C57.05 2.69652 62.3089 3.13288 67.5512 3.57484C67.6723 4.00002 67.7054 10.3441 67.5953 11.1664C66.2571 11.1664 64.908 11.1664 63.4818 11.1664C63.4708 12.179 63.4763 13.1357 63.4763 14.0979C63.4763 15.0825 63.4763 16.0727 63.4763 17.0574C63.4763 18.0252 63.4763 18.993 63.4763 19.9609C63.4763 20.9455 63.4763 21.9357 63.4763 22.9203C63.4763 23.8881 63.4763 24.856 63.4763 25.8238C63.4763 26.8084 63.4763 27.7986 63.4763 28.7832C63.4763 29.7455 63.4763 30.7077 63.4763 31.7035C60.8992 31.7035 58.3771 31.7035 55.7725 31.7035C55.767 29.8853 55.7725 28.0727 55.767 26.2546C55.767 24.4476 55.767 22.6406 55.767 20.8336C55.767 19.0098 55.767 17.186 55.767 15.3567C55.767 13.5553 55.767 11.7483 55.767 9.87414C54.3958 9.87414 53.0687 9.87414 51.6701 9.87414C51.6756 7.33987 51.648 4.85596 51.7086 2.29932Z" fill="white"/>
<path d="M95.8004 32.7106C93.1738 32.7106 90.5746 32.7106 87.9865 32.7106C87.8709 32.2574 87.8158 4.71057 87.9259 3.21686C88.3059 3.09938 94.7872 3.05462 95.7564 3.16092C95.861 3.56931 95.9106 31.463 95.8004 32.7106Z" fill="white"/>
</g>
</g>
<defs>
<clipPath id="clip0_225:1724">
<rect width="127" height="39" fill="white"/>
</clipPath>
<clipPath id="clip1_225:1724">
<rect width="127" height="36" fill="white" transform="translate(0.000976562)"/>
</clipPath>
</defs>
</svg>
