<svg width="92" height="94" viewBox="0 0 92 94" fill="none" xmlns="http://www.w3.org/2000/svg">
<g clip-path="url(#clip0_249_3107)">
<path d="M16.8141 75.1067C17.5622 72.9141 18.2757 70.8266 19.0008 68.739C19.5417 67.1762 20.0711 65.6251 20.612 64.0623C20.6925 63.8407 20.7501 63.6541 20.6004 63.4092C19.3345 61.5082 18.5289 59.3856 17.7923 57.2397C17.6542 56.8432 17.4356 56.5983 17.0788 56.3883C11.5547 53.1578 6.04203 49.904 0.529397 46.6501C0.368276 46.5568 0.218664 46.4519 0 46.3119C1.45009 45.4722 2.84263 44.6675 4.24669 43.8744C8.71203 41.3087 13.1774 38.7429 17.6542 36.2005C17.988 36.0139 18.1376 35.7923 18.2297 35.4191C18.7936 33.04 19.956 30.9524 21.2564 28.9231C21.4636 28.5965 21.5096 28.3283 21.4061 27.9551C20.3473 24.1298 19.3115 20.2928 18.2642 16.4558C18.2297 16.3275 18.1951 16.1993 18.1376 15.9543C18.6325 16.1643 19.0353 16.3275 19.4496 16.5025C22.5684 17.8553 25.6873 19.1965 28.7946 20.561C29.0938 20.6893 29.324 20.6777 29.6002 20.5494C31.384 19.7913 33.1679 19.0332 34.9632 18.2985C35.32 18.1469 35.5617 17.937 35.7573 17.5988C39.0373 11.9191 42.3403 6.25112 45.6317 0.571464C45.7353 0.384864 45.8504 0.209926 45.977 0C46.1956 0.13995 46.2647 0.373201 46.3798 0.559802C49.4986 5.95955 52.606 11.3476 55.7133 16.7591C55.9089 17.1089 56.1621 17.2722 56.5304 17.4005C58.3373 18.0186 59.8794 19.1032 61.387 20.2462C61.8934 20.631 62.3077 20.666 62.8947 20.4794C66.3357 19.3598 69.7998 18.2868 73.2524 17.2022C73.4251 17.1439 73.6092 17.0973 73.8739 17.0156C73.6437 17.8903 73.4366 18.6834 73.2179 19.4764C72.4353 22.3921 71.6527 25.3194 70.8586 28.235C70.7666 28.5615 70.7781 28.7948 71.0083 29.0747C72.5389 30.9873 73.8164 33.0516 74.5989 35.4074C74.691 35.6873 74.8982 35.7923 75.1168 35.9206C80.5374 39.2561 85.958 42.5916 91.3785 45.9154C91.5742 46.032 91.7583 46.1603 92.023 46.3236C90.711 47.1283 89.4566 47.9097 88.2137 48.6794C84.2662 51.1052 80.3187 53.531 76.3713 55.9568C76.1756 56.0734 75.9915 56.2017 75.8879 56.435C74.7946 58.8608 73.4481 61.135 72.0786 63.4092C71.8599 63.7824 71.8254 64.0856 71.952 64.4938C73.0798 68.1792 74.1846 71.8762 75.2895 75.5732C75.3355 75.7365 75.37 75.8998 75.4391 76.1563C74.6795 75.9581 73.989 75.7715 73.287 75.5849C70.3292 74.7801 67.36 73.9988 64.4138 73.1707C63.8959 73.0308 63.5046 73.0658 63.0328 73.3573C60.8807 74.6752 58.5789 75.7015 56.2887 76.7278C55.9204 76.8911 55.6672 77.1127 55.4601 77.4625C52.3758 82.7573 49.2684 88.0521 46.1611 93.3469C46.046 93.5452 45.9194 93.7318 45.7583 94C45.6202 93.7434 45.5051 93.5568 45.4015 93.3586C42.6395 88.0988 39.8774 82.839 37.1384 77.5675C36.9312 77.171 36.6665 76.9261 36.2522 76.7395C34.2842 75.8531 32.5119 74.6169 30.7165 73.4273C30.1066 73.0191 29.5427 72.3893 28.8867 72.2727C28.2307 72.1561 27.4826 72.5409 26.7691 72.7159C23.6042 73.4856 20.4393 74.2553 17.2745 75.0251C17.1479 75.0367 17.0328 75.06 16.8141 75.1067ZM45.2865 66.4881C48.1061 66.5347 51.8809 65.8466 55.4371 64.004C60.3398 61.4615 63.4586 57.5546 64.5634 52.0732C65.277 48.5395 65.1389 45.0057 64.4483 41.4836C64.0455 39.431 63.5967 37.3901 62.3307 35.6407C60.8461 33.5764 59.2464 31.6288 57.5316 29.7628C57.3245 29.5412 57.0828 29.4712 56.8296 29.4012C55.0803 28.9581 53.3425 28.4682 51.5817 28.095C50.4653 27.8501 49.5101 27.4769 48.9232 26.4273C48.7506 26.1241 48.5204 26.0424 48.2212 26.2524C46.9322 27.1037 45.5627 27.2203 44.1356 26.7072C43.8018 26.5906 43.5256 26.6722 43.2149 26.8471C41.2584 28.0251 39.279 29.1913 37.3225 30.3576C36.7931 30.6725 36.2292 30.929 35.7688 31.3489C34.054 32.8417 32.3508 34.3578 30.6245 35.839C30.3137 36.1072 30.2102 36.3754 30.2562 36.7836C30.3598 37.6933 30.5669 38.6263 30.4288 39.501C30.1066 41.472 30.4518 43.2913 31.2344 45.0524C32.4774 47.863 34.3993 50.1605 36.4248 52.4114C37.99 54.1375 39.9695 54.8372 42.1791 54.8839C45.5166 54.9538 48.2902 53.4844 50.7646 51.3501C50.9027 51.2335 50.9947 51.1052 50.9832 50.9069C50.9487 49.0526 50.7876 47.2216 50.0856 45.4839C48.8772 42.4516 46.3568 41.332 43.3185 42.405C42.9042 42.5449 42.8466 42.7432 42.9272 43.128C43.0883 43.9211 43.2494 44.7258 43.353 45.5305C43.4106 46.0087 43.4106 46.5568 42.8812 46.7901C42.3633 47.0233 41.8684 46.8017 41.4311 46.4868C41.339 46.4169 41.2699 46.3236 41.1894 46.2419C39.7853 44.7025 39.4401 42.8715 39.8544 40.8772C40.05 39.9325 40.2112 38.9062 40.9017 38.2065C43.6637 35.4074 46.9782 34.2529 50.8681 34.9759C51.3285 35.0576 51.7658 35.1509 52.2147 34.9643C52.4909 34.8476 52.6175 34.9409 52.721 35.2092C52.8937 35.6524 53.0318 36.1189 53.3425 36.5154C55.2875 38.9412 56.1506 41.7052 56.0585 44.8308C55.9895 47.2216 55.0918 49.3675 54.3207 51.5484C53.987 52.4931 53.1929 53.1578 52.4218 53.7759C50.1086 55.6536 47.4616 56.9365 44.7456 58.0561C40.9362 59.6305 37.0233 60.9251 33.1564 62.3829C32.5579 62.6045 32.5579 62.6045 33.0068 63.0943C33.8929 64.0506 34.9632 64.7037 36.1486 65.1935C38.715 66.2315 41.4196 66.4881 45.2865 66.4881Z" fill="white"/>
</g>
<defs>
<clipPath id="clip0_249_3107">
<rect width="92" height="94" fill="white"/>
</clipPath>
</defs>
</svg>
