<svg width="127" height="48" viewBox="0 0 127 48" fill="none" xmlns="http://www.w3.org/2000/svg">
<g clip-path="url(#clip0_225:1706)">
<g clip-path="url(#clip1_225:1706)">
<path d="M64.2717 0.0473633C65.0506 0.252424 65.8613 0.425937 66.6244 0.694093C68.993 1.46701 70.8689 2.87089 72.2042 4.9846C72.5221 5.48936 72.538 5.78907 71.9021 6.04145C70.853 6.48312 69.8356 6.97211 68.8182 7.47687C68.4843 7.63461 68.2777 7.63461 68.0392 7.28759C66.37 4.79531 63.9537 4.05394 61.1241 4.63757C58.3898 5.20543 56.7525 7.0352 56.1325 9.65367C55.4489 12.5088 56.2755 14.9695 58.6442 16.7677C60.9174 18.4871 63.4132 18.5817 65.9567 17.2882C67.0059 16.7519 67.7213 15.9001 68.1823 14.8275C68.4843 14.1177 68.4207 14.023 67.6418 14.0073C65.607 13.9915 63.5722 14.0073 61.5374 14.0073C60.6631 14.0073 60.6472 13.9915 61.0446 13.2028C61.4579 12.351 61.903 11.515 62.3005 10.6632C62.4912 10.2531 62.7297 10.0638 63.2066 10.0638C66.4018 10.0796 69.5971 10.0796 72.8083 10.0638C73.2375 10.0638 73.4759 10.1742 73.5236 10.6632C74.1595 17.4775 68.8341 22.9038 61.8871 22.4779C56.2914 22.1308 51.6178 17.6668 51.1409 12.1933C50.664 6.7355 54.3679 1.68785 59.8364 0.347068C60.1703 0.268198 60.52 0.283972 60.8061 0.0473633C61.9507 0.0473633 63.1112 0.0473633 64.2717 0.0473633Z" fill="white"/>
<path d="M92.9975 0.0473633C92.8067 4.47983 92.8703 8.92807 92.8544 13.3763C92.8385 14.6067 92.7432 15.837 92.3457 17.0043C91.4555 19.5281 89.8022 21.3106 87.1634 22.0835C85.1445 22.6829 83.0938 22.6987 81.059 22.1308C77.657 21.2002 75.3043 18.2347 75.2407 14.4805C75.1612 9.73254 75.2566 4.96882 75.2725 0.205102C76.8304 4.15619e-05 78.3883 0.157781 79.9462 0.126233C80.4708 0.378615 80.3595 0.867606 80.3754 1.2935C80.4072 3.88042 80.3913 6.46734 80.3913 9.07004C80.3913 10.4897 80.3913 11.8936 80.3913 13.3132C80.3913 13.818 80.4231 14.307 80.5503 14.796C80.9795 16.5626 82.1717 17.5406 83.9204 17.5564C85.7803 17.5722 87.0362 16.61 87.4972 14.8275C87.6562 14.1966 87.7197 13.5341 87.7197 12.8873C87.7197 9.07004 87.7038 5.25275 87.7197 1.43547C87.7197 0.946476 87.6403 0.425937 88.1013 0.0631372C89.7228 0.0473633 91.3601 0.0473633 92.9975 0.0473633Z" fill="white"/>
<path d="M0.000760138 25.6483C1.63814 25.6483 3.27551 25.6641 4.91289 25.6167C5.62825 25.601 5.8667 25.8218 5.8667 26.5474C5.83491 31.6739 5.8508 36.8004 5.8508 41.927C5.8508 43.11 5.8508 43.11 7.07486 43.11C9.30042 43.11 11.526 43.1258 13.7356 43.0942C14.3874 43.0942 14.5941 43.252 14.3715 43.8987C14.0695 44.7978 13.7992 45.6969 13.5926 46.6118C13.4495 47.2428 13.1157 47.4163 12.4798 47.4163C8.69634 47.3847 4.91289 47.4005 1.12944 47.4005C0.8115 47.4005 0.493563 47.4163 0.175626 47.4321C-0.158208 46.8011 0.239213 46.2332 0.398182 45.6654C0.588944 45.0029 0.700222 44.3404 0.700222 43.6621C0.700222 38.8511 0.684325 34.04 0.716119 29.229C0.716119 28.0144 0.25511 26.9102 -0.0151367 25.7587C0.000760138 25.7429 0.000760138 25.6956 0.000760138 25.6483Z" fill="white"/>
<path d="M5.8667 0.0473212C5.8667 5.66283 5.8667 11.2783 5.83491 16.8939C5.83491 17.509 6.08926 17.6352 6.64565 17.6352C8.99838 17.6195 11.3511 17.651 13.688 17.6195C14.3556 17.6037 14.61 17.7299 14.3556 18.4555C14.0377 19.3388 13.7992 20.2537 13.5767 21.1686C13.4336 21.7364 13.1475 21.8942 12.5752 21.8942C8.3784 21.8784 4.18163 21.8784 -0.0151367 21.8784C-0.0151367 21.8311 -0.0151367 21.768 -0.0151367 21.7207C0.461769 20.2379 0.747912 18.7394 0.732016 17.162C0.668428 13.0292 0.668428 8.89648 0.732016 4.77949C0.763809 3.18633 0.398182 1.70358 0.00076014 0.20506C0.016657 -0.141966 0.271007 0.0630951 0.398182 0.0630951C2.22632 0.0473212 4.05446 0.0473212 5.8667 0.0473212Z" fill="white"/>
<path d="M84.7469 39.908C84.7469 36.7532 84.7469 33.6931 84.7469 30.633C84.7469 29.2133 84.7628 27.8094 84.7469 26.3898C84.731 25.8535 84.9377 25.6484 85.4782 25.6484C86.5433 25.6799 87.5925 25.6799 88.6576 25.6484C89.2299 25.6326 89.3729 25.885 89.3729 26.4055C89.357 33.1568 89.357 39.908 89.3729 46.6592C89.3729 47.2587 89.1345 47.4322 88.5781 47.4164C87.5289 47.3848 86.4638 47.3848 85.3987 47.4164C84.7946 47.4322 84.429 47.2113 84.0952 46.7381C81.0907 42.558 78.0544 38.4095 75.0181 34.2452C74.8273 33.977 74.6207 33.7089 74.3822 33.3934C74.0802 33.7089 74.1756 34.0401 74.1756 34.3241C74.1756 38.3464 74.1438 42.3845 74.1915 46.4069C74.2074 47.2271 73.9053 47.4479 73.1264 47.4006C72.3156 47.3533 71.489 47.3375 70.6624 47.4006C69.8675 47.4479 69.6132 47.1956 69.6132 46.3911C69.645 40.9806 69.6132 35.5544 69.645 30.144C69.645 28.7716 69.6768 27.4309 68.8501 26.232C68.5481 25.7904 68.7706 25.6484 69.2316 25.6484C70.7895 25.6642 72.3474 25.6642 73.9053 25.6484C74.4617 25.6326 74.6843 25.9797 74.9545 26.3582C77.9908 30.6487 81.0112 34.9392 84.0634 39.214C84.2382 39.4506 84.3336 39.7345 84.7469 39.908Z" fill="white"/>
<path d="M43.5899 39.4821C42.5089 39.4821 41.4279 39.4664 40.331 39.4821C39.8859 39.4821 39.7428 39.356 39.9654 38.9301C40.4741 37.9521 40.951 36.9583 41.4279 35.9803C41.5869 35.6491 41.8253 35.5387 42.1751 35.5387C45.4021 35.5387 48.6292 35.5387 51.8563 35.5387C52.2378 35.5387 52.508 35.586 52.5398 36.075C52.8578 40.7914 50.9183 44.9872 46.5626 46.9274C38.6619 50.445 30.1411 45.0503 30.1729 36.5797C30.1888 30.838 35.1328 25.8693 40.951 25.6326C44.5914 25.4749 47.8026 26.4371 50.3143 29.1818C50.7594 29.6708 51.125 30.2071 51.4588 30.7749C51.6496 31.0904 51.6019 31.2955 51.2522 31.4532C50.1235 31.958 48.9948 32.4785 47.882 33.0148C47.5005 33.2041 47.3256 33.0779 47.119 32.7625C45.0842 29.5761 41.0941 29.4499 38.5506 30.7434C35.9594 32.0684 34.5605 35.0812 35.101 38.1256C35.6256 41.0122 37.8988 43.189 40.8079 43.5676C43.7171 43.9304 46.1334 42.7316 47.1826 40.3813C47.5323 39.5768 47.4846 39.4979 46.6103 39.4979C45.5929 39.4664 44.5914 39.4821 43.5899 39.4821Z" fill="white"/>
<path d="M118.671 47.9369C115.953 48.0631 113.679 47.3375 111.851 45.4762C110.309 43.8988 110.357 43.7253 112.312 42.7789C112.948 42.4792 113.6 42.1795 114.236 41.864C114.617 41.6747 114.808 41.722 115.046 42.1164C116.08 43.8515 118.353 44.5771 120.229 43.82C121.135 43.4414 121.675 42.7946 121.739 41.8009C121.818 40.8071 121.31 40.1604 120.483 39.7187C119.354 39.1193 118.083 38.93 116.875 38.5672C116.27 38.3937 115.65 38.2202 115.062 37.9994C110.866 36.3589 109.689 31.2482 112.741 27.9356C115.857 24.5442 122.709 24.907 125.427 28.6139C125.57 28.8032 125.681 29.0083 125.824 29.1975C126.254 29.7812 126.142 30.1282 125.427 30.4121C124.473 30.7907 123.551 31.2639 122.645 31.7371C122.248 31.9422 122.009 31.958 121.803 31.469C120.976 29.513 118.957 29.2291 117.336 29.7812C116.477 30.0651 116.016 30.7276 115.953 31.6267C115.889 32.4627 116.27 33.0937 116.986 33.5196C117.765 33.9928 118.639 34.1979 119.513 34.4345C120.451 34.7026 121.405 34.9392 122.327 35.2389C124.902 36.0907 126.492 37.7785 126.635 40.5548C126.778 43.4098 125.713 45.6655 123.09 47.0536C121.659 47.7634 120.133 48.0474 118.671 47.9369Z" fill="white"/>
<path d="M16.1998 36.4693C16.1998 33.2041 16.2157 29.9389 16.1839 26.658C16.1839 25.9324 16.3428 25.6484 17.1377 25.6484C20.8893 25.68 24.641 25.68 28.3927 25.6484C29.0762 25.6484 29.3465 25.8535 29.3147 26.5475C29.267 27.4151 29.2829 28.2669 29.3147 29.1345C29.3306 29.7181 29.108 29.9074 28.5198 29.8916C26.2943 29.8601 24.0846 29.9074 21.859 29.8758C21.1596 29.8601 20.9211 30.0809 20.9529 30.775C21.0006 31.6583 21.0006 32.5574 20.9529 33.4407C20.9211 34.0875 21.1437 34.3083 21.8114 34.3083C23.7985 34.2768 25.7697 34.3083 27.7568 34.2925C28.3927 34.2768 28.5516 34.4661 28.3609 35.0655C28.0747 35.933 27.8204 36.8164 27.6137 37.7155C27.4865 38.2676 27.2004 38.4095 26.6599 38.4095C25.0543 38.378 23.4328 38.4253 21.8273 38.3938C21.1914 38.378 20.9211 38.5515 20.937 39.2298C20.9847 40.3024 20.9688 41.375 20.937 42.4477C20.9211 43.0313 21.1437 43.2363 21.7319 43.2363C23.9574 43.2206 26.1671 43.2679 28.3927 43.2363C29.0762 43.2206 29.3465 43.4256 29.2988 44.1197C29.2511 44.9873 29.267 45.839 29.2988 46.7066C29.3147 47.2429 29.0921 47.448 28.5516 47.448C24.6887 47.4322 20.8258 47.4322 16.9787 47.448C16.3428 47.448 16.168 47.1956 16.168 46.612C16.2157 43.2048 16.1998 39.845 16.1998 36.4693Z" fill="white"/>
<path d="M16.1995 0.236626C20.3168 0.220852 24.4182 0.220852 28.5355 0.205078C28.9806 0.205078 29.2349 0.347043 29.219 0.836034C29.1872 2.03485 29.2985 3.23367 29.1554 4.43249C26.7232 4.43249 24.291 4.44826 21.8588 4.41671C21.1752 4.40094 20.905 4.62177 20.9527 5.31582C21.0003 6.19916 21.0003 7.09828 20.9527 7.98161C20.9209 8.64412 21.1911 8.83341 21.8429 8.83341C23.7982 8.80186 25.7535 8.84918 27.7088 8.81763C28.3924 8.80186 28.5355 9.02269 28.3288 9.63787C28.0585 10.4581 27.8201 11.2941 27.6452 12.1302C27.5022 12.7769 27.1683 12.9504 26.5324 12.9346C24.9428 12.9031 23.3531 12.9504 21.7793 12.9188C21.1593 12.9031 20.9368 13.1239 20.9527 13.7391C20.9844 14.7328 21.0003 15.7266 20.9527 16.7204C20.9209 17.4144 21.1275 17.6826 21.8747 17.6668C24.0684 17.6195 26.2622 17.6826 28.456 17.651C29.06 17.651 29.3303 17.8403 29.2985 18.4555C29.2667 19.3704 29.2826 20.2853 29.2985 21.2001C29.3144 21.6891 29.1395 21.8942 28.6149 21.8942C24.7043 21.8784 20.7778 21.8784 16.8672 21.8942C16.1836 21.8942 16.1836 21.5314 16.1836 21.0424C16.1995 14.1019 16.1995 7.16137 16.1995 0.236626Z" fill="white"/>
<path d="M54.4314 36.5323C54.4314 33.2356 54.4473 29.9388 54.4155 26.6421C54.4155 25.9165 54.5904 25.6326 55.3693 25.6483C59.0892 25.6799 62.825 25.6799 66.5448 25.6483C67.2284 25.6483 67.4986 25.8376 67.4509 26.5317C67.4032 27.3992 67.4032 28.251 67.4509 29.1186C67.4827 29.7022 67.2602 29.8915 66.672 29.8915C64.4782 29.86 62.2845 29.9073 60.0907 29.8757C59.3594 29.86 59.121 30.1123 59.1528 30.8222C59.2005 31.7371 59.1846 32.6519 59.1528 33.5668C59.1369 34.1031 59.3436 34.3082 59.884 34.2924C61.8394 34.2767 63.7947 34.2767 65.75 34.2924C66.6879 34.2924 66.7038 34.324 66.4494 35.2389C66.2269 36.0749 65.9566 36.8951 65.7659 37.7311C65.6387 38.2359 65.3844 38.3936 64.8757 38.3936C63.2383 38.3779 61.6009 38.4094 59.9635 38.3779C59.3277 38.3621 59.121 38.5987 59.1528 39.1981C59.1846 40.2707 59.2005 41.3434 59.1528 42.416C59.121 43.0627 59.4071 43.2205 59.9953 43.2047C62.1891 43.1889 64.3828 43.2362 66.5766 43.2047C67.2125 43.2047 67.4827 43.3624 67.4509 44.0407C67.4032 44.924 67.4191 45.8232 67.4509 46.7065C67.4668 47.1955 67.292 47.4163 66.7674 47.4163C62.8885 47.4005 58.9938 47.4005 55.115 47.4163C54.4473 47.4163 54.4155 47.0693 54.4155 46.5645C54.4314 43.2362 54.4314 39.8922 54.4314 36.5323Z" fill="white"/>
<path d="M95.0637 11.0259C95.0637 7.6976 95.0796 4.38507 95.0479 1.05678C95.0479 0.362727 95.2704 0.157667 95.954 0.173441C99.7056 0.204988 103.457 0.204988 107.209 0.173441C107.908 0.173441 108.147 0.378501 108.115 1.07255C108.067 1.94012 108.083 2.79191 108.115 3.65947C108.131 4.24311 107.893 4.4324 107.32 4.4324C105.206 4.41662 103.092 4.41662 100.977 4.4324C99.8328 4.4324 99.8328 4.4324 99.8328 5.59967C99.8328 6.35681 99.8805 7.11396 99.8169 7.87111C99.7533 8.6598 100.071 8.84909 100.818 8.83332C102.726 8.78599 104.618 8.83332 106.525 8.80177C107.225 8.78599 107.416 8.97528 107.177 9.65356C106.891 10.4738 106.668 11.3098 106.494 12.1458C106.366 12.7452 106.048 12.9188 105.444 12.9188C103.839 12.8872 102.217 12.9188 100.612 12.903C100.039 12.8872 99.8169 13.0765 99.8328 13.6759C99.8646 14.7485 99.8646 15.8212 99.8328 16.8938C99.8169 17.4932 100.039 17.6509 100.628 17.6509C102.79 17.6352 104.968 17.6825 107.129 17.6352C107.956 17.6194 108.195 17.9033 108.147 18.6762C108.083 19.5123 108.115 20.3483 108.131 21.1843C108.147 21.6733 107.988 21.8941 107.447 21.8941C103.537 21.8783 99.6261 21.8783 95.7155 21.8941C95.0637 21.8941 95.0796 21.5313 95.0796 21.0739C95.0637 17.7298 95.0637 14.37 95.0637 11.0259Z" fill="white"/>
<path d="M120.928 10.9945C120.928 9.63795 120.944 8.26562 120.912 6.90906C120.896 6.3412 121.087 6.12037 121.691 6.12037C123.201 6.15191 124.711 6.15191 126.206 6.12037C126.81 6.10459 127.032 6.3412 126.969 6.90906C126.953 7.0668 126.953 7.22454 126.969 7.38228C127.08 8.13943 126.778 8.42336 125.999 8.36026C125.347 8.29717 124.68 8.36026 124.012 8.34449C123.551 8.32871 123.312 8.48645 123.344 8.97544C123.36 9.2436 123.36 9.49598 123.344 9.76414C123.312 10.2216 123.503 10.4424 123.996 10.4266C124.632 10.4109 125.268 10.4424 125.904 10.4266C126.333 10.4109 126.492 10.5844 126.349 10.9945C126.317 11.0734 126.317 11.1522 126.285 11.2153C125.808 12.7612 126.126 12.5719 124.521 12.5877C123.36 12.6034 123.36 12.5877 123.344 13.7549C123.344 13.9442 123.344 14.1177 123.344 14.307C123.312 16.0579 123.646 15.8844 121.659 15.9002C121.119 15.9002 120.912 15.7109 120.928 15.1746C120.944 13.7707 120.928 12.3826 120.928 10.9945Z" fill="white"/>
<path d="M110.007 34.4974C109.101 29.8915 105.222 26.4054 100.262 25.7903C97.6554 25.459 95.0324 25.7429 92.4253 25.6167C91.5828 25.5852 91.4079 25.8849 91.4238 26.642C91.4556 29.9072 91.4397 33.1882 91.4397 36.4534C91.4397 39.7975 91.4556 43.1415 91.4238 46.5014C91.4238 47.1008 91.5987 47.3532 92.2346 47.3374C93.0771 47.2901 93.9196 47.3532 94.7781 47.3216C96.8923 47.2585 99.0066 47.4951 101.105 47.1481C107.178 46.1386 111.184 40.4284 110.007 34.4974ZM105.349 36.7689C105.191 40.2391 102.536 42.9049 99.0702 43.0469C98.3549 43.0784 97.6395 43.0311 96.9241 43.0627C96.3518 43.0942 96.2088 42.8261 96.2088 42.3055C96.2247 40.3653 96.2088 38.4409 96.2088 36.5007C96.2088 34.6394 96.2247 32.7939 96.1929 30.9325C96.177 30.2385 96.4154 29.9861 97.1149 30.0334C97.9892 30.0965 98.8477 30.0019 99.722 30.1281C103.108 30.6486 105.493 33.4564 105.349 36.7689Z" fill="white"/>
<path d="M52.4604 21.0897C51.7132 19.3546 51.0296 17.6037 50.3143 15.8528C48.1841 10.6316 46.0539 5.42624 43.9396 0.205078C41.7141 0.205078 39.4885 0.205078 37.2788 0.205078C37.5968 0.883356 37.8988 1.59318 38.2645 2.25569C38.5347 2.74468 38.5347 3.1548 38.3121 3.65956C37.5491 5.44202 36.8337 7.24024 36.0866 9.03847C34.4333 13.0608 32.7959 17.0832 31.1109 21.1055C30.8565 21.7365 30.9519 21.9258 31.6514 21.8942C32.7641 21.8469 33.8769 21.8627 34.9897 21.8942C35.4825 21.91 35.7527 21.7522 35.9276 21.2632C36.2932 20.2537 36.7225 19.26 37.0881 18.2662C37.2471 17.8403 37.4855 17.651 37.9624 17.651C40.4741 17.6668 42.9858 17.6668 45.4975 17.651C45.9744 17.651 46.2129 17.8245 46.3719 18.2504C46.7375 19.2284 47.1667 20.1906 47.5323 21.1686C47.7231 21.6891 47.9933 21.91 48.5656 21.8942C49.6784 21.8469 50.7912 21.8627 51.904 21.8942C52.5557 21.91 52.7465 21.7522 52.4604 21.0897ZM44.0032 13.534C42.5248 13.5183 41.0464 13.534 39.568 13.534C39.2183 13.534 38.9798 13.4394 39.1388 13.0293C39.9972 10.8525 40.8556 8.65989 41.6982 6.48309C41.7777 6.48309 41.8412 6.49887 41.9207 6.49887C42.7315 8.67567 43.5581 10.8367 44.3689 13.0135C44.5278 13.3921 44.4006 13.534 44.0032 13.534Z" fill="white"/>
<path d="M114.728 6.00977C111.915 6.00977 109.61 8.23389 109.578 11.0101C109.53 13.8179 111.835 16.1366 114.665 16.1682C117.51 16.1839 119.831 13.9283 119.847 11.1205C119.847 8.26543 117.59 6.00977 114.728 6.00977ZM114.713 13.8179C113.218 13.8021 112.01 12.5875 112.01 11.089C112.01 9.57467 113.186 8.39163 114.713 8.37585C116.255 8.36008 117.479 9.59044 117.463 11.1205C117.447 12.619 116.207 13.8336 114.713 13.8179Z" fill="white"/>
</g>
</g>
<defs>
<clipPath id="clip0_225:1706">
<rect width="127" height="48" fill="white"/>
</clipPath>
<clipPath id="clip1_225:1706">
<rect width="127" height="48" fill="white" transform="translate(0.000976562)"/>
</clipPath>
</defs>
</svg>
