<svg width="76" height="77" viewBox="0 0 76 77" fill="none" xmlns="http://www.w3.org/2000/svg">
<g clip-path="url(#clip0_249_3100)">
<path d="M36.3517 21.9466C36.3517 26.8463 36.279 31.746 36.376 36.6212C36.4244 39.071 36.5456 41.4964 36.5699 43.9462C36.5699 44.9261 36.2305 45.6121 35.5518 46.2981C31.3824 50.4628 27.213 54.5785 22.8982 58.5718C21.6862 59.6742 21.7347 59.8457 23.0922 60.6786C28.3524 63.8634 34.0731 65.4068 40.2059 64.8924C44.8844 64.5004 49.2719 63.104 53.2473 60.4827C54.12 59.8947 54.12 59.4782 53.3928 58.8168C48.9568 54.7255 44.642 50.4873 40.3756 46.2001C39.7211 45.5386 39.4303 44.8771 39.4545 43.9462C39.7696 36.8662 39.6727 29.7616 39.6969 22.6571C39.6969 22.4611 39.7211 22.2896 39.7454 21.7996C40.8847 23.8575 41.4907 25.8419 42.3149 27.7282C43.3087 29.9086 44.2299 32.138 45.151 34.3428C45.8297 35.9352 46.7751 37.3071 48.0356 38.5075C52.1807 42.4518 56.2774 46.445 60.3498 50.4383C61.1012 51.1732 61.5133 51.0018 62.0224 50.1933C63.695 47.6455 64.4222 44.8037 64.8585 41.8393C65.6827 36.3272 64.7858 31.06 62.483 26.0133C61.3679 23.4655 59.7438 21.1872 57.6349 19.3008C57.0046 18.7128 56.9076 18.3208 57.5137 17.6349C59.4044 15.5035 61.2224 13.3476 63.0405 11.1673C63.5253 10.5793 63.8889 10.6528 64.398 11.1673C70.3369 17.0959 74.2638 24.127 75.5243 32.5054C77.0515 42.7948 74.9183 52.2757 68.7128 60.6541C62.6769 68.7876 54.7987 74.0058 44.7874 75.6717C42.4603 76.0637 40.0847 76.3087 37.7092 76.4311C34.97 76.5536 32.2793 75.9167 29.5886 75.3777C21.6135 73.7363 14.9958 69.6206 9.61446 63.5205C4.91181 58.1798 1.71206 52.0307 0.54852 44.9261C-0.251416 40.1244 -0.154454 35.2738 0.839406 30.4966C2.29383 23.637 5.5663 17.7329 10.2447 12.6127C10.7295 12.0737 11.1901 11.5103 11.7476 11.0448C12.2567 10.6038 12.5718 10.7263 12.9354 11.1673C14.8019 13.3721 16.6442 15.577 18.535 17.7329C19.044 18.3208 19.1167 18.6883 18.5107 19.2273C14.4626 22.8285 12.3294 27.5322 11.3113 32.7504C10.2447 38.2626 10.8022 43.6767 13.0808 48.8704C13.1051 48.9194 13.1051 48.9439 13.1293 48.9684C14.3656 51.4182 14.6322 51.4672 16.5472 49.6053C20.5469 45.7101 24.5466 41.7903 28.5948 37.9196C30.3643 36.2537 30.9461 33.9508 31.9157 31.8685C33.4186 28.6102 34.7518 25.2294 36.1335 21.9221C36.2305 21.8976 36.279 21.9221 36.3517 21.9466Z" fill="white"/>
<path d="M38.7515 0.436436C45.3206 0.730417 52.2049 2.20032 58.362 6.21807C59.1862 6.75703 59.9134 7.39399 60.6891 7.95746C61.1982 8.32493 61.2466 8.61892 60.8346 9.13338C58.9196 11.4117 57.053 13.6901 55.1865 15.9929C54.7987 16.4829 54.4835 16.5074 53.9745 16.1399C51.7201 14.474 49.2961 13.1756 46.5811 12.4407C38.0485 10.1133 29.8794 10.7503 22.3891 15.895C21.5407 16.4829 21.1044 16.4584 20.4499 15.6255C18.7288 13.4206 16.9593 11.2647 15.117 9.13338C14.5837 8.52092 14.7534 8.22694 15.2624 7.83497C20.7165 3.64573 26.9221 1.51437 33.661 0.730417C35.1639 0.583426 36.6425 0.411937 38.7515 0.436436Z" fill="white"/>
</g>
<defs>
<clipPath id="clip0_249_3100">
<rect width="75.9697" height="75.9697" fill="white" transform="translate(0.0151978 0.435547)"/>
</clipPath>
</defs>
</svg>
