<svg width="108" height="64" viewBox="0 0 108 64" fill="none" xmlns="http://www.w3.org/2000/svg">
<g clip-path="url(#clip0_225:1749)">
<g clip-path="url(#clip1_225:1749)">
<path d="M107.705 51.2815C106.609 51.6359 105.649 51.0452 104.846 51.7343C104.767 51.7934 104.532 51.6949 104.395 51.6359C103.318 51.1634 103.201 51.2421 103.201 52.4234C103.201 54.7268 103.201 57.0106 103.201 59.314C103.201 61.3812 101.79 62.7987 99.7141 62.7987C98.6956 62.7987 97.6967 62.779 96.6782 62.7987C95.9339 62.8184 95.3072 62.149 94.5629 62.4246C92.6826 63.1727 90.7239 62.7396 88.824 62.7593C83.3202 62.8381 77.7968 62.7987 72.2734 62.7593C72.0384 62.7593 71.1962 63.2515 71.6075 62.208C71.725 61.893 71.2157 62.0506 70.9807 62.0309C70.7653 61.9915 70.6086 62.1096 70.7653 62.3852C71.1178 62.9365 70.6673 62.7987 70.3931 62.7987C61.9122 62.7987 53.4312 62.779 44.9502 62.8184C44.3626 62.8184 44.2843 62.5034 44.1864 61.9915C43.7751 62.8577 43.0895 62.8184 42.404 62.7987C41.3267 62.779 40.2495 62.8774 39.3093 62.1096C38.8197 61.7159 38.2908 62.2671 37.9187 62.5034C37.4878 62.7987 37.0961 62.7987 36.6456 62.7987C35.0786 62.7987 33.4725 62.5624 31.9644 62.8381C29.3006 63.3302 26.6564 62.9956 24.0123 63.1334C22.7196 63.2121 21.3877 63.3302 20.1146 63.094C16.1385 62.4049 12.1428 63.0546 8.18637 62.7199C6.48234 62.5821 4.69997 61.3812 4.77832 59.3337C4.87625 57.0499 4.77832 54.7465 4.81749 52.4627C4.81749 51.9115 4.68038 51.7146 4.09279 51.754C3.40726 51.8131 2.72173 51.7737 2.03621 51.7737C0.488873 51.7737 -0.470866 50.5924 0.0971425 49.1749C0.351767 48.5252 0.39094 47.9346 0.39094 47.3046C0.410527 46.1627 0.998122 45.5524 2.15373 45.5327C2.70215 45.5131 3.27016 45.4934 3.81858 45.5524C4.56287 45.6312 4.81749 45.3949 4.81749 44.5877C4.77832 39.8037 4.7979 35.0196 4.7979 30.2355C4.7979 26.4359 4.77832 22.6362 4.81749 18.8365C4.81749 18.1671 4.6608 17.8718 3.95568 17.9506C3.40726 18.0096 2.80008 17.8324 2.31042 17.9899C1.11564 18.364 0.743497 17.3599 0.116729 16.789C-0.0987226 16.5921 -0.0987226 16.1393 0.077556 15.9621C0.586805 15.4699 0.508459 14.8399 0.39094 14.3281C0.234248 13.5996 1.07647 13.0484 0.625978 12.3002C0.528046 12.1427 0.900189 12.0837 1.07647 12.1034C2.05579 12.2806 3.01553 11.7293 3.99486 12.1034C4.6608 12.3593 4.83708 11.9459 4.83708 11.3356C4.81749 8.5793 4.81749 5.82305 4.83708 3.0668C4.83708 1.68868 5.85558 0.901178 7.14829 0.664928C9.92957 0.133366 12.7304 0.153053 15.453 0.408991C21.0743 0.940553 26.6956 0.408991 32.2974 0.763366C33.4921 0.842116 34.6477 0.664928 35.8229 0.704303C39.564 0.802741 43.305 0.704303 47.046 0.704303C47.3202 0.704303 48.2016 0.271178 47.7119 1.31462C47.6728 1.41305 47.9666 1.82649 48.2604 1.70837C48.4171 1.6493 48.8088 1.47212 48.5737 1.13743C48.2016 0.586178 48.6129 0.704303 48.9067 0.704303C53.9013 0.704303 58.8958 0.704303 63.8904 0.704303C65.1243 1.55087 66.3191 1.25555 67.6314 0.763366C68.4345 0.468053 69.4334 0.664928 70.3344 0.723991C72.4693 0.822428 74.5846 0.0743033 76.6608 0.389303C78.9132 0.743678 81.1657 0.487741 83.379 0.763366C84.1428 0.861803 84.7892 0.468053 85.4943 0.684616C85.8077 0.783053 86.1994 0.586178 86.4736 0.960241C86.5716 1.09805 86.7674 1.15712 86.9045 1.03899C87.5901 0.487741 88.2952 0.527116 89.0199 0.979928C89.0786 1.0193 89.2157 0.979928 89.2745 0.940553C90.4301 -0.102884 91.6249 0.389303 92.898 0.664928C93.9557 0.901178 95.1309 0.527116 96.2081 0.743678C97.6771 1.03899 99.1461 0.920866 100.615 1.09805C101.301 1.1768 101.81 1.88555 102.104 2.61399C102.593 3.81493 102.495 5.09462 102.456 6.33493C102.397 8.1068 103.063 9.81962 102.868 11.6309C102.789 12.4184 103.592 12.1821 103.964 12.1034C105.12 11.8277 106.236 12.2609 107.059 12.1427C107.921 13.3437 107.314 14.6431 107.843 15.844C108.038 16.2771 108.097 16.7102 107.568 17.3206C106.491 18.5215 105.277 17.8324 104.141 17.9506C102.868 18.0884 102.828 17.9899 102.848 19.2696C102.868 20.3131 102.574 21.3959 103.181 22.3802C103.318 22.5968 103.044 22.9315 103.005 23.1677C102.75 24.8609 102.672 26.5934 103.044 28.2668C103.122 28.5818 103.24 28.9362 103.142 29.1921C102.515 30.9443 103.005 32.7359 102.809 34.4881C102.75 35.1181 103.103 35.6102 103.103 36.2009C103.083 38.0318 102.652 39.8627 102.828 41.7134C102.868 42.1859 102.672 42.678 103.122 43.0915C103.357 43.308 103.063 43.5246 102.946 43.7609C102.437 44.7649 102.907 45.4934 104.023 45.5131C104.572 45.5131 105.179 45.6509 105.688 45.4934C106.883 45.1193 107.255 46.1037 107.862 46.6943C107.98 46.8124 108.038 47.1865 107.94 47.344C107.431 48.1512 107.627 49.0174 107.588 49.8837C107.568 50.3562 106.706 50.7893 107.705 51.2815ZM97.4225 29.2118C97.0699 28.9559 96.972 28.6409 96.972 28.2668C96.972 27.4005 97.6575 26.4555 96.639 25.7074C96.5607 25.6484 96.6586 25.3924 96.639 25.2349C96.404 24.0931 97.0895 23.0496 97.0504 21.9077C97.0308 21.1793 96.5999 20.6084 96.6194 19.8602C96.6782 16.2181 96.639 12.5759 96.639 8.93368C96.639 6.98462 96.639 7.06337 94.6804 6.88618C93.8578 6.80743 93.0155 7.06337 92.1341 6.64993C91.5661 6.39399 90.6064 6.29555 89.9013 6.8468C89.7642 6.96493 89.5487 6.98462 89.4508 6.86649C89.0199 6.39399 88.4715 6.59087 87.9818 6.59087C85.4747 6.57118 82.9481 6.49243 80.441 6.61055C78.8545 6.6893 77.2876 7.02399 75.6619 6.90587C75.231 6.86649 74.898 6.43337 74.7217 6.57118C73.6836 7.45712 72.5085 6.39399 71.4508 6.86649C71.2157 6.96493 70.8044 6.76805 70.7457 6.3743C70.7261 6.19712 71.1962 5.98055 70.7653 5.88212C70.4127 5.80337 69.7468 5.68524 69.6684 5.96087C69.1788 7.55555 68.9633 6.19712 68.6303 5.86243C68.3169 6.01993 68.5716 6.66962 68.1407 6.59087C67.1418 6.3743 66.28 7.0043 65.3202 6.96493C61.3833 6.82712 57.4464 6.78774 53.5096 6.70899C46.0863 6.55149 38.6434 6.17743 31.2201 6.92555C29.3202 7.12243 27.3811 6.86649 25.4617 6.98462C23.6009 7.08305 21.7794 6.63024 19.8991 6.92555C17.2549 7.33899 14.6303 6.45305 11.9666 6.57118C11.2419 6.61055 10.811 6.8468 11.0264 7.49649C11.4769 8.81555 10.243 10.1149 11.0656 11.3946C11.1048 11.4537 10.9872 11.6309 10.9089 11.7293C10.5368 12.0837 10.5955 12.6152 10.7326 12.9302C11.2223 13.9934 10.9872 15.0959 11.0852 16.1984C11.1439 16.8677 11.0656 17.419 10.0863 17.4977C11.1635 17.5174 11.1439 18.1474 11.0852 18.8168C10.8697 22.0456 11.5357 25.3334 10.713 28.5227C10.5172 29.2512 11.1048 29.7827 11.1048 30.4718C11.0852 37.7759 11.1048 45.0996 11.1048 52.3643C10.8697 52.7384 10.4976 51.8131 10.3996 52.4824C10.3605 52.6596 9.96874 53.6046 10.9285 52.9943C11.1048 52.8762 11.1243 53.2502 11.1243 53.4274C11.1243 54.274 11.1243 55.1402 11.1048 55.9868C11.1048 56.3018 11.1048 56.6562 11.5357 56.5774C12.9067 56.3609 14.1798 56.9515 15.5117 56.9515C16.0601 56.9515 16.6673 56.7349 17.157 57.2665C17.3333 57.4437 17.6467 57.3256 17.6858 56.9515C17.7838 56.3215 18.3909 56.4396 18.5672 56.6365C18.9981 57.0696 19.4682 56.9515 19.9383 56.9318C22.2691 56.794 24.639 57.2271 26.9698 56.6562C28.3409 56.3215 29.7315 56.9515 31.1613 56.6759C32.0036 56.5184 32.9241 56.9318 33.8055 56.6365C34.4127 56.4199 34.4127 56.794 34.3931 57.3059C34.7065 56.5381 35.2941 56.5971 35.8817 56.5971C37.0569 56.6168 38.2321 56.6365 39.3877 56.5971C40.7391 56.5577 42.0514 56.6759 43.3637 56.9712C43.9709 57.109 44.5193 56.6956 45.2049 56.8924C46.0863 57.1287 47.1243 57.1287 48.0057 56.8924C48.8675 56.6562 49.7685 57.9359 50.5128 56.7743C51.6684 57.2074 52.7653 56.7152 53.9013 56.6168C55.5465 56.4593 57.2114 56.5381 58.8763 56.5971C62.9502 56.7546 67.0242 56.3018 71.0786 56.9121C73.6836 57.3059 76.2887 56.5577 78.8937 56.5577C80.6564 56.5577 82.4192 56.6759 84.182 56.5184C85.8665 56.3806 87.5117 56.8924 89.2353 56.5971C90.5672 56.3609 91.9579 56.5577 93.3289 56.5577C93.6815 56.5577 94.0732 56.4396 94.367 56.6759C95.0134 57.1877 95.7772 56.9712 96.4432 56.8924C97.6379 56.7349 96.7761 55.6915 97.0112 55.1009C97.0895 54.904 97.0308 54.6481 97.0308 54.4118C96.8153 49.0371 97.3441 43.6624 96.7174 38.2877C96.404 35.5512 96.6978 32.7359 96.639 29.9402C96.5999 29.3299 97.0308 29.4087 97.4225 29.2118Z" fill="white"/>
<path d="M69.8065 30.3342C71.5692 31.2792 71.9414 32.7754 71.6868 34.5867C71.5692 35.4135 71.8043 36.2798 71.7455 37.1264C71.5888 39.666 72.3331 42.2057 71.9414 44.6864C71.7064 46.2417 72.2352 47.9742 71.0796 49.4114C70.5312 50.0807 69.9436 50.632 69.1209 50.6517C65.4387 50.7107 61.7564 50.6714 58.0741 50.691C57.5257 50.691 57.3298 50.4942 57.6432 49.9823C57.9566 49.4704 58.035 48.9585 57.6628 48.4664C57.4278 48.171 57.5061 47.8364 57.5061 47.5214C57.5061 44.7257 57.5061 41.9498 57.5061 39.1542C57.5061 38.7801 57.3886 38.3667 57.7607 38.0517C57.8391 37.9926 57.8979 37.7367 57.8587 37.717C57.1927 37.1657 57.702 36.3979 57.5649 35.7679C57.369 34.8229 57.5061 33.8385 56.7814 33.0117C56.2722 32.4407 56.4289 31.6335 56.3897 30.9051C56.3701 30.6098 56.6247 30.2357 56.0763 30.0192C55.8609 29.9404 56.3701 29.9798 56.3309 29.7829C56.1155 28.7789 57.2123 28.4835 57.4278 27.7157C57.6824 26.8692 57.9566 26.0226 57.5453 25.117C57.4474 24.9201 57.4865 24.6642 57.4865 24.4476C57.4865 20.7464 57.5061 17.0451 57.4669 13.3439C57.4474 12.5564 57.7216 12.4382 58.4071 12.4382C61.0709 12.4776 63.7346 12.4382 66.3984 12.4579C66.9077 12.4579 67.4169 12.3792 67.887 12.7532C68.0437 12.8714 68.4158 12.8517 68.6313 12.7729C69.8065 12.3595 70.3353 12.517 71.1188 13.462C71.295 13.6785 71.3342 13.7573 71.1579 14.0132C70.9033 14.407 70.9817 14.4857 71.4517 14.3873C71.8043 14.3282 71.7455 14.5251 71.7455 14.7023C71.7259 17.0254 71.863 19.3682 71.628 21.6717C71.5301 22.5773 71.4321 23.5026 71.393 24.4279C71.3734 24.9398 71.4126 25.4123 71.6476 25.9242C72.1764 27.007 71.0404 29.6845 69.8065 30.3342ZM64.4789 45.8873C65.2232 45.9267 65.9479 46.0645 66.1438 45.1392C66.2417 44.7257 65.8696 44.4304 65.8696 43.9776C65.8696 42.8357 66.1438 41.7135 65.9479 40.5323C65.7521 39.4101 65.8108 38.2289 65.9283 37.1067C66.0263 36.0829 65.5562 35.1182 65.8892 34.0945C66.0263 33.6417 65.8108 33.4645 65.282 33.3857C64.8119 33.3267 64.381 33.4054 63.9501 33.4054C63.1275 33.3857 62.7945 33.8189 62.8728 34.6457C63.1275 37.3035 62.9316 39.9417 62.9904 42.5995C62.9904 43.0326 63.0099 43.4264 62.7161 43.8792C62.2657 44.6076 62.7945 45.6707 63.5975 45.8873C63.9109 45.9464 64.2439 45.8873 64.4789 45.8873ZM65.85 20.8645C66.2221 20.0967 65.5562 19.2107 66.2417 18.4429C66.4768 18.187 66.0654 17.8326 65.85 17.7539C64.9882 17.4389 64.0676 17.5964 63.1666 17.6554C62.9316 17.6751 62.9904 17.9704 62.9904 18.1476C62.912 19.9785 62.8532 21.8292 62.7945 23.6404C62.7553 24.8217 62.8728 26.121 62.9904 27.3614C63.0099 27.5976 62.9904 27.8142 63.3037 27.8732C63.9697 27.9914 64.6356 28.1095 65.3016 27.9717C65.5758 27.9126 65.9479 27.8929 65.9283 27.4992C65.85 26.2392 65.85 24.9989 66.2613 23.7782C66.3005 23.6601 66.3201 23.4632 66.2613 23.4042C65.5954 22.6364 66.183 21.6914 65.85 20.8645Z" fill="white"/>
<path d="M46.0873 34.9801C46.6945 34.5666 47.5367 35.3148 47.6347 34.2516C47.6934 33.5626 47.5759 33.5035 45.7152 33.3263C46.2832 33.0113 47.3605 33.7004 47.3996 32.4798C47.4192 31.3969 46.4791 32.0269 45.774 31.5741C47.4584 32.086 47.2821 31.1213 47.2625 30.2551C47.2429 24.9985 47.2625 19.7616 47.2625 14.5051C47.2625 13.3435 48.4573 12.6544 49.5737 13.1073C49.8871 13.2451 50.2789 13.1663 50.6314 13.186C52.7076 13.3041 53.7261 14.6232 52.7859 16.6707C52.4334 17.4385 52.0612 18.1473 52.9818 18.7773C53.2168 18.9348 53.0993 19.2694 53.0993 19.5254C53.0993 20.6082 53.0797 21.691 53.0993 22.7738C53.1777 25.5694 53.6086 28.3454 53.3735 31.141C53.3539 31.4757 53.4715 31.6332 53.8044 31.6332C54.0982 31.6529 54.392 31.5544 54.6858 31.7513C54.5683 31.771 54.4704 31.8301 54.392 31.8104C53.5694 31.6726 53.2952 31.9285 53.4127 32.8538C53.6869 35.0194 52.9818 37.1654 53.0797 39.3507C53.1777 41.5754 53.2364 43.8198 53.0406 46.0248C52.9622 46.9501 52.8055 47.9148 52.7076 48.8598C52.6292 49.5094 51.0036 50.6513 50.2789 50.6513C46.5574 50.6513 42.836 50.6513 39.1145 50.6513C38.2136 50.6513 37.7043 49.9032 37.4889 49.3323C37.2342 48.6826 36.9404 47.9344 36.9796 47.1273C37.0775 45.4538 36.9992 43.7804 37.0188 42.1069C37.0188 40.9848 37.0971 39.9019 37.3518 38.7798C37.6456 37.4804 36.8033 36.1416 37.0775 34.8029C37.4693 32.9326 37.0971 30.9835 37.7435 29.1526C37.9198 28.6604 37.3126 28.5423 37.3909 28.1091C37.626 26.4948 36.96 24.8016 37.7631 23.2266C37.9198 22.9116 37.4889 22.7935 37.4889 22.5573C37.4693 21.4154 37.9981 20.3129 37.8806 19.1513C37.861 19.0332 38.1744 18.8954 38.2527 18.7182C38.3898 18.4032 38.762 17.9307 37.9981 17.9504C37.5084 17.9701 37.3909 17.7535 37.4105 17.3007C37.4301 16.021 37.4497 14.7413 37.4105 13.4616C37.3909 12.871 37.6064 12.7135 38.1548 12.7726C38.997 12.8907 39.898 12.5363 40.6619 13.1466C40.7794 13.2451 41.0536 13.186 41.2299 13.1269C42.2484 12.7529 42.8947 13.2254 42.9143 14.3476C42.9143 15.8832 42.8947 17.4385 42.9143 18.9741C42.9535 23.1282 43.5411 27.2823 43.2669 31.4363C43.1885 32.5191 43.5999 33.6807 42.9339 34.7044C42.8947 34.7438 42.9143 34.8423 42.9339 34.9013C43.5411 36.9882 43.3844 39.0554 42.9535 41.1816C42.7185 42.3432 42.9535 43.6032 42.8947 44.8041C42.8556 45.6113 43.404 45.6507 43.8153 45.4144C44.3441 45.1191 44.8534 45.0994 45.4018 45.1191C45.6564 45.1388 46.342 44.8238 45.9111 45.631C45.7935 45.8476 46.0678 45.8673 46.2244 45.8673C46.9492 45.8869 47.3017 45.5326 47.3017 44.8041C47.3017 43.1701 47.2821 41.5163 47.3017 39.8823C47.3017 39.5082 47.145 39.0948 47.5563 38.7994C47.6151 38.7601 47.6739 38.6026 47.6543 38.5435C47.0471 37.5001 47.8893 36.496 47.7522 35.4723C47.713 35.0982 47.6347 34.921 47.2625 34.9407C46.91 34.9801 46.5966 34.9801 46.0873 34.9801Z" fill="white"/>
<path d="M90.157 48.2103C89.8045 48.3481 89.9807 48.6631 90.0591 48.7812C90.6663 49.7262 89.8828 50.0018 89.3148 50.2971C88.1396 50.9074 86.9644 50.9074 85.6129 50.7499C83.3997 50.4743 81.1276 50.6712 78.8752 50.6712C78.3268 50.6712 77.8371 50.6712 77.3278 50.3365C76.466 49.7656 75.8393 48.9978 75.8393 47.9937C75.8001 42.4221 75.7609 36.8506 75.8393 31.279C75.8589 29.6449 75.7413 28.0109 75.8001 26.3768C75.8393 24.6837 75.8001 22.9709 75.8197 21.2581C75.8197 20.9628 75.8589 20.6871 75.5651 20.4706C75.3496 20.3131 75.3888 19.9981 75.4671 19.8209C76.1918 18.3246 75.7022 16.7496 75.8001 15.214C75.8784 13.895 77.2299 12.4578 78.5422 12.4578C81.6761 12.4578 84.8099 12.4578 87.9437 12.4578C89.5303 12.4578 90.4704 13.3437 90.4704 14.7415C90.49 15.5487 90.2158 15.3125 89.824 14.9975C89.7849 15.6078 89.7849 15.6078 90.2941 15.8637C90.4704 15.9621 90.4704 16.1196 90.4704 16.2771C90.4704 17.8915 90.4508 19.4862 90.4704 21.1006C90.4704 21.5337 90.3333 21.6715 89.9024 21.6715C88.6684 21.6518 87.4149 21.6715 86.181 21.6715C85.8872 21.6715 85.9067 21.5928 85.848 21.2581C85.6717 20.1556 85.7305 19.0531 85.6913 17.9309C85.6717 17.6159 85.4367 17.5962 85.2016 17.5962C84.1831 17.5962 83.1842 17.5568 82.1657 17.5962C81.4802 17.6159 81.0101 18.364 81.4018 18.9153C81.6956 19.3287 81.6761 19.7028 81.6761 20.0965C81.6761 27.9912 81.6761 35.9056 81.6761 43.8003C81.6761 44.0562 81.7544 44.4106 81.6369 44.5681C80.8338 45.6115 81.6173 45.4934 82.2637 45.4934C82.5966 45.4934 82.91 45.5131 83.243 45.4934C83.6935 45.454 83.9285 45.5918 83.8697 46.084C83.8306 46.3596 83.8697 46.6353 84.2419 46.6156C84.5357 46.5959 84.8295 46.714 84.9862 46.2218C85.28 45.4146 85.515 44.5681 86.2593 43.9381C86.749 43.5246 86.416 42.7765 85.848 42.619C85.28 42.4615 85.3191 42.1662 85.3191 41.7724C85.3191 39.5084 85.3191 37.2443 85.3191 34.9803C85.3191 34.0746 85.2996 33.2281 84.2419 32.8146C83.9481 32.6965 83.8306 32.3815 83.8306 31.9878C83.8697 30.8656 83.8502 29.7631 83.8306 28.6409C83.811 28.07 83.9873 27.7943 84.614 27.814C86.3376 27.8337 88.0808 27.8337 89.8045 27.814C90.5879 27.814 90.8034 28.3062 90.8034 28.9559C90.8034 33.6415 90.8034 38.3271 90.8034 43.0324C90.8034 44.6074 90.8034 46.1824 90.8034 47.7574C90.8034 48.2103 90.8621 48.7221 90.1766 48.1906C90.0395 48.1315 89.9024 47.9937 89.7457 48.1512C89.7261 48.1709 89.7849 48.3284 89.8436 48.3678C90.0395 48.5253 90.1178 48.4071 90.157 48.2103Z" fill="white"/>
<path d="M33.0036 23.6797C33.0036 26.3966 32.9448 29.1331 33.0427 31.85C33.0623 32.7162 32.8469 33.5234 32.5727 34.2716C32.2789 35.1378 31.2212 35.1575 30.4769 35.1969C28.6554 35.315 26.8142 35.2953 24.9927 35.2166C24.0329 35.1772 23.7979 35.4922 23.8175 36.3978C23.8567 40.6897 23.8567 44.9816 23.8762 49.2734C23.8762 50.5138 23.367 51.0453 22.133 51.0453C21.3496 51.0453 20.5661 51.0453 19.7827 51.0453C18.5683 51.0453 18.059 50.6516 18.0395 49.3916C17.9807 46.0447 18.0199 42.6978 18.0199 39.3509C18.0199 39.1737 17.9807 38.9178 18.3137 39.0359C18.5095 39.1147 18.6858 39.4297 18.8033 38.9966C18.8817 38.7209 18.7837 38.3469 18.5487 38.3272C17.8828 38.3075 17.9219 37.7366 18.0786 37.5397C18.4312 37.0869 18.0199 36.5553 18.3724 36.1025C18.6075 35.8269 18.2549 35.5512 18.0199 35.3937C17.4127 34.9409 17.2364 34.37 17.2952 33.6219C17.3539 32.8344 17.2756 32.0469 17.3148 31.2594C17.3343 30.7869 16.9622 30.0978 17.9219 29.9994C18.1374 29.9797 18.0395 29.5269 18.0395 29.2709C18.0395 27.7353 18.0199 26.18 18.059 24.6444C18.0786 23.9356 17.8436 23.1481 18.6662 22.6165C18.9209 22.4394 18.9209 21.7306 18.6271 21.6912C17.824 21.5731 18.059 21.0219 18.059 20.6084C18.0395 18.4428 18.1178 16.2772 18.0199 14.1312C17.9807 13.0681 18.6662 12.8319 19.3322 12.8319C23.367 12.7728 27.4214 12.7925 31.4562 12.8122C32.4356 12.8122 33.0427 13.5603 33.0427 14.7219C33.0231 17.7144 33.0231 20.7069 33.0036 23.6797ZM24.6205 30.4719C24.8556 30.0584 25.5803 30.4325 25.5999 30.1766C25.6978 29.3891 26.2658 29.7237 26.54 29.7434C27.0101 29.7631 27.8719 29.33 27.8719 28.8378C27.8719 28.5425 28.0482 28.0306 27.6956 27.9715C26.9709 27.8534 27.1668 27.3612 27.1668 26.9478C27.1472 24.7625 27.1668 22.5575 27.1668 20.3722C27.1668 17.9506 27.1668 17.9703 24.7968 17.9112C24.1113 17.8915 23.8371 18.0884 23.8567 18.8562C23.8958 21.8094 23.8958 24.7428 23.8567 27.6959C23.8567 28.2078 24.1896 29.1725 22.9557 28.7197C22.7598 28.6409 22.6619 28.9166 22.7598 29.0347C22.9557 29.2512 22.8969 29.8222 23.5433 29.5662C23.8567 29.4481 24.3659 29.645 24.7185 29.8419C25.0318 30.0191 24.2876 30.1175 24.6205 30.4719Z" fill="white"/>
<path d="M90.1568 48.2101C90.1372 48.407 90.0392 48.5251 89.8433 48.4267C89.7846 48.407 89.7062 48.2298 89.7454 48.2101C89.8825 48.0526 90.0392 48.1905 90.1763 48.2495C90.1568 48.2495 90.1568 48.2101 90.1568 48.2101Z" fill="#FBFBFB"/>
</g>
</g>
<defs>
<clipPath id="clip0_225:1749">
<rect width="108" height="63" fill="white" transform="translate(0 0.00146484)"/>
</clipPath>
<clipPath id="clip1_225:1749">
<rect width="108" height="63" fill="white" transform="translate(0 0.231934)"/>
</clipPath>
</defs>
</svg>
