<svg width="46" height="94" viewBox="0 0 46 94" fill="none" xmlns="http://www.w3.org/2000/svg">
<g clip-path="url(#clip0_284_396)">
<g clip-path="url(#clip1_284_396)">
<path d="M45.4821 26.9678C38.9264 26.9678 32.5904 26.9678 26.1079 26.9678C26.1079 24.3116 26.1079 21.7661 26.1079 19.1837C26.1079 17.1546 25.1191 16.4168 22.5187 16.3799C20.1748 16.343 19.2226 17.0808 19.1859 19.073C19.1493 23.6844 19.1859 28.2959 19.1859 32.9074C24.8261 30.1036 30.6493 30.4356 36.4359 31.7268C38.5601 32.1695 40.5745 33.4607 42.4057 34.752C44.6398 36.3383 45.6652 38.6994 45.6286 41.6138C45.5187 53.3085 45.5187 64.9662 45.5554 76.6609C45.592 83.8548 42.1493 88.7983 35.7034 91.3438C26.5474 94.9592 17.1716 94.8854 8.05217 91.1224C2.55854 88.872 -0.224899 84.3344 -0.261523 78.3948C-0.40802 58.6578 -0.40802 38.9207 -0.40802 19.1837C-0.40802 7.82103 4.38975 2.28728 15.5968 0.59026C21.6764 -0.332032 27.756 -0.258249 33.6891 1.47566C41.2703 3.68916 45.1525 8.74332 45.4455 16.6381C45.5554 20.0322 45.4821 23.3893 45.4821 26.9678ZM36.0331 56.7025C36.0331 54.8579 36.1796 53.0502 35.9964 51.3163C35.6668 48.5863 34.4582 47.8116 31.8213 48.5863C29.3308 49.3242 26.877 50.2833 24.3866 51.0581C23.0681 51.4639 21.8595 51.3532 21.0538 49.9513C20.8706 49.6193 20.2847 49.2504 19.9184 49.2504C18.4534 49.3242 16.9152 49.2873 15.5968 49.8038C14.8643 50.0989 14.3149 51.3532 14.1318 52.2755C13.9487 53.1609 14.4614 54.157 14.4614 55.1162C14.498 63.2323 14.498 71.3485 14.4614 79.4647C14.4614 80.6452 14.2417 81.8626 14.0952 83.2276C15.2671 85.0722 17.0617 84.4819 18.9662 84.1499C20.5044 83.8917 20.9805 83.3014 20.9439 81.7519C20.834 78.3579 20.9073 75.0008 20.9073 71.6067C20.9073 68.0282 21.5299 67.2166 25.0824 66.7739C26.2178 66.6264 26.5474 66.1468 26.5108 65.1507C26.4741 63.9702 26.4741 62.8265 26.4741 61.646C26.4009 58.6209 26.6573 58.3626 29.6605 57.883C31.7847 57.551 33.8722 57.1083 36.0331 56.7025Z" fill="white"/>
<path d="M25.8515 61.203C25.2655 60.4652 24.8993 59.9856 24.533 59.5429C24.6429 59.4691 24.7894 59.3585 24.8993 59.2847C25.2655 59.8012 25.8515 60.2807 25.9614 60.871C26.1445 61.8302 25.998 62.8263 25.998 63.8223C25.998 66.0727 25.8149 66.2572 23.6541 66.2203C21.2369 66.1834 21.0538 65.999 21.127 63.7855C21.2002 61.0186 21.8961 60.6128 25.8515 61.203Z" fill="white"/>
</g>
</g>
<defs>
<clipPath id="clip0_284_396">
<rect width="46" height="94" fill="white"/>
</clipPath>
<clipPath id="clip1_284_396">
<rect width="46" height="94" fill="white" transform="translate(-0.40802)"/>
</clipPath>
</defs>
</svg>
