<svg width="123" height="49" viewBox="0 0 123 49" fill="none" xmlns="http://www.w3.org/2000/svg">
<g clip-path="url(#clip0_249_3056)">
<path d="M45.8806 12.011C45.9393 18.58 40.4266 24.0223 33.7214 24.0605C26.8012 24.0987 21.2689 18.8664 21.1907 12.1829C21.1125 5.49933 26.5666 0.0570056 33.4086 -0.000282033C40.3484 -0.0384738 45.822 5.23199 45.8806 12.011ZM37.8853 12.0301C37.8657 9.60494 35.9499 7.77174 33.4477 7.79083C31.1214 7.80993 29.147 9.7768 29.1861 12.0301C29.2252 14.3789 31.1996 16.3076 33.5455 16.2885C35.9695 16.2694 37.9048 14.3598 37.8853 12.0301Z" fill="#F9F9F9"/>
<path d="M7.99539 16.3462C7.99539 18.5423 7.97584 20.6619 8.01494 22.7815C8.03449 23.4499 7.85855 23.679 7.1548 23.6599C5.0631 23.6218 2.99094 23.6218 0.899237 23.6599C0.254132 23.679 0 23.5263 0 22.8197C0.0195486 15.6588 0.0195486 8.49783 0 1.35597C0 0.687616 0.117292 0.401178 0.899237 0.420274C4.86761 0.458466 8.85553 0.34389 12.8239 0.477561C15.9126 0.573041 18.3757 1.94794 19.6464 4.79323C20.8779 7.54303 20.487 10.2165 18.6885 12.6416C18.102 13.4246 17.3396 14.0547 16.3622 14.303C15.6585 14.4939 15.7366 14.7231 16.0494 15.2005C17.7306 17.7211 19.4118 20.2609 21.093 22.8006C21.2494 23.0298 21.5817 23.2398 21.4253 23.5263C21.2494 23.8127 20.8779 23.6409 20.6043 23.6409C18.2584 23.6599 15.9126 23.6218 13.5668 23.6599C12.9607 23.679 12.6284 23.469 12.3156 22.9725C11.0645 20.9101 9.77432 18.8478 8.48411 16.7854C8.38636 16.6327 8.36682 16.4226 7.99539 16.3462ZM7.99539 9.01342C7.99539 9.68177 7.99539 10.3501 7.99539 10.9994C7.99539 11.2476 7.97584 11.5723 8.32772 11.5914C9.42244 11.6105 10.5563 11.7441 11.4555 10.923C12.257 10.1783 12.5307 9.28076 12.1983 8.24958C11.866 7.2375 10.9277 6.58824 9.77432 6.51186C8.01494 6.39728 8.01494 6.39728 8.01494 8.07772C7.99539 8.36416 7.99539 8.68879 7.99539 9.01342Z" fill="#F9F9F9"/>
<path d="M76.1029 25.9129C77.4908 26.4858 78.7224 27.3069 79.8758 28.2617C80.4622 28.7391 80.3449 29.0065 79.8758 29.4457C78.3901 30.7824 76.9044 32.1191 75.4773 33.5131C75.0472 33.9141 74.8518 33.8186 74.4412 33.494C72.2909 31.7372 69.0849 31.8326 67.13 33.6658C65.2338 35.4609 65.0579 38.6117 66.7586 40.7313C68.4202 42.8128 71.724 43.0992 73.3856 41.3233C73.5811 41.1132 73.9134 40.9032 73.7961 40.6167C73.6788 40.2539 73.2879 40.4831 73.0142 40.4449C72.154 40.3494 71.0593 40.8268 70.4924 40.2539C69.9841 39.7192 70.3751 38.669 70.3556 37.8478C70.3165 37.0267 70.3556 36.1865 70.336 35.3654C70.3165 34.9262 70.4729 34.7543 70.9616 34.7543C74.3826 34.7734 77.8036 34.7543 81.2246 34.7543C81.5374 34.7543 81.8306 34.7734 81.8502 35.1744C81.9284 38.2107 81.9284 41.2469 80.1885 43.9394C77.1976 48.5606 71.1571 50.2793 65.703 48.1023C58.0008 45.0088 55.5377 35.4991 60.894 29.2547C63.6699 26.0084 67.306 24.6717 71.6067 24.9581C72.0367 24.9772 72.4473 25.0345 72.8773 25.0727C73.0142 25.2255 73.1706 25.3209 73.3661 25.1491C73.5029 25.1682 73.6397 25.1873 73.757 25.2255C74.4999 25.5501 75.3209 25.6838 76.1029 25.9129Z" fill="#F9F9F9"/>
<path d="M84.7824 20.4705C84.9193 20.6615 85.0561 20.8524 85.1734 21.0434C85.1343 21.2343 85.2125 21.368 85.4275 21.4062C85.8967 22.0937 86.3463 22.7811 86.7959 23.4495C86.6982 23.755 86.4636 23.6595 86.2877 23.6595C83.805 23.6595 81.3419 23.6404 78.8592 23.6786C78.2141 23.6786 77.8427 23.4686 77.5494 22.9339C76.4156 20.8906 74.8908 19.0765 73.8352 16.976C73.7374 16.785 73.6592 16.5559 73.4051 16.4795C73.0728 16.594 73.2683 16.8614 73.2683 17.0333C73.2683 19.0001 73.2487 20.967 73.2878 22.953C73.2878 23.4877 73.1119 23.6786 72.5645 23.6786C70.3555 23.6595 68.1465 23.6595 65.918 23.6786C65.3902 23.6786 65.2533 23.4686 65.2533 22.9912C65.2729 15.7156 65.2729 8.44011 65.2533 1.14549C65.2533 0.610804 65.4293 0.419845 65.9766 0.419845C68.1661 0.438941 70.336 0.458037 72.5254 0.419845C73.1314 0.419845 73.2878 0.6299 73.2683 1.20278C73.2292 3.32242 73.2487 5.46115 73.2487 7.59989C73.6788 7.67628 73.6983 7.29436 73.8352 7.1034C75.0667 5.15562 76.2983 3.20784 77.4908 1.24097C77.8426 0.668091 78.2336 0.400749 78.9569 0.400749C81.3223 0.458037 83.7072 0.438941 86.0922 0.400749C86.8546 0.381653 86.8155 0.687187 86.5027 1.14549C85.7989 2.15757 85.0756 3.15055 84.3719 4.16264C84.1178 4.25811 83.9809 4.44907 83.9809 4.73551C83.9223 4.81189 83.8832 4.88828 83.8245 4.96466C83.6486 5.02195 83.5704 5.13652 83.5899 5.30839C83.5313 5.38477 83.4922 5.46115 83.4336 5.53754C83.2381 5.57573 83.1599 5.7094 83.199 5.90036C83.0035 6.1677 82.8276 6.41595 82.6321 6.68329C82.4561 6.74058 82.3779 6.85515 82.3975 7.04611C82.2215 7.31345 82.0261 7.5808 81.8501 7.84814C81.6546 7.88633 81.5764 8.00091 81.6155 8.19186C81.3028 8.65016 80.99 9.10847 80.6967 9.56677C80.5013 9.60496 80.4426 9.73863 80.4622 9.91049C80.4035 9.98688 80.3449 10.0633 80.2862 10.1396C80.1298 10.1969 80.0125 10.2924 80.0321 10.4834C79.8562 10.7507 79.6802 11.0181 79.5043 11.2663C79.3088 11.3045 79.2306 11.4382 79.2501 11.6291C78.9569 11.9156 78.996 12.1829 79.2501 12.4502C79.2306 12.6412 79.3088 12.7558 79.5043 12.8131C79.6802 13.0804 79.8562 13.3477 80.0321 13.6151C80.0125 13.806 80.0907 13.9206 80.2862 13.9588C80.3449 14.0352 80.4035 14.1116 80.4426 14.188C80.4035 14.3789 80.4622 14.5126 80.6772 14.5508C80.99 15.0091 81.3028 15.4674 81.6155 15.9257C81.5764 16.1357 81.6742 16.2312 81.8697 16.2694C82.1824 16.7277 82.4952 17.186 82.7885 17.6443C82.7494 17.8353 82.808 17.9689 83.023 17.988C83.3358 18.4463 83.6486 18.9046 83.9614 19.3629C83.9223 19.5539 84.0005 19.6685 84.196 19.7067C84.2937 19.8594 84.3914 20.0122 84.4892 20.1459C84.5283 20.2986 84.6456 20.3941 84.7824 20.4705Z" fill="#F9F9F9"/>
<path d="M104.468 33.3029C104.331 35.4035 104.722 38.0196 104.272 40.6167C103.569 44.7605 99.874 48.2168 95.5929 48.8279C91.038 49.4772 86.5418 47.2811 84.5283 43.462C83.7659 41.9916 83.3163 40.4448 83.3163 38.8026C83.3163 34.6015 83.3359 30.4004 83.2968 26.2184C83.2968 25.4927 83.5118 25.3018 84.2351 25.3209C86.2486 25.3591 88.2817 25.3782 90.2952 25.3209C91.0967 25.3018 91.3508 25.4927 91.3508 26.3139C91.3117 30.3431 91.3312 34.3914 91.3117 38.4206C91.3117 39.5473 91.7222 40.4066 92.7778 40.9031C93.7357 41.3614 94.6741 41.2468 95.5147 40.5976C96.238 40.0438 96.4725 39.2991 96.4725 38.4206C96.453 34.4105 96.4921 30.4004 96.4334 26.4093C96.4334 25.6073 96.5703 25.2827 97.4891 25.3209C99.5026 25.3973 101.536 25.3782 103.549 25.3209C104.312 25.3018 104.487 25.5691 104.468 26.2566C104.448 28.4335 104.468 30.6295 104.468 33.3029Z" fill="#F9F9F9"/>
<path d="M87.7538 12.0303C87.7538 8.45934 87.7734 4.9075 87.7343 1.33658C87.7343 0.649125 87.8711 0.400879 88.6335 0.400879C93.6184 0.439071 98.6033 0.439071 103.588 0.400879C104.331 0.400879 104.527 0.610933 104.507 1.31748C104.448 2.74967 104.448 4.18186 104.507 5.61405C104.546 6.35879 104.272 6.51156 103.569 6.51156C101.262 6.47336 98.9356 6.53065 96.6289 6.47337C95.8665 6.45427 95.6905 6.70252 95.7101 7.38997C95.7687 8.97492 95.7296 8.97492 97.3913 8.97492C98.8965 8.97492 100.382 9.01312 101.887 8.97492C102.552 8.95583 102.826 9.12769 102.787 9.81514C102.728 11.3046 102.748 12.8132 102.787 14.3027C102.806 14.9137 102.611 15.1238 101.946 15.1238C100.128 15.0856 98.2905 15.1238 96.4725 15.0856C95.8665 15.0665 95.7101 15.2575 95.7101 15.8494C95.7101 17.6063 95.6905 17.6063 97.5281 17.5872C99.5416 17.5872 101.575 17.6254 103.588 17.5681C104.331 17.549 104.527 17.7781 104.507 18.4847C104.448 19.955 104.468 21.4063 104.507 22.8767C104.527 23.4305 104.409 23.6596 103.764 23.6596C98.6815 23.6406 93.5988 23.6406 88.5162 23.6596C87.7929 23.6596 87.7343 23.3541 87.7343 22.8003C87.7538 19.2103 87.7343 15.6203 87.7538 12.0303C87.7538 12.0303 87.7343 12.0303 87.7538 12.0303Z" fill="#F9F9F9"/>
<path d="M59.5647 48.5419C57.297 48.5419 55.0098 48.5228 52.7422 48.5228C52.3512 48.5228 51.9407 48.5992 51.7843 48.1027C51.8821 47.969 51.843 47.8544 51.7061 47.759C51.667 47.6062 51.6279 47.4725 51.5888 47.3198C51.667 46.8614 51.5302 46.4413 51.2761 46.0403C51.237 45.8876 51.1979 45.7539 51.1588 45.6011C51.2761 45.4293 51.2565 45.2765 51.0415 45.181C49.1257 44.8755 47.1904 45.0473 45.2746 45.0855C44.4536 45.1046 44.8055 46.0403 44.5709 46.5368C44.3558 46.5941 44.3168 46.7087 44.4731 46.8805C44.4145 47.0715 44.3754 47.2625 44.3168 47.4534C44.1213 47.6253 44.1017 47.8162 44.1799 48.0454C44.0626 48.4082 43.7889 48.4846 43.4175 48.4846C41.013 48.4655 38.6281 48.4655 36.2236 48.4464C36.2041 48.3318 36.1845 48.1982 36.165 48.0836C36.4582 47.2625 36.7319 46.4413 37.0251 45.6202C37.5725 44.4363 38.0025 43.2332 38.2567 41.9538C40.0747 36.6834 41.8927 31.432 43.6716 26.1424C43.9062 25.4168 44.2581 25.2258 44.9814 25.2449C46.9558 25.2831 48.9498 25.3022 50.9242 25.2449C51.6866 25.2258 52.058 25.4168 52.3121 26.1806C54.5407 32.7878 56.8083 39.3759 59.0564 45.9639C59.0955 46.5177 59.2323 47.0524 59.5842 47.4916C59.6624 47.759 59.7406 48.0263 59.8384 48.2936C59.7015 48.3318 59.6233 48.4082 59.5647 48.5419ZM47.64 34.029C47.4836 34.1245 47.4641 34.2391 47.5618 34.3728C47.3077 35.3848 47.0536 36.3969 46.7994 37.409C46.3889 39.0512 46.4085 39.0512 48.0896 39.0321C49.5753 39.0321 49.5753 39.0321 49.2039 37.619C49.3016 37.4854 49.2821 37.3708 49.1257 37.2753C49.0866 37.1417 49.0475 36.9889 49.0084 36.8552C49.1257 36.6834 49.0866 36.5497 48.9302 36.4351C48.6956 35.4612 48.4415 34.5064 48.2069 33.5325C48.246 33.2843 48.3242 32.9406 47.9919 32.9597C47.64 32.9788 47.6596 33.3225 47.7573 33.6089C47.7182 33.7617 47.6791 33.8954 47.64 34.029Z" fill="#F9F9F9"/>
<path d="M18.4539 36.9502C18.4539 33.3793 18.4735 29.8275 18.4344 26.2566C18.4344 25.4927 18.6689 25.3018 19.4313 25.3018C24.3771 25.3399 29.3425 25.3399 34.2883 25.3018C35.0311 25.3018 35.3439 25.4354 35.3048 26.2375C35.2266 27.6696 35.2462 29.1018 35.3048 30.534C35.3244 31.2215 35.0702 31.3933 34.4056 31.3742C32.0598 31.3361 29.7139 31.3742 27.3681 31.3361C26.6643 31.317 26.3907 31.4697 26.4297 32.2336C26.4884 33.8567 26.4493 33.8567 28.0718 33.8567C29.5966 33.8567 31.141 33.8758 32.6658 33.8376C33.3109 33.8185 33.5259 34.0286 33.5064 34.6587C33.4673 36.1482 33.4673 37.6568 33.5064 39.1463C33.5259 39.8337 33.2522 40.0056 32.5876 39.9865C30.8282 39.9483 29.0688 39.9865 27.3094 39.9483C26.6448 39.9292 26.3907 40.1201 26.4102 40.8076C26.4884 42.7745 26.1561 42.4498 28.1305 42.4498C30.2222 42.4689 32.2943 42.4689 34.386 42.4307C35.0507 42.4117 35.3244 42.5835 35.2853 43.271C35.2462 44.7604 35.2462 46.269 35.2853 47.7585C35.3048 48.3505 35.1093 48.5223 34.5033 48.5223C29.3816 48.5032 24.2794 48.5032 19.1577 48.5223C18.3953 48.5223 18.4344 48.1213 18.4344 47.6057C18.4539 44.073 18.4539 40.5021 18.4539 36.9502Z" fill="#F9F9F9"/>
<path d="M106.208 36.912C106.208 33.3411 106.227 29.7893 106.188 26.2184C106.188 25.5118 106.384 25.3018 107.127 25.3018C112.072 25.3399 117.018 25.3209 121.984 25.3018C122.726 25.3018 123.039 25.4354 123 26.2375C122.941 27.6696 122.941 29.1018 123 30.534C123.02 31.2406 122.765 31.3933 122.101 31.3742C119.755 31.3361 117.409 31.3742 115.063 31.3361C114.379 31.317 114.164 31.5079 114.184 32.1954C114.223 33.8376 114.184 33.8567 115.884 33.8567C117.39 33.8567 118.875 33.8758 120.381 33.8376C121.026 33.8185 121.299 33.9713 121.28 34.6778C121.221 36.1291 121.221 37.5995 121.28 39.0699C121.299 39.7573 121.123 40.0247 120.361 39.9865C118.602 39.9292 116.842 39.9865 115.083 39.9483C114.399 39.9292 114.184 40.1392 114.203 40.8076C114.223 42.4689 114.184 42.4689 115.904 42.4689C117.996 42.4689 120.068 42.488 122.159 42.4499C122.785 42.4499 123.039 42.6217 123.02 43.2519C122.98 44.7414 122.98 46.2499 123.02 47.7394C123.039 48.3887 122.785 48.5414 122.159 48.5414C117.116 48.5223 112.072 48.5223 107.009 48.5414C106.305 48.5414 106.227 48.255 106.227 47.6821C106.227 44.0921 106.208 40.5021 106.208 36.912Z" fill="#F9F9F9"/>
<path d="M63.494 9.31878C62.1842 8.36399 60.7767 7.81021 59.1738 7.81021C56.6911 7.81021 54.6971 9.83437 54.8144 12.2405C54.9317 14.6274 57.1016 16.4988 59.5647 16.2888C60.8158 16.1742 61.9888 15.8305 63.0053 15.0857C63.1421 14.9712 63.279 14.7611 63.494 14.8948C63.709 15.0094 63.6113 15.2385 63.6113 15.4104C63.6113 17.9119 63.6113 20.4326 63.6113 22.9341C63.6113 23.3733 63.5136 23.6216 63.0248 23.7362C55.3031 25.3975 49.3408 21.5401 47.3859 15.6586C44.8837 8.03936 50.8069 0.0381917 58.9587 0C60.2685 0 61.5587 0.114575 62.8489 0.305534C63.3767 0.381917 63.6308 0.572876 63.6113 1.16485C63.5722 3.76189 63.6113 6.37802 63.5917 8.97506C63.6113 9.07054 63.5526 9.14692 63.494 9.31878Z" fill="#F9F9F9"/>
<path d="M118.543 15.0857C118.543 17.6254 118.504 20.1652 118.562 22.7049C118.582 23.4878 118.308 23.6597 117.565 23.6406C115.552 23.6024 113.538 23.6024 111.505 23.6406C110.802 23.6597 110.547 23.4878 110.547 22.7431C110.587 17.6254 110.547 12.5077 110.587 7.39002C110.587 6.60709 110.372 6.39703 109.609 6.45432C108.729 6.51161 107.85 6.45432 106.97 6.47342C106.403 6.49251 106.13 6.37794 106.149 5.74777C106.188 4.20101 106.188 2.63515 106.149 1.06929C106.13 0.496411 106.384 0.381836 106.892 0.381836C111.994 0.400932 117.116 0.400932 122.218 0.381836C122.687 0.381836 122.941 0.496411 122.922 1.012C122.902 2.59696 122.902 4.18191 122.922 5.78597C122.922 6.28246 122.765 6.47342 122.257 6.45432C121.319 6.43523 120.361 6.49251 119.423 6.43523C118.699 6.39703 118.465 6.60709 118.484 7.33273C118.582 9.94887 118.543 12.5268 118.543 15.0857Z" fill="#F9F9F9"/>
<path d="M0.0195486 36.8936C0.0195486 33.3227 0.0390973 29.7709 0 26.1999C0 25.4934 0.175938 25.2833 0.918786 25.3024C2.97139 25.3597 5.024 25.3406 7.07661 25.3024C7.79991 25.2833 8.01494 25.5125 8.01494 26.219C7.97585 31.3176 8.01494 36.3971 7.97585 41.4957C7.97585 42.2978 8.21043 42.5078 9.01192 42.4887C11.3187 42.4314 13.645 42.4887 15.9517 42.4505C16.6554 42.4314 16.8509 42.6606 16.8314 43.3099C16.7923 44.7993 16.7923 46.3079 16.8314 47.7974C16.8509 48.3894 16.6359 48.5421 16.0494 48.5421C11.0059 48.523 5.96234 48.523 0.899238 48.5421C0.195486 48.5421 0.0195486 48.3321 0.0390973 47.6828C0.0390973 44.0928 0.0195486 40.5028 0.0195486 36.8936Z" fill="#F9F9F9"/>
<path d="M38.2762 42.0107C38.0025 43.2711 37.592 44.4932 37.0446 45.6771C37.2597 44.3977 37.5529 43.1374 38.2762 42.0107Z" fill="#33629B"/>
<path d="M76.1028 25.9132C75.3209 25.684 74.4999 25.5504 73.757 25.1685C74.6172 25.1876 75.4382 25.283 76.1028 25.9132Z" fill="#33629B"/>
<path d="M59.6038 47.5487C59.2519 47.0904 59.0955 46.5748 59.076 46.021C59.4279 46.4793 59.6038 46.9758 59.6038 47.5487Z" fill="#33629B"/>
<path d="M51.2761 46.0591C51.5302 46.441 51.667 46.8611 51.5888 47.3385C51.2565 46.9757 51.1783 46.5365 51.2761 46.0591Z" fill="#33629B"/>
<path d="M84.02 4.73596C84.02 4.46862 84.1569 4.27766 84.411 4.16309C84.4696 4.48772 84.2937 4.65958 84.02 4.73596Z" fill="#33629B"/>
<path d="M36.1649 48.1406C36.1845 48.2552 36.204 48.3889 36.2236 48.5035C36.1063 48.7135 36.0085 48.5798 35.989 48.4653C35.9694 48.3507 35.9108 48.1406 36.1649 48.1406Z" fill="#33629B"/>
<path d="M73.366 25.0921C73.1705 25.2449 73.0142 25.1685 72.8773 25.0158C73.0728 24.863 73.2292 24.8821 73.366 25.0921Z" fill="#33629B"/>
<path d="M44.1799 48.1027C44.0822 47.8736 44.1213 47.6826 44.3167 47.5107C44.434 47.7399 44.4731 47.9499 44.1799 48.1027Z" fill="#33629B"/>
<path d="M83.6291 5.30857C83.6095 5.11761 83.6877 5.00304 83.8636 4.96484C83.9027 5.1558 83.8441 5.28947 83.6291 5.30857Z" fill="#33629B"/>
<path d="M83.238 5.90042C83.1989 5.70946 83.2772 5.59489 83.4727 5.5376C83.5313 5.74765 83.4531 5.86223 83.238 5.90042Z" fill="#33629B"/>
<path d="M82.4562 7.02737C82.4171 6.83641 82.4953 6.72184 82.6907 6.66455C82.7494 6.87461 82.6712 7.00828 82.4562 7.02737Z" fill="#33629B"/>
<path d="M83.0817 17.9497C82.8667 17.9306 82.808 17.7969 82.8471 17.606C83.0817 17.606 83.1207 17.7587 83.0817 17.9497Z" fill="#33629B"/>
<path d="M81.9283 16.2314C81.7328 16.1932 81.6351 16.0787 81.6742 15.8877C81.8892 15.9068 81.9869 16.0214 81.9283 16.2314Z" fill="#33629B"/>
<path d="M79.3088 11.6104C79.2893 11.4194 79.3675 11.3048 79.563 11.2476C79.6216 11.4767 79.563 11.6104 79.3088 11.6104Z" fill="#33629B"/>
<path d="M80.3449 13.9399C80.1494 13.9017 80.0712 13.7872 80.0907 13.5962C80.3058 13.6344 80.4035 13.7299 80.3449 13.9399Z" fill="#33629B"/>
<path d="M85.4275 21.3872C85.2125 21.349 85.1343 21.2345 85.1734 21.0244C85.4275 21.0435 85.4862 21.1772 85.4275 21.3872Z" fill="#33629B"/>
<path d="M80.7359 14.5318C80.5208 14.4936 80.4817 14.3599 80.5013 14.1689C80.7359 14.188 80.7945 14.3217 80.7359 14.5318Z" fill="#33629B"/>
<path d="M80.0908 10.4643C80.0712 10.2734 80.169 10.1779 80.3449 10.1206C80.4036 10.3307 80.3254 10.4643 80.0908 10.4643Z" fill="#33629B"/>
<path d="M80.5013 9.89158C80.4622 9.70062 80.5404 9.58604 80.7359 9.54785C80.7945 9.73881 80.7359 9.87248 80.5013 9.89158Z" fill="#33629B"/>
<path d="M84.7824 20.4708C84.626 20.3944 84.5087 20.3181 84.5478 20.1271C84.8411 20.108 84.8411 20.2608 84.7824 20.4708Z" fill="#33629B"/>
<path d="M84.2546 19.6684C84.0591 19.6302 83.9809 19.5157 84.02 19.3247C84.2546 19.3438 84.3133 19.4584 84.2546 19.6684Z" fill="#33629B"/>
<path d="M51.0611 45.2192C51.2761 45.3147 51.2761 45.4484 51.1784 45.6393C51.0024 45.5248 50.9633 45.3911 51.0611 45.2192Z" fill="#33629B"/>
<path d="M44.4536 46.9189C44.2972 46.7471 44.3558 46.6325 44.5513 46.5752C44.6686 46.728 44.6491 46.8616 44.4536 46.9189Z" fill="#33629B"/>
<path d="M81.6546 8.17332C81.6155 7.98236 81.7133 7.86778 81.8892 7.82959C81.9674 8.03964 81.8892 8.15422 81.6546 8.17332Z" fill="#33629B"/>
<path d="M51.7062 47.7778C51.843 47.8733 51.8821 47.9688 51.7844 48.1216C51.5693 48.0452 51.5498 47.9306 51.7062 47.7778Z" fill="#33629B"/>
<path d="M79.563 12.794C79.3675 12.7367 79.2893 12.6221 79.3088 12.4312C79.5434 12.4693 79.6411 12.5839 79.563 12.794Z" fill="#33629B"/>
<path d="M59.5647 48.542C59.6038 48.4083 59.682 48.332 59.8384 48.351C59.9948 48.4847 59.8579 48.5611 59.7602 48.5993C59.7015 48.6566 59.6038 48.6757 59.5647 48.542Z" fill="#33629B"/>
<path d="M48.207 33.5321C48.0506 33.5512 47.9137 33.5894 47.7573 33.6085C47.6596 33.3221 47.64 32.9784 47.9919 32.9593C48.3047 32.9402 48.2461 33.2839 48.207 33.5321Z" fill="#33629B"/>
<path d="M47.64 34.0288C47.8159 34.1816 47.7377 34.2962 47.5618 34.3725C47.4641 34.2389 47.5032 34.1243 47.64 34.0288Z" fill="#33629B"/>
<path d="M49.2039 37.6186C49.0279 37.5422 48.9497 37.4277 49.1257 37.2749C49.2821 37.3704 49.3016 37.485 49.2039 37.6186Z" fill="#33629B"/>
<path d="M49.0084 36.8552C48.8325 36.7406 48.7739 36.6069 48.9302 36.4351C49.0866 36.5496 49.1257 36.6833 49.0084 36.8552Z" fill="#33629B"/>
</g>
<defs>
<clipPath id="clip0_249_3056">
<rect width="123" height="49" fill="white"/>
</clipPath>
</defs>
</svg>
