<svg width="79" height="83" viewBox="0 0 79 83" fill="none" xmlns="http://www.w3.org/2000/svg">
<g clip-path="url(#clip0_225:1735)">
<g clip-path="url(#clip1_225:1735)">
<path d="M5.42784 25.4512C10.313 25.4512 14.9268 25.4512 19.5406 25.4743C19.8573 25.4743 20.2418 25.7283 20.4679 25.9823C26.2352 32.7258 32.0024 39.4462 37.7244 46.2127C39.0814 47.8062 40.2801 49.5614 40.5063 51.7784C40.8455 55.3118 38.3351 58.545 34.8974 59.1223C34.3319 59.2147 33.7665 59.2609 33.2237 59.2609C22.3903 59.2609 11.557 59.2609 0.723578 59.2609C0.474794 59.2609 0.226011 59.2378 0.0224609 59.2147C2.96263 56.2355 5.88018 53.2795 8.84296 50.2773C10.9915 52.6098 13.8639 53.3026 17.098 53.1871C20.287 53.0717 23.4986 53.1871 26.6875 53.1409C27.2077 53.1409 27.7505 52.91 28.2707 52.7714C28.0219 52.2403 27.8862 51.6167 27.5243 51.201C22.6391 45.4737 17.7313 39.7464 12.8235 34.0422C10.4035 31.2478 8.00614 28.4534 5.42784 25.4512Z" fill="white"/>
<path d="M54.5061 25.5667C53.9181 27.5297 53.2622 29.4003 52.8325 31.3171C51.4981 37.0213 51.5885 42.6101 54.7549 47.7601C57.9891 53.0255 62.7838 55.6582 68.7772 56.097C70.3378 56.2125 71.8983 56.1201 73.7076 56.1201C72.2149 57.8984 70.4961 58.9607 68.551 59.5611C60.5674 62.0322 51.3398 60.6927 44.7809 52.0786C40.9587 47.0672 39.3529 41.5478 40.3254 35.3124C40.7778 32.3794 41.5015 29.4927 42.0895 26.5597C42.2479 25.7745 42.655 25.4512 43.5144 25.4743C46.9069 25.5205 50.2768 25.4974 53.6693 25.4974C53.9181 25.4974 54.1895 25.5436 54.5061 25.5667Z" fill="white"/>
<path d="M43.9439 17.7379C43.9439 17.2529 43.9439 16.7679 43.9439 16.306C43.8987 12.3569 43.876 8.40787 43.7856 4.43569C43.763 3.65049 44.0117 3.30408 44.7581 3.07314C47.7435 2.12629 50.6837 1.11015 53.6464 0.117104C53.9404 0.0247274 54.3023 -0.0445548 54.6189 0.0247274C59.6172 1.20252 64.6155 2.38032 69.8852 3.65049C69.4555 3.90453 69.2519 4.04309 69.0257 4.13547C64.5477 5.82133 61.2456 8.70809 59.8886 13.5347C59.7077 14.2045 59.3006 14.2968 58.7126 14.2968C56.089 14.2738 53.4429 14.3892 50.8194 14.2507C48.6482 14.1583 46.9293 14.9204 45.4818 16.4677C45.0521 16.9296 44.645 17.4145 44.2153 17.8764C44.1248 17.8302 44.0344 17.784 43.9439 17.7379Z" fill="white"/>
<path d="M44.125 82.863C44.125 73.5561 44.125 64.4108 44.125 55.1963C46.3188 57.6674 48.7388 59.8613 51.7694 61.1084C53.9406 61.9859 56.2701 62.4478 58.577 63.0021C59.2329 63.1637 59.4817 63.3254 59.4591 63.9951C59.4364 65.681 59.4591 67.3669 59.4364 69.0527C59.4364 69.3991 59.3007 69.8148 59.0972 70.092C55.2297 75.3343 50.3898 79.4681 44.8035 82.6782C44.6678 82.7706 44.5095 82.7706 44.125 82.863Z" fill="white"/>
<path d="M10.3357 3.58076C15.2662 2.42606 20.1966 1.24826 25.127 0.0935624C25.5115 0.00118618 25.9412 -0.0219079 26.3031 0.0935624C29.2206 1.06351 32.1382 2.07965 35.0784 3.02651C35.7795 3.25745 36.0283 3.62695 36.0056 4.34287C35.9604 7.2989 35.9604 10.2549 35.983 13.211C35.983 13.9962 35.7569 14.2964 34.9653 14.2733C30.3515 14.2502 25.7151 14.2733 21.1013 14.2271C20.762 14.2271 20.1966 13.9269 20.1287 13.6729C18.817 8.68455 15.4697 5.7747 10.9012 4.11193C10.6976 4.04264 10.5167 3.92717 10.3357 3.8117C10.3131 3.76552 10.3357 3.67314 10.3357 3.58076Z" fill="white"/>
<path d="M35.4177 83.0016C33.5632 81.7314 31.6408 80.5536 29.854 79.1911C26.6651 76.7893 23.838 73.9949 21.3502 70.831C20.7169 70.0227 20.355 69.2144 20.4003 68.129C20.4907 66.0967 20.4229 64.0645 20.4229 61.9167C20.8752 61.8936 21.2823 61.8705 21.6894 61.8705C25.2629 61.8705 28.8363 61.8705 32.3871 61.8705C32.8394 61.8705 33.2918 61.8705 33.7441 61.8474C35.7344 61.6858 35.7344 61.6627 35.7344 63.7873C35.7344 69.7687 35.7118 75.7501 35.7118 81.7314C35.7118 82.0778 35.7118 82.4242 35.7118 82.7476C35.6213 82.8399 35.5308 82.9323 35.4177 83.0016Z" fill="white"/>
<path d="M31.5276 25.659C31.7085 25.7514 31.618 25.7283 31.5728 25.6821C30.0575 23.2341 27.8184 22.9339 25.1723 23.0032C18.3647 23.1648 11.5571 23.0494 4.74945 23.0494C3.61862 23.0494 3.30198 22.703 3.41507 21.5252C3.52815 20.3935 4.0031 19.4929 4.88515 18.777C6.35523 17.5992 8.05148 16.9525 9.88343 16.9525C19.9931 16.9294 30.1027 16.9294 39.8731 16.9294C37.227 19.7238 34.3999 22.6568 31.5276 25.659Z" fill="white"/>
<path d="M70.496 25.4743C70.5638 25.5204 70.4508 25.4743 70.3829 25.405C68.664 23.2803 66.4476 22.9339 63.8693 23.0032C57.1069 23.1649 50.3445 23.0494 43.4238 23.0494C43.6274 22.703 43.7405 22.4489 43.8988 22.2411C44.419 21.5483 45.007 20.8785 45.5046 20.1626C47.2008 17.7608 49.3042 16.7216 52.4026 16.814C60.8839 17.0449 69.3878 16.9064 77.8916 16.9064C78.2987 16.9064 78.7058 16.9064 79.0225 16.9064C76.1954 19.7238 73.3909 22.5644 70.496 25.4743Z" fill="white"/>
<path d="M59.3458 49.492C56.8353 47.1133 55.4105 44.342 54.8677 41.1319C53.963 35.9358 55.1164 31.0167 57.0841 26.2593C57.4686 25.3587 58.2375 25.6589 58.8482 25.7282C59.0744 25.7513 59.4136 26.3517 59.4136 26.6981C59.4362 34.1113 59.4362 41.5014 59.4362 48.9146C59.4362 49.0301 59.4136 49.1456 59.3458 49.492Z" fill="white"/>
<path d="M35.8699 40.1159C31.731 35.2661 27.7505 30.6011 23.5664 25.7052C25.8281 25.7976 27.9088 24.9893 29.5824 27.1601C30.9621 28.9615 32.3869 28.846 33.9701 27.2525C34.5581 26.652 35.1009 26.0285 35.8699 25.2202C35.8699 30.3009 35.8699 35.0583 35.8699 40.1159Z" fill="white"/>
<path d="M23.5664 50.439C23.476 50.5544 23.4533 50.6006 23.4307 50.6006C20.4905 50.947 20.4905 50.947 20.4453 47.991C20.4453 47.6446 20.4453 47.2982 20.4453 46.8132C21.5309 48.0834 22.5487 49.2612 23.5664 50.439Z" fill="white"/>
</g>
</g>
<defs>
<clipPath id="clip0_225:1735">
<rect width="79" height="83" fill="white"/>
</clipPath>
<clipPath id="clip1_225:1735">
<rect width="79" height="83" fill="white" transform="translate(0 0.00146484)"/>
</clipPath>
</defs>
</svg>
