<svg width="218" height="68" viewBox="0 0 218 68" fill="none" xmlns="http://www.w3.org/2000/svg">
<g clip-path="url(#clip0_284_372)">
<path d="M29.5483 39.8057C29.5483 40.0613 29.5483 40.3092 29.5483 40.5648C29.5483 46.4206 29.5483 52.2764 29.5483 58.1321C29.5483 58.3645 29.5483 58.5969 29.5715 58.8293C29.6796 60.0686 30.3974 60.8741 31.6093 61.1297C31.7328 61.153 31.864 61.1685 31.9875 61.184C32.2268 61.2227 32.3812 61.3776 32.3349 61.6022C32.2963 61.7726 32.1805 61.974 32.0339 62.067C31.8718 62.1754 31.6479 62.1832 31.4395 62.2296C29.6024 62.6247 27.773 63.0275 25.9358 63.4147C25.7197 63.4612 25.4881 63.4767 25.2566 63.4999C25.0482 63.0507 25.1485 62.7409 25.519 62.5395C27.1863 61.6177 27.7035 60.1228 27.7035 58.318C27.6881 51.1997 27.7035 44.0736 27.6958 36.9553C27.6958 36.444 27.6572 35.9173 27.5568 35.4216C27.3716 34.4689 26.8313 33.7872 25.8895 33.4619C25.8201 33.4387 25.7429 33.4232 25.6657 33.4C25.3338 33.2993 25.2411 33.0514 25.2797 32.7338C25.3183 32.393 25.5653 32.3543 25.8432 32.3543C26.7927 32.3543 27.7498 32.3543 28.6993 32.3543C29.8339 32.3543 30.9609 32.3543 32.0956 32.3543C32.883 32.362 32.9447 32.393 33.1531 33.1753C33.817 35.6152 34.4654 38.0552 35.1369 40.4873C36.0246 43.7173 36.92 46.9473 37.8154 50.1773C37.854 50.3244 37.908 50.4716 38.0161 50.7969C38.1242 50.4484 38.1936 50.2547 38.2399 50.0533C39.5213 44.5848 40.7949 39.1086 42.0686 33.6323C42.4159 32.1451 42.4314 32.3543 43.6896 32.3543C45.6425 32.3465 47.6031 32.3543 49.556 32.3543C49.7335 32.3543 49.9188 32.362 50.0963 32.3543C50.3279 32.3543 50.544 32.4317 50.5054 32.6873C50.4823 32.85 50.3202 33.0514 50.1658 33.1134C49.9111 33.2218 49.6178 33.2295 49.3399 33.2993C48.4676 33.5239 48.2515 33.795 48.2515 34.7167C48.2515 42.1449 48.2515 49.5808 48.2515 57.009C48.2515 57.923 48.4599 58.1089 49.3708 58.2173C49.996 58.2948 50.5286 58.1476 51.0535 57.8223C52.0956 57.1639 52.8134 56.2499 53.1917 55.0726C54.1797 52.0052 55.16 48.9379 56.1558 45.8706C57.5915 41.4865 59.035 37.1024 60.4861 32.7261C60.6405 32.2613 60.7254 31.6959 61.397 31.6494C61.5591 32.2303 61.6208 43.7405 61.4278 45.3284C60.8489 44.1201 60.4938 42.8188 59.9381 41.564C58.9578 44.2595 58.0932 46.9783 57.1901 49.8132C58.649 49.7203 60.023 49.6273 61.4587 49.5344C61.4587 50.0378 61.4587 50.5103 61.4587 51.068C59.884 51.1919 58.3094 51.3159 56.6652 51.4476C56.2484 52.7876 55.8084 54.1043 55.4302 55.4366C55.2449 56.1028 55.4842 56.6295 56.1017 56.9238C56.6035 57.1639 57.167 57.2801 57.7073 57.435C57.9311 57.497 58.1704 57.497 58.3788 57.5822C58.4946 57.6287 58.6336 57.8146 58.6181 57.9153C58.595 58.0624 58.4715 58.2251 58.3402 58.3025C58.2245 58.3723 58.0392 58.349 57.8848 58.3645C55.0905 58.6201 52.2963 58.837 49.5174 59.1546C47.1168 59.4257 44.7316 59.813 42.3387 60.1538C41.9374 60.208 41.536 60.2545 41.1423 60.3087C40.9802 59.6348 40.9879 59.5961 41.4356 59.4102C41.7212 59.294 42.0145 59.2011 42.3001 59.0771C42.8482 58.837 43.1415 58.4187 43.1415 57.8068C43.1415 57.6519 43.1492 57.497 43.1492 57.3421C43.1492 51.1765 43.1492 45.0108 43.1492 38.8452C43.1492 38.6206 43.1492 38.3882 43.1492 38.0939C42.7556 38.2565 42.7942 38.5819 42.7401 38.8142C42.0531 41.6724 41.3816 44.5306 40.7177 47.3965C39.7837 51.4398 38.8575 55.4831 37.9312 59.5264C37.9003 59.6503 37.8772 59.782 37.8463 59.9059C37.6147 60.7502 37.2905 61.0136 36.4414 61.0833C36.0632 61.1143 35.7776 60.9826 35.6386 60.6263C35.4997 60.27 35.3839 59.8982 35.2836 59.5264C33.5159 53.1439 31.756 46.7614 29.9883 40.3711C29.9343 40.162 29.8494 39.9606 29.7799 39.7592C29.695 39.7747 29.6255 39.7902 29.5483 39.8057Z" fill="white"/>
<path d="M184.793 58.1633C184.739 56.8 184.677 55.429 184.623 54.0658C184.615 53.9109 184.6 53.756 184.615 53.601C184.646 53.2835 184.878 53.1285 185.14 53.144C185.287 53.1518 185.48 53.3454 185.549 53.5003C185.673 53.7792 185.719 54.0968 185.812 54.3911C186.931 57.9851 188.984 60.8975 192.049 63.0818C193.87 64.3754 195.862 64.9408 198.093 64.5845C200.671 64.174 202.014 62.2143 201.466 59.6582C201.227 58.5506 200.686 57.5901 199.992 56.7071C198.587 54.9333 196.765 53.7017 194.804 52.6406C193.268 51.804 191.748 50.9442 190.258 50.0303C189.154 49.3564 188.189 48.5043 187.325 47.5284C185.032 44.9413 184.453 41.8895 185.032 38.5665C185.48 36.0104 186.923 34.1515 189.2 32.9431C190.212 32.4087 191.292 32.0911 192.412 31.8742C194.279 31.5257 196.155 31.5566 198.023 31.789C199.505 31.9749 200.964 32.2925 202.446 32.4551C203.303 32.5481 204.191 32.4706 205.055 32.4009C205.758 32.3467 205.85 32.3777 205.927 33.098C206.213 35.8168 206.506 38.5356 206.8 41.2543C206.807 41.3318 206.815 41.4092 206.823 41.4867C206.846 41.7888 206.815 42.0521 206.437 42.1218C206.082 42.1915 205.92 42.0211 205.804 41.7191C205.619 41.2388 205.464 40.7353 205.217 40.2938C203.311 36.8935 200.455 34.7092 196.688 33.8106C195.121 33.4389 193.5 33.617 191.987 34.2212C189.579 35.1739 188.845 37.9314 190.482 39.9453C190.929 40.4952 191.501 40.9677 192.08 41.386C193.446 42.362 194.982 43.0436 196.549 43.64C198.741 44.4765 200.871 45.437 202.786 46.8235C204.909 48.3649 206.638 50.2471 207.672 52.687C208.853 55.4755 209.162 58.3647 208.421 61.3158C207.687 64.236 205.773 66.0097 202.94 66.854C201.01 67.4272 199.027 67.4504 197.051 67.28C193.662 66.978 190.443 66.0097 187.348 64.6232C186.692 64.3289 186.082 63.9416 185.457 63.5853C184.94 63.291 184.723 62.865 184.747 62.2453C184.785 60.882 184.762 59.511 184.762 58.14C184.747 58.1633 184.77 58.1633 184.793 58.1633Z" fill="white"/>
<path d="M0 55.5683C0.632958 54.9486 0.810495 54.9641 1.17329 55.6922C2.39289 58.1089 3.94441 60.2777 5.99766 62.0592C7.53374 63.3837 9.22421 64.4836 11.2389 64.8942C13.5777 65.3667 15.7082 64.7857 17.499 63.2366C19.3978 61.5945 19.6217 58.8835 18.1397 56.7921C17.3369 55.6535 16.2794 54.786 15.0366 54.174C13.956 53.6473 12.8213 53.2058 11.6943 52.7798C9.9112 52.1059 8.15898 51.3701 6.55343 50.3089C4.19914 48.752 2.65534 46.6452 2.30798 43.7947C1.94519 40.7429 2.38517 37.8615 4.44614 35.4293C6.02854 33.5626 8.12039 32.5711 10.467 32.0521C13.1841 31.4557 15.8934 31.6726 18.5796 32.2613C19.8224 32.5324 21.0497 32.7647 22.3156 32.4394C22.7093 32.3387 22.8868 32.5401 22.9409 32.9119C23.0875 33.9576 23.2342 35.0033 23.404 36.049C23.6279 37.42 23.8749 38.791 24.1142 40.162C24.1682 40.464 24.2299 40.7739 24.2685 41.076C24.3071 41.3316 24.2299 41.533 23.9521 41.6182C23.6587 41.7111 23.5198 41.5562 23.4194 41.3161C23.3423 41.1224 23.2805 40.9288 23.1879 40.7429C21.7058 37.5439 19.3593 35.2589 16.0169 34.128C13.956 33.4309 11.8873 33.7175 9.93435 34.647C7.48743 35.8088 6.93166 39.2247 9.05439 41.0605C9.94207 41.8273 10.9378 42.416 12.0185 42.842C13.1918 43.3067 14.3805 43.7095 15.5847 44.0968C17.0358 44.5615 18.4484 45.1037 19.7684 45.8706C23.8054 48.2253 25.5345 51.8038 25.3338 56.4048C25.272 57.7758 25.0173 59.1158 24.4847 60.3939C23.4503 62.8725 21.6364 64.5843 19.2821 65.7694C17.2057 66.8151 14.9826 67.3186 12.6978 67.5974C10.6831 67.8453 8.66072 68.0235 6.61518 67.9692C5.47277 67.9383 4.36895 67.7833 3.28829 67.3806C2.6399 67.1404 2.30798 66.7377 2.17676 66.0483C1.6673 63.2598 1.11926 60.4791 0.555768 57.6984C0.447702 57.0167 0.208413 56.3274 0 55.5683Z" fill="white"/>
<path d="M144.608 45.3589C144.608 45.6997 144.608 45.9243 144.608 46.1567C144.608 49.1775 144.608 52.1906 144.608 55.2115C144.608 56.4663 144.801 56.6987 146.043 56.993C146.221 57.0317 146.391 57.0705 146.568 57.1092C146.977 57.2021 147.031 57.45 146.862 57.8605C146.591 57.8605 146.314 57.876 146.043 57.8605C143.018 57.6746 139.984 57.481 136.958 57.2874C136.68 57.2719 136.256 57.3958 136.248 56.9156C136.233 56.3966 136.68 56.5283 136.989 56.4818C137.321 56.4276 137.653 56.4043 137.977 56.3269C138.479 56.2107 138.656 55.9783 138.71 55.4671C138.734 55.2657 138.726 55.0566 138.726 54.8474C138.726 48.1938 138.726 41.5325 138.726 34.8789C138.726 33.5776 138.564 33.384 137.275 33.1671C137.051 33.1283 136.811 33.1128 136.588 33.0741C136.364 33.0276 136.179 32.8805 136.248 32.6481C136.294 32.4854 136.456 32.315 136.619 32.2453C136.765 32.1756 136.974 32.2143 137.151 32.2143C140.679 32.2143 144.199 32.2143 147.726 32.2143C149.046 32.2143 150.343 32.3383 151.601 32.7875C154.172 33.7015 155.576 35.6922 155.584 38.4264C155.584 39.4411 155.499 40.4326 155.183 41.4008C154.704 42.888 153.755 43.9414 152.296 44.5223C152.126 44.5921 151.964 44.6618 151.802 44.7392C151.779 44.747 151.771 44.778 151.717 44.8477C151.887 45.235 152.057 45.6687 152.257 46.0792C154.017 49.6423 156.055 53.0504 158.139 56.4276C158.409 56.8613 158.749 57.2564 159.089 57.6437C159.559 58.1704 160.108 58.5886 160.849 58.6738C160.972 58.6893 161.08 58.8288 161.196 58.914C161.096 59.0456 161.018 59.2238 160.887 59.3012C160.74 59.3865 160.54 59.3942 160.362 59.4019C158.517 59.4794 156.711 59.2935 154.982 58.6274C153.315 57.9845 152.003 56.931 151.161 55.3199C149.679 52.4927 148.166 49.6733 146.684 46.8461C146.252 46.0328 145.719 45.4209 144.608 45.3589ZM144.646 33.5698C144.631 33.8719 144.608 34.0501 144.608 34.2282C144.608 36.8308 144.608 39.4334 144.608 42.036C144.608 42.1909 144.608 42.3458 144.623 42.5007C144.685 42.9732 144.924 43.345 145.38 43.4844C146.862 43.9492 148.158 43.7865 149.038 42.4C149.239 42.0747 149.409 41.7184 149.54 41.3621C149.98 40.1305 150.111 38.8447 149.942 37.5512C149.857 36.9005 149.664 36.2344 149.386 35.638C148.892 34.5536 148.074 33.7635 146.854 33.5931C146.159 33.4846 145.434 33.5698 144.646 33.5698Z" fill="white"/>
<path d="M131.694 44.1045C131.841 44.1433 131.987 44.1975 132.134 44.2285C134.272 44.608 136.395 46.5754 136.842 49.3794C137.035 50.611 136.958 51.8503 136.611 53.0586C136.117 54.7859 135.005 55.9013 133.315 56.459C132.172 56.8386 130.991 56.9315 129.81 56.8773C125.982 56.7224 122.153 56.5442 118.325 56.3661C118.047 56.3506 117.622 56.4745 117.614 56.0098C117.607 55.5683 118.008 55.6225 118.301 55.576C118.379 55.5605 118.456 55.5683 118.533 55.5528C119.737 55.3979 119.899 55.2042 119.899 53.9726C119.899 47.5437 119.899 41.1224 119.899 34.6934C119.899 34.5153 119.899 34.3294 119.899 34.1512C119.899 33.671 119.652 33.3689 119.205 33.2527C118.811 33.1443 118.402 33.0746 118 32.9971C117.746 32.9506 117.545 32.8654 117.568 32.5634C117.599 32.2535 117.838 32.2303 118.078 32.2148C118.155 32.2148 118.232 32.2148 118.309 32.2148C121.76 32.2148 125.202 32.1916 128.653 32.238C129.54 32.2458 130.459 32.3697 131.316 32.5943C133.917 33.2837 135.353 35.0497 135.584 37.7375C135.685 38.8839 135.523 40.007 135.083 41.0759C134.45 42.6251 133.392 43.7018 131.694 44.1045ZM125.503 44.7939C125.48 44.8559 125.441 44.9256 125.441 44.9953C125.434 47.9619 125.434 50.9285 125.434 53.8952C125.434 54.2747 125.611 54.5381 125.897 54.7317C127.502 55.8006 130.389 55.8471 131.184 53.0122C131.57 51.6179 131.624 50.2082 131.347 48.7985C130.783 46.0022 128.375 44.3601 125.503 44.7939ZM125.457 33.5626C125.457 36.7848 125.457 39.976 125.457 43.1596C125.557 43.206 125.627 43.2525 125.696 43.2602C126.128 43.3067 126.568 43.3377 127.001 43.3764C128.367 43.4926 129.162 43.1053 129.71 41.8428C130.559 39.8831 130.714 37.846 129.919 35.8243C129.147 33.8646 127.641 33.1133 125.457 33.5626Z" fill="white"/>
<path d="M103.496 44.7709C101.497 44.7709 99.6291 44.7709 97.7148 44.7709C97.6994 45.042 97.6762 45.2666 97.6762 45.4912C97.6762 48.2797 97.6685 51.0604 97.6685 53.8489C97.6685 54.8946 97.8383 55.1037 98.8495 55.3128C99.0502 55.3516 99.2741 55.3438 99.4516 55.429C99.606 55.5065 99.7989 55.6614 99.8375 55.8086C99.8993 56.0642 99.6677 56.1416 99.4439 56.1571C99.2895 56.1649 99.1351 56.1649 98.9807 56.1649C96.2559 56.1959 93.5311 56.2346 90.8063 56.2578C90.5516 56.2578 90.1811 56.3973 90.1039 55.9945C90.0113 55.5297 90.4204 55.5452 90.706 55.4755C91.0302 55.3903 91.3621 55.3438 91.6863 55.2586C92.1571 55.1269 92.4273 54.8171 92.4196 54.3059C92.4196 54.0503 92.4273 53.7869 92.4273 53.5313C92.435 47.265 92.4427 40.9909 92.4427 34.7246C92.4427 33.4388 92.327 33.2994 91.0456 33.0748C90.8681 33.0438 90.6674 33.0515 90.5207 32.9741C90.3663 32.8889 90.1656 32.7339 90.1425 32.5868C90.0962 32.2847 90.3586 32.2227 90.6056 32.2227C90.7369 32.2227 90.8604 32.2227 90.9916 32.2227C93.6701 32.2227 96.3408 32.2227 99.0193 32.2227C99.1969 32.2227 99.3898 32.1995 99.5519 32.2537C99.6754 32.2924 99.8453 32.4396 99.8375 32.5326C99.8298 32.6797 99.7218 32.8889 99.5983 32.9431C99.3667 33.0438 99.0965 33.0515 98.8495 33.1057C97.8846 33.3071 97.6839 33.5318 97.6839 34.5077C97.6762 37.1645 97.6839 39.8213 97.6839 42.4781C97.6839 42.633 97.6994 42.7802 97.7071 42.9274C98.2551 43.09 102.4 43.1365 103.458 42.9971C103.473 42.7879 103.504 42.5633 103.504 42.3387C103.504 39.7361 103.504 37.1258 103.496 34.5232C103.496 33.5395 103.296 33.3071 102.346 33.1135C102.146 33.0748 101.945 33.036 101.736 33.005C101.474 32.9663 101.289 32.8424 101.32 32.5558C101.343 32.3002 101.543 32.2382 101.767 32.2382C101.899 32.2382 102.022 32.2382 102.153 32.2382C104.832 32.2382 107.502 32.2382 110.181 32.2382C110.359 32.2382 110.559 32.1995 110.714 32.2615C110.853 32.3157 111.046 32.4706 111.053 32.5868C111.061 32.7107 110.907 32.9276 110.775 32.9663C110.49 33.067 110.173 33.0825 109.872 33.1367C108.954 33.3149 108.753 33.5395 108.753 34.4845C108.753 38.6904 108.768 42.8964 108.776 47.0946C108.776 49.3641 108.776 51.6336 108.784 53.9031C108.784 55.0263 108.931 55.2044 110.065 55.4445C110.266 55.491 110.467 55.5375 110.667 55.5685C110.922 55.6072 111.123 55.7001 111.123 55.9945C111.115 56.3198 110.876 56.343 110.629 56.3353C110.374 56.3353 110.112 56.3275 109.857 56.3198C107.34 56.2733 104.816 56.2268 102.3 56.1804C102.122 56.1804 101.937 56.1726 101.76 56.1726C101.528 56.1726 101.312 56.0797 101.358 55.8318C101.389 55.6769 101.582 55.5065 101.736 55.4445C101.968 55.3516 102.238 55.3516 102.493 55.2974C103.35 55.1037 103.535 54.8713 103.535 53.9573C103.535 51.5097 103.527 49.0543 103.527 46.6066C103.496 46.0024 103.496 45.4215 103.496 44.7709Z" fill="white"/>
<path d="M143.38 14.7946C143.38 16.9402 143.38 19.0393 143.38 21.1229C142.755 21.3011 138.386 21.3398 137.313 21.1849C137.313 20.8983 137.313 20.6039 137.313 20.3019C137.313 15.1974 137.313 10.0852 137.306 4.98076C137.306 4.62445 137.29 4.25265 137.213 3.91184C137.089 3.35415 136.796 3.14501 136.233 3.11403C136.078 3.10628 135.924 3.12177 135.769 3.12177C135.468 3.12952 135.183 3.10628 135.167 2.7035C135.152 2.35494 135.399 2.28523 135.669 2.25425C136.611 2.13032 137.553 1.99864 138.494 1.87471C141.173 1.53389 143.851 1.17759 146.53 0.860012C148.174 0.658623 149.81 0.619894 151.431 1.06915C153.701 1.69655 154.997 3.20698 155.407 5.50747C155.654 6.89396 155.607 8.28819 155.353 9.66694C154.997 11.5646 153.986 13.0363 152.365 14.082C152.219 14.1827 152.064 14.2834 151.864 14.4151C152.628 16.7078 153.654 18.8999 154.619 21.1926C154.411 21.2314 154.249 21.2856 154.087 21.2856C152.388 21.2933 150.69 21.2701 148.992 21.3011C148.521 21.3088 148.313 21.1152 148.158 20.7046C147.61 19.2872 147.039 17.8774 146.453 16.4755C145.904 15.1432 144.94 14.6087 143.38 14.7946ZM143.373 7.42067C143.373 8.76069 143.373 10.1007 143.373 11.4485C143.373 12.4399 143.72 12.8427 144.693 13.0209C146.414 13.3384 147.873 12.6645 148.706 11.1076C149.548 9.53526 149.779 7.83119 149.556 6.08065C149.309 4.14421 148.189 2.8894 146.329 2.50986C145.642 2.37044 144.901 2.38593 144.191 2.44015C143.373 2.50211 143.373 2.54859 143.373 3.40062C143.373 4.73289 143.373 6.08065 143.373 7.42067Z" fill="white"/>
<path d="M88.5215 32.6563C88.591 32.9429 88.6527 33.1675 88.6913 33.3921C88.9847 35.3053 89.278 37.2108 89.5713 39.124C89.5867 39.2247 89.6022 39.3254 89.6176 39.4261C89.6485 39.6585 89.5867 39.8753 89.3397 39.8831C89.2085 39.8831 89.031 39.7437 88.9383 39.6197C88.8303 39.4803 88.7994 39.2867 88.7222 39.124C87.7573 36.9939 86.283 35.3208 84.2683 34.1357C82.4312 33.0668 80.5092 33.1443 78.618 33.8801C76.8581 34.5618 76.3409 36.6299 77.5451 38.0938C77.9773 38.6205 78.5331 39.1008 79.1275 39.4183C80.2313 40.0148 81.3891 40.526 82.5624 40.9752C84.1989 41.6026 85.8044 42.292 87.2016 43.3764C89.9727 45.5375 90.8372 48.5196 90.0499 51.7806C89.4787 54.1353 87.8577 55.5605 85.65 56.3738C84.114 56.947 82.5084 57.1484 80.8797 57.1794C78.51 57.2258 76.2329 56.7921 74.0175 55.9478C73.3614 55.6999 73.0681 55.3126 72.9677 54.6C72.713 52.8185 72.3656 51.0447 72.0569 49.2709C72.026 49.0928 71.9334 48.9146 71.9488 48.7442C71.9642 48.5971 72.0492 48.3957 72.1727 48.3182C72.3734 48.1943 72.5663 48.2795 72.6744 48.5119C72.7825 48.7442 72.8905 48.9844 73.0063 49.209C74.1642 51.4862 75.7697 53.353 78.0005 54.6542C79.5366 55.545 81.1421 55.7464 82.8249 55.2197C84.0136 54.8479 84.9245 54.1663 85.2409 52.8572C85.4185 52.1059 85.3104 51.3933 84.9167 50.7736C84.5385 50.1695 84.0754 49.604 83.5505 49.116C82.6782 48.3027 81.6053 47.776 80.5092 47.319C78.8187 46.6219 77.1823 45.8318 75.7157 44.7009C72.4505 42.2146 72.4814 38.0396 73.5621 35.6152C74.4652 33.5935 76.1402 32.5324 78.2244 32.0366C80.1618 31.5796 82.107 31.6803 84.0368 32.1063C84.415 32.1916 84.801 32.2535 85.1637 32.3697C86.1055 32.6873 87.0703 32.7802 88.0584 32.6486C88.1664 32.6408 88.2977 32.6563 88.5215 32.6563Z" fill="white"/>
<path d="M105.99 17.1492C105.99 18.5512 105.99 19.8525 105.99 21.2157C103.983 21.2157 102.037 21.2157 99.9919 21.2157C99.9919 20.8904 99.9919 20.5883 99.9919 20.294C99.9919 15.5226 99.9919 10.7589 99.9919 5.98755C99.9919 5.75518 99.9997 5.52281 99.9842 5.29043C99.9379 4.48488 99.5365 4.01238 98.7337 3.84972C98.4327 3.78776 98.1239 3.76452 97.8152 3.73354C97.5296 3.7103 97.3983 3.56313 97.3983 3.28428C97.4061 3.00543 97.5604 2.86601 97.8383 2.85052C98.0159 2.84277 98.2011 2.84277 98.3787 2.84277C101.567 2.84277 104.755 2.84277 107.943 2.84277C109.471 2.84277 110.968 2.99769 112.404 3.55538C114.21 4.26025 115.615 5.39113 116.294 7.2656C117.8 11.3941 115.121 16.3281 110.845 17.3196C109.386 17.6604 107.942 17.6062 106.491 17.2576C106.376 17.2421 106.252 17.2112 105.99 17.1492ZM105.997 4.11308C105.997 4.37643 105.997 4.65528 105.997 4.93413C105.997 8.05567 105.997 11.1772 105.997 14.2988C105.997 15.3599 106.044 15.4141 107.101 15.5148C107.302 15.5303 107.51 15.5303 107.711 15.4993C108.931 15.3057 109.803 14.6008 110.274 13.4932C111.231 11.2392 111.316 8.9232 110.436 6.63045C109.772 4.90315 107.989 3.93493 105.997 4.11308Z" fill="white"/>
<path d="M169.208 48.8755C169.208 43.6549 169.208 38.4807 169.208 33.1981C173.199 32.7876 176.719 33.841 179.652 36.5598C183.234 39.875 184.5 44.0189 183.766 48.8755C178.88 48.8755 174.063 48.8755 169.208 48.8755Z" fill="white"/>
<path d="M124.114 3.87281C124.114 7.14927 124.114 10.294 124.114 13.493C125.125 13.5163 126.082 13.4233 127.008 13.1135C127.556 12.9276 127.927 12.4706 128.251 11.9904C128.861 11.0764 129.208 10.0539 129.486 9.0005C129.579 8.6442 129.695 8.34211 130.235 8.58223C130.235 8.80686 130.235 9.06247 130.235 9.31033C130.235 12.2537 130.235 15.1894 130.235 18.1328C130.235 18.2877 130.266 18.4503 130.219 18.5975C130.181 18.7214 130.073 18.8918 129.972 18.9073C129.857 18.9306 129.671 18.8376 129.594 18.7369C129.494 18.5975 129.494 18.3961 129.424 18.2257C129.108 17.4666 128.838 16.6843 128.452 15.9639C127.981 15.0887 127.209 14.6007 126.198 14.562C125.534 14.5387 124.87 14.5542 124.091 14.5542C124.067 16.7772 124.091 18.9616 124.075 21.2001C122.099 21.2001 120.193 21.2001 118.162 21.2001C118.162 20.898 118.162 20.6037 118.162 20.3016C118.162 15.4992 118.162 10.7046 118.162 5.9022C118.162 5.69306 118.17 5.49167 118.162 5.28254C118.116 4.40727 117.722 3.95801 116.866 3.82633C116.534 3.77986 116.202 3.76437 115.87 3.73339C115.607 3.71015 115.43 3.59396 115.422 3.30737C115.407 2.98205 115.592 2.82713 115.893 2.81939C116.688 2.7884 117.491 2.78066 118.286 2.74967C122.686 2.61025 127.078 2.45533 131.478 2.3314C133.199 2.28493 133.045 2.10678 133.222 3.83408C133.377 5.29803 133.562 6.75423 133.732 8.21043C133.747 8.36535 133.809 8.53576 133.762 8.66743C133.724 8.78362 133.585 8.90755 133.461 8.94628C133.392 8.96952 133.238 8.85333 133.176 8.76813C133.091 8.6442 133.068 8.48154 133.006 8.34211C132.666 7.59077 132.334 6.83944 131.979 6.09584C131.331 4.72484 130.158 4.01998 128.745 3.89605C127.232 3.77211 125.712 3.87281 124.114 3.87281Z" fill="white"/>
<path d="M62.2306 49.5729C62.3695 49.5186 62.5162 49.4644 62.6551 49.4025C62.6783 49.3947 62.686 49.3637 62.7014 49.3405C62.7014 49.294 62.7169 49.232 62.7014 49.1933C62.1688 48.0624 62.1611 46.8618 62.1611 45.6458C62.1843 41.3159 62.1688 36.9783 62.1688 32.6484C62.1688 32.3773 62.1688 32.1062 62.1688 31.7344C62.6474 31.959 62.7246 32.3231 62.8481 32.6406C64.1449 36.01 65.4185 39.3794 66.723 42.7488C68.2514 46.6837 69.8261 50.6108 71.3467 54.5534C71.7249 55.5371 72.3811 56.0483 73.3691 56.2265C73.6007 56.2652 73.8322 56.2807 74.0484 56.3582C74.1641 56.4046 74.3262 56.5673 74.3108 56.6602C74.2954 56.8074 74.1719 56.9701 74.0484 57.063C73.9635 57.1327 73.8014 57.1095 73.6779 57.1172C70.3201 57.3574 66.9546 57.5975 63.5968 57.8376C63.3421 57.8531 63.0411 57.9305 62.987 57.5665C62.933 57.2489 63.1877 57.1172 63.4425 57.0398C63.8361 56.9236 64.2452 56.8461 64.6235 56.6912C65.0557 56.5208 65.1561 56.3194 65.0171 55.9089C64.4614 54.2745 63.8902 52.6557 63.319 51.0136C62.9407 51.0136 62.6165 51.0136 62.2306 51.0136C62.2306 50.5411 62.2306 50.0918 62.2306 49.5729Z" fill="white"/>
<path d="M75.3838 2.30059C75.623 2.2851 75.87 2.26186 76.1171 2.2696C79.251 2.36255 82.3849 2.4555 85.5265 2.5562C85.7041 2.56394 85.9202 2.53296 86.0514 2.61816C86.1904 2.71111 86.3216 2.9125 86.337 3.07516C86.3447 3.17586 86.1363 3.35401 85.9974 3.39274C85.7041 3.46245 85.3799 3.43921 85.0866 3.50118C84.2452 3.67933 83.9055 4.07437 83.8438 4.9264C83.8283 5.15877 83.8361 5.39114 83.8361 5.62352C83.8361 9.44217 83.8438 13.2608 83.8283 17.0717C83.8206 18.4737 83.9287 19.8525 84.5848 21.208C82.4389 21.208 80.3934 21.208 78.317 21.208C78.0314 20.5186 77.9465 19.806 77.9156 19.0934C77.877 18.2181 77.8693 17.3428 77.8693 16.4676C77.8616 12.8271 77.8693 9.19431 77.8693 5.5538C77.8693 5.32143 77.877 5.08906 77.8616 4.85669C77.8152 3.87298 77.437 3.42372 76.4644 3.19135C76.2637 3.14488 76.063 3.12164 75.8546 3.09065C75.2757 3.02869 75.268 3.02869 75.3838 2.30059Z" fill="white"/>
<path d="M61.9836 7.05664C63.8053 8.84591 66.0129 9.71344 68.1819 10.6507C69.9727 11.4252 71.5629 12.5019 72.8133 14.0356C74.2877 15.8403 74.9901 17.9239 74.9592 20.2554C74.9592 20.4645 74.9361 20.6659 74.9129 20.8751C74.8975 20.9758 74.8589 21.0687 74.8126 21.2236C73.3614 21.2236 71.9102 21.2236 70.4127 21.2236C69.8338 19.0858 68.1819 17.9084 66.3911 16.8938C65.2719 16.2586 64.1449 15.6389 62.9793 15.0967C61.9913 14.6397 61.6131 14.0201 61.7366 12.8815C61.9141 11.2471 61.8523 9.5895 61.9064 7.93966C61.9141 7.6763 61.945 7.42844 61.9836 7.05664Z" fill="white"/>
<path d="M169.2 59.4102C169.2 56.7921 169.2 54.2205 169.2 51.5947C173.747 51.5947 178.263 51.5947 182.778 51.5947C181.165 56.4668 174.936 60.4172 169.2 59.4102Z" fill="white"/>
<path d="M133.068 21.7116C133.477 21.7116 133.832 21.7116 134.287 21.7116C134.017 23.5008 133.747 25.2436 133.477 27.0407C133.207 27.0639 132.983 27.0949 132.759 27.0949C127.255 27.0949 121.744 27.0949 116.24 27.0949C116.063 27.0949 115.854 27.1259 115.708 27.0561C115.577 26.9942 115.445 26.8005 115.438 26.6611C115.438 26.5217 115.569 26.3048 115.692 26.2661C115.932 26.1809 116.202 26.2041 116.456 26.1731C117.722 26.026 118.162 25.538 118.162 24.2599C118.17 23.4853 118.17 22.7108 118.178 21.9362C118.178 21.8897 118.209 21.8355 118.255 21.6806C120.131 21.6651 122.045 21.6728 124.044 21.6728C124.06 22.0291 124.067 22.3235 124.083 22.6256C124.106 23.2917 124.114 23.9656 124.16 24.6317C124.199 25.1972 124.546 25.5147 125.086 25.6154C125.364 25.6697 125.65 25.7006 125.928 25.7006C126.646 25.7084 127.371 25.6774 128.089 25.6851C129.031 25.7006 129.849 25.3598 130.582 24.7944C131.385 24.167 132.041 23.4156 132.558 22.5404C132.72 22.277 132.883 22.0136 133.068 21.7116Z" fill="white"/>
<path d="M78.5563 21.6727C78.811 21.6727 79.0657 21.6727 79.3127 21.6727C80.9028 21.6727 82.5007 21.6882 84.0908 21.665C84.5848 21.6572 84.9322 21.7657 85.2795 22.1762C86.6767 23.857 88.7917 23.7486 90.1271 23.1289C90.6134 22.9043 90.9839 22.4241 91.4161 22.06C91.586 21.9206 91.7558 21.696 91.9333 21.6882C92.5971 21.6417 93.261 21.6727 93.9788 21.6727C93.9402 21.9128 93.9325 22.0987 93.8785 22.2614C93.1297 24.7013 91.5628 26.2969 89.0387 26.8391C86.831 27.3194 84.6466 27.2187 82.5393 26.3124C80.733 25.5379 79.4671 24.1978 78.6875 22.4008C78.6257 22.2614 78.5717 22.1142 78.5331 21.9671C78.51 21.9051 78.5408 21.8199 78.5563 21.6727Z" fill="white"/>
<path d="M61.4896 14.1205C58.456 12.0911 56.4954 9.58146 56.4722 5.89448C56.4491 2.92011 58.5564 0.54991 61.5436 0.278809C61.4201 1.41743 61.7597 2.54832 61.2503 3.6792C60.9106 4.43053 61.011 5.23609 61.3275 6.01067C61.4432 6.28952 61.5204 6.59935 61.5282 6.89368C61.5436 9.13221 61.5359 11.3707 61.5359 13.617C61.5282 13.7332 61.5127 13.8494 61.4896 14.1205Z" fill="white"/>
<path d="M162.446 36.1807C162.446 40.4563 162.446 44.6468 162.446 48.8837C160.918 48.8837 159.436 48.8837 157.954 48.8837C156.796 45.4291 158.278 39.248 162.446 36.1807Z" fill="white"/>
<path d="M94.1101 21.2315C93.3768 21.2315 92.6898 21.2315 91.9487 21.2315C91.9796 21.0146 92.0182 20.8519 92.0337 20.6815C92.1263 19.8372 92.2961 18.9929 92.3038 18.1564C92.3347 13.9582 92.3193 9.75227 92.3193 5.55407C92.3193 5.37592 92.3193 5.19002 92.3038 5.01187C92.2344 4.22954 91.9256 3.85775 91.1537 3.6641C90.9298 3.60988 90.6983 3.59439 90.4667 3.55566C89.965 3.47821 89.9572 3.46271 90.0344 2.78109C90.1965 2.75785 90.3663 2.71138 90.5439 2.71912C92.4196 2.77334 94.2953 2.83531 96.1711 2.89727C96.1942 2.89727 96.2251 2.89727 96.2482 2.89727C96.5416 2.92826 96.9198 2.8508 96.9275 3.31555C96.9352 3.79578 96.557 3.70283 96.2637 3.73382C96.009 3.75705 95.7542 3.78804 95.4995 3.85C94.8048 4.02041 94.4651 4.43868 94.4188 5.16678C94.4034 5.39915 94.4111 5.63153 94.4111 5.8639C94.4111 9.86071 94.4188 13.8575 94.4034 17.8466C94.4034 18.7218 94.3185 19.5971 94.2567 20.4724C94.249 20.7125 94.1718 20.9526 94.1101 21.2315Z" fill="white"/>
<path d="M62.1688 23.6945C62.5085 23.8261 62.7632 23.9268 63.0179 24.0353C64.3687 24.5852 65.7582 24.9183 67.2248 24.7634C67.7265 24.7092 68.2437 24.5852 68.7068 24.3838C69.6331 23.9811 70.2197 23.2607 70.3664 22.2228C70.3896 22.0756 70.4282 21.9284 70.4668 21.7271C71.8793 21.7271 73.2765 21.7271 74.7817 21.7271C74.635 22.1531 74.5269 22.5481 74.3571 22.9121C73.5775 24.5775 72.2576 25.6774 70.6134 26.4132C69.3398 26.9864 67.9967 27.3505 66.5995 27.3969C65.1638 27.4434 63.7281 27.4047 62.1997 27.4047C62.192 26.7463 62.1765 26.1344 62.1765 25.5302C62.1688 24.957 62.1688 24.3683 62.1688 23.6945Z" fill="white"/>
<path d="M105.997 21.7274C105.997 22.6724 105.99 23.5244 105.997 24.3687C106.005 25.5461 106.468 26.0418 107.649 26.1657C107.85 26.189 108.089 26.1425 108.259 26.2277C108.406 26.3051 108.575 26.522 108.568 26.6692C108.56 26.8086 108.359 26.979 108.205 27.0642C108.081 27.1262 107.904 27.0875 107.749 27.0875C104.585 27.0875 101.42 27.0875 98.2551 27.0875C98.1008 27.0875 97.9464 27.0797 97.792 27.0797C97.5373 27.0797 97.4215 26.9171 97.4061 26.6847C97.3829 26.4136 97.5064 26.2354 97.7843 26.2044C98.0159 26.1812 98.2474 26.1735 98.479 26.1425C99.5288 25.9953 99.9688 25.5073 99.9919 24.4462C100.007 23.8033 99.9919 23.1526 99.9996 22.5097C99.9996 22.2619 100.023 22.0063 100.038 21.7119C102.022 21.7274 103.959 21.7274 105.997 21.7274Z" fill="white"/>
<path d="M148.568 21.6731C150.25 21.6731 151.794 21.6654 153.33 21.6809C153.84 21.6809 154.442 21.5802 154.828 21.8126C155.183 22.0294 155.275 22.6491 155.522 23.0674C155.901 23.7025 156.248 24.3764 156.727 24.9418C157.437 25.7706 158.378 26.2276 159.482 26.3438C159.776 26.3748 160.169 26.3283 160.131 26.8008C160.1 27.2036 159.768 27.2501 159.444 27.2501C157.699 27.2423 155.939 27.3353 154.202 27.2191C152.003 27.0719 150.405 25.9023 149.463 23.8884C149.139 23.2145 148.899 22.5097 148.568 21.6731Z" fill="white"/>
<path d="M143.373 21.7655C143.373 22.4936 143.373 23.1829 143.373 23.8801C143.373 24.1666 143.365 24.4455 143.388 24.7321C143.465 25.5686 143.859 25.9869 144.677 26.1263C144.878 26.1573 145.109 26.1108 145.287 26.196C145.434 26.2657 145.619 26.4749 145.611 26.6143C145.611 26.7615 145.418 26.9241 145.287 27.0481C145.225 27.1023 145.086 27.0713 144.986 27.0713C141.929 27.0791 138.872 27.0868 135.808 27.0868C135.167 27.0868 135.152 27.0481 135.252 26.2967C135.461 26.2657 135.685 26.227 135.908 26.196C136.85 26.0489 137.267 25.6151 137.306 24.6546C137.336 23.8568 137.313 23.059 137.321 22.2612C137.321 22.1063 137.344 21.9591 137.36 21.8119C137.915 21.6493 142.315 21.6105 143.373 21.7655Z" fill="white"/>
<path d="M62.1302 2.35487C62.1302 1.58804 62.1302 0.898669 62.1302 0.162822C63.0565 -0.0772958 63.9442 0.00016168 64.8319 0.0621277C67.0086 0.217043 69.0542 0.898669 71.0766 1.6655C71.64 1.88238 72.1958 2.0218 72.8056 1.96758C73.5621 1.90562 73.647 1.98307 73.7396 2.71892C73.948 4.35327 74.1564 5.98763 74.3726 7.62198C74.4266 8.03251 74.5269 8.43529 74.5655 8.83807C74.581 8.95425 74.4806 9.16339 74.388 9.19437C74.2954 9.22535 74.087 9.1324 74.0252 9.03171C73.9017 8.84581 73.84 8.61344 73.7473 8.39656C72.5123 5.58485 70.4976 3.52448 67.6802 2.33163C65.8894 1.59579 64.0368 1.50284 62.1302 2.35487Z" fill="white"/>
<path d="M61.4972 23.3382C61.4972 24.6008 61.4972 25.8866 61.4972 27.2266C61.3043 27.2421 61.1267 27.2885 60.9646 27.2576C59.8763 27.0562 58.7879 26.8703 57.715 26.5992C56.9894 26.421 56.5494 25.9408 56.4182 25.143C56.2406 24.0276 55.9782 22.9277 55.7466 21.7658C55.9782 21.7271 56.148 21.6806 56.3101 21.6806C57.1592 21.6729 58.0083 21.6651 58.8574 21.6883C59.0967 21.6961 59.3823 21.7503 59.5675 21.882C60.2313 22.339 60.8489 22.8425 61.4972 23.3382Z" fill="white"/>
<path d="M212.558 67.9844C211.292 67.9689 210.32 66.9929 210.327 65.7226C210.327 64.4291 211.331 63.4376 212.628 63.4454C213.909 63.4608 214.889 64.491 214.858 65.7923C214.828 67.0472 213.832 67.9921 212.558 67.9844Z" fill="white"/>
<path d="M214.781 32.6099C215.082 33.4619 215.376 34.2984 215.677 35.1427C215.723 35.1505 215.769 35.1505 215.816 35.1582C216.124 34.3294 216.433 33.4929 216.757 32.6176C217.151 32.6176 217.552 32.6176 218 32.6176C218 34.0118 218 35.3906 218 36.7926C217.792 36.8081 217.614 36.8313 217.444 36.839C217.321 36.839 217.197 36.8158 217.02 36.7926C217.02 36.2814 217.02 35.8011 217.02 35.3209C216.966 35.3054 216.919 35.2976 216.865 35.2821C216.657 35.7856 216.449 36.2891 216.232 36.8081C215.908 36.8081 215.607 36.8081 215.283 36.8081C215.082 36.2968 214.897 35.8011 214.704 35.3131C214.665 35.3209 214.619 35.3286 214.58 35.3286C214.557 35.7934 214.542 36.2659 214.519 36.7848C214.225 36.7848 213.963 36.7848 213.577 36.7848C213.569 35.4138 213.562 34.0428 213.585 32.6099C214.002 32.6099 214.38 32.6099 214.781 32.6099Z" fill="white"/>
<path d="M158.664 51.5791C159.999 51.5791 161.196 51.5791 162.439 51.5791C162.439 53.2135 162.439 54.8168 162.439 56.5596C160.733 55.1886 159.559 53.5775 158.664 51.5791Z" fill="white"/>
<path d="M58.842 21.231C57.6841 21.231 56.6961 21.231 55.654 21.231C55.5536 20.805 55.4687 20.41 55.3607 20.0149C55.0596 18.9228 54.7586 17.8306 54.4498 16.7385C54.3804 16.4983 54.3649 16.2737 54.6428 16.1498C54.9207 16.0259 55.1445 16.0878 55.2989 16.3512C55.407 16.5293 55.5073 16.7075 55.6077 16.8856C56.395 18.2566 57.3059 19.5269 58.3634 20.6966C58.4946 20.8282 58.6104 20.9599 58.842 21.231Z" fill="white"/>
<path d="M209.115 33.4697C209.115 33.1754 209.115 32.9275 209.115 32.6177C210.335 32.6177 211.531 32.6177 212.774 32.6177C212.774 32.8888 212.774 33.1521 212.774 33.462C212.334 33.493 211.91 33.5239 211.416 33.5627C211.416 34.6548 211.416 35.7005 211.416 36.7927C211.053 36.7927 210.76 36.7927 210.397 36.7927C210.397 35.7237 210.397 34.6781 210.397 33.5627C209.957 33.5317 209.579 33.5007 209.115 33.4697Z" fill="white"/>
<path d="M134.388 21.2312C134.033 21.2312 133.739 21.2312 133.307 21.2312C133.554 20.7199 133.755 20.2629 134.002 19.8369C134.056 19.7362 134.264 19.651 134.372 19.6743C134.465 19.6975 134.588 19.8989 134.581 20.0151C134.55 20.4101 134.457 20.8052 134.388 21.2312Z" fill="white"/>
</g>
<defs>
<clipPath id="clip0_284_372">
<rect width="218" height="68" fill="white"/>
</clipPath>
</defs>
</svg>
