<svg width="116" height="78" viewBox="0 0 116 78" fill="none" xmlns="http://www.w3.org/2000/svg">
<g clip-path="url(#clip0_225:1758)">
<g clip-path="url(#clip1_225:1758)">
<path d="M-0.0882511 61.188C0.133343 61.1288 0.350415 61.0878 0.581054 61.0878C1.20061 61.0878 1.81565 61.0833 2.43521 61.0924C2.81508 61.0969 2.88292 61.1698 2.90101 61.5431C2.91005 61.7389 2.90553 61.9393 2.90553 62.1351C2.90553 65.3223 2.90553 68.5096 2.90553 71.6923C2.90553 71.8107 2.90553 71.9336 2.90553 72.0884C3.13165 72.0383 3.204 71.8562 3.3035 71.7287C5.49683 68.9695 7.69016 66.2056 9.87896 63.4464C10.3764 62.818 10.8829 62.1988 11.3713 61.5613C11.6201 61.2335 11.9185 61.0787 12.3346 61.0878C13.1486 61.106 13.9626 61.0878 14.7766 61.0878C14.8671 61.0878 14.9575 61.0878 15.048 61.0969C15.4007 61.1424 15.4369 61.2244 15.2063 61.5113C13.6325 63.5056 12.0542 65.4999 10.4759 67.4942C8.12882 70.4584 5.76817 73.418 3.43012 76.3912C3.09095 76.8238 2.71559 77.0469 2.16387 77.015C1.41316 76.9741 0.657933 77.0469 -0.0927734 76.9422C-0.0882511 71.6923 -0.0882511 66.4424 -0.0882511 61.188Z" fill="white"/>
<path d="M115.683 63.8288C115.507 63.7559 115.412 63.9882 115.218 63.9426C115.032 63.8971 114.829 63.9335 114.634 63.9335C114.453 63.9335 114.273 63.9335 114.092 63.9335C112.947 63.9335 111.803 63.9335 110.655 63.9335C110.216 63.9335 110.211 63.9381 110.211 64.3843C110.216 68.3274 110.22 72.2751 110.225 76.2182C110.225 76.9922 110.225 76.9968 109.443 77.0014C108.886 77.0059 108.326 77.0059 107.769 76.9968C107.308 76.9923 107.258 76.9376 107.254 76.4641C107.249 73.3223 107.245 70.1806 107.24 67.0434C107.24 66.1327 107.236 65.2221 107.227 64.3114C107.222 63.9381 107.218 63.9335 106.847 63.929C105.703 63.9244 104.559 63.929 103.41 63.929C103.306 63.929 103.197 63.929 103.093 63.9199C102.89 63.9062 102.799 63.7787 102.799 63.5875C102.799 62.8726 102.79 62.1623 102.804 61.4474C102.808 61.1697 102.885 61.1105 103.166 61.0877C103.256 61.0786 103.347 61.0832 103.437 61.0832C106.571 61.0832 109.705 61.0877 112.839 61.0741C113.323 61.0695 113.667 61.2198 113.956 61.6114C114.44 62.267 114.964 62.8999 115.475 63.5374C115.521 63.5966 115.543 63.7514 115.683 63.6376C115.683 63.7104 115.683 63.7696 115.683 63.8288Z" fill="white"/>
<path d="M55.8845 48.0017C53.0806 48.0017 50.2768 47.988 47.4775 48.0108C46.7448 48.0199 46.2202 47.7649 45.7725 47.1912C39.7759 39.6282 33.7703 32.0698 27.7555 24.516C27.3983 24.0652 27.231 23.5917 27.231 23.0134C27.24 15.7465 27.2355 8.47946 27.2355 1.20792C27.2355 1.05767 27.2264 0.902857 27.249 0.752599C27.3033 0.392893 27.6018 0.283615 27.8731 0.511277C27.9636 0.588683 28.0405 0.684301 28.1128 0.779919C40.3864 16.2291 52.66 31.6783 64.9291 47.132C65.0829 47.3232 65.3271 47.5054 65.1688 47.8059C65.0241 48.0836 64.7483 47.988 64.5176 47.988C61.6414 48.0017 58.7652 48.0017 55.8845 48.0017Z" fill="white"/>
<path d="M84.8185 12.1129C84.8185 15.71 84.814 19.3071 84.823 22.9041C84.823 23.5416 84.6602 24.0743 84.2532 24.5752C82.503 26.7425 80.771 28.9235 79.057 31.1137C78.6184 31.6737 78.0893 31.9196 77.3838 31.9196C71.6857 31.9059 65.9921 31.9105 60.2939 31.9059C60.0633 31.9059 59.792 31.9788 59.6563 31.6919C59.5161 31.4005 59.7513 31.2411 59.896 31.059C67.896 20.9872 75.8959 10.9154 83.8959 0.843648C83.9909 0.725263 84.0768 0.597772 84.1899 0.502154C84.416 0.306364 84.7145 0.397429 84.7868 0.688837C84.823 0.834541 84.814 0.989352 84.814 1.13961C84.814 4.79587 84.814 8.45213 84.814 12.1129C84.8185 12.1129 84.8185 12.1129 84.8185 12.1129Z" fill="white"/>
<path d="M53.4244 69.3017C53.2028 74.0917 49.3588 77.6433 44.6285 77.3837C40.2463 77.147 36.6466 73.3996 36.841 68.7052C37.0445 63.7968 41.2141 60.4638 45.5827 60.7052C49.8292 60.9419 53.533 64.5208 53.4244 69.3017ZM45.0898 63.5464C44.7099 63.5327 44.2757 63.5919 43.8506 63.7058C40.9609 64.4571 39.2198 67.4622 39.9931 70.4446C40.5132 72.448 41.7839 73.8094 43.7738 74.3604C45.7591 74.9068 47.5182 74.3695 48.9337 72.876C50.1864 71.5556 50.6387 69.9483 50.3764 68.1361C50.0055 65.5498 47.7353 63.5555 45.0898 63.5464Z" fill="white"/>
<path d="M65.7391 63.9746C65.5628 63.9108 65.4135 63.9336 65.2643 63.9336C63.3513 63.929 61.4384 63.929 59.5209 63.9245C59.444 63.9245 59.3717 63.929 59.2948 63.9245C59.1229 63.9108 59.0461 63.9928 59.0551 64.1658C59.0596 64.2887 59.0551 64.4071 59.0551 64.5301C59.0506 68.4276 59.0461 72.3298 59.0415 76.2274C59.0415 76.3503 59.0461 76.4687 59.037 76.5916C59.0189 76.9013 58.933 76.9969 58.621 77.0014C57.8974 77.0105 57.1738 77.0105 56.4502 76.9923C56.1518 76.9878 56.0885 76.9013 56.0704 76.6053C56.0658 76.5142 56.0704 76.4232 56.0704 76.3321C56.0704 71.4601 56.0704 66.5927 56.0704 61.7207C56.0704 61.6615 56.0658 61.5978 56.0704 61.5386C56.0839 61.1834 56.1518 61.1106 56.4909 61.0924C56.5678 61.0878 56.6402 61.0924 56.7171 61.0924C60.5294 61.0924 64.3417 61.0924 68.1541 61.0924C68.2309 61.0924 68.3033 61.0878 68.3802 61.0924C68.7194 61.1106 68.7872 61.1834 68.8053 61.5386C68.8098 61.616 68.8053 61.6888 68.8053 61.7662C68.8053 62.645 68.7917 63.5283 68.8143 64.4071C68.8234 64.8124 68.7013 65.1402 68.448 65.4498C67.3762 66.7794 66.3135 68.1226 65.2507 69.4567C65.2055 69.5159 65.1603 69.5796 65.106 69.6343C64.9206 69.8164 64.9342 69.9712 65.1015 70.1761C65.6803 70.8773 66.2321 71.5967 66.7974 72.307C67.8782 73.6684 68.959 75.0344 70.0399 76.3958C70.0761 76.4414 70.1168 76.4915 70.1529 76.537C70.2343 76.6463 70.3519 76.7555 70.2705 76.9013C70.2027 77.0242 70.058 76.9923 69.9404 76.9923C69.0043 76.9969 68.0727 76.9969 67.1365 77.0014C66.8245 77.0014 66.5893 76.8557 66.4039 76.619C66.0919 76.2274 65.7844 75.8358 65.4723 75.4442C64.1382 73.7595 62.7996 72.0794 61.4655 70.3947C61.4384 70.3582 61.4067 70.3218 61.3796 70.2899C61.1037 69.9257 61.0992 69.8938 61.3751 69.5477C61.9449 68.8238 62.5192 68.0998 63.089 67.3758C63.8805 66.3787 64.6719 65.3861 65.4588 64.3889C65.5628 64.266 65.6803 64.1658 65.7391 63.9746Z" fill="white"/>
<path d="M88.9066 66.0326C88.9066 66.6973 88.9066 67.3667 88.9066 68.0314C88.9066 69.3064 88.9066 70.5813 88.9066 71.8562C88.9066 71.9472 88.9066 72.0383 88.9066 72.1294C88.9066 72.2569 88.8976 72.3798 88.7483 72.4208C88.6217 72.4527 88.5584 72.357 88.4906 72.2751C87.6992 71.2825 86.9077 70.2853 86.1163 69.2927C85.9807 69.1197 85.9219 68.9193 85.9219 68.7008C85.9219 66.3194 85.9219 63.9381 85.9264 61.5522C85.9264 61.1742 85.9988 61.1059 86.3786 61.0968C87.0705 61.0877 87.767 61.0968 88.4589 61.0877C88.8297 61.0832 89.0739 61.2699 89.291 61.5476C90.5166 63.1048 91.7512 64.6529 92.9858 66.2056C94.4555 68.0542 95.9208 69.9028 97.3905 71.7515C97.4855 71.8698 97.5805 71.9791 97.6981 72.1203C97.8111 71.9427 97.7659 71.7742 97.7659 71.6149C97.7704 68.3547 97.7704 65.09 97.7704 61.8299C97.7704 61.7252 97.7659 61.6159 97.7704 61.5112C97.7885 61.1924 97.8654 61.1014 98.1774 61.0968C98.901 61.0877 99.6246 61.0923 100.348 61.1014C100.642 61.1059 100.719 61.1925 100.746 61.4793C100.755 61.584 100.751 61.6933 100.751 61.798C100.751 66.6245 100.751 71.4464 100.751 76.2728C100.751 76.9923 100.751 76.9968 100.013 77.0059C99.4708 77.0105 98.9281 76.9922 98.3855 77.015C97.9423 77.0287 97.6257 76.8648 97.3453 76.5096C94.7088 73.1721 92.0632 69.8482 89.4176 66.5152C89.2775 66.3422 89.1373 66.1692 89.0016 65.9961C88.9654 66.0098 88.9338 66.0235 88.9066 66.0326Z" fill="white"/>
<path d="M15.9073 71.4557C15.7083 71.7015 15.5455 71.9019 15.3872 72.1022C14.2385 73.5502 13.0808 74.9844 11.9502 76.446C11.6427 76.8421 11.3036 77.0334 10.8016 77.0152C10.0056 76.9878 9.20519 77.0106 8.40474 77.0152C8.32786 77.0152 8.25098 77.0197 8.17863 77.0106C7.86206 76.9651 7.81684 76.8649 8.01582 76.6099C8.96099 75.4079 9.90163 74.2058 10.8513 73.0083C13.7773 69.3202 16.7077 65.6412 19.6201 61.9439C20.0814 61.3611 20.6105 61.0469 21.3612 61.0925C21.8587 61.1198 22.3561 61.0925 22.8536 61.1016C23.2244 61.1061 23.3013 61.1881 23.3194 61.5524C23.3239 61.6434 23.3194 61.7345 23.3194 61.8256C23.3194 66.652 23.3194 71.4739 23.3194 76.3003C23.3194 76.3595 23.3194 76.4232 23.3194 76.4824C23.3103 76.915 23.2425 76.997 22.8265 77.0015C22.1617 77.0106 21.5014 76.9924 20.8366 77.0061C20.4341 77.0152 20.1628 76.8239 19.9231 76.5189C18.7247 74.9981 17.5172 73.4819 16.3143 71.9656C16.1967 71.8154 16.0746 71.6651 15.9073 71.4557ZM20.3211 65.6958C20.2894 65.673 20.2623 65.6503 20.2306 65.6321C20.2035 65.6867 20.1854 65.7459 20.1447 65.7914C19.3488 66.7977 18.5528 67.804 17.7434 68.8011C17.5896 68.9878 17.5986 69.1153 17.7479 69.302C18.5348 70.2764 19.3126 71.2599 20.095 72.2388C20.1447 72.3026 20.1764 72.4073 20.3211 72.3891C20.3211 70.158 20.3211 67.9269 20.3211 65.6958Z" fill="white"/>
<path d="M80.165 71.4965C79.8846 71.8471 79.5997 72.2022 79.3148 72.5574C78.3063 73.8232 77.2888 75.0844 76.3029 76.3685C75.9592 76.8147 75.5839 77.0605 75.005 77.015C74.4668 76.974 73.9196 77.0105 73.377 77.0059C72.8298 77.0014 72.7891 76.9604 72.7891 76.4049C72.7891 72.8215 72.7891 69.2426 72.7891 65.6592C72.7891 64.3251 72.7891 62.9865 72.7891 61.6524C72.7891 61.1424 72.8298 61.1014 73.3227 61.0969C73.9423 61.0923 74.5573 61.1105 75.1769 61.0878C75.611 61.0695 75.9095 61.238 76.1763 61.5795C79.152 65.345 82.1367 69.0969 85.1214 72.8579C86.0078 73.9735 86.8942 75.0844 87.776 76.2C87.8981 76.3548 88.0248 76.5096 88.1243 76.6735C88.2328 76.8511 88.1831 76.9513 87.9705 76.9831C87.8213 77.0059 87.672 77.0059 87.5183 77.0059C86.7495 77.0105 85.9807 77.0059 85.2119 77.0105C84.7913 77.015 84.4793 76.8648 84.2079 76.5187C82.9914 74.957 81.7478 73.4088 80.5132 71.8562C80.4182 71.7333 80.3413 71.5784 80.165 71.4965ZM75.8778 65.6956C75.8462 65.7093 75.8235 65.7093 75.819 65.7184C75.8009 65.7412 75.7783 65.7639 75.7738 65.7867C75.7648 65.9096 75.7648 66.028 75.7648 66.151C75.7783 68.2136 75.7331 70.2717 75.7874 72.3343C75.7874 72.3434 75.8055 72.3525 75.819 72.3616C75.8326 72.3707 75.8462 72.3753 75.8823 72.3889C76.7235 71.328 77.5692 70.2626 78.4194 69.2016C78.5369 69.0559 78.4781 68.9649 78.3877 68.8465C77.5465 67.7992 76.7099 66.7429 75.8778 65.6956Z" fill="white"/>
<path d="M26.8649 69.0469C26.8649 66.6337 26.8649 64.225 26.8649 61.8118C26.8649 61.6888 26.8604 61.5705 26.8694 61.4475C26.883 61.2381 26.978 61.1015 27.2041 61.0969C27.9729 61.0924 28.7417 61.0924 29.5105 61.0969C29.7275 61.0969 29.8361 61.229 29.8496 61.443C29.8587 61.5659 29.8542 61.6843 29.8542 61.8072C29.8542 65.7503 29.8542 69.6935 29.8542 73.6366C29.8542 74.1784 29.7863 74.1465 30.3697 74.1465C32.2827 74.1511 34.1956 74.1511 36.1086 74.1602C36.2804 74.1602 36.5111 74.0782 36.606 74.2695C36.7055 74.4698 36.493 74.5927 36.389 74.7293C35.9186 75.3395 35.4257 75.936 34.9599 76.5506C34.7202 76.8694 34.4263 77.0151 34.0328 77.0105C31.8169 77.0014 29.6054 77.0014 27.3895 76.9969C26.9327 76.9969 26.8739 76.9286 26.8694 76.4641C26.8649 73.9917 26.8649 71.5193 26.8649 69.0469Z" fill="white"/>
</g>
</g>
<defs>
<clipPath id="clip0_225:1758">
<rect width="116" height="78" fill="white"/>
</clipPath>
<clipPath id="clip1_225:1758">
<rect width="169" height="77" fill="white" transform="translate(-53.3164 1.00146)"/>
</clipPath>
</defs>
</svg>
