<svg width="162" height="39" viewBox="0 0 162 39" fill="none" xmlns="http://www.w3.org/2000/svg">
<g clip-path="url(#clip0_157_5550)">
<path d="M35.1841 11.4709C34.7308 23.1632 29.4179 32.3322 18.5654 38.1533C17.8603 38.5281 17.3064 38.5031 16.6013 38.1533C4.99342 32.1573 -1.40227 20.0153 0.284785 7.17373C0.284785 7.12377 0.284785 7.09878 0.309965 7.04882C0.561764 6.44921 0.209246 5.47485 1.19126 5.32495C2.09773 5.20003 2.14809 6.12442 2.42507 6.67406C4.41428 10.4965 6.40349 14.344 8.34234 18.1915C8.66968 18.866 9.09774 19.0409 9.80277 19.0409C15.1157 19.0159 20.4539 19.0159 25.7668 19.0409C26.5474 19.0409 26.9251 18.8161 27.2776 18.0915C29.1409 14.1192 31.0798 10.1718 33.0186 6.22436C33.22 5.79964 33.3963 5.22502 34.051 5.32495C34.6805 5.42488 34.7056 5.94954 34.8064 6.44921C35.0833 7.97321 35.1085 9.52219 35.1841 11.4709ZM20.1769 35.3302C20.4287 35.2053 20.7057 35.0804 20.9323 34.9305C28.5366 29.7089 32.6661 22.4637 33.4467 13.3697C33.5726 11.9706 33.6733 10.5715 33.3963 8.97255C31.4826 12.895 29.72 16.6425 27.8064 20.3151C25.238 25.2868 22.5438 30.2086 19.8999 35.1553C19.8244 35.2802 19.7488 35.3802 19.6985 35.5051C19.9251 35.58 20.0762 35.5551 20.1769 35.3302ZM9.60133 20.5899C12.2956 25.8365 14.9143 30.8831 17.6085 36.1047C20.4287 30.8581 23.1733 25.7615 25.9431 20.5899C20.479 20.5899 15.1409 20.5899 9.60133 20.5899ZM1.72004 8.69773C0.813562 20.6399 6.95745 30.9331 15.5941 35.605C10.9359 26.561 6.37831 17.7418 1.72004 8.69773Z" fill="white"/>
<path d="M100.223 21.2894C101.759 23.1132 103.119 24.7122 104.58 26.461C103.371 26.6609 102.464 26.7358 101.684 25.6366C100.803 24.3874 99.6947 23.2881 98.7379 22.0639C98.2846 21.4893 97.781 21.2394 97.0256 21.2894C95.6911 21.3394 94.3314 21.3644 92.9969 21.2894C92.1659 21.2394 92.04 21.5392 92.0652 22.2638C92.1156 23.463 92.04 24.6872 92.0904 25.8864C92.1156 26.5609 91.7631 26.6109 91.2343 26.6109C90.7055 26.6109 90.3782 26.5609 90.3782 25.8864C90.4034 21.6392 90.4034 17.392 90.3782 13.1698C90.3782 12.5452 90.6048 12.3953 91.1839 12.3953C94.8854 12.4202 98.5616 12.3703 102.263 12.4202C103.698 12.4452 104.655 13.4696 104.68 14.8936C104.705 16.0928 104.68 17.317 104.68 18.5162C104.68 20.465 103.799 21.3144 101.835 21.3394C101.432 21.2894 100.979 21.2894 100.223 21.2894ZM97.4537 19.6155C98.9645 19.6155 100.475 19.6155 101.961 19.6155C102.741 19.6155 103.119 19.2907 103.094 18.4913C103.069 17.342 103.094 16.1678 103.094 15.0185C103.094 14.369 102.817 14.0192 102.112 14.0192C99.0904 14.0192 96.094 14.0192 93.0724 14.0192C92.2918 14.0192 92.0652 14.4189 92.0904 15.1185C92.1156 16.2427 92.1408 17.367 92.0904 18.4663C92.04 19.3657 92.4933 19.6155 93.299 19.6155C94.6839 19.5905 96.0688 19.6155 97.4537 19.6155Z" fill="white"/>
<path d="M68.2452 19.4906C68.2452 17.417 68.2703 15.3183 68.22 13.2447C68.1948 12.5452 68.3962 12.3203 69.1265 12.3203C72.9034 12.3453 76.6804 12.3453 80.4574 12.3203C81.1121 12.3203 81.3135 12.4952 81.3135 13.1698C81.3135 13.8443 81.0869 14.0192 80.4574 14.0192C77.3099 13.9942 74.1624 14.0442 71.0149 13.9942C70.184 13.9942 69.7811 14.1191 69.8819 15.0685C69.9574 15.9679 69.9574 16.8923 69.8819 17.8167C69.8315 18.4912 70.1085 18.6412 70.738 18.6412C73.1804 18.6162 75.5977 18.6412 78.0401 18.6162C78.6193 18.6162 79.0473 18.5412 79.0725 19.4156C79.0725 20.315 78.6444 20.315 77.9898 20.2901C75.648 20.2651 73.2811 20.315 70.9394 20.2651C70.184 20.2651 69.756 20.365 69.8819 21.2644C70.0329 22.4387 69.3783 23.9876 70.1337 24.7371C70.8387 25.4117 72.3747 24.912 73.5329 24.937C75.7991 24.962 78.0653 24.962 80.3315 24.937C80.9358 24.937 81.3387 24.962 81.3135 25.7864C81.3135 26.6609 80.8351 26.5859 80.2811 26.5859C76.63 26.5859 72.979 26.5609 69.3279 26.6109C68.4718 26.6109 68.1696 26.436 68.1948 25.5366C68.2955 23.488 68.2452 21.4893 68.2452 19.4906Z" fill="white"/>
<path d="M52.8605 12.3453C54.6734 12.3453 56.4612 12.3703 58.2741 12.3203C58.954 12.2953 59.1051 12.5452 59.1302 13.1697C59.1554 13.8693 58.8784 13.9942 58.2489 13.9942C54.8497 13.9692 51.4504 14.0192 48.0511 13.9692C46.8173 13.9442 46.4648 14.369 46.49 15.5432C46.5655 18.1914 46.5403 20.8647 46.49 23.5379C46.4648 24.5622 46.8173 24.937 47.8749 24.937C51.2238 24.887 54.5727 24.912 57.9468 24.937C58.4504 24.937 59.1051 24.6622 59.1554 25.6865C59.1806 26.7608 58.5511 26.5609 57.9468 26.5609C54.5475 26.5609 51.1482 26.5609 47.749 26.5609C45.7094 26.5609 44.8785 25.7115 44.8533 23.6628C44.8533 20.8397 44.8533 18.0166 44.8533 15.1684C44.8533 13.2447 45.7597 12.3453 47.6986 12.3453C49.436 12.3203 51.1482 12.3453 52.8605 12.3453Z" fill="white"/>
<path d="M161.008 26.411C159.673 26.8108 158.842 26.461 158.087 25.4617C156.929 23.9377 155.594 22.5386 154.411 21.0396C153.958 20.44 153.479 20.1901 152.724 20.2401C151.817 20.2901 150.886 20.2901 149.954 20.2401C149.299 20.2151 149.098 20.44 149.123 21.0895C149.173 22.6135 149.098 24.1625 149.148 25.7115C149.173 26.3611 148.972 26.5609 148.292 26.5609C147.587 26.5609 147.486 26.2861 147.486 25.6865C147.512 21.5392 147.512 17.367 147.486 13.2197C147.486 12.6451 147.537 12.3203 148.267 12.3203C149.022 12.3203 149.148 12.6201 149.148 13.2697C149.098 14.7687 149.173 16.2677 149.123 17.7667C149.098 18.3913 149.274 18.6162 149.954 18.6412C153.605 18.7911 153.58 18.816 155.922 16.0429C156.677 15.1435 157.533 14.319 158.163 13.3696C158.868 12.3203 159.749 12.2204 161.008 12.4952C159.271 14.5688 157.659 16.5925 155.922 18.5162C155.242 19.2657 155.267 19.6905 155.922 20.44C157.659 22.3137 159.271 24.3374 161.008 26.411Z" fill="white"/>
<path d="M120.317 12.3452C122.407 12.3452 124.522 12.3702 126.612 12.3202C127.292 12.2952 127.443 12.5201 127.468 13.1697C127.468 13.8442 127.267 14.0191 126.612 13.9941C125.152 13.9441 123.666 14.0441 122.206 13.9691C121.299 13.9192 121.123 14.2689 121.123 15.0934C121.173 18.5411 121.148 22.0138 121.148 25.4616C121.148 26.0112 121.324 26.5858 120.342 26.5858C119.31 26.5858 119.562 25.9612 119.562 25.4366C119.562 21.9889 119.536 18.5161 119.587 15.0684C119.612 14.169 119.335 13.9441 118.479 13.9691C117.019 14.0441 115.533 13.9691 114.072 13.9941C113.418 14.0191 113.191 13.8442 113.191 13.1697C113.191 12.5201 113.367 12.2952 114.047 12.3202C116.137 12.3702 118.227 12.3452 120.317 12.3452Z" fill="white"/>
<path d="M17.6084 1.95212C17.0293 2.10202 16.4753 2.25192 15.8962 2.42681C12.8746 3.3512 9.82784 4.27559 6.80625 5.19998C6.2523 5.37487 5.57244 5.69965 5.29546 4.92516C4.96812 4.05074 5.72352 3.92582 6.32784 3.75093C9.80266 2.67664 13.2775 1.62733 16.7523 0.553039C17.3314 0.378154 17.8602 0.378154 18.4393 0.553039C21.9897 1.65232 25.5401 2.70162 29.1156 3.8009C29.6696 3.97579 30.3998 4.07572 30.1983 4.87519C29.9717 5.74962 29.2415 5.44982 28.6372 5.27493C25.2883 4.27559 21.9142 3.25126 18.5652 2.22694C18.2631 2.15199 17.9358 2.05205 17.6084 1.95212Z" fill="white"/>
<path d="M136.054 19.2908C136.054 17.2672 136.08 15.2185 136.054 13.1948C136.054 12.5702 136.18 12.2954 136.885 12.3204C137.565 12.3204 137.716 12.5453 137.716 13.1948C137.691 17.3921 137.691 21.5893 137.716 25.7616C137.716 26.4861 137.439 26.561 136.835 26.561C136.231 26.561 136.054 26.3862 136.054 25.7616C136.08 23.613 136.054 21.4644 136.054 19.2908Z" fill="white"/>
<path d="M20.1769 35.3302C20.0761 35.5551 19.9251 35.5801 19.7236 35.4801C19.7992 35.3552 19.8747 35.2553 19.9251 35.1304C20.0258 35.2053 20.1013 35.2803 20.1769 35.3302Z" fill="white"/>
</g>
<defs>
<clipPath id="clip0_157_5550">
<rect width="161" height="38" fill="white" transform="translate(0.0078125 0.428223)"/>
</clipPath>
</defs>
</svg>
