<svg width="217" height="38" viewBox="0 0 217 38" fill="none" xmlns="http://www.w3.org/2000/svg">
<g clip-path="url(#clip0_157_5790)">
<path d="M14.9215 17.259C14.546 17.7327 14.3458 17.9322 14.2206 18.1566C12.0178 21.6721 9.84003 25.2125 7.58716 28.7031C7.11156 29.4261 7.26175 29.825 7.81245 30.3736C13.2444 35.7341 22.0306 36.0333 27.8379 31.0717C28.3386 30.6478 29.0395 30.1741 29.6402 30.199C30.1409 30.224 30.9169 30.8473 31.042 31.321C31.1672 31.8695 30.8668 32.7422 30.4413 33.1411C27.3623 36.0333 23.6326 37.5791 19.4272 37.8783C9.94016 38.5515 1.3292 31.3958 0.17773 21.8715C-0.873608 12.9207 4.13277 4.76777 12.4934 1.87559C22.9067 -1.73964 34.7467 5.41602 36.2236 16.3116C36.4739 18.2065 36.549 20.226 36.1986 22.0959C35.6979 24.8385 33.37 26.6586 30.8918 26.7833C28.1634 26.9079 25.9856 25.1377 25.535 22.2705C25.2847 20.6997 25.3097 19.0791 25.1846 17.1842C23.8579 19.3035 22.7064 21.2233 21.5049 23.0683C20.9041 24.0158 20.2783 24.9632 19.5524 25.786C18.8265 26.6087 17.8753 27.1074 16.7488 26.6835C15.5974 26.2597 15.1218 25.2374 15.0467 24.1404C14.9215 22.5198 14.9716 20.8992 14.9465 19.2786C14.9215 18.7051 14.9215 18.1566 14.9215 17.259ZM18.2507 21.5225C18.3258 21.5474 18.4009 21.5724 18.476 21.5973C18.7263 21.2482 18.9516 20.8742 19.2019 20.5252C20.7039 18.2812 22.1307 15.9875 23.7077 13.8183C24.3585 12.9207 25.4349 12.4221 26.5863 12.7711C27.7879 13.1202 28.3636 14.0926 28.5138 15.2893C28.5889 15.9127 28.639 16.536 28.664 17.1593C28.689 18.4059 28.664 19.6525 28.7141 20.8992C28.7641 22.0211 29.0144 23.0932 30.3411 23.3675C31.4676 23.5919 32.7192 22.819 32.9695 21.4228C33.2198 20.0265 33.2448 18.5306 33.0446 17.1094C32.0683 10.1782 26.1858 4.66804 19.5524 4.34392C12.0178 3.96993 5.58461 8.55753 3.78232 15.6384C2.83111 19.3534 3.23162 22.9436 5.08398 26.509C5.45945 25.9356 5.75984 25.4868 6.03519 25.038C8.53837 21.0737 11.0165 17.0845 13.5197 13.1202C13.8451 12.5966 14.2456 12.098 14.7212 11.699C15.9228 10.7017 17.4247 11.0757 17.9504 12.5467C18.2007 13.2199 18.2507 14.0178 18.2507 14.7408C18.2758 16.9848 18.2507 19.2536 18.2507 21.5225Z" fill="white"/>
<path d="M111.344 19.503C110.067 20.8743 109.016 21.9713 107.989 23.0933C106.738 24.4397 106.387 24.4397 105.111 23.0684C104.109 21.9713 103.108 20.8992 101.831 19.5279C101.831 21.3231 101.831 22.7442 101.831 24.1903C101.831 25.0131 101.831 25.8608 101.831 26.6836C101.806 27.8804 101.181 28.6533 100.229 28.6782C99.2281 28.7031 98.6023 27.9053 98.5773 26.6337C98.5773 26.3096 98.5773 25.9605 98.5773 25.6364C98.5773 21.5225 98.5523 17.4087 98.6023 13.2948C98.6023 12.8709 98.8526 12.4221 99.0028 11.9983C99.4033 12.2476 99.904 12.4221 100.204 12.7463C102.007 14.691 103.784 16.7106 105.561 18.6802C106.562 19.8022 106.613 19.7773 107.664 18.6304C109.441 16.6358 111.193 14.6411 112.996 12.6715C113.296 12.3473 113.797 12.2227 114.197 11.9983C114.322 12.4471 114.573 12.8709 114.573 13.3197C114.598 17.6331 114.598 21.9713 114.598 26.2847C114.598 26.4841 114.598 26.7085 114.598 26.908C114.523 27.9801 113.822 28.753 112.896 28.6782C111.869 28.5785 111.344 27.9552 111.344 26.908C111.344 24.9632 111.344 22.9936 111.344 21.0488C111.344 20.6499 111.344 20.251 111.344 19.503Z" fill="white"/>
<path d="M207.115 17.8575C209.694 16.2369 212.297 16.2868 214.274 18.2066C216.327 20.2261 216.652 23.7915 215 26.3845C213.473 28.803 211.195 29.3265 207.366 27.9802C207.366 29.2767 207.466 30.4984 207.316 31.6951C207.24 32.3434 206.865 33.1662 206.339 33.5152C205.288 34.2383 204.086 33.241 204.061 31.6951C204.036 28.8279 204.061 25.9606 204.061 23.0934C204.061 21.6722 204.061 20.276 204.061 18.8549C204.061 18.057 203.986 17.0846 205.013 16.96C205.588 16.9101 206.214 17.4586 207.115 17.8575ZM207.391 22.6945C207.366 24.4647 208.492 25.836 210.044 25.8858C211.496 25.9357 212.697 24.5644 212.747 22.869C212.798 21.1487 211.696 19.8272 210.169 19.7774C208.642 19.7275 207.416 21.024 207.391 22.6945Z" fill="white"/>
<path d="M57.425 11.4248C58.9018 11.9484 60.4038 12.3722 61.8055 13.0205C62.8569 13.4942 63.1072 14.5164 62.6316 15.2894C62.131 16.1121 61.3049 16.2119 60.2536 15.6135C57.425 14.0178 54.296 14.7658 52.8692 17.3588C51.2671 20.2759 52.2434 24.0158 55.0219 25.3372C57.0495 26.3096 58.9769 25.9854 60.7792 24.664C61.2048 24.3399 61.8306 24.0407 62.3312 24.0906C62.7568 24.1404 63.3325 24.689 63.4076 25.0879C63.4827 25.5616 63.2324 26.2846 62.8569 26.5838C60.4538 28.5535 57.7003 29.3264 54.6965 28.3291C51.6426 27.3069 49.7402 25.1377 49.0643 22.0212C47.9129 16.6856 52.0681 11.5245 57.425 11.4248Z" fill="white"/>
<path d="M173.373 19.2536C173.448 16.7354 175.025 14.1923 177.953 12.6465C180.707 11.2004 183.51 11.4248 186.189 12.9456C187.29 13.569 187.616 14.4915 187.115 15.2893C186.614 16.1121 185.813 16.2118 184.637 15.5636C181.783 14.0178 178.704 14.8156 177.303 17.4585C175.776 20.3506 176.777 24.0407 179.505 25.3621C181.333 26.2597 183.135 26.0602 184.862 24.9881C185.113 24.8385 185.313 24.6141 185.538 24.4396C186.339 23.8661 187.14 23.8661 187.741 24.6889C188.292 25.4618 188.041 26.1849 187.29 26.7334C184.512 28.8277 181.533 29.5009 178.279 28.0049C175.125 26.5589 173.297 23.5171 173.373 19.2536Z" fill="white"/>
<path d="M125.512 27.5563C123.284 29.3265 120.405 29.3016 118.352 27.2571C116.125 25.0381 115.974 20.999 118.002 18.6055C120.005 16.2369 122.733 16.1122 125.962 18.3063C126.037 18.057 126.037 17.7578 126.187 17.6581C126.588 17.3589 127.114 16.8353 127.464 16.935C127.915 17.0347 128.515 17.6581 128.54 18.057C128.641 21.1736 128.641 24.2652 128.54 27.3818C128.54 27.7807 127.865 28.5037 127.514 28.5037C126.938 28.4539 126.363 27.9802 125.512 27.5563ZM125.211 22.7443C125.186 21.0489 124.035 19.7773 122.483 19.7773C120.981 19.7773 119.829 21.0988 119.854 22.8191C119.879 24.5395 121.056 25.8858 122.508 25.8858C124.06 25.8858 125.236 24.5145 125.211 22.7443Z" fill="white"/>
<path d="M198.029 27.5561C195.576 29.4012 192.647 29.3014 190.619 27.0575C188.492 24.7138 188.517 20.6747 190.669 18.4059C192.747 16.2118 195.551 16.1619 198.379 18.3311C198.479 18.1067 198.504 17.8324 198.655 17.7327C199.08 17.4086 199.656 16.8351 199.981 16.9348C200.432 17.0844 200.932 17.7576 200.983 18.2313C201.133 19.5528 201.033 20.8742 201.033 22.2206C201.033 23.7165 201.033 25.2125 201.033 26.7084C201.033 27.5063 201.083 28.4786 200.006 28.5036C199.406 28.5036 198.805 27.9301 198.029 27.5561ZM197.703 22.8189C197.703 21.1235 196.452 19.7772 194.9 19.8021C193.423 19.8021 192.347 21.0487 192.296 22.7192C192.271 24.4396 193.448 25.8857 194.925 25.8857C196.477 25.8857 197.703 24.5144 197.703 22.8189Z" fill="white"/>
<path d="M147.414 22.4699C148.366 23.6168 149.292 24.7387 150.193 25.8607C150.919 26.7832 150.894 27.6558 150.093 28.2542C149.217 28.9025 148.441 28.6033 147.79 27.8553C146.563 26.4591 145.337 25.0379 143.81 23.6417C143.81 24.0905 143.81 24.5393 143.81 24.9881C143.81 25.6862 143.835 26.4092 143.76 27.1073C143.66 28.0049 143.134 28.5534 142.183 28.5534C141.232 28.5784 140.731 28.0298 140.556 27.1572C140.506 26.8331 140.506 26.5089 140.506 26.1599C140.506 22.1707 140.506 18.2064 140.506 14.2172C140.506 14.0177 140.506 13.7933 140.506 13.5938C140.556 12.5965 141.056 11.9234 142.083 11.8486C143.009 11.7738 143.735 12.4968 143.76 13.6188C143.81 15.4887 143.785 17.3587 143.785 19.2286C143.785 20.0015 143.785 20.7744 143.785 21.8964C145.287 20.2509 146.488 18.8546 147.815 17.5581C148.215 17.1592 149.016 16.885 149.517 16.9847C150.644 17.234 150.894 18.5305 150.093 19.453C149.267 20.4752 148.366 21.4227 147.414 22.4699Z" fill="white"/>
<path d="M154.724 23.7664C154.774 25.1626 155.425 25.9605 156.751 26.0103C157.677 26.0353 158.654 25.8358 159.555 25.6114C160.431 25.387 161.182 25.3621 161.557 26.2597C161.933 27.1323 161.332 27.6559 160.656 28.0548C158.078 29.5508 154.023 28.8277 152.346 26.5838C150.643 24.2651 151.019 19.8021 153.172 17.982C154.974 16.4362 157.152 16.3365 159.279 17.1842C161.382 18.007 162.659 20.1512 162.584 22.3203C162.534 23.4423 161.858 23.7913 160.831 23.7913C158.804 23.7664 156.776 23.7664 154.724 23.7664ZM159.33 21.5973C158.979 20.3008 157.878 19.5528 156.626 19.8021C155.675 20.0016 154.724 20.3008 154.699 21.5973C156.301 21.5973 157.803 21.5973 159.33 21.5973Z" fill="white"/>
<path d="M70.4916 28.7779C67.0372 28.6532 64.4339 25.8607 64.559 22.3951C64.6842 19.1289 67.6129 16.5359 71.0423 16.7105C74.0711 16.8601 76.6244 19.7523 76.4992 22.8688C76.3741 26.2098 73.6456 28.8776 70.4916 28.7779ZM67.8132 22.7442C67.8132 24.4645 68.9897 25.8358 70.5166 25.8857C72.0435 25.9355 73.2201 24.5642 73.195 22.794C73.195 21.0986 72.0435 19.852 70.5166 19.8021C69.0147 19.7522 67.8132 21.0737 67.8132 22.7442Z" fill="white"/>
<path d="M87.7885 17.708C88.2641 17.5085 89.0401 17.0098 89.8661 16.8353C93.1703 16.1621 95.6485 18.1069 95.7987 21.4977C95.8738 23.2679 95.8487 25.0631 95.8237 26.8582C95.7987 27.9303 95.0978 28.6783 94.1716 28.6783C93.2705 28.6783 92.5946 27.9303 92.5696 26.8084C92.5445 25.2376 92.5946 23.6419 92.5445 22.0712C92.4945 20.5004 91.8937 19.8272 90.517 19.7524C89.1152 19.6776 88.3142 20.3259 88.189 21.8966C88.0638 23.4674 88.1389 25.0381 88.1139 26.6338C88.0889 27.9054 87.5382 28.6035 86.5619 28.6534C85.5356 28.7032 84.8598 27.9303 84.8598 26.6338C84.8347 24.0159 84.8598 21.398 84.8598 18.7801C84.8598 18.0071 84.8097 17.0846 85.7609 16.9849C86.3366 16.9101 86.9875 17.4088 87.7885 17.708Z" fill="white"/>
<path d="M165.688 19.852C164.561 19.6775 163.36 19.6525 163.36 18.2064C163.36 16.8351 164.486 16.7603 165.663 16.6357C165.663 15.7132 165.663 14.8156 165.663 13.918C165.688 12.6963 166.289 11.9484 167.24 11.9234C168.216 11.8985 168.892 12.6963 168.917 13.9679C168.942 14.8405 168.917 15.6882 168.917 16.5858C170.143 16.8601 171.846 16.4113 171.695 18.356C171.57 19.9517 170.169 19.7024 168.992 19.8021C168.992 21.4975 168.967 23.193 169.017 24.8634C169.042 25.6114 169.568 25.9106 170.294 25.9355C171.245 25.9605 171.971 26.3095 171.946 27.3816C171.921 28.5036 171.145 28.8028 170.143 28.8277C167.19 28.9025 165.813 27.6808 165.713 24.7388C165.638 23.0932 165.688 21.4726 165.688 19.852Z" fill="white"/>
<path d="M134.348 17.658C135.299 17.3589 136.375 16.9101 137.477 16.7355C138.428 16.5859 139.104 17.1345 139.154 18.1318C139.204 19.1789 138.578 19.6028 137.627 19.7275C135.349 20.0017 134.899 20.5004 134.899 22.8191C134.899 24.0657 134.899 25.3124 134.899 26.559C134.874 27.8555 134.273 28.6533 133.297 28.6783C132.32 28.7032 131.669 27.9054 131.644 26.6089C131.619 24.0408 131.644 21.4727 131.644 18.9047C131.644 18.1318 131.494 17.1345 132.521 17.0098C133.096 16.9101 133.747 17.4337 134.348 17.658Z" fill="white"/>
<path d="M78.5516 22.7443C78.5516 21.4229 78.5266 20.0765 78.5516 18.7551C78.5767 17.658 79.2275 16.9101 80.1286 16.8851C81.0298 16.8602 81.7807 17.6082 81.7807 18.7052C81.8058 21.4478 81.8058 24.1904 81.7807 26.933C81.7807 27.9801 81.18 28.5785 80.1787 28.6533C79.2776 28.7281 78.5516 27.9552 78.5266 26.8582C78.5516 25.4869 78.5516 24.1156 78.5516 22.7443Z" fill="white"/>
<path d="M80.1038 11.749C81.2553 11.749 82.1064 12.5718 82.0813 13.6938C82.0563 14.7409 81.2052 15.5637 80.1539 15.5637C79.1526 15.5637 78.3516 14.7659 78.3266 13.7436C78.2765 12.5967 79.0275 11.749 80.1038 11.749Z" fill="white"/>
</g>
<defs>
<clipPath id="clip0_157_5790">
<rect width="216" height="37" fill="white" transform="translate(0.0517578 0.928223)"/>
</clipPath>
</defs>
</svg>
