<svg width="165" height="45" viewBox="0 0 165 45" fill="none" xmlns="http://www.w3.org/2000/svg">
<g clip-path="url(#clip0_377_434)">
<path d="M21.8625 44.9282C9.69375 44.9282 0 35.3358 0 23.0325C0 10.9377 9.69375 0.928223 21.8625 0.928223C33.825 0.928223 43.5188 10.7292 43.725 22.824C43.725 35.1273 34.0313 44.9282 21.8625 44.9282ZM22.6875 26.5775C24.75 28.2458 28.6688 28.2458 31.5563 26.369C28.6688 26.9946 25.7812 27.2031 22.6875 26.5775ZM27.0188 13.6486C28.6688 14.6913 30.3188 15.1083 32.175 15.7339C33.6188 16.151 35.2688 16.7766 36.3 17.8192C38.1563 19.4875 38.1563 22.1984 36.5063 23.8666C34.2375 26.1605 31.9688 28.4543 29.9062 30.9567C27.4312 33.8761 25.3687 37.0041 25.1625 40.9661C25.1625 42.8429 25.1625 43.0514 27.0188 42.4259C36.3 39.9235 42.6938 30.3311 41.4563 20.1131C40.0125 7.60121 26.6062 -0.948554 14.85 3.43059C5.775 7.18415 0.4125 16.151 1.85625 26.1605C2.26875 29.0799 3.3 31.7908 4.95 34.0846C5.56875 33.459 5.775 32.6249 5.98125 31.9993C7.21875 28.4543 7.425 24.7007 7.63125 21.1557C7.8375 17.4022 9.69375 14.8998 12.7875 13.2315C15.8812 11.5633 18.975 11.3548 22.275 11.9804C23.925 12.6059 25.575 13.023 27.0188 13.6486ZM22.6875 17.8192C22.6875 15.5254 21.0375 14.0657 18.7688 14.0657C16.5 14.0657 14.85 15.9424 14.85 18.0277C14.85 19.9045 16.9125 22.1984 18.7688 22.1984C20.625 22.1984 22.8938 19.9045 22.6875 17.8192ZM33 22.6154C33.6188 22.6154 33.825 22.1984 33.6187 21.7813C33.6187 21.3642 33.2062 21.1557 32.7937 21.1557C32.175 21.1557 31.9688 21.5728 31.9688 21.9898C32.175 22.4069 32.3812 22.6154 33 22.6154ZM32.5875 26.1605C32.5875 25.9519 32.5875 25.9519 32.5875 26.1605C32.3813 26.1605 32.3813 26.1605 32.5875 26.1605Z" fill="#8BC340"/>
<path d="M114.469 27.2032C111.169 29.7056 107.869 29.7056 105.187 27.4117C102.506 24.9093 101.681 20.1131 103.744 16.5681C105.394 13.4402 108.9 12.189 112.406 13.4402C114.056 13.8572 115.294 14.8999 115.912 16.5681C116.119 16.9852 116.737 17.8193 115.912 18.2364C115.294 18.4449 114.056 18.862 113.644 17.6108C113.231 16.3596 112.2 15.734 110.962 15.3169C107.662 14.6913 105.394 16.7766 105.187 20.7387C104.981 25.1179 107.869 28.0373 111.581 26.7861C112.406 26.5776 113.025 26.1605 113.437 25.5349C113.85 24.7008 114.469 23.8667 114.056 23.0326C113.85 22.407 112.819 22.824 112.2 22.824C111.787 22.824 111.375 22.824 110.962 22.824C110.137 22.824 110.137 22.407 110.137 21.7814C110.137 21.1558 110.137 20.7387 110.962 20.7387C112.612 20.7387 114.262 20.7387 115.912 20.7387C116.737 20.7387 116.737 21.1558 116.737 21.7814C116.737 23.6582 116.737 25.5349 116.737 27.4117C116.737 27.8288 117.15 28.6629 116.119 28.6629C115.294 28.6629 114.881 28.4544 114.881 27.6202C114.675 27.4117 114.469 27.2032 114.469 27.2032Z" fill="white"/>
<path d="M57.1312 21.1557C57.1312 15.1083 61.6687 11.7718 67.0312 13.4401C68.6812 14.0657 69.9187 15.1083 70.5375 16.568C70.7437 16.9851 71.3625 17.8192 70.5375 18.0277C69.7125 18.2363 68.475 18.8619 68.0625 17.6107C67.0312 15.3168 65.3812 14.6912 63.1125 15.3168C61.2562 15.7339 60.0187 17.6107 59.8125 20.113C59.4 23.0325 60.6375 25.7434 62.7 26.5775C64.9687 27.6202 67.4437 26.5775 68.0625 24.0751C68.475 22.4069 69.5062 22.8239 70.3312 23.0325C71.1562 23.0325 70.7437 23.6581 70.5375 24.2837C69.9187 26.9946 68.0625 28.8713 65.3812 29.2884C62.2875 29.7055 59.4 28.2457 58.1625 25.7434C57.3375 24.0751 57.1312 22.6154 57.1312 21.1557Z" fill="white"/>
<path d="M146.85 23.4497C144.994 24.2838 145.406 25.7435 145.406 27.2032C145.406 28.2459 145.406 28.6629 144.169 28.6629C142.931 28.6629 142.931 28.0373 142.931 27.2032C142.931 23.0326 142.931 18.862 142.931 14.6914C142.931 13.6487 143.344 13.4402 144.169 13.4402C145.2 13.4402 145.406 13.8572 145.406 14.6914C145.406 16.9852 145.406 19.279 145.406 21.7814C146.85 20.9473 147.675 19.6961 148.706 18.6535C149.738 17.4023 150.975 17.4023 152.419 17.6108C151.594 18.4449 150.769 19.4876 149.944 20.3217C148.5 21.3644 148.706 22.1985 149.738 23.4497C150.975 25.1179 152.006 26.7862 153.038 28.4544C151.181 29.08 149.944 28.6629 149.119 26.7862C148.5 25.535 147.675 24.4923 146.85 23.4497Z" fill="white"/>
<path d="M128.906 25.3263C128.7 26.9946 127.462 28.0372 126.019 28.6628C123.956 29.4969 122.1 29.0799 120.45 27.8287C118.594 26.369 118.181 23.241 119.212 20.7386C120.244 18.4448 122.1 17.1936 124.575 17.4021C127.256 17.6107 129.525 20.5301 129.112 23.0325C129.112 23.6581 128.7 23.6581 128.081 23.6581C126.019 23.6581 123.956 23.6581 122.1 23.6581C121.069 23.6581 120.862 24.0751 121.275 24.9092C121.481 25.9519 122.1 26.5775 123.131 26.786C124.162 26.9946 125.4 27.2031 126.019 26.1604C126.844 25.1178 127.669 25.1178 128.906 25.3263ZM123.75 22.1983C123.956 22.1983 124.369 22.1983 124.575 22.1983C125.194 21.9898 126.431 22.6154 126.637 21.7813C126.844 20.9472 126.019 19.9045 125.194 19.4874C124.162 18.8619 123.131 19.0704 122.1 19.9045C121.481 20.3216 120.862 21.1557 121.069 21.7813C121.275 22.6154 122.1 21.9898 122.719 22.1983C123.131 22.1983 123.544 22.1983 123.75 22.1983Z" fill="white"/>
<path d="M77.9626 17.4021C81.4688 17.4021 83.5313 19.6959 83.5313 23.241C83.5313 26.786 81.2626 29.0798 77.9626 29.0798C74.6626 29.0798 72.3938 26.786 72.3938 23.241C72.3938 19.4874 74.6626 17.4021 77.9626 17.4021ZM74.8688 23.0324C74.8688 25.5348 76.3126 27.203 78.3751 26.9945C80.2313 26.786 81.2626 25.1177 81.0563 22.8239C80.8501 20.7386 79.6126 19.0703 77.7563 19.0703C76.1063 19.2789 74.8688 20.9471 74.8688 23.0324Z" fill="white"/>
<path d="M159.225 17.4021C162.731 17.4021 165 19.6959 164.794 23.241C164.794 26.786 162.525 29.0798 159.225 29.0798C155.719 29.0798 153.656 26.786 153.656 23.241C153.862 19.4874 155.925 17.4021 159.225 17.4021ZM162.525 23.241C162.525 20.7386 161.288 19.0703 159.431 19.0703C157.575 19.0703 156.338 20.9471 156.338 23.241C156.338 24.0751 156.544 24.9092 156.956 25.7433C157.987 27.4116 160.463 27.4116 161.7 26.1604C162.319 25.3263 162.525 24.2836 162.525 23.241Z" fill="white"/>
<path d="M93.0187 19.0704C94.2562 17.6107 95.7 17.1936 97.1437 17.4022C99 17.6107 100.237 18.6533 100.237 20.5301C100.237 23.0325 100.237 25.3263 100.237 27.8287C100.237 28.6628 99.825 28.6628 99.2062 28.6628C98.5875 28.6628 97.9687 28.8713 97.9687 27.6202C97.9687 25.7434 97.9687 23.8666 97.9687 21.7813C97.9687 19.9045 97.35 19.0704 95.9062 19.0704C94.4625 19.0704 93.225 20.1131 93.225 21.7813C93.0187 23.6581 93.225 25.3263 93.225 27.2031C93.225 28.0372 93.225 28.6628 91.9875 28.6628C90.75 28.6628 90.75 28.0372 90.75 27.2031C90.75 24.4922 90.75 21.7813 90.75 18.8619C90.75 18.2363 90.3375 17.4022 91.575 17.4022C92.6062 17.6107 93.4312 17.4022 93.0187 19.0704Z" fill="white"/>
<path d="M135.506 17.4021C137.981 17.4021 139.425 18.0277 140.456 19.6959C140.663 20.113 141.281 20.9471 140.663 21.1557C140.044 21.3642 139.013 21.7812 138.394 20.9471C137.569 19.4874 136.538 19.0703 135.094 19.4874C133.444 20.113 133.031 21.3642 133.031 23.0324C133.031 24.0751 133.031 24.9092 133.444 25.7433C133.856 26.786 134.681 27.203 135.713 27.203C136.744 27.203 137.569 26.786 138.188 25.7433C138.394 25.3263 138.394 24.7007 139.013 24.7007C139.631 24.7007 140.25 24.4921 140.663 24.9092C141.075 25.3263 140.663 25.9519 140.456 26.3689C139.013 29.7054 133.856 30.1225 131.794 27.203C130.35 25.1177 130.35 21.3642 132 19.2789C132.619 17.8192 134.063 17.4021 135.506 17.4021Z" fill="white"/>
<path d="M85.5937 23.0324C85.5937 21.5727 85.5937 20.3215 85.5937 18.8618C85.5937 17.8192 85.7999 17.4021 86.8312 17.4021C87.8624 17.4021 88.0687 17.8192 88.0687 18.8618C88.0687 21.7812 88.0687 24.4921 88.0687 27.4116C88.0687 28.2457 87.8624 28.6628 86.8312 28.6628C86.0062 28.6628 85.3875 28.6628 85.3875 27.4116C85.5937 25.9519 85.5937 24.4921 85.5937 23.0324Z" fill="white"/>
<path d="M86.8312 13.4401C87.6562 13.2315 88.0687 13.4401 88.0687 14.4827C88.0687 15.5254 87.6562 15.7339 86.8312 15.7339C85.8 15.7339 85.5938 15.3168 85.5938 14.4827C85.5938 13.2315 86.2125 13.2315 86.8312 13.4401Z" fill="white"/>
<path d="M22.275 11.9804C18.975 11.5633 15.8813 11.5633 12.7875 13.2315C9.69378 15.1083 8.04378 17.6107 7.63128 21.3642C7.42503 25.1178 7.21878 28.6628 5.98128 32.2078C5.77503 32.8334 5.77503 33.6676 4.95003 34.2931C3.09378 31.7908 2.26878 29.0799 1.85628 26.369C0.412532 16.151 5.77503 7.18414 15.2625 3.63912C27.0188 -0.740028 40.2188 7.80974 41.8688 20.3216C43.1063 30.3311 36.7125 39.9235 27.4313 42.6344C25.575 43.0514 25.3688 43.0514 25.575 41.1747C25.7813 37.2126 27.8438 34.0846 30.3188 31.1652C32.3813 28.6628 34.65 26.369 36.9188 24.0751C38.775 22.1984 38.5688 19.696 36.7125 18.0277C35.475 16.9851 34.0313 16.3595 32.5875 15.9424C30.7313 15.3168 29.0813 14.8998 27.4313 13.8571C26.4 11.9804 24.9563 11.3548 22.275 11.9804Z" fill="#F6E888"/>
<path d="M22.6875 17.8192C22.6875 19.9045 20.625 22.1984 18.7687 22.1984C16.9125 22.1984 14.85 19.9045 14.85 18.0278C14.85 15.9425 16.5 14.0657 18.7687 14.0657C21.0375 14.0657 22.6875 15.7339 22.6875 17.8192ZM21.45 18.0278C21.45 16.151 20.625 15.1083 18.975 15.1083C17.325 15.1083 16.2937 16.151 16.2937 17.8192C16.2937 19.4875 17.325 20.5301 18.975 20.5301C20.4187 20.7387 21.45 19.9045 21.45 18.0278Z" fill="#F1F2F2"/>
<path d="M22.6875 26.5774C25.575 27.203 28.6688 26.9945 31.5563 26.3689C28.875 28.2457 24.75 28.2457 22.6875 26.5774Z" fill="#58595B"/>
<path d="M22.275 11.9804C24.75 11.3548 26.4 11.9804 27.0188 13.6486C25.575 13.023 23.925 12.606 22.275 11.9804Z" fill="#58595B"/>
<path d="M33 22.6155C32.3813 22.6155 32.175 22.407 32.175 21.7814C32.175 21.3643 32.3813 20.9473 33 20.9473C33.4125 20.9473 33.6188 21.1558 33.825 21.5729C33.825 22.1984 33.6188 22.6155 33 22.6155Z" fill="#F3F3F4"/>
<path d="M32.5885 26.1605C32.381 26.1605 32.381 26.1605 32.5885 26.1605C32.5885 25.952 32.5885 25.952 32.5885 26.1605Z" fill="#58595B"/>
<path d="M34.2384 8.85244C34.2384 8.64391 34.0309 8.64391 34.2384 8.85244C34.0309 8.64391 34.0309 8.64391 34.2384 8.85244C34.2384 8.64391 34.2384 8.64391 34.2384 8.85244Z" fill="#FEFCF5"/>
<path d="M34.4438 9.06086C34.4438 8.85233 34.2375 8.85233 34.2375 8.6438C34.2375 8.85233 34.4438 9.06086 34.4438 9.06086C34.4438 9.06086 34.65 9.06086 34.4438 9.06086Z" fill="#FEFCF5"/>
<path d="M21.45 18.0278C21.45 19.6961 20.4188 20.7387 18.7688 20.5302C17.325 20.5302 16.0875 19.279 16.0875 17.8193C16.0875 16.1511 17.1188 15.1084 18.7688 15.1084C20.625 15.3169 21.45 16.1511 21.45 18.0278Z" fill="#58595B"/>
</g>
<defs>
<clipPath id="clip0_377_434">
<rect width="165" height="44" fill="white" transform="translate(0 0.928223)"/>
</clipPath>
</defs>
</svg>
