<svg width="149" height="41" viewBox="0 0 149 41" fill="none" xmlns="http://www.w3.org/2000/svg">
<g clip-path="url(#clip0_157_5780)">
<path d="M34.8861 13.1488C35.3182 18.7623 35.2318 24.3327 34.9725 29.9462C34.7996 33.4438 31.602 36.2074 28.0586 36.5961C24.256 36.9847 20.8855 35.0415 19.762 31.5007C19.1138 29.3848 18.5088 29.7735 17.3421 31.0257C16.0458 32.3643 14.7062 33.6598 13.2802 34.8688C10.7739 36.9415 7.92197 37.2006 4.98357 35.9483C2.04518 34.6529 0.403133 32.3211 0.359922 29.1689C0.230287 22.6486 0.230287 16.0851 0.359922 9.56476C0.446345 6.15346 3.08226 3.30351 6.40956 2.56944C10.0393 1.79218 13.4963 3.34669 15.2247 6.49891C16.6075 9.08977 16.6075 9.08977 19.0274 7.23298C19.2002 7.10344 19.4163 7.06026 19.5891 6.9739C19.5027 7.53525 19.4595 8.0966 19.3731 8.65796C18.552 14.0124 22.5275 18.3305 27.929 17.9851C31.2131 17.726 33.2008 15.6533 34.8861 13.1488Z" fill="#06DB8E"/>
<path d="M88.4676 13.5775C92.3135 10.7276 94.3012 10.7708 97.2396 13.6639C98.0174 14.4412 98.3199 13.9662 98.7088 13.4912C99.5298 12.498 100.653 12.023 101.863 11.6776C105.147 10.814 108.129 12.8866 108.345 16.4275C108.561 19.7092 108.388 23.0342 108.431 26.3591C108.475 28 107.308 27.4818 106.487 27.5682C105.493 27.6545 104.672 27.6545 104.715 26.1864C104.802 23.5955 104.715 21.0047 104.758 18.4138C104.758 16.6434 104.456 15.0457 102.339 14.7002C100.61 14.4412 99.0977 15.7798 98.6656 17.9388C98.1471 20.5729 98.2767 23.2501 98.4063 25.8841C98.4495 27.525 97.6717 27.525 96.4618 27.5682C95.2087 27.6114 94.6901 27.3091 94.7333 25.8841C94.863 23.2933 94.7765 20.7024 94.7765 18.1115C94.7333 16.5138 94.3876 14.9593 92.4863 14.7002C90.5418 14.4412 89.4183 15.6934 88.8998 17.4206C88.0787 20.0979 88.4244 22.8615 88.4244 25.5819C88.4244 27.0068 88.1219 27.6114 86.5231 27.5682C85.0107 27.5682 84.7947 26.9636 84.7947 25.6682C84.8811 21.6524 84.7946 17.5934 84.8379 13.5775C84.8379 12.8003 84.449 11.6776 85.9182 11.8071C86.9984 11.9367 88.5109 11.2458 88.4676 13.5775Z" fill="#F2F2F2"/>
<path d="M34.885 13.1496C33.1997 15.6541 31.212 17.7268 27.9279 17.9859C22.5264 18.3313 18.5509 14.0132 19.4152 8.70194C19.5016 8.14058 19.588 7.57923 19.6312 7.01788C21.0572 5.03155 22.6993 3.26113 25.2487 2.61342C30.3477 1.31799 35.1874 5.11791 35.1442 10.386C35.101 11.2928 34.9714 12.1996 34.885 13.1496Z" fill="#F2F2F2"/>
<path d="M49.6634 19.666C49.6634 17.5933 49.6634 15.5206 49.6634 13.4047C49.6634 12.8434 49.3609 11.8934 50.3548 11.9366C51.3055 11.9798 52.7747 11.2025 53.1204 12.5843C53.5093 14.0956 53.9414 13.232 54.4599 12.8866C56.7501 11.4184 59.1268 11.0298 61.5898 12.3252C63.9665 13.5775 64.3554 15.8229 64.3122 18.1978C64.3122 20.8751 64.269 23.5091 64.3554 26.1431C64.3986 27.5249 63.7072 27.6545 62.6269 27.6113C61.6331 27.5681 60.6392 27.784 60.7256 26.1431C60.8552 23.725 60.812 21.2637 60.7688 18.8024C60.7256 16.9888 60.4231 15.3047 58.2625 14.8729C56.318 14.4843 54.5896 15.5206 53.7685 17.6797C52.7747 20.1842 53.3364 22.775 53.2932 25.3659C53.25 26.7909 53.25 27.6977 51.3055 27.6977C49.1881 27.6977 49.7066 26.4022 49.6634 25.2795C49.6202 23.3796 49.6634 21.5228 49.6634 19.666Z" fill="#F2F2F2"/>
<path d="M82.3315 19.709C82.3315 24.5885 79.1771 27.9134 74.5534 27.9134C69.9298 27.9134 66.6889 24.5453 66.7321 19.709C66.7321 14.8296 69.8866 11.5478 74.5534 11.5046C79.1339 11.5478 82.3315 14.8296 82.3315 19.709ZM70.4051 19.5363C70.3187 22.5158 71.9607 24.6317 74.4238 24.718C76.8436 24.8044 78.5721 22.8612 78.7017 20.0113C78.8314 16.9454 77.0597 14.7 74.5966 14.7C72.1336 14.7 70.4483 16.6432 70.4051 19.5363Z" fill="#F2F2F2"/>
<path d="M141.661 27.9566C139.285 27.8271 137.037 27.3521 135.482 25.3658C135.007 24.7181 134.013 23.7681 135.352 23.0772C136.216 22.6454 137.21 21.2636 138.334 23.1204C139.284 24.7181 141.013 25.1931 142.871 24.6749C143.649 24.459 144.427 24.1567 144.513 23.2067C144.556 22.2999 143.779 21.9977 143.13 21.7386C141.791 21.2204 140.408 20.875 139.025 20.4C136.044 19.2773 134.963 17.9387 135.223 15.6932C135.439 13.5774 137.34 11.9797 140.149 11.6774C142.655 11.3752 145.032 11.8501 146.933 13.7069C147.451 14.2251 148.618 15.0455 147.408 15.6932C146.587 16.1251 145.55 17.6364 144.34 16.0387C143.174 14.5274 141.618 14.2683 139.889 14.8728C139.328 15.0887 138.852 15.4342 138.852 16.0819C138.896 16.6432 139.284 16.9887 139.803 17.1614C141.315 17.6796 142.828 18.1114 144.297 18.6296C147.149 19.6659 148.402 21.2204 148.229 23.3363C148.013 25.6681 146.285 27.2226 143.346 27.6976C142.785 27.8703 142.223 27.9135 141.661 27.9566Z" fill="#F2F2F2"/>
<path d="M126.407 11.548C128.482 11.5912 130.642 12.7571 132.068 15.2184C132.457 15.8661 132.803 16.6866 131.679 16.8593C130.815 16.9889 130.037 18.5865 129 16.9457C127.661 14.7866 125.932 14.2253 123.944 15.0889C121.913 15.9957 120.92 18.7593 121.611 21.4365C122.173 23.5955 123.988 24.9342 126.062 24.7182C127.185 24.5887 128.266 24.1569 128.698 23.0774C129.562 20.832 130.945 22.0842 131.895 22.6887C133.235 23.5524 131.982 24.4592 131.463 25.1069C129.476 27.7841 125.889 28.6477 122.518 27.3955C119.537 26.2728 117.592 23.0342 117.722 19.407C117.895 14.6571 121.092 11.5049 126.407 11.548Z" fill="#F2F2F2"/>
<path d="M115.302 19.9683C115.302 22.041 115.216 24.1137 115.345 26.1864C115.432 27.6546 114.568 27.5682 113.574 27.5682C112.58 27.5682 111.586 27.7841 111.629 26.1432C111.716 21.8251 111.716 17.5502 111.629 13.2321C111.586 11.8071 112.364 11.8071 113.401 11.8071C114.395 11.8503 115.432 11.6344 115.345 13.2753C115.216 15.5207 115.302 17.7661 115.302 19.9683Z" fill="#F2F2F2"/>
</g>
<defs>
<clipPath id="clip0_157_5780">
<rect width="148" height="40" fill="white" transform="translate(0.405273 0.428223)"/>
</clipPath>
</defs>
</svg>
