<svg width="422" height="467" viewBox="0 0 422 467" fill="none" xmlns="http://www.w3.org/2000/svg">
<g clip-path="url(#clip0_239_2497)">
<path d="M155.116 205.125V208.841C155.116 209.46 154.914 209.976 154.509 210.389L153.093 211.833L154.408 213.175C154.812 213.588 155.015 214.104 155.015 214.723V218.954C155.015 220.399 154.61 221.431 153.902 222.154C153.194 222.876 152.081 223.289 150.766 223.289H140.042V203.164L138.929 200.688H150.867C152.283 200.688 153.295 201.1 154.003 201.823C154.711 202.545 155.116 203.68 155.116 205.125ZM149.855 208.634V206.157C149.855 205.744 149.45 205.332 149.046 205.332H145.302V209.357H149.046C149.552 209.46 149.855 209.047 149.855 208.634ZM149.855 217.819V214.929C149.855 214.517 149.45 214.104 149.046 214.104H145.302V218.645H149.046C149.552 218.645 149.855 218.335 149.855 217.819Z" fill="white"/>
<path d="M163.817 200.688V223.289H158.556V203.164L157.443 200.688H163.817Z" fill="white"/>
<path d="M166.144 205.435V200.688H181.218V205.332H176.261V223.289H171V205.435H166.144Z" fill="white"/>
<path d="M207.32 223.392H201.958L199.53 216.374H197.101V223.392H191.841V203.164L190.728 200.688H202.666C204.082 200.688 205.094 201.1 205.802 201.823C206.51 202.545 206.915 203.68 206.915 205.022V211.937C206.915 214.001 206.207 215.239 204.689 215.962L207.32 223.392ZM197.101 211.627H200.946C201.452 211.627 201.755 211.317 201.755 210.801V206.157C201.755 205.641 201.452 205.332 200.946 205.332H197.101V211.627Z" fill="white"/>
<path d="M215.514 200.688V223.289H210.253V203.164L209.141 200.688H215.514Z" fill="white"/>
<path d="M261.344 218.645H268.831L266.302 223.289H256.185V200.688H261.446V218.645H261.344Z" fill="white"/>
<path d="M270.652 219.16V216.168H275.913V218.025C275.913 218.541 276.216 218.851 276.722 218.851H279.859C280.364 218.851 280.668 218.541 280.668 218.025V215.548C280.668 215.032 280.466 214.723 279.96 214.62L274.395 213.381C271.866 212.762 270.652 211.214 270.652 208.634V204.919C270.652 203.474 271.057 202.442 271.765 201.719C272.473 200.997 273.586 200.584 274.901 200.584H281.376C282.793 200.584 283.804 200.997 284.512 201.719C285.221 202.442 285.625 203.577 285.625 204.919V207.602H280.364V206.054C280.364 205.538 280.061 205.228 279.555 205.228H276.52C276.014 205.228 275.711 205.538 275.711 206.054V208.118C275.711 208.634 275.913 208.943 276.419 209.047L281.983 210.285C284.512 210.904 285.726 212.452 285.726 215.032V219.16C285.726 220.605 285.322 221.637 284.614 222.36C283.905 223.082 282.792 223.495 281.477 223.495H274.8C273.384 223.495 272.372 223.082 271.664 222.36C271.057 221.637 270.652 220.502 270.652 219.16Z" fill="white"/>
<path d="M237.266 197.488L233.927 198.52L225.126 218.335L224.114 206.054H226.845L229.274 200.688H223.709H222.09H217.538L218.651 203.268L220.269 223.289H224.923H225.53H228.667L238.682 200.688L237.266 197.488Z" fill="#FB385B"/>
<path d="M234.028 226.488L237.367 225.456L246.169 205.641L247.181 217.922H244.449L242.021 223.289H247.585H249.204H253.757L252.644 220.709L251.025 200.688H246.371H245.865H242.628L232.612 223.289L234.028 226.488Z" fill="#1EBAFA"/>
</g>
<mask id="path-10-inside-1_239_2497" fill="white">
<path d="M421.989 211.095C421.989 166.532 407.865 123.116 381.647 87.0812C355.429 51.0468 318.465 24.2489 276.064 10.5362C233.663 -3.17651 188.007 -3.09832 145.653 10.7595C103.3 24.6174 66.4275 51.5418 40.3329 87.6658L99.1867 130.18C116.293 106.498 140.465 88.8475 168.231 79.7628C195.996 70.6782 225.926 70.6269 253.723 79.6164C281.519 88.6059 305.752 106.174 322.939 129.796C340.127 153.419 349.386 181.882 349.386 211.095H421.989Z"/>
</mask>
<path d="M421.989 211.095C421.989 166.532 407.865 123.116 381.647 87.0812C355.429 51.0468 318.465 24.2489 276.064 10.5362C233.663 -3.17651 188.007 -3.09832 145.653 10.7595C103.3 24.6174 66.4275 51.5418 40.3329 87.6658L99.1867 130.18C116.293 106.498 140.465 88.8475 168.231 79.7628C195.996 70.6782 225.926 70.6269 253.723 79.6164C281.519 88.6059 305.752 106.174 322.939 129.796C340.127 153.419 349.386 181.882 349.386 211.095H421.989Z" fill="#FB385B" stroke="#121825" stroke-width="10" mask="url(#path-10-inside-1_239_2497)"/>
<mask id="path-11-inside-2_239_2497" fill="white">
<path d="M411.14 277.846C418.192 256.725 421.852 234.619 421.985 212.352L329.355 211.8C329.281 224.281 327.229 236.673 323.276 248.512L411.14 277.846Z"/>
</mask>
<path d="M411.14 277.846C418.192 256.725 421.852 234.619 421.985 212.352L329.355 211.8C329.281 224.281 327.229 236.673 323.276 248.512L411.14 277.846Z" fill="#C838FB" stroke="#121825" stroke-width="10" mask="url(#path-11-inside-2_239_2497)"/>
<mask id="path-12-inside-3_239_2497" fill="white">
<path d="M370.133 349.558C387.607 329.501 401.127 306.318 409.978 281.232L348.99 259.713C342.854 277.102 333.483 293.172 321.37 307.075L370.133 349.558Z"/>
</mask>
<path d="M370.133 349.558C387.607 329.501 401.127 306.318 409.978 281.232L348.99 259.713C342.854 277.102 333.483 293.172 321.37 307.075L370.133 349.558Z" fill="#7738FB" stroke="#121825" stroke-width="10" mask="url(#path-12-inside-3_239_2497)"/>
<mask id="path-13-inside-4_239_2497" fill="white">
<path d="M305.49 399.618C329.319 387.7 350.673 371.372 368.421 351.499L301.757 291.966C291.535 303.412 279.236 312.817 265.51 319.681L305.49 399.618Z"/>
</mask>
<path d="M305.49 399.618C329.319 387.7 350.673 371.372 368.421 351.499L301.757 291.966C291.535 303.412 279.236 312.817 265.51 319.681L305.49 399.618Z" fill="#3C38FB" stroke="#121825" stroke-width="10" mask="url(#path-13-inside-4_239_2497)"/>
<mask id="path-14-inside-5_239_2497" fill="white">
<path d="M253.256 417.645C270.531 414.127 287.296 408.457 303.159 400.766L264.168 320.342C255.031 324.772 245.374 328.038 235.424 330.064L253.256 417.645Z"/>
</mask>
<path d="M253.256 417.645C270.531 414.127 287.296 408.457 303.159 400.766L264.168 320.342C255.031 324.772 245.374 328.038 235.424 330.064L253.256 417.645Z" fill="#38B5FB" stroke="#121825" stroke-width="10" mask="url(#path-14-inside-5_239_2497)"/>
<mask id="path-15-inside-6_239_2497" fill="white">
<path d="M213.663 421.868C226.836 421.714 239.966 420.326 252.88 417.721L240.041 354.07C231.105 355.872 222.02 356.833 212.905 356.939L213.663 421.868Z"/>
</mask>
<path d="M213.663 421.868C226.836 421.714 239.966 420.326 252.88 417.721L240.041 354.07C231.105 355.872 222.02 356.833 212.905 356.939L213.663 421.868Z" fill="#00D897" stroke="#121825" stroke-width="10" mask="url(#path-15-inside-6_239_2497)"/>
<mask id="path-16-inside-7_239_2497" fill="white">
<path d="M0.415039 211.095C0.415037 238.776 5.8672 266.186 16.4602 291.76C27.0533 317.334 42.5797 340.571 62.1531 360.144C81.7264 379.718 104.963 395.244 130.537 405.837C156.111 416.43 183.521 421.882 211.202 421.882L211.202 343.764C193.78 343.764 176.528 340.333 160.432 333.666C144.335 326.998 129.71 317.226 117.391 304.907C105.071 292.587 95.299 277.962 88.6317 261.866C81.9645 245.769 78.5329 228.518 78.5329 211.095H0.415039Z"/>
</mask>
<path d="M0.415039 211.095C0.415037 238.776 5.8672 266.186 16.4602 291.76C27.0533 317.334 42.5797 340.571 62.1531 360.144C81.7264 379.718 104.963 395.244 130.537 405.837C156.111 416.43 183.521 421.882 211.202 421.882L211.202 343.764C193.78 343.764 176.528 340.333 160.432 333.666C144.335 326.998 129.71 317.226 117.391 304.907C105.071 292.587 95.299 277.962 88.6317 261.866C81.9645 245.769 78.5329 228.518 78.5329 211.095H0.415039Z" fill="#F9BA3F" stroke="#121825" stroke-width="10" mask="url(#path-16-inside-7_239_2497)"/>
<mask id="path-17-inside-8_239_2497" fill="white">
<path d="M40.4021 87.5701C14.1936 123.809 0.190489 167.444 0.417761 212.167L97.5517 211.673C97.4291 187.56 104.979 164.032 119.11 144.493L40.4021 87.5701Z"/>
</mask>
<path d="M40.4021 87.5701C14.1936 123.809 0.190489 167.444 0.417761 212.167L97.5517 211.673C97.4291 187.56 104.979 164.032 119.11 144.493L40.4021 87.5701Z" fill="#F5752D" stroke="#121825" stroke-width="10" mask="url(#path-17-inside-8_239_2497)"/>
<path d="M273.177 56.6337V55.1297H272.057V48.0097H269.753L266.505 55.0017V56.6337H270.281V59.0977H272.057V56.6337H273.177ZM270.281 55.1297H268.057L270.201 50.3457H270.281V55.1297ZM280.266 56.8897V50.2817C280.266 48.6177 279.642 47.9457 277.962 47.9457H276.394C274.714 47.9457 274.09 48.6177 274.09 50.2817V56.8897C274.09 58.5377 274.778 59.1777 276.394 59.1777H277.962C279.578 59.1777 280.266 58.5377 280.266 56.8897ZM278.234 57.0017C278.234 57.3217 278.01 57.4977 277.738 57.4977H276.586C276.25 57.4977 276.122 57.2417 276.122 57.0017V50.1377C276.122 49.8337 276.266 49.6257 276.618 49.6257H277.754C278.106 49.6257 278.234 49.8977 278.234 50.1857V57.0017ZM285.08 51.9297V49.2577C285.08 48.3297 284.712 47.9777 283.816 47.9777H282.728C281.848 47.9777 281.464 48.3137 281.464 49.2577V51.8977C281.464 52.8097 281.864 53.1297 282.728 53.1297H283.912C284.728 53.1297 285.08 52.7137 285.08 51.9297ZM289.4 47.5777H288.04L282.28 59.4657H283.64L289.4 47.5777ZM290.12 58.0897V55.4337C290.12 54.4897 289.752 54.1537 288.856 54.1537H287.768C286.872 54.1537 286.504 54.5057 286.504 55.4337V58.0737C286.504 58.9857 286.92 59.3217 287.784 59.3217H288.952C289.768 59.3217 290.12 58.8737 290.12 58.0897ZM283.832 51.8657C283.832 51.9777 283.688 52.0577 283.528 52.0577H282.856C282.76 52.0577 282.712 51.8177 282.712 51.7057V49.1937C282.712 49.0817 282.888 49.0337 283 49.0337H283.656C283.768 49.0337 283.832 49.3057 283.832 49.4177V51.8657ZM288.872 58.0417C288.872 58.1537 288.728 58.2497 288.568 58.2497H287.896C287.8 58.2497 287.752 57.9937 287.752 57.8817V55.3537C287.752 55.2417 287.928 55.2097 288.024 55.2097H288.696C288.792 55.2097 288.872 55.4657 288.872 55.5777V58.0417Z" fill="white"/>
<path d="M364.313 305.172V302.196C364.313 301.284 363.817 300.58 362.585 300.58H361.241C360.841 300.58 360.393 300.708 360.169 301.092V298.228C360.169 297.956 360.393 297.78 360.681 297.78H364.025V296.196L363.945 296.116H360.345C358.777 296.116 358.137 296.868 358.137 298.356V305.156C358.137 306.612 358.937 307.332 360.297 307.332H362.249C363.561 307.332 364.313 306.612 364.313 305.172ZM362.281 305.188C362.281 305.508 362.041 305.652 361.705 305.652H360.761C360.425 305.652 360.169 305.556 360.169 305.188V302.5C360.169 302.308 360.409 302.1 360.649 302.1H361.913C362.137 302.1 362.281 302.276 362.281 302.516V305.188ZM369.08 300.084V297.412C369.08 296.484 368.712 296.132 367.816 296.132H366.728C365.848 296.132 365.464 296.468 365.464 297.412V300.052C365.464 300.964 365.864 301.284 366.728 301.284H367.912C368.728 301.284 369.08 300.868 369.08 300.084ZM373.4 295.732H372.04L366.28 307.62H367.64L373.4 295.732ZM374.12 306.244V303.588C374.12 302.644 373.752 302.308 372.856 302.308H371.768C370.872 302.308 370.504 302.66 370.504 303.588V306.228C370.504 307.14 370.92 307.476 371.784 307.476H372.952C373.768 307.476 374.12 307.028 374.12 306.244ZM367.832 300.02C367.832 300.132 367.688 300.212 367.528 300.212H366.856C366.76 300.212 366.712 299.972 366.712 299.86V297.348C366.712 297.236 366.888 297.188 367 297.188H367.656C367.768 297.188 367.832 297.46 367.832 297.572V300.02ZM372.872 306.196C372.872 306.308 372.728 306.404 372.568 306.404H371.896C371.8 306.404 371.752 306.148 371.752 306.036V303.508C371.752 303.396 371.928 303.364 372.024 303.364H372.696C372.792 303.364 372.872 303.62 372.872 303.732V306.196Z" fill="white"/>
<path d="M48.8726 169.28V158.208H45.7366V159.888H46.8406V169.28H48.8726ZM56.6827 167.072V160.464C56.6827 158.8 56.0587 158.128 54.3787 158.128H52.8107C51.1307 158.128 50.5067 158.8 50.5067 160.464V167.072C50.5067 168.72 51.1947 169.36 52.8107 169.36H54.3787C55.9947 169.36 56.6827 168.72 56.6827 167.072ZM54.6507 167.184C54.6507 167.504 54.4267 167.68 54.1547 167.68H53.0027C52.6667 167.68 52.5387 167.424 52.5387 167.184V160.32C52.5387 160.016 52.6827 159.808 53.0347 159.808H54.1707C54.5227 159.808 54.6507 160.08 54.6507 160.368V167.184ZM61.4958 162.112V159.44C61.4958 158.512 61.1278 158.16 60.2318 158.16H59.1438C58.2638 158.16 57.8798 158.496 57.8798 159.44V162.08C57.8798 162.992 58.2798 163.312 59.1438 163.312H60.3278C61.1438 163.312 61.4958 162.896 61.4958 162.112ZM65.8158 157.76H64.4558L58.6958 169.648H60.0558L65.8158 157.76ZM66.5358 168.272V165.616C66.5358 164.672 66.1678 164.336 65.2718 164.336H64.1838C63.2878 164.336 62.9198 164.688 62.9198 165.616V168.256C62.9198 169.168 63.3358 169.504 64.1998 169.504H65.3678C66.1838 169.504 66.5358 169.056 66.5358 168.272ZM60.2478 162.048C60.2478 162.16 60.1038 162.24 59.9438 162.24H59.2718C59.1758 162.24 59.1278 162 59.1278 161.888V159.376C59.1278 159.264 59.3038 159.216 59.4158 159.216H60.0718C60.1838 159.216 60.2478 159.488 60.2478 159.6V162.048ZM65.2878 168.224C65.2878 168.336 65.1438 168.432 64.9838 168.432H64.3118C64.2158 168.432 64.1678 168.176 64.1678 168.064V165.536C64.1678 165.424 64.3438 165.392 64.4398 165.392H65.1118C65.2078 165.392 65.2878 165.648 65.2878 165.76V168.224Z" fill="white"/>
<path d="M230.44 448.122V445.722C230.44 444.97 230.152 444.442 229.256 444.282V444.218C230.008 444.058 230.392 443.69 230.392 442.81V440.426C230.392 439.162 229.56 438.762 228.6 438.762H225L224.904 438.874V440.442H227.736C228.136 440.442 228.408 440.602 228.408 441.066V442.778C228.408 443.274 228.2 443.386 227.832 443.386H225.752V445.098H227.816C228.056 445.098 228.408 445.114 228.408 445.658V447.514C228.408 448.01 228.248 448.218 227.704 448.218H224.904V449.818L224.984 449.914H228.472C229.72 449.914 230.44 449.53 230.44 448.122ZM235.163 442.714V440.042C235.163 439.114 234.795 438.762 233.899 438.762H232.811C231.931 438.762 231.547 439.098 231.547 440.042V442.682C231.547 443.594 231.947 443.914 232.811 443.914H233.995C234.811 443.914 235.163 443.498 235.163 442.714ZM239.483 438.362H238.123L232.363 450.25H233.723L239.483 438.362ZM240.203 448.874V446.218C240.203 445.274 239.835 444.938 238.939 444.938H237.851C236.955 444.938 236.587 445.29 236.587 446.218V448.858C236.587 449.77 237.003 450.106 237.867 450.106H239.035C239.851 450.106 240.203 449.658 240.203 448.874ZM233.915 442.65C233.915 442.762 233.771 442.842 233.611 442.842H232.939C232.843 442.842 232.795 442.602 232.795 442.49V439.978C232.795 439.866 232.971 439.818 233.083 439.818H233.739C233.851 439.818 233.915 440.09 233.915 440.202V442.65ZM238.955 448.826C238.955 448.938 238.811 449.034 238.651 449.034H237.979C237.883 449.034 237.835 448.778 237.835 448.666V446.138C237.835 446.026 238.011 445.994 238.107 445.994H238.779C238.875 445.994 238.955 446.25 238.955 446.362V448.826Z" fill="white"/>
<path d="M81.5499 328.948V325.876C81.5499 324.9 81.1339 324.132 79.7259 324.132H76.1259L76.0299 324.228V325.812H78.9579C79.3259 325.812 79.5179 326.02 79.5179 326.356V328.292C79.5179 328.676 79.2939 328.772 79.0379 328.772H77.5979C76.6059 328.772 75.9179 329.044 75.9179 330.228V335.252H81.4699V333.604H77.9339V330.772C77.9339 330.548 78.0619 330.468 78.2539 330.468H79.9019C81.0379 330.468 81.5499 329.924 81.5499 328.948ZM88.2523 333.476V330.1C88.2523 329.188 87.8683 328.644 86.7323 328.644H84.5563V325.812H87.9163V324.18H82.7163V330.356H85.6763C86.0443 330.356 86.2203 330.596 86.2203 330.82V332.996C86.2203 333.3 86.0763 333.588 85.5803 333.588H82.5243V335.188L82.6203 335.284H86.3163C87.9163 335.284 88.2523 334.532 88.2523 333.476ZM92.9863 328.084V325.412C92.9863 324.484 92.6183 324.132 91.7223 324.132H90.6343C89.7543 324.132 89.3703 324.468 89.3703 325.412V328.052C89.3703 328.964 89.7703 329.284 90.6343 329.284H91.8183C92.6343 329.284 92.9863 328.868 92.9863 328.084ZM97.3063 323.732H95.9463L90.1863 335.62H91.5463L97.3063 323.732ZM98.0263 334.244V331.588C98.0263 330.644 97.6583 330.308 96.7623 330.308H95.6743C94.7783 330.308 94.4103 330.66 94.4103 331.588V334.228C94.4103 335.14 94.8263 335.476 95.6903 335.476H96.8583C97.6743 335.476 98.0263 335.028 98.0263 334.244ZM91.7383 328.02C91.7383 328.132 91.5943 328.212 91.4343 328.212H90.7623C90.6663 328.212 90.6183 327.972 90.6183 327.86V325.348C90.6183 325.236 90.7943 325.188 90.9063 325.188H91.5623C91.6743 325.188 91.7383 325.46 91.7383 325.572V328.02ZM96.7783 334.196C96.7783 334.308 96.6343 334.404 96.4743 334.404H95.8023C95.7063 334.404 95.6583 334.148 95.6583 334.036V331.508C95.6583 331.396 95.8343 331.364 95.9303 331.364H96.6023C96.6983 331.364 96.7783 331.62 96.7783 331.732V334.196Z" fill="white"/>
<path d="M374.116 241.812V238.436C374.116 237.524 373.732 236.98 372.596 236.98H370.42V234.148H373.78V232.516H368.58V238.692H371.54C371.908 238.692 372.084 238.932 372.084 239.156V241.332C372.084 241.636 371.94 241.924 371.444 241.924H368.388V243.524L368.484 243.62H372.18C373.78 243.62 374.116 242.868 374.116 241.812ZM378.85 236.42V233.748C378.85 232.82 378.482 232.468 377.586 232.468H376.498C375.618 232.468 375.234 232.804 375.234 233.748V236.388C375.234 237.3 375.634 237.62 376.498 237.62H377.682C378.498 237.62 378.85 237.204 378.85 236.42ZM383.17 232.068H381.81L376.05 243.956H377.41L383.17 232.068ZM383.89 242.58V239.924C383.89 238.98 383.522 238.644 382.626 238.644H381.538C380.642 238.644 380.274 238.996 380.274 239.924V242.564C380.274 243.476 380.69 243.812 381.554 243.812H382.722C383.538 243.812 383.89 243.364 383.89 242.58ZM377.602 236.356C377.602 236.468 377.458 236.548 377.298 236.548H376.626C376.53 236.548 376.482 236.308 376.482 236.196V233.684C376.482 233.572 376.658 233.524 376.77 233.524H377.426C377.538 233.524 377.602 233.796 377.602 233.908V236.356ZM382.642 242.532C382.642 242.644 382.498 242.74 382.338 242.74H381.666C381.57 242.74 381.522 242.484 381.522 242.372V239.844C381.522 239.732 381.698 239.7 381.794 239.7H382.466C382.562 239.7 382.642 239.956 382.642 240.068V242.532Z" fill="white"/>
<path d="M309.996 340.914V339.17H304.22V340.818H308.012L304.412 350.242H306.572L309.996 340.914ZM314.526 343.074V340.402C314.526 339.474 314.158 339.122 313.262 339.122H312.174C311.294 339.122 310.91 339.458 310.91 340.402V343.042C310.91 343.954 311.31 344.274 312.174 344.274H313.358C314.174 344.274 314.526 343.858 314.526 343.074ZM318.846 338.722H317.486L311.726 350.61H313.086L318.846 338.722ZM319.566 349.234V346.578C319.566 345.634 319.198 345.298 318.302 345.298H317.214C316.318 345.298 315.95 345.65 315.95 346.578V349.218C315.95 350.13 316.366 350.466 317.23 350.466H318.398C319.214 350.466 319.566 350.018 319.566 349.234ZM313.278 343.01C313.278 343.122 313.134 343.202 312.974 343.202H312.302C312.206 343.202 312.158 342.962 312.158 342.85V340.338C312.158 340.226 312.334 340.178 312.446 340.178H313.102C313.214 340.178 313.278 340.45 313.278 340.562V343.01ZM318.318 349.186C318.318 349.298 318.174 349.394 318.014 349.394H317.342C317.246 349.394 317.198 349.138 317.198 349.026V346.498C317.198 346.386 317.374 346.354 317.47 346.354H318.142C318.238 346.354 318.318 346.61 318.318 346.722V349.186Z" fill="white"/>
<path d="M264.903 377.711V376.207H263.783V369.087H261.479L258.231 376.079V377.711H262.007V380.175H263.783V377.711H264.903ZM262.007 376.207H259.783L261.927 371.423H262.007V376.207ZM269.353 373.007V370.335C269.353 369.407 268.985 369.055 268.089 369.055H267.001C266.121 369.055 265.737 369.391 265.737 370.335V372.975C265.737 373.887 266.137 374.207 267.001 374.207H268.185C269.001 374.207 269.353 373.791 269.353 373.007ZM273.673 368.655H272.313L266.553 380.543H267.913L273.673 368.655ZM274.393 379.167V376.511C274.393 375.567 274.025 375.231 273.129 375.231H272.041C271.145 375.231 270.777 375.583 270.777 376.511V379.151C270.777 380.063 271.193 380.399 272.057 380.399H273.225C274.041 380.399 274.393 379.951 274.393 379.167ZM268.105 372.943C268.105 373.055 267.961 373.135 267.801 373.135H267.129C267.033 373.135 266.985 372.895 266.985 372.783V370.271C266.985 370.159 267.161 370.111 267.273 370.111H267.929C268.041 370.111 268.105 370.383 268.105 370.495V372.943ZM273.145 379.119C273.145 379.231 273.001 379.327 272.841 379.327H272.169C272.073 379.327 272.025 379.071 272.025 378.959V376.431C272.025 376.319 272.201 376.287 272.297 376.287H272.969C273.065 376.287 273.145 376.543 273.145 376.655V379.119Z" fill="white"/>
<rect x="233.612" y="409.103" width="21" height="2" transform="rotate(90 233.612 409.103)" fill="white"/>
<defs>
<clipPath id="clip0_239_2497">
<rect width="147" height="29" fill="white" transform="translate(138.929 197.488)"/>
</clipPath>
</defs>
</svg>
