<svg width="52" height="49" viewBox="0 0 52 49" fill="none" xmlns="http://www.w3.org/2000/svg">
<path fill-rule="evenodd" clip-rule="evenodd" d="M42.5009 0.905029H9.10325V5.45168H0.319336V18.1446L9.10325 22.3901V28.0262L24.3497 39.2306V45.1084H15.9413V48.9311H35.9908V45.1084H28.1724V39.1728L42.5009 27.9943V22.3275L51.1963 18.1248V5.43424H42.5009V0.905029ZM42.5009 9.25698V18.0817L47.3736 15.7266V9.25698H42.5009ZM9.10325 18.1443V9.27443H4.14208V15.7464L9.10325 18.1443ZM12.926 25.5887V4.72778H38.6781V25.6205L26.2294 35.407L12.926 25.5887Z" fill="#FB385B"/>
<path d="M44.2518 29.0515L41.6795 29.8467L34.8978 45.1139L34.1183 35.6514H36.2229L38.0938 31.5165H33.8065H32.5593H29.0515L29.909 33.5044L31.1562 48.9307H34.7419H35.2096H37.626L45.3431 31.5165L44.2518 29.0515Z" fill="#1EBAFA"/>
</svg>
