<svg width="41" height="40" viewBox="0 0 41 40" fill="none" xmlns="http://www.w3.org/2000/svg">
<path d="M13.5261 25.3085C20.1381 25.3085 25.4982 19.9484 25.4982 13.3364C25.4982 6.72436 20.1381 1.36426 13.5261 1.36426C6.91412 1.36426 1.55402 6.72436 1.55402 13.3364C1.55402 19.9484 6.91412 25.3085 13.5261 25.3085Z" stroke="#F9BA3F" stroke-width="2" stroke-linecap="round" stroke-linejoin="round"/>
<path d="M33.1929 16.6543C34.7847 17.5716 36.1441 18.8429 37.1658 20.3698C38.1875 21.8968 38.8441 23.6384 39.0846 25.4598C39.3252 27.2812 39.1434 29.1336 38.5532 30.8734C37.963 32.6133 36.9803 34.194 35.6812 35.4931C34.3821 36.7922 32.8014 37.7749 31.0615 38.3651C29.3217 38.9553 27.4693 39.1371 25.6479 38.8966C23.8265 38.656 22.0849 37.9994 20.5579 36.9777C19.031 35.9561 17.7596 34.5967 16.8424 33.0048" stroke="#F9BA3F" stroke-width="2" stroke-linecap="round" stroke-linejoin="round"/>
<path d="M11.8153 9.91553H13.5256V16.7567" stroke="#F9BA3F" stroke-width="2" stroke-linecap="round" stroke-linejoin="round"/>
<path d="M29.4295 24.1113L30.6267 25.3085L25.8379 30.0974" stroke="#F9BA3F" stroke-width="2" stroke-linecap="round" stroke-linejoin="round"/>
</svg>
