<svg width="52" height="46" viewBox="0 0 52 46" fill="none" xmlns="http://www.w3.org/2000/svg">
<mask id="path-1-inside-1_157_5758" fill="white">
<path fill-rule="evenodd" clip-rule="evenodd" d="M14.574 14.2532L11.404 14.2528L11.4035 18.1422L14.5734 18.1426L14.573 21.3246L18.4624 21.3251L18.4629 18.1432L21.6539 18.1437L21.6545 14.2542L18.4634 14.2538L18.4639 11.0747L14.5744 11.0741L14.574 14.2532Z"/>
</mask>
<path fill-rule="evenodd" clip-rule="evenodd" d="M14.574 14.2532L11.404 14.2528L11.4035 18.1422L14.5734 18.1426L14.573 21.3246L18.4624 21.3251L18.4629 18.1432L21.6539 18.1437L21.6545 14.2542L18.4634 14.2538L18.4639 11.0747L14.5744 11.0741L14.574 14.2532Z" fill="#FB385B"/>
<path d="M11.404 14.2528L11.4041 13.9128L11.0641 13.9127L11.064 14.2527L11.404 14.2528ZM14.574 14.2532L14.5739 14.5932L14.9139 14.5932L14.914 14.2532L14.574 14.2532ZM11.4035 18.1422L11.0635 18.1421L11.0634 18.4821L11.4034 18.4822L11.4035 18.1422ZM14.5734 18.1426L14.9134 18.1427L14.9135 17.8027L14.5735 17.8026L14.5734 18.1426ZM14.573 21.3246L14.233 21.3245L14.2329 21.6645L14.5729 21.6646L14.573 21.3246ZM18.4624 21.3251L18.4624 21.6651L18.8024 21.6652L18.8024 21.3252L18.4624 21.3251ZM18.4629 18.1432L18.4629 17.8032L18.1229 17.8032L18.1229 18.1432L18.4629 18.1432ZM21.6539 18.1437L21.6539 18.4837L21.9939 18.4837L21.9939 18.1437L21.6539 18.1437ZM21.6545 14.2542L21.9945 14.2543L21.9945 13.9143L21.6545 13.9142L21.6545 14.2542ZM18.4634 14.2538L18.1234 14.2537L18.1234 14.5937L18.4634 14.5938L18.4634 14.2538ZM18.4639 11.0747L18.8039 11.0747L18.8039 10.7347L18.4639 10.7347L18.4639 11.0747ZM14.5744 11.0741L14.5745 10.7341L14.2345 10.7341L14.2344 11.0741L14.5744 11.0741ZM11.404 14.5928L14.5739 14.5932L14.574 13.9132L11.4041 13.9128L11.404 14.5928ZM11.7435 18.1422L11.744 14.2528L11.064 14.2527L11.0635 18.1421L11.7435 18.1422ZM14.5735 17.8026L11.4035 17.8022L11.4034 18.4822L14.5734 18.4826L14.5735 17.8026ZM14.913 21.3246L14.9134 18.1427L14.2334 18.1426L14.233 21.3245L14.913 21.3246ZM18.4625 20.9851L14.573 20.9846L14.5729 21.6646L18.4624 21.6651L18.4625 20.9851ZM18.1229 18.1432L18.1224 21.3251L18.8024 21.3252L18.8029 18.1432L18.1229 18.1432ZM21.654 17.8037L18.4629 17.8032L18.4628 18.4832L21.6539 18.4837L21.654 17.8037ZM21.3145 14.2542L21.3139 18.1436L21.9939 18.1437L21.9945 14.2543L21.3145 14.2542ZM18.4634 14.5938L21.6544 14.5942L21.6545 13.9142L18.4635 13.9138L18.4634 14.5938ZM18.1239 11.0746L18.1234 14.2537L18.8034 14.2538L18.8039 11.0747L18.1239 11.0746ZM14.5744 11.4141L18.4638 11.4147L18.4639 10.7347L14.5745 10.7341L14.5744 11.4141ZM14.914 14.2532L14.9144 11.0742L14.2344 11.0741L14.234 14.2532L14.914 14.2532Z" fill="#101821" mask="url(#path-1-inside-1_157_5758)"/>
<circle cx="35.389" cy="16.1996" r="3.41531" fill="white" stroke="#101821" stroke-width="0.34"/>
<path d="M19.4516 5.38645C11.5229 5.38645 5.08347 11.7405 4.99198 19.6149H0.491065C0.582745 9.26779 9.03585 0.906816 19.4516 0.906816H32.0642C42.4799 0.906816 50.933 9.2678 51.0247 19.6149H46.5238C46.4323 11.7405 39.9929 5.38645 32.0642 5.38645H19.4516Z" fill="#1EBAFA" stroke="#101821" stroke-width="0.34"/>
<mask id="path-5-inside-2_157_5758" fill="white">
<path fill-rule="evenodd" clip-rule="evenodd" d="M51.1941 24.7683H41.0891V29.2963H46.0508L44.7826 39.9446L34.3088 24.7683H33.5843H28.7425H18.8595V24.7712H17.2045L6.73134 39.9465L5.46329 29.2989H10.4247V24.7712H0.320312L2.35299 45.0702H9.40295L19.6417 29.5222H31.8731L42.1108 45.0686H49.1613L51.1941 24.7683Z"/>
</mask>
<path fill-rule="evenodd" clip-rule="evenodd" d="M51.1941 24.7683H41.0891V29.2963H46.0508L44.7826 39.9446L34.3088 24.7683H33.5843H28.7425H18.8595V24.7712H17.2045L6.73134 39.9465L5.46329 29.2989H10.4247V24.7712H0.320312L2.35299 45.0702H9.40295L19.6417 29.5222H31.8731L42.1108 45.0686H49.1613L51.1941 24.7683Z" fill="#FB385B"/>
<path d="M41.0891 24.7683V24.4283H40.7491V24.7683H41.0891ZM51.1941 24.7683L51.5324 24.8022L51.5698 24.4283H51.1941V24.7683ZM41.0891 29.2964H40.7491V29.6364H41.0891V29.2964ZM46.0508 29.2964L46.3884 29.3366L46.4337 28.9564H46.0508V29.2964ZM44.7826 39.9447L44.5028 40.1378L45.0138 40.8783L45.1202 39.9849L44.7826 39.9447ZM34.3088 24.7683L34.5886 24.5752L34.4872 24.4283H34.3088V24.7683ZM18.8595 24.7683V24.4283H18.5195V24.7683H18.8595ZM18.8595 24.7712V25.1112H19.1995V24.7712H18.8595ZM17.2045 24.7712V24.4312H17.026L16.9247 24.5781L17.2045 24.7712ZM6.73134 39.9466L6.39373 39.9868L6.50013 40.8802L7.01117 40.1397L6.73134 39.9466ZM5.46329 29.299V28.959H5.0804L5.12568 29.3392L5.46329 29.299ZM10.4247 29.299V29.639H10.7647V29.299H10.4247ZM10.4247 24.7712H10.7647V24.4312H10.4247V24.7712ZM0.320312 24.7712V24.4312H-0.0554343L-0.0179956 24.8051L0.320312 24.7712ZM2.35299 45.0702L2.01468 45.1041L2.04533 45.4102H2.35299V45.0702ZM9.40295 45.0702V45.4102H9.58615L9.68691 45.2572L9.40295 45.0702ZM19.6417 29.5223V29.1823H19.4585L19.3578 29.3353L19.6417 29.5223ZM31.8731 29.5223L32.157 29.3353L32.0563 29.1823H31.8731V29.5223ZM42.1109 45.0687L41.8269 45.2557L41.9277 45.4087H42.1109V45.0687ZM49.1613 45.0687V45.4087H49.4689L49.4996 45.1025L49.1613 45.0687ZM41.0891 25.1083H51.1941V24.4283H41.0891V25.1083ZM41.4291 29.2964V24.7683H40.7491V29.2964H41.4291ZM46.0508 28.9564H41.0891V29.6364H46.0508V28.9564ZM45.1202 39.9849L46.3884 29.3366L45.7131 29.2562L44.445 39.9044L45.1202 39.9849ZM34.029 24.9614L44.5028 40.1378L45.0625 39.7515L34.5886 24.5752L34.029 24.9614ZM33.5843 25.1083H34.3088V24.4283H33.5843V25.1083ZM28.7425 25.1083H33.5843V24.4283H28.7425V25.1083ZM18.8595 25.1083H28.7425V24.4283H18.8595V25.1083ZM19.1995 24.7712V24.7683H18.5195V24.7712H19.1995ZM18.8595 24.4312H17.2045V25.1112H18.8595V24.4312ZM16.9247 24.5781L6.45151 39.7534L7.01117 40.1397L17.4843 24.9643L16.9247 24.5781ZM7.06896 39.9064L5.80091 29.2588L5.12568 29.3392L6.39373 39.9868L7.06896 39.9064ZM5.46329 29.639H10.4247V28.959H5.46329V29.639ZM10.7647 29.299V24.7712H10.0847V29.299H10.7647ZM10.4247 24.4312H0.320312V25.1112H10.4247V24.4312ZM-0.0179956 24.8051L2.01468 45.1041L2.6913 45.0364L0.658621 24.7373L-0.0179956 24.8051ZM2.35299 45.4102H9.40295V44.7302H2.35299V45.4102ZM9.68691 45.2572L19.9257 29.7092L19.3578 29.3353L9.11899 44.8832L9.68691 45.2572ZM31.8731 29.1823H19.6417V29.8623H31.8731V29.1823ZM42.3948 44.8817L32.157 29.3353L31.5891 29.7092L41.8269 45.2557L42.3948 44.8817ZM49.1613 44.7287H42.1109V45.4087H49.1613V44.7287ZM50.8558 24.7344L48.823 45.0348L49.4996 45.1025L51.5324 24.8022L50.8558 24.7344Z" fill="#101821" mask="url(#path-5-inside-2_157_5758)"/>
</svg>
