<svg width="43" height="56" viewBox="0 0 43 56" fill="none" xmlns="http://www.w3.org/2000/svg">
<path fill-rule="evenodd" clip-rule="evenodd" d="M42.7221 13.3H0.974609V55.0476H9.96506L9.96502 55.0476H15.0038L15.0038 55.0476H21.1415V55.0476H30.2887L30.2887 55.0476H42.7221V13.3ZM29.9606 50.9053H38.5799V17.4423H5.11686V50.9053H12.1232L22.0664 31.8205H28.4486L29.9606 50.9053ZM17.1166 50.9053H25.6294L24.4849 36.4589L17.1166 50.9053Z" fill="#FB385B"/>
<path d="M21.8483 5.22792C17.7139 5.22792 14.3475 8.58581 14.3475 12.7287L14.3462 21.1645C14.3462 22.335 13.3974 23.2838 12.2269 23.2838C11.0564 23.2838 10.1075 22.335 10.1075 21.1645L10.1088 12.7287C10.1088 6.24141 15.3764 0.989258 21.8483 0.989258C28.3356 0.989258 33.5878 6.25688 33.5878 12.7287V21.1645C33.5878 22.335 32.6389 23.2838 31.4684 23.2838C30.298 23.2838 29.3491 22.335 29.3491 21.1645L29.3491 12.7287C29.3491 8.59438 25.9912 5.22792 21.8483 5.22792Z" fill="#1EBAFA"/>
<path d="M21.8483 5.22792C17.7139 5.22792 14.3475 8.58581 14.3475 12.7287L14.3462 21.1645C14.3462 22.335 13.3974 23.2838 12.2269 23.2838C11.0564 23.2838 10.1075 22.335 10.1075 21.1645L10.1088 12.7287C10.1088 6.24141 15.3764 0.989258 21.8483 0.989258C28.3356 0.989258 33.5878 6.25688 33.5878 12.7287V21.1645C33.5878 22.335 32.6389 23.2838 31.4684 23.2838C30.298 23.2838 29.3491 22.335 29.3491 21.1645L29.3491 12.7287C29.3491 8.59438 25.9912 5.22792 21.8483 5.22792Z" stroke="#101821"/>
</svg>
