<svg width="48" height="48" viewBox="0 0 48 48" fill="none" xmlns="http://www.w3.org/2000/svg">
<rect x="1.5918" y="1.1355" width="45.1761" height="45.1761" stroke="#F9BA3F" stroke-width="2"/>
<path d="M14.8185 11.7246C13.9909 11.7246 13.1972 12.0534 12.612 12.6386C12.0268 13.2238 11.698 14.0175 11.698 14.8451V17.3269C11.698 18.4086 12.2597 19.4113 13.1771 19.9793L21.2196 24.9512C19.9963 25.6103 19.028 26.6588 18.468 27.9306C17.9081 29.2023 17.7886 30.6245 18.1285 31.9719C18.4684 33.3192 19.2482 34.5146 20.3443 35.3686C21.4405 36.2226 22.7903 36.6863 24.1798 36.6863C25.5694 36.6863 26.9192 36.2226 28.0154 35.3686C29.1115 34.5146 29.8913 33.3192 30.2312 31.9719C30.5711 30.6245 30.4516 29.2023 29.8917 27.9306C29.3317 26.6588 28.3634 25.6103 27.1401 24.9512L35.1826 19.9793C35.6346 19.6997 36.0077 19.3093 36.2666 18.8452C36.5254 18.381 36.6614 17.8584 36.6617 17.3269V14.8451C36.6617 14.0175 36.3329 13.2238 35.7477 12.6386C35.1625 12.0534 34.3688 11.7246 33.5412 11.7246H14.8185ZM13.7783 14.8451C13.7783 14.5692 13.8879 14.3046 14.083 14.1096C14.278 13.9145 14.5426 13.8049 14.8185 13.8049H17.9389V20.4785L14.2713 18.211C14.1207 18.1178 13.9963 17.9877 13.91 17.833C13.8237 17.6782 13.7784 17.504 13.7783 17.3269V14.8451ZM20.0192 21.7642V13.8049H28.3405V21.7642L24.727 23.9984C24.5626 24.1001 24.3731 24.1539 24.1798 24.1539C23.9866 24.1539 23.7971 24.1001 23.6327 23.9984L20.0192 21.7642V21.7642ZM30.4208 20.4785V13.8049H33.5412C33.8171 13.8049 34.0817 13.9145 34.2767 14.1096C34.4718 14.3046 34.5814 14.5692 34.5814 14.8451V17.3269C34.5813 17.504 34.536 17.6782 34.4497 17.833C34.3634 17.9877 34.239 18.1178 34.0884 18.211L30.4208 20.4785ZM20.0192 30.4474C20.0192 29.3439 20.4576 28.2856 21.2378 27.5054C22.0181 26.7251 23.0764 26.2868 24.1798 26.2868C25.2833 26.2868 26.3416 26.7251 27.1218 27.5054C27.9021 28.2856 28.3405 29.3439 28.3405 30.4474C28.3405 31.5508 27.9021 32.6091 27.1218 33.3894C26.3416 34.1696 25.2833 34.608 24.1798 34.608C23.0764 34.608 22.0181 34.1696 21.2378 33.3894C20.4576 32.6091 20.0192 31.5508 20.0192 30.4474Z" fill="#F9BA3F"/>
</svg>
