<svg width="36" height="36" viewBox="0 0 36 36" fill="none" xmlns="http://www.w3.org/2000/svg">
<rect x="1.01465" y="1.14893" width="33.8145" height="33.8145" stroke="#F9BA3F" stroke-width="2"/>
<path d="M13.3733 17.3621V12.2054L16.4237 12.3688V17.3621H13.3733Z" fill="#F9BA3F"/>
<path d="M26.374 19.8314V18.5059V17.1986H23.0875V19.9222H22.6699V28.6014H26.7553V19.8314H26.374Z" fill="#F9BA3F"/>
<path d="M27.4162 9.36316H23.0006L19.1609 12.1576L25.7951 18.7918H26.9256V12.4349L27.4162 11.9443V9.36316Z" fill="#F9BA3F"/>
<path d="M9.3965 10.7348H12.0838L13.373 10.8982V13.6944H9.3965L6.90894 14.911V9.50006L9.3965 10.7348Z" fill="#F9BA3F"/>
<path d="M22.9791 8.70117H10.5776L15.2078 16.7812V18.9964H25.9933V13.7852L22.9791 8.70117Z" fill="#F9BA3F"/>
<rect x="6.74609" y="9.34222" width="0.630617" height="5.72624" fill="#F9BA3F"/>
<rect x="9.06592" y="10.2471" width="0.630617" height="3.91652" fill="#F9BA3F"/>
<rect x="27.1204" y="19.7031" width="0.629848" height="4.81592" transform="rotate(90 27.1204 19.7031)" fill="#F9BA3F"/>
<rect x="27.1204" y="21.0001" width="0.629848" height="4.81592" transform="rotate(90 27.1204 21.0001)" fill="#F9BA3F"/>
</svg>
