<svg width="37" height="37" viewBox="0 0 37 37" fill="none" xmlns="http://www.w3.org/2000/svg">
<path d="M9.42514 16.3623C9.18514 16.3623 8.97514 16.4523 8.83514 16.6123C8.69514 16.7623 8.63514 16.9823 8.66514 17.2223L9.16514 20.2123C9.24514 20.8623 9.82514 21.3623 10.4251 21.3623H13.4251C14.0651 21.3623 14.7851 20.8023 14.9251 20.1823L15.9851 16.9923C16.0251 16.8623 15.9951 16.6723 15.9251 16.5523C15.8151 16.4323 15.6451 16.3623 15.4251 16.3623H9.42514ZM13.4251 23.3623H10.4251C8.80514 23.3623 7.38514 22.1023 7.18514 20.5023L6.68514 17.5123C6.57514 16.6623 6.81514 15.8623 7.33514 15.2823C7.85514 14.7023 8.61514 14.3623 9.42514 14.3623H15.4251C16.2551 14.3623 17.0051 14.7123 17.4851 15.3223C17.5951 15.4723 17.6951 15.6323 17.7751 15.8123C18.2051 15.7223 18.6451 15.7223 19.0651 15.8123C19.1451 15.6323 19.2451 15.4723 19.3651 15.3223C19.8351 14.7123 20.5851 14.3623 21.4251 14.3623H27.4251C28.2351 14.3623 28.9951 14.7023 29.5151 15.2823C30.0251 15.8623 30.2651 16.6623 30.1651 17.4723L29.6551 20.5423C29.4651 22.1023 28.0351 23.3623 26.4251 23.3623H23.4251C21.8651 23.3623 20.3451 22.1723 19.9651 20.6623L19.0651 17.9523C18.6851 17.6723 18.1551 17.6723 17.7751 17.9523L16.8551 20.7323C16.4951 22.1823 14.9851 23.3623 13.4251 23.3623ZM21.4251 16.3623C21.2051 16.3623 21.0351 16.4323 20.9251 16.5523C20.8451 16.6723 20.8251 16.8623 20.8751 17.0623L21.8851 20.1123C22.0651 20.8023 22.7851 21.3623 23.4251 21.3623H26.4251C27.0151 21.3623 27.6051 20.8623 27.6751 20.2523L28.1851 17.1823C28.2151 16.9823 28.1551 16.7623 28.0151 16.6123C27.9406 16.5307 27.8492 16.4661 27.7474 16.4229C27.6456 16.3798 27.5357 16.3591 27.4251 16.3623H21.4251Z" fill="#F9BA3F"/>
<rect x="1.51587" y="1.85742" width="33.8145" height="33.8145" stroke="#F9BA3F" stroke-width="2"/>
</svg>
