<svg width="37" height="37" viewBox="0 0 37 37" fill="none" xmlns="http://www.w3.org/2000/svg">
<rect x="1.90454" y="1.82764" width="33.8145" height="33.8145" stroke="#F9BA3F" stroke-width="2"/>
<path fill-rule="evenodd" clip-rule="evenodd" d="M14.7756 8.29321L18.8098 17.9531V17.9536L18.8099 17.9534L18.81 17.9536V17.9531L22.8442 8.29342C21.5788 8.7255 20.2219 8.95995 18.8102 8.95995C17.3983 8.95995 16.0412 8.72543 14.7756 8.29321Z" fill="#F9BA3F"/>
<path fill-rule="evenodd" clip-rule="evenodd" d="M22.8464 29.1766L18.8122 19.5167L18.8122 19.5162L18.8121 19.5165L18.812 19.5162L18.812 19.5168L14.7779 29.1764C16.0433 28.7443 17.4002 28.5098 18.8119 28.5098C20.2238 28.5098 21.5809 28.7444 22.8464 29.1766Z" fill="#F9BA3F"/>
<path fill-rule="evenodd" clip-rule="evenodd" d="M29.2534 14.7001L19.5925 18.7348L19.5934 18.7348L29.2532 22.7689C28.8211 21.5035 28.5866 20.1465 28.5866 18.7348C28.5866 17.3229 28.8212 15.9657 29.2534 14.7001Z" fill="#F9BA3F"/>
<path fill-rule="evenodd" clip-rule="evenodd" d="M8.37016 22.7693L18.0311 18.7347L18.0298 18.7347L8.37012 14.7006C8.80231 15.9661 9.03682 17.3232 9.03682 18.735C9.03682 20.1468 8.80232 21.5039 8.37016 22.7693Z" fill="#F9BA3F"/>
</svg>
