<svg width="37" height="37" viewBox="0 0 37 37" fill="none" xmlns="http://www.w3.org/2000/svg">
<rect x="1.3313" y="1.34424" width="33.8145" height="33.8145" stroke="#F9BA3F" stroke-width="2"/>
<path d="M10.1797 26.2069C9.7777 26.6843 9.10942 27.7218 9.65208 28.0534C10.3304 28.468 15.1162 24.9632 15.1539 24.6241C15.1916 24.2849 14.9655 22.627 15.4554 22.514C15.4554 23.3882 15.8824 23.7071 16.096 23.7573C17.8294 22.4635 21.5299 19.2052 22.4644 16.5221C23.6326 13.1683 24.5747 11.284 24.2356 10.3796C23.8964 9.47519 23.1804 9.17378 21.8615 9.39988C20.5426 9.62597 16.925 8.53325 16.209 8.53325C15.6362 8.53325 15.2418 8.68382 15.1162 8.75911C15.3423 8.41996 16.0658 7.80195 17.1511 8.04313C18.5077 8.34459 20.5049 8.57054 22.4268 8.08066C24.3486 7.59078 24.8385 7.81688 25.7052 8.68359C26.5719 9.55031 27.5894 10.4171 27.8531 10.5302C28.0642 10.6206 27.5391 11.2462 27.2502 11.5476C26.8231 11.1457 25.9162 10.5905 25.7052 11.5853C25.4414 12.8289 24.7254 17.0871 23.1051 19.2727C21.4847 21.4583 12.9683 29.0326 10.6696 29.8617C9.75149 30.1928 9.3024 30.3686 9.11412 30.4538L9.12459 30.5023C8.99879 30.5337 8.92528 30.5393 9.11412 30.4538L8.82315 29.108C8.45883 28.3296 8.2201 26.6596 10.1797 26.2069Z" fill="#F9BA3F"/>
</svg>
