<svg width="43" height="46" viewBox="0 0 43 46" fill="none" xmlns="http://www.w3.org/2000/svg">
<path fill-rule="evenodd" clip-rule="evenodd" d="M19.1305 0.891748L19.1305 8.94473L15.198 8.94473L15.198 4.84166L4.84704 4.68294L18.4313 18.1635L15.5236 20.9999L0.649294 6.4035L0.649292 0.891724L19.1305 0.891748ZM25.17 30.466L36.5182 41.6023L30.8402 41.6147L30.8486 45.4314L42.4186 45.406L42.4185 45.3838L42.4296 45.3839L42.4682 33.8139L38.6515 33.8012L38.6368 38.2148L28.0235 27.6825L25.17 30.466Z" fill="#1EBAFA"/>
<path fill-rule="evenodd" clip-rule="evenodd" d="M24.2072 9.02438V0.891626L42.8715 0.891602L42.8715 6.45797L6.64777 42.0049L12.3869 42.0175L12.3784 45.872L0.693806 45.8463L0.693855 45.8242L0.682487 45.8242L0.643555 34.1397L4.49804 34.1268L4.51288 38.5793L38.6322 4.72038L28.1787 4.88067L28.1787 9.02438H24.2072Z" fill="#FB385B"/>
</svg>
