<svg width="32" height="40" viewBox="0 0 32 40" fill="none" xmlns="http://www.w3.org/2000/svg">
<path d="M9.59867 24.3637L22.1438 11.8186L9.59867 24.3637ZM10.6441 12.864H10.665H10.6441ZM21.0984 23.3183H21.1193H21.0984ZM30.5073 38.9997V5.54598C30.5073 4.43692 30.0667 3.37328 29.2825 2.58905C28.4982 1.80483 27.4346 1.36426 26.3255 1.36426H5.41695C4.30789 1.36426 3.24425 1.80483 2.46003 2.58905C1.6758 3.37328 1.23523 4.43692 1.23523 5.54598V38.9997L8.55324 34.818L15.8712 38.9997L23.1893 34.818L30.5073 38.9997ZM11.6895 12.864C11.6895 13.1412 11.5794 13.4072 11.3833 13.6032C11.1873 13.7993 10.9214 13.9094 10.6441 13.9094C10.3668 13.9094 10.1009 13.7993 9.90486 13.6032C9.70881 13.4072 9.59867 13.1412 9.59867 12.864C9.59867 12.5867 9.70881 12.3208 9.90486 12.1248C10.1009 11.9287 10.3668 11.8186 10.6441 11.8186C10.9214 11.8186 11.1873 11.9287 11.3833 12.1248C11.5794 12.3208 11.6895 12.5867 11.6895 12.864ZM22.1438 23.3183C22.1438 23.5955 22.0337 23.8615 21.8376 24.0575C21.6416 24.2536 21.3757 24.3637 21.0984 24.3637C20.8211 24.3637 20.5552 24.2536 20.3592 24.0575C20.1631 23.8615 20.053 23.5955 20.053 23.3183C20.053 23.041 20.1631 22.7751 20.3592 22.579C20.5552 22.383 20.8211 22.2728 21.0984 22.2728C21.3757 22.2728 21.6416 22.383 21.8376 22.579C22.0337 22.7751 22.1438 23.041 22.1438 23.3183Z" stroke="#F9BA3F" stroke-width="2" stroke-linecap="round" stroke-linejoin="round"/>
</svg>
