<svg width="48" height="48" viewBox="0 0 48 48" fill="none" xmlns="http://www.w3.org/2000/svg">
<rect x="1.75781" y="1.1355" width="45.1761" height="45.1761" stroke="#F9BA3F" stroke-width="2"/>
<path d="M11.2151 15.8451C11.2151 15.1486 11.4918 14.4807 11.9843 13.9882C12.4768 13.4957 13.1447 13.219 13.8412 13.219H34.8504C35.5469 13.219 36.2149 13.4957 36.7074 13.9882C37.1999 14.4807 37.4766 15.1486 37.4766 15.8451V31.6021C37.4766 32.2985 37.1999 32.9665 36.7074 33.459C36.2149 33.9515 35.5469 34.2282 34.8504 34.2282H13.8412C13.1447 34.2282 12.4768 33.9515 11.9843 33.459C11.4918 32.9665 11.2151 32.2985 11.2151 31.6021V15.8451Z" stroke="#F9BA3F" stroke-width="2" stroke-linecap="round" stroke-linejoin="round"/>
<path d="M11.2151 18.4713H37.4766" stroke="#F9BA3F" stroke-width="2" stroke-linecap="round" stroke-linejoin="round"/>
<path d="M11.2151 23.7236H20.4066C20.4066 25.0367 21.1945 27.6628 24.3458 27.6628C27.4972 27.6628 28.2851 25.0367 28.2851 23.7236H37.4766" stroke="#F9BA3F" stroke-width="2" stroke-linecap="round" stroke-linejoin="round"/>
</svg>
