<svg width="48" height="48" viewBox="0 0 48 48" fill="none" xmlns="http://www.w3.org/2000/svg">
<rect x="1.5918" y="1.1355" width="45.1761" height="45.1761" stroke="#F9BA3F" stroke-width="2"/>
<path d="M20.1851 15.3875C20.1851 14.2834 20.6236 13.2246 21.4043 12.4439C22.185 11.6632 23.2439 11.2246 24.3479 11.2246C25.452 11.2246 26.5108 11.6632 27.2915 12.4439C28.0722 13.2246 28.5108 14.2834 28.5108 15.3875C28.5108 16.4915 28.0722 17.5504 27.2915 18.3311C26.5108 19.1118 25.452 19.5504 24.3479 19.5504C23.2439 19.5504 22.185 19.1118 21.4043 18.3311C20.6236 17.5504 20.1851 16.4915 20.1851 15.3875ZM24.3479 13.3081C24.0749 13.3081 23.8045 13.3619 23.5522 13.4664C23.2999 13.5709 23.0707 13.7241 22.8776 13.9172C22.6845 14.1102 22.5314 14.3395 22.4269 14.5917C22.3224 14.844 22.2686 15.1144 22.2686 15.3875C22.2686 15.6605 22.3224 15.9309 22.4269 16.1832C22.5314 16.4355 22.6845 16.6647 22.8776 16.8578C23.0707 17.0509 23.2999 17.2041 23.5522 17.3086C23.8045 17.4131 24.0749 17.4668 24.3479 17.4668C24.8994 17.4668 25.4283 17.2478 25.8183 16.8578C26.2082 16.4679 26.4273 15.939 26.4273 15.3875C26.4273 14.836 26.2082 14.3071 25.8183 13.9172C25.4283 13.5272 24.8994 13.3081 24.3479 13.3081Z" fill="#F9BA3F"/>
<path d="M30.5984 16.4292C30.5984 16.0188 30.6792 15.6124 30.8363 15.2332C30.9933 14.854 31.2236 14.5095 31.5138 14.2193C31.804 13.9291 32.1485 13.6989 32.5277 13.5418C32.9069 13.3848 33.3133 13.3039 33.7237 13.3039C34.1341 13.3039 34.5405 13.3848 34.9197 13.5418C35.2988 13.6989 35.6434 13.9291 35.9336 14.2193C36.2238 14.5095 36.454 14.854 36.6111 15.2332C36.7681 15.6124 36.8489 16.0188 36.8489 16.4292C36.8489 17.2581 36.5197 18.053 35.9336 18.6391C35.3475 19.2252 34.5525 19.5545 33.7237 19.5545C32.8948 19.5545 32.0999 19.2252 31.5138 18.6391C30.9277 18.053 30.5984 17.2581 30.5984 16.4292ZM33.7237 15.3874C33.4474 15.3874 33.1824 15.4972 32.987 15.6926C32.7917 15.8879 32.6819 16.1529 32.6819 16.4292C32.6819 16.7055 32.7917 16.9705 32.987 17.1658C33.1824 17.3612 33.4474 17.471 33.7237 17.471C34 17.471 34.2649 17.3612 34.4603 17.1658C34.6557 16.9705 34.7654 16.7055 34.7654 16.4292C34.7654 16.1529 34.6557 15.8879 34.4603 15.6926C34.2649 15.4972 34 15.3874 33.7237 15.3874Z" fill="#F9BA3F"/>
<path d="M14.972 13.3039C14.1431 13.3039 13.3482 13.6332 12.7621 14.2193C12.1759 14.8054 11.8467 15.6003 11.8467 16.4292C11.8467 17.2581 12.1759 18.053 12.7621 18.6391C13.3482 19.2252 14.1431 19.5545 14.972 19.5545C15.8008 19.5545 16.5958 19.2252 17.1819 18.6391C17.768 18.053 18.0972 17.2581 18.0972 16.4292C18.0972 15.6003 17.768 14.8054 17.1819 14.2193C16.5958 13.6332 15.8008 13.3039 14.972 13.3039ZM13.9302 16.4292C13.9302 16.1529 14.04 15.8879 14.2353 15.6926C14.4307 15.4972 14.6957 15.3874 14.972 15.3874C15.2483 15.3874 15.5132 15.4972 15.7086 15.6926C15.904 15.8879 16.0137 16.1529 16.0137 16.4292C16.0137 16.7055 15.904 16.9705 15.7086 17.1658C15.5132 17.3612 15.2483 17.471 14.972 17.471C14.6957 17.471 14.4307 17.3612 14.2353 17.1658C14.04 16.9705 13.9302 16.7055 13.9302 16.4292Z" fill="#F9BA3F"/>
<path d="M16.5721 21.638C16.2054 22.2711 16.0128 22.9899 16.0137 23.7215H11.8467V28.9303C11.8465 29.4486 11.9752 29.9587 12.2213 30.4149C12.4673 30.871 12.8228 31.2588 13.256 31.5434C13.6891 31.8279 14.1862 32.0003 14.7025 32.045C15.2189 32.0897 15.7382 32.0053 16.2138 31.7993C16.3679 32.489 16.6096 33.1474 16.9222 33.762C16.1314 34.0813 15.2743 34.2016 14.4262 34.1122C13.5781 34.0228 12.7649 33.7266 12.0581 33.2496C11.3512 32.7725 10.7723 32.1291 10.3721 31.376C9.97201 30.623 9.7629 29.7831 9.76318 28.9303V23.7215C9.76318 23.169 9.9827 22.639 10.3734 22.2483C10.7642 21.8575 11.2941 21.638 11.8467 21.638H16.5721Z" fill="#F9BA3F"/>
<path d="M31.7744 33.762C32.5652 34.0813 33.4223 34.2016 34.2704 34.1122C35.1185 34.0228 35.9316 33.7266 36.6385 33.2496C37.3454 32.7725 37.9243 32.1291 38.3244 31.376C38.7246 30.623 38.9337 29.7831 38.9334 28.9303V23.7215C38.9334 23.169 38.7139 22.639 38.3231 22.2483C37.9324 21.8575 37.4025 21.638 36.8499 21.638H32.1244C32.4786 22.2506 32.6828 22.9611 32.6828 23.7215H36.8499V28.9303C36.85 29.4486 36.7213 29.9587 36.4753 30.4149C36.2293 30.871 35.8737 31.2588 35.4406 31.5434C35.0075 31.8279 34.5104 32.0003 33.994 32.045C33.4777 32.0897 32.9584 32.0053 32.4828 31.7993C32.3265 32.489 32.0869 33.1474 31.7744 33.762Z" fill="#F9BA3F"/>
<path d="M20.1807 21.638C19.6281 21.638 19.0982 21.8575 18.7074 22.2483C18.3167 22.639 18.0972 23.169 18.0972 23.7215V29.9721C18.0972 31.6298 18.7557 33.2197 19.9279 34.3919C21.1001 35.5641 22.69 36.2227 24.3477 36.2227C26.0055 36.2227 27.5953 35.5641 28.7675 34.3919C29.9398 33.2197 30.5983 31.6298 30.5983 29.9721V23.7215C30.5983 23.169 30.3788 22.639 29.988 22.2483C29.5973 21.8575 29.0674 21.638 28.5148 21.638H20.1807ZM20.1807 23.7215H28.5148V29.9721C28.5148 31.0773 28.0757 32.1372 27.2943 32.9186C26.5128 33.7001 25.4529 34.1391 24.3477 34.1391C23.2426 34.1391 22.1827 33.7001 21.4012 32.9186C20.6197 32.1372 20.1807 31.0773 20.1807 29.9721V23.7215Z" fill="#F9BA3F"/>
</svg>
