<svg width="48" height="48" viewBox="0 0 48 48" fill="none" xmlns="http://www.w3.org/2000/svg">
<rect x="1.75781" y="1.1355" width="45.1761" height="45.1761" stroke="#F9BA3F" stroke-width="2"/>
<path d="M20.4149 26.344L28.2764 18.4825L20.4149 26.344ZM21.07 19.1376H21.0831H21.07ZM27.6213 25.6889H27.6344H27.6213ZM33.5175 35.5159V14.5517C33.5175 13.8567 33.2414 13.1901 32.75 12.6987C32.2585 12.2072 31.592 11.9312 30.897 11.9312H17.7944C17.0993 11.9312 16.4328 12.2072 15.9414 12.6987C15.4499 13.1901 15.1738 13.8567 15.1738 14.5517V35.5159L19.7597 32.8953L24.3457 35.5159L28.9316 32.8953L33.5175 35.5159ZM21.7251 19.1376C21.7251 19.3113 21.6561 19.478 21.5333 19.6008C21.4104 19.7237 21.2438 19.7927 21.07 19.7927C20.8963 19.7927 20.7296 19.7237 20.6068 19.6008C20.4839 19.478 20.4149 19.3113 20.4149 19.1376C20.4149 18.9638 20.4839 18.7972 20.6068 18.6743C20.7296 18.5515 20.8963 18.4825 21.07 18.4825C21.2438 18.4825 21.4104 18.5515 21.5333 18.6743C21.6561 18.7972 21.7251 18.9638 21.7251 19.1376ZM28.2764 25.6889C28.2764 25.8627 28.2074 26.0293 28.0846 26.1522C27.9617 26.275 27.7951 26.344 27.6213 26.344C27.4476 26.344 27.2809 26.275 27.1581 26.1522C27.0352 26.0293 26.9662 25.8627 26.9662 25.6889C26.9662 25.5152 27.0352 25.3485 27.1581 25.2257C27.2809 25.1028 27.4476 25.0338 27.6213 25.0338C27.7951 25.0338 27.9617 25.1028 28.0846 25.2257C28.2074 25.3485 28.2764 25.5152 28.2764 25.6889Z" stroke="#F9BA3F" stroke-width="2" stroke-linecap="round" stroke-linejoin="round"/>
</svg>
